<svg width="15" height="8" viewBox="0 0 15 8" fill="none" xmlns="http://www.w3.org/2000/svg">
<path d="M6.43016 4.06001C6.43016 3.07001 6.82016 2.18001 7.45016 1.51001H3.09016C1.61016 1.51001 0.410156 2.72001 0.410156 4.19001C0.410156 5.67001 1.62016 6.87001 3.09016 6.87001H7.50016C7.57016 6.87001 7.64016 6.85001 7.71016 6.85001C6.93016 6.17001 6.43016 5.18001 6.43016 4.06001Z" fill="#7C7C7C"/>
<path d="M10.8501 0.310059C9.7701 0.310059 8.8001 0.780058 8.1101 1.51006C7.4901 2.18006 7.1001 3.07006 7.1001 4.06006C7.1001 5.18006 7.6001 6.17006 8.3701 6.86006C9.0301 7.45006 9.8901 7.81006 10.8501 7.81006C12.9201 7.81006 14.6001 6.13006 14.6001 4.06006C14.6001 1.99006 12.9201 0.310059 10.8501 0.310059ZM10.6101 5.28006L9.4301 6.20006L9.4201 6.19006H9.4101L7.7001 3.99006L8.3801 3.46006L9.5301 4.94006L10.8201 3.94006L13.4201 1.92006L13.9901 2.65006L10.6101 5.28006Z" fill="#7C7C7C"/>
</svg>
