<svg width="239" height="71" viewBox="0 0 239 71" fill="none" xmlns="http://www.w3.org/2000/svg">
<path d="M27.1719 0.969437C26.4517 1.80038 26.3132 2.18816 26.3132 3.40688C26.3132 5.20726 26.978 6.37058 28.3906 7.03534C32.4345 8.97421 36.063 3.71156 32.7946 0.692455C32.1299 0.0830945 31.7975 0 30.0525 0C28.0859 0 28.0028 0.0276982 27.1719 0.969437Z" fill="#AD6F6C"/>
<path d="M36.7278 3.76694C36.6447 4.01623 36.5616 4.4317 36.5616 4.73638C36.5616 5.65042 35.5645 7.31231 34.3458 8.42024C33.3763 9.30658 33.2378 9.52817 33.5425 9.83285C33.7641 10.0267 38.2512 13.3228 43.5693 17.1452L53.1805 24.1251V29.6648C53.1805 32.6839 53.2636 35.1767 53.4021 35.1767C53.5129 35.149 53.9007 34.9828 54.2884 34.7612C55.2025 34.235 57.9169 34.235 59.1356 34.7335L60.1051 35.149V20.552L48.8319 12.1318C42.5998 7.5062 37.3926 3.62845 37.2264 3.51766C37.0325 3.40687 36.8109 3.51766 36.7278 3.76694Z" fill="#AD6F6C"/>
<path d="M12.0487 12.298L0.969403 20.3859L0.803214 27.5874C0.720119 31.5205 0.692421 34.8166 0.720119 34.872C0.775515 34.9274 1.19099 34.8166 1.68956 34.6504C2.93597 34.235 5.37341 34.2627 6.50904 34.7335L7.47848 35.149V29.7756C7.47848 25.51 7.56157 24.3467 7.86625 24.0143C8.08784 23.7927 12.5195 20.469 17.6991 16.6189L27.1165 9.61127L25.7593 8.33715C24.8452 7.45081 24.2636 6.59217 23.9312 5.59503C23.6542 4.81948 23.3495 4.15473 23.2664 4.18243C23.1834 4.18243 18.1423 7.83859 12.0487 12.298Z" fill="#AD6F6C"/>
<path d="M84.2025 49.3305L92.3735 49.1643L92.4566 42.7106L92.512 36.2846H98.1901C101.32 36.2846 103.951 36.2569 104.09 36.2292C104.201 36.1738 106.333 39.0821 108.854 42.6552L113.424 49.1643L117.939 49.2474C121.567 49.3028 122.426 49.2474 122.26 48.9704C122.121 48.7765 119.878 45.5358 117.246 41.7966C114.615 38.0296 112.455 34.872 112.455 34.7335C112.455 34.595 113.175 34.1242 114.061 33.6533C117.496 31.8806 120.487 27.9198 121.29 24.1528C121.678 22.3247 121.678 18.8348 121.318 16.8682C120.543 12.7135 117.413 8.69721 113.507 6.81374C109.214 4.76407 106.721 4.43169 94.257 4.43169H84.2025V49.3305ZM107.857 12.4365C109.851 13.2397 111.651 14.8462 112.51 16.5635C113.036 17.616 113.147 18.3085 113.147 20.3582C113.147 22.5186 113.036 23.0449 112.372 24.4298C111.541 26.1194 110.544 27.1165 108.799 28.0029C106.749 29.0554 104.367 29.3601 98.2732 29.3601H92.512V11.5778L99.3811 11.6886C105.779 11.7717 106.333 11.8271 107.857 12.4365Z" fill="#AD6F6C"/>
<path d="M142.507 14.8462C142.203 14.9016 141.261 15.0955 140.43 15.2617C139.599 15.4279 137.854 16.0649 136.58 16.6743C132.231 18.7516 128.963 22.9064 127.799 27.8366C127.135 30.745 127.356 35.4813 128.326 38.2235C129.766 42.2951 132.647 45.5358 136.524 47.5024C139.931 49.1919 141.178 49.4412 146.246 49.4412C150.512 49.4135 150.955 49.3858 153.005 48.6657C155.553 47.7793 156.993 46.9761 158.711 45.4804C159.874 44.4556 159.929 44.3448 159.597 43.7354C159.403 43.3753 158.434 42.212 157.492 41.1595L155.747 39.2206L154.611 40.1069C151.897 42.2674 147.991 43.2645 144.363 42.6829C140.458 42.1012 137.771 40.3008 136.303 37.3371C134.807 34.3457 133.505 34.6227 148.905 34.6227H162.395L162.228 31.4928C161.757 21.6045 155.47 15.1786 145.831 14.8185C144.308 14.7631 142.812 14.7631 142.507 14.8462ZM149.182 21.9923C151.814 23.211 153.947 25.7593 154.417 28.3075L154.611 29.36H135.389L135.583 28.3075C136.164 25.0945 139.294 22.0477 142.729 21.3276C144.529 20.9398 147.576 21.2445 149.182 21.9923Z" fill="#AD6F6C"/>
<path d="M217.569 14.9292C211.863 15.871 207.016 19.1671 204.634 23.6819C203.194 26.4794 202.668 28.6952 202.668 32.1298C202.64 37.3094 204.08 40.9102 207.459 44.3447C211.06 47.9455 215.187 49.5797 220.755 49.5797C226.377 49.5797 230.338 48.0563 233.939 44.4555C236.543 41.8796 237.927 39.3591 238.62 35.9522C240.503 26.3963 235.241 17.7268 226.073 15.3724C223.995 14.8462 219.536 14.6246 217.569 14.9292ZM225.186 22.4632C232.582 25.8977 232.914 37.6418 225.713 41.5472C223.995 42.4889 223.857 42.5166 220.755 42.5166C217.819 42.5166 217.458 42.4613 216.101 41.7411C214.218 40.744 212.667 39.1375 211.697 37.1709C210.977 35.7029 210.922 35.3705 210.922 32.1298C210.922 28.1413 211.309 26.9503 213.304 24.7898C215.575 22.3524 217.514 21.5768 221.17 21.6876C223.137 21.743 223.968 21.9092 225.186 22.4632Z" fill="#AD6F6C"/>
<path d="M164.112 15.7603C164.195 16.0649 167.214 23.1557 170.815 31.4928C174.388 39.83 177.601 47.2531 177.905 48.0009L178.459 49.3305L186.769 49.1643L193.666 33.0993C197.46 24.2636 200.729 16.6189 200.95 16.1203L201.338 15.2063L193.527 15.3725L188.237 27.6151C185.329 34.3457 182.863 39.9131 182.78 39.9962C182.697 40.0793 180.288 34.5396 177.407 27.6982L172.2 15.234H168.073C164.112 15.234 163.946 15.2617 164.112 15.7603Z" fill="#AD6F6C"/>
<path d="M26.6457 33.1547L23.2665 35.8691V53.9838L26.2856 55.7841C27.9198 56.7813 29.4709 57.6676 29.7202 57.7784C30.0248 57.8892 31.4651 57.1967 33.6533 55.9226L37.1156 53.9007V44.871L37.0879 35.8691L33.9026 33.2932C32.1576 31.8806 30.5788 30.6619 30.3572 30.5788C30.1633 30.4957 28.5014 31.659 26.6457 33.1547Z" fill="#AD6F6C"/>
<path d="M2.32668 37.2264C-1.49567 38.8883 -0.13846 44.6772 4.07167 44.6772C6.14903 44.6772 7.83862 42.9876 7.83862 40.9102C7.83862 37.9465 5.0411 36.063 2.32668 37.2264Z" fill="#AD6F6C"/>
<path d="M54.8148 37.4202C51.4633 39.3591 52.7374 44.5941 56.5874 44.6495C60.853 44.7326 62.2379 39.2206 58.4432 37.3372C57.1691 36.7001 56.0335 36.7278 54.8148 37.4202Z" fill="#AD6F6C"/>
<path d="M47.5301 53.3467C40.384 57.6676 34.4012 61.3237 34.2627 61.4622C34.1242 61.6007 34.3181 61.9885 34.7059 62.3763C36.3955 64.0659 37.1987 67.5281 36.3124 69.2177C36.1185 69.5224 36.0908 69.7994 36.2293 69.7994C36.4786 69.7994 60.0774 55.5348 60.4652 55.1471C60.576 55.0363 60.6314 52.8204 60.6037 50.2445L60.5206 45.5358L47.5301 53.3467Z" fill="#AD6F6C"/>
<path d="M0 55.2579L4.76409 58.1662C18.447 66.4756 23.9312 69.7717 24.0143 69.6886C24.0697 69.6332 23.9866 69.2732 23.8204 68.8577C23.1003 66.9465 23.8481 64.149 25.5377 62.404L26.3687 61.5454L25.3161 60.8529C23.6543 59.8281 1.30182 46.3667 0.60936 46.0067L0 45.6743V55.2579Z" fill="#AD6F6C"/>
<path d="M84.2025 63.5673C84.2025 65.9216 84.2856 66.4756 84.5903 66.4756C84.8673 66.4756 85.0335 66.0878 85.0889 65.2846C85.172 64.149 85.1997 64.1213 86.2245 64.0382C87.5817 63.9274 87.4432 63.318 86.0306 63.2072C85.0889 63.1241 85.0058 63.041 85.0889 62.3763C85.172 61.6838 85.2828 61.6284 86.64 61.5453C88.8004 61.4068 88.385 60.8252 86.0583 60.7144L84.2025 60.6313V63.5673Z" fill="#AD6F6C"/>
<path d="M93.5091 61.2406C92.872 61.7392 92.7889 61.9885 92.7889 63.6781C92.7889 65.8939 93.2875 66.5864 94.9217 66.5864C96.3897 66.5864 96.9436 65.7554 96.9436 63.5673C96.9436 61.9885 96.8605 61.7392 96.2235 61.2406C95.808 60.9083 95.1986 60.659 94.8663 60.659C94.5339 60.659 93.9245 60.9083 93.5091 61.2406ZM95.5033 61.8223C95.6972 62.0162 95.8357 62.8748 95.8357 63.7612C95.8357 65.063 95.7249 65.3954 95.2817 65.6446C94.4508 66.0878 93.6199 65.1184 93.6199 63.6504C93.6199 61.9885 94.6447 60.9636 95.5033 61.8223Z" fill="#AD6F6C"/>
<path d="M102.206 63.5673C102.206 65.9217 102.289 66.4756 102.594 66.4756C102.871 66.4756 103.037 66.0878 103.093 65.3123C103.203 63.595 103.924 63.5673 104.671 65.2015C105.059 66.1155 105.392 66.4756 105.807 66.4756H106.361L105.807 65.3677L105.225 64.2321L105.807 63.5119C106.527 62.5979 106.5 62.1547 105.669 61.3514C105.142 60.7975 104.727 60.659 103.591 60.659H102.206V63.5673ZM104.865 61.8777C105.281 62.2101 105.336 62.3763 105.087 62.7918C104.671 63.4565 103.231 63.4565 103.093 62.7918C102.843 61.573 103.785 61.1022 104.865 61.8777Z" fill="#AD6F6C"/>
<path d="M118.631 60.9913C118.382 61.296 116.886 65.8662 116.886 66.3094C116.886 66.6695 117.745 66.4479 117.883 66.0601C117.994 65.7831 118.437 65.6446 119.13 65.6446C119.85 65.6446 120.293 65.7831 120.376 66.0601C120.487 66.2817 120.792 66.4756 121.096 66.4756C121.512 66.4756 121.595 66.3371 121.457 65.9493C119.878 60.9359 119.379 60.0496 118.631 60.9913ZM119.905 64.4536C119.933 64.6752 119.628 64.8137 119.213 64.8137C118.521 64.8137 118.493 64.7583 118.687 63.7888C118.798 63.2072 118.936 62.6255 119.047 62.487C119.185 62.21 119.878 63.7612 119.905 64.4536Z" fill="#AD6F6C"/>
<path d="M132.619 60.8252C132.48 60.936 132.397 62.2655 132.397 63.7612V66.4756H134.059C135.527 66.4756 135.749 66.3925 136.192 65.7555C136.635 65.063 136.635 64.9799 136.22 64.2321C135.943 63.7889 135.86 63.3734 136.026 63.2903C136.441 63.0133 136.303 61.6007 135.86 61.213C135.361 60.7975 132.924 60.4928 132.619 60.8252ZM135.029 61.8777C135.804 62.4594 135.361 63.1518 134.198 63.1518C133.367 63.1518 133.228 63.0687 133.228 62.5148C133.228 62.1547 133.311 61.7669 133.422 61.6838C133.727 61.3791 134.475 61.4622 135.029 61.8777ZM135.112 64.2321C135.333 64.3706 135.444 64.7029 135.389 64.9799C135.333 65.3677 135.029 65.5339 134.253 65.5893C133.339 65.6724 133.228 65.617 133.228 65.0076C133.228 64.6475 133.311 64.2598 133.422 64.1767C133.671 63.8997 134.669 63.9551 135.112 64.2321Z" fill="#AD6F6C"/>
<path d="M141.732 60.8529C141.621 60.936 141.538 62.2655 141.538 63.7612V66.4756H143.477C145.028 66.4756 145.416 66.3925 145.416 66.0601C145.416 65.7555 145.083 65.6447 144.031 65.6447C142.673 65.6447 142.646 65.617 142.646 64.8137C142.646 64.0382 142.729 63.9828 143.615 63.9828C144.28 63.9828 144.585 63.8443 144.585 63.5673C144.585 63.2626 144.28 63.1518 143.587 63.1518C142.673 63.1518 142.618 63.0964 142.701 62.3763C142.784 61.6838 142.895 61.6284 144.114 61.5453C145.028 61.4899 145.416 61.3514 145.416 61.0468C145.416 60.7421 145 60.659 143.671 60.659C142.701 60.659 141.815 60.7421 141.732 60.8529Z" fill="#AD6F6C"/>
<path d="M150.401 61.0468C150.401 61.2961 150.734 61.4899 151.177 61.5453C151.925 61.6284 151.925 61.6284 152.008 64.0382C152.063 65.9217 152.174 66.4756 152.479 66.4756C152.783 66.4756 152.894 65.9217 152.949 64.0382C153.033 61.6284 153.033 61.6284 153.808 61.5453C154.224 61.4899 154.556 61.2961 154.556 61.0468C154.556 60.7421 154.085 60.659 152.479 60.659C150.872 60.659 150.401 60.7421 150.401 61.0468Z" fill="#AD6F6C"/>
<path d="M159.265 61.0468C159.265 61.2961 159.597 61.4899 160.04 61.5453C160.788 61.6284 160.788 61.6284 160.871 64.0382C160.926 65.9217 161.037 66.4756 161.342 66.4756C161.647 66.4756 161.757 65.9217 161.813 64.0382C161.896 61.6284 161.896 61.6284 162.671 61.5453C163.087 61.4899 163.419 61.2961 163.419 61.0468C163.419 60.7421 162.948 60.659 161.342 60.659C159.735 60.659 159.265 60.7421 159.265 61.0468Z" fill="#AD6F6C"/>
<path d="M168.599 60.8529C168.488 60.936 168.405 62.2655 168.405 63.7612V66.4756H170.344C171.895 66.4756 172.283 66.3925 172.283 66.0601C172.283 65.7555 171.95 65.6447 170.898 65.6447C169.541 65.6447 169.513 65.617 169.513 64.8137C169.513 64.0382 169.596 63.9828 170.482 63.9828C171.147 63.9828 171.452 63.8443 171.452 63.5673C171.452 63.2626 171.147 63.1518 170.455 63.1518C169.541 63.1518 169.485 63.0964 169.568 62.3763C169.651 61.6838 169.762 61.6284 170.981 61.5453C171.895 61.4899 172.283 61.3514 172.283 61.0468C172.283 60.7421 171.867 60.659 170.538 60.659C169.568 60.659 168.682 60.7421 168.599 60.8529Z" fill="#AD6F6C"/>
<path d="M177.545 63.5673C177.545 65.9217 177.628 66.4756 177.933 66.4756C178.21 66.4756 178.376 66.0878 178.432 65.3123C178.543 63.595 179.263 63.5673 180.011 65.2015C180.398 66.1155 180.731 66.4756 181.146 66.4756H181.7L180.592 64.2598L181.146 63.4842C182.254 61.9885 181.091 60.659 178.626 60.659H177.545V63.5673ZM180.204 61.8777C180.62 62.2101 180.675 62.3763 180.426 62.7918C180.011 63.4565 178.57 63.4565 178.432 62.7918C178.182 61.573 179.124 61.1022 180.204 61.8777Z" fill="#AD6F6C"/>
<path d="M192.502 63.5673C192.502 65.9771 192.586 66.4756 192.918 66.4756C193.223 66.4756 193.333 66.1709 193.333 65.3677C193.333 64.2875 193.361 64.2598 194.303 64.2598C195.577 64.2598 196.768 63.1518 196.519 62.2378C196.214 61.1853 195.328 60.659 193.86 60.659H192.502V63.5673ZM195.161 61.8777C195.882 62.4317 195.383 63.2626 194.192 63.3734C193.416 63.4565 193.333 63.4011 193.333 62.6533C193.333 62.2101 193.416 61.7669 193.527 61.6838C193.832 61.3791 194.58 61.4622 195.161 61.8777Z" fill="#AD6F6C"/>
<path d="M201.643 63.5673V66.4756H203.443C204.856 66.4756 205.244 66.3925 205.244 66.0601C205.244 65.7555 204.911 65.6447 203.859 65.6447H202.474V63.1518C202.474 61.1299 202.391 60.659 202.058 60.659C201.726 60.659 201.643 61.1576 201.643 63.5673Z" fill="#AD6F6C"/>
<path d="M212.03 60.9914C211.753 61.7392 210.229 66.3094 210.229 66.3925C210.229 66.6972 211.309 66.3925 211.448 66.0601C211.67 65.4785 213.719 65.4785 213.941 66.0601C214.079 66.4756 214.938 66.6418 214.938 66.254C214.938 65.8939 213.553 61.7392 213.248 61.1852C212.944 60.5759 212.224 60.4928 212.03 60.9914ZM213.138 63.7612C213.331 64.7583 213.304 64.8137 212.611 64.8137C211.78 64.8137 211.78 64.8137 212.224 63.3734C212.584 62.1547 212.861 62.2655 213.138 63.7612Z" fill="#AD6F6C"/>
<path d="M220.533 61.1298C219.813 61.7115 219.48 63.3734 219.757 64.9522C219.924 65.7554 220.145 66.0324 220.893 66.3648C222.223 66.9188 223.801 66.1986 223.801 65.0353C223.801 64.3705 223.386 64.3982 222.887 65.1184C222.583 65.5061 222.25 65.6723 221.696 65.5892C220.921 65.5062 220.893 65.4508 220.81 63.8997C220.699 61.6284 221.53 60.7698 222.61 62.0439C223.164 62.6809 223.801 62.764 223.801 62.2378C223.801 60.9636 221.641 60.2158 220.533 61.1298Z" fill="#AD6F6C"/>
<path d="M229.258 60.8529C229.147 60.936 229.064 62.2655 229.064 63.7612V66.4756H231.003C232.554 66.4756 232.942 66.3925 232.942 66.0601C232.942 65.7278 232.582 65.6447 231.391 65.6447C229.895 65.6447 229.867 65.6447 229.95 64.8691C230.033 64.2321 230.172 64.1213 231.086 64.0382C232.443 63.9274 232.305 63.318 230.892 63.2072C229.95 63.1241 229.867 63.041 229.95 62.3763C230.033 61.6838 230.144 61.6284 231.501 61.5453C232.526 61.4899 232.942 61.3514 232.942 61.0468C232.942 60.7421 232.526 60.659 231.197 60.659C230.227 60.659 229.341 60.7421 229.258 60.8529Z" fill="#AD6F6C"/>
<path d="M28.0583 63.7058C25.8701 65.0353 25.7039 68.7469 27.7536 70.1872C28.169 70.4919 29 70.6303 30.191 70.6303C31.8252 70.6303 32.1022 70.5472 32.7392 69.8548C34.2073 68.276 34.4565 66.7249 33.5148 65.1461C32.3515 63.2626 29.8586 62.5979 28.0583 63.7058Z" fill="#AD6F6C"/>
<path d="M238.066 65.617C237.844 66.0324 238.149 66.4756 238.648 66.4756C238.897 66.4756 239.035 66.2817 238.98 66.0047C238.869 65.4508 238.315 65.2292 238.066 65.617Z" fill="#AD6F6C"/>
</svg>
