<svg width="16" height="16" viewBox="0 0 16 16" fill="none" xmlns="http://www.w3.org/2000/svg">
<g clip-path="url(#clip0_2_130529)">
<path d="M8.00007 0.880127C4.03007 0.880127 0.820068 4.10013 0.820068 8.06013C0.820068 12.0201 4.04007 15.2401 8.00007 15.2401C11.9601 15.2401 15.1801 12.0201 15.1801 8.06013C15.1801 4.10013 11.9701 0.880127 8.00007 0.880127ZM12.9701 4.85013H12.9601H12.9501H12.9401C12.0001 4.95013 11.0701 5.41013 10.2101 6.05013C9.34007 6.71013 8.54007 7.54013 7.86007 8.37013C7.18007 9.20013 6.61007 10.0301 6.21007 10.6701C5.80007 11.3101 5.56007 11.7601 5.51007 11.8401L4.63007 11.1401L3.03007 8.37013L4.85007 9.29013C4.86007 9.27013 4.88007 9.25013 4.89007 9.23013C4.90007 9.22013 4.92007 9.20013 4.93007 9.18013C4.94007 9.16013 4.96007 9.14013 4.97007 9.12013C4.99007 9.10013 5.01007 9.08013 5.02007 9.06013C5.09007 8.97013 5.16007 8.88013 5.22007 8.79013C5.28007 8.72013 5.33007 8.65013 5.38007 8.58013C5.40007 8.57013 5.40007 8.56013 5.41007 8.55013C5.42007 8.54013 5.42007 8.53013 5.43007 8.53013C5.50007 8.45013 5.56007 8.36013 5.63007 8.28013C5.70007 8.20013 5.76007 8.12013 5.83007 8.04013C5.86007 8.00013 5.90007 7.96013 5.93007 7.92013C5.94007 7.91013 5.94007 7.90013 5.95007 7.90013C5.96007 7.88013 5.97007 7.86013 5.99007 7.85013C6.04007 7.78013 6.09007 7.72013 6.15007 7.66013C6.20007 7.59013 6.25007 7.53013 6.31007 7.47013C6.36007 7.42013 6.40007 7.37013 6.45007 7.32013L6.46007 7.31013L6.47007 7.30013C6.52007 7.25013 6.56007 7.20013 6.61007 7.15013C6.66007 7.10013 6.70007 7.05013 6.74007 7.01013C6.78007 6.97013 6.82007 6.91013 6.87007 6.86013C6.89007 6.84013 6.92007 6.81013 6.94007 6.79013L6.95007 6.78013C6.95007 6.78013 6.96007 6.78013 6.96007 6.77013C6.97007 6.76013 6.98007 6.75013 7.00007 6.73013C7.04007 6.69013 7.08007 6.65013 7.12007 6.61013C7.16007 6.57013 7.20007 6.53013 7.24007 6.50013C7.27007 6.46013 7.31007 6.43013 7.35007 6.39013C7.37007 6.37013 7.39007 6.35013 7.42007 6.33013L7.43007 6.32013C7.44007 6.31013 7.46007 6.30013 7.47007 6.28013C7.50007 6.25013 7.54007 6.22013 7.57007 6.19013C7.60007 6.16013 7.64007 6.13013 7.67007 6.10013C7.70007 6.07013 7.74007 6.04013 7.77007 6.01013C7.80007 5.98013 7.84007 5.95013 7.87007 5.92013C7.87007 5.92013 7.87007 5.92013 7.88007 5.91013C7.91007 5.89013 7.94007 5.86013 7.96007 5.84013C7.99007 5.81013 8.02007 5.79013 8.05007 5.76013C8.07007 5.74013 8.10007 5.72013 8.13007 5.70013C8.16007 5.68013 8.19007 5.65013 8.22007 5.63013C8.24007 5.60013 8.27007 5.58013 8.30007 5.56013C8.33007 5.54013 8.35007 5.52013 8.38007 5.50013C8.41007 5.48013 8.43007 5.46013 8.46007 5.44013C8.49007 5.42013 8.51007 5.40013 8.54007 5.38013C8.56007 5.36013 8.59007 5.34013 8.61007 5.32013C8.63007 5.30013 8.66007 5.28013 8.68007 5.27013C8.68007 5.27013 8.69007 5.27013 8.69007 5.26013C8.71007 5.24013 8.73007 5.23013 8.76007 5.21013C8.78007 5.19013 8.81007 5.18013 8.83007 5.16013C8.86007 5.15013 8.88007 5.14013 8.90007 5.12013C8.92007 5.10013 8.95007 5.09013 8.97007 5.08013C9.00007 5.06013 9.02007 5.05013 9.04007 5.03013C9.06007 5.02013 9.08007 5.00013 9.11007 4.99013C9.13007 4.98013 9.15007 4.96013 9.18007 4.95013C9.20007 4.94013 9.22007 4.92013 9.24007 4.91013C9.26007 4.90013 9.28007 4.89013 9.30007 4.88013C9.32007 4.87013 9.34007 4.86013 9.36007 4.84013C9.38007 4.83013 9.40007 4.82013 9.42007 4.81013C9.42007 4.81013 9.43007 4.81013 9.43007 4.80013C9.45007 4.79013 9.46007 4.78013 9.48007 4.77013C9.51007 4.76013 9.53007 4.75013 9.55007 4.74013C9.57007 4.73013 9.58007 4.72013 9.60007 4.71013C9.62007 4.70013 9.64007 4.69013 9.66007 4.68013C9.68007 4.67013 9.70007 4.66013 9.72007 4.65013C9.74007 4.64013 9.76007 4.63013 9.78007 4.62013C9.80007 4.62013 9.82007 4.61013 9.83007 4.60013C9.85007 4.59013 9.87007 4.58013 9.89007 4.57013C9.91007 4.56013 9.93007 4.56013 9.95007 4.55013C9.97007 4.54013 9.98007 4.54013 10.0001 4.53013C10.0201 4.52013 10.0401 4.51013 10.0501 4.51013C10.0601 4.51013 10.0701 4.50013 10.0701 4.50013C10.0801 4.50013 10.0901 4.49013 10.1001 4.49013C10.1301 4.48013 10.1501 4.47013 10.1701 4.46013C10.1901 4.45013 10.2001 4.45013 10.2201 4.44013C10.2401 4.43013 10.2601 4.43013 10.2701 4.42013C10.2901 4.41013 10.3101 4.41013 10.3301 4.40013C10.3501 4.39013 10.3701 4.39013 10.3801 4.38013C10.4001 4.38013 10.4201 4.38013 10.4401 4.37013C10.4601 4.36013 10.4701 4.36013 10.4901 4.36013C10.5101 4.35013 10.5301 4.35013 10.5501 4.34013C10.5701 4.33013 10.5901 4.33013 10.6001 4.33013C10.6101 4.33013 10.6201 4.33013 10.6301 4.32013C10.6401 4.32013 10.6401 4.32013 10.6501 4.31013C10.6701 4.31013 10.6901 4.30013 10.7001 4.30013C10.7201 4.30013 10.7401 4.29013 10.7601 4.29013C10.7801 4.29013 10.8001 4.28013 10.8201 4.28013C10.8401 4.28013 10.8601 4.27013 10.8801 4.27013C10.9001 4.27013 10.9201 4.26013 10.9301 4.26013C10.9401 4.26013 10.9601 4.26013 10.9701 4.25013C10.9801 4.25013 11.0001 4.25013 11.0101 4.24013C11.0201 4.24013 11.0401 4.24013 11.0501 4.24013C11.0601 4.24013 11.0801 4.24013 11.0901 4.24013C11.1001 4.24013 11.1101 4.24013 11.1101 4.24013H11.1301C11.1401 4.24013 11.1501 4.24013 11.1501 4.24013C11.1601 4.24013 11.1701 4.24013 11.1701 4.24013C11.2001 4.24013 11.2301 4.24013 11.2601 4.24013C11.2901 4.24013 11.3201 4.24013 11.3401 4.24013C11.3701 4.24013 11.3901 4.24013 11.4201 4.24013C11.4301 4.24013 11.4301 4.24013 11.4401 4.24013C11.4501 4.24013 11.4701 4.24013 11.4801 4.24013C11.5301 4.24013 11.5701 4.25013 11.6101 4.25013C11.6401 4.25013 11.6601 4.26013 11.6801 4.26013H11.6901C11.6901 4.26013 11.6901 4.26013 11.7001 4.26013H11.7101C11.7401 4.27013 11.7701 4.27013 11.7901 4.28013C11.8101 4.29013 11.8301 4.29013 11.8401 4.30013C11.8501 4.30013 11.8601 4.31013 11.8601 4.31013C11.8601 4.31013 11.8701 4.31013 11.8801 4.32013H11.8901C11.8901 4.32013 11.8901 4.32013 11.9001 4.32013L12.9501 4.84013C12.9801 4.85013 12.9801 4.85013 12.9701 4.85013Z" fill="#7C7C7C"/>
</g>
<defs>
<clipPath id="clip0_2_130529">
<rect width="15" height="15" fill="white" transform="translate(0.5 0.560059)"/>
</clipPath>
</defs>
</svg>
