<svg width="83" height="83" viewBox="0 0 83 83" fill="none" xmlns="http://www.w3.org/2000/svg">
<g filter="url(#filter0_d_1088_22124)">
<rect x="8.43994" y="7" width="66.48" height="66.48" rx="7.56" fill="white" shape-rendering="crispEdges"/>
<path d="M51.168 35.9874C49.9197 35.9874 48.6995 36.3576 47.6616 37.0511C46.6236 37.7446 45.8147 38.7303 45.337 39.8836C44.8593 41.0368 44.7343 42.3058 44.9778 43.5301C45.2213 44.7544 45.8225 45.879 46.7051 46.7617C47.5878 47.6443 48.7124 48.2455 49.9367 48.489C51.161 48.7325 52.4301 48.6075 53.5833 48.1298C54.7366 47.6521 55.7223 46.8432 56.4158 45.8053C57.1094 44.7674 57.4795 43.5471 57.4795 42.2988C57.4795 40.6249 56.8146 39.0196 55.6309 37.836C54.4473 36.6524 52.8419 35.9874 51.168 35.9874ZM53.6926 41.5415L51.0623 44.1717C50.989 44.2452 50.902 44.3035 50.8061 44.3433C50.7103 44.3831 50.6075 44.4035 50.5037 44.4035C50.4 44.4035 50.2972 44.3831 50.2014 44.3433C50.1055 44.3035 50.0185 44.2452 49.9452 44.1717L48.6308 42.8574C48.5575 42.784 48.4993 42.697 48.4596 42.6011C48.4199 42.5053 48.3994 42.4026 48.3994 42.2988C48.3994 42.1951 48.4199 42.0924 48.4596 41.9965C48.4993 41.9007 48.5575 41.8136 48.6308 41.7403C48.7042 41.6669 48.7912 41.6087 48.8871 41.569C48.9829 41.5293 49.0856 41.5089 49.1894 41.5089C49.2931 41.5089 49.3958 41.5293 49.4917 41.569C49.5875 41.6087 49.6746 41.6669 49.7479 41.7403L50.5037 42.4976L52.5881 40.4259C52.736 40.2778 52.9368 40.1945 53.1461 40.1943C53.3555 40.1942 53.5563 40.2772 53.7045 40.4251C53.8526 40.5731 53.9359 40.7738 53.9361 40.9831C53.9362 41.1925 53.8532 41.3933 53.7052 41.5415H53.6926ZM53.8504 27.7037H26.3954C26.2699 27.7037 26.1495 27.7535 26.0607 27.8423C25.972 27.9311 25.9221 28.0515 25.9221 28.177V40.721C25.8303 41.364 25.8895 42.0195 26.095 42.6356C26.3004 43.2518 26.6465 43.8116 27.1057 44.2709C27.565 44.7302 28.1249 45.0762 28.741 45.2816C29.3572 45.4871 30.0127 45.5463 30.6557 45.4545H42.4266C42.5001 45.453 42.5722 45.4344 42.6373 45.4002C42.7024 45.366 42.7585 45.3171 42.8014 45.2573C42.8443 45.1976 42.8727 45.1288 42.8843 45.0562C42.8959 44.9836 42.8905 44.9093 42.8684 44.8392C42.5784 43.8839 42.4556 42.8857 42.5055 41.8886C42.6365 39.7423 43.5483 37.7181 45.0692 36.1978C46.59 34.6776 48.6145 33.7665 50.7609 33.6364C51.757 33.5864 52.7542 33.7092 53.7084 33.9993C53.7785 34.0214 53.8528 34.0268 53.9254 34.0152C53.998 34.0036 54.0669 33.9752 54.1266 33.9323C54.1863 33.8894 54.2352 33.8332 54.2694 33.7682C54.3037 33.7031 54.3223 33.631 54.3238 33.5575V28.177C54.3238 28.0515 54.2739 27.9311 54.1851 27.8423C54.0964 27.7535 53.976 27.7037 53.8504 27.7037ZM33.843 40.721C33.4245 40.7231 33.0223 40.5588 32.725 40.2644C32.4276 39.97 32.2593 39.5695 32.2572 39.151C32.2551 38.7325 32.4194 38.3304 32.7138 38.033C33.0082 37.7356 33.4087 37.5674 33.8272 37.5653H33.843C34.2615 37.5653 34.6628 37.7315 34.9587 38.0274C35.2546 38.3233 35.4209 38.7246 35.4209 39.1431C35.4209 39.5616 35.2546 39.9629 34.9587 40.2588C34.6628 40.5547 34.2615 40.721 33.843 40.721ZM33.843 34.4096C33.4245 34.4116 33.0223 34.2474 32.725 33.953C32.4276 33.6586 32.2593 33.2581 32.2572 32.8396C32.2551 32.4211 32.4194 32.0189 32.7138 31.7216C33.0082 31.4242 33.4087 31.2559 33.8272 31.2538H33.843C34.2615 31.2538 34.6628 31.4201 34.9587 31.716C35.2546 32.0119 35.4209 32.4132 35.4209 32.8317C35.4209 33.2502 35.2546 33.6515 34.9587 33.9474C34.6628 34.2433 34.2615 34.4096 33.843 34.4096ZM40.1545 34.4096C39.736 34.4116 39.3338 34.2474 39.0365 33.953C38.7391 33.6586 38.5708 33.2581 38.5687 32.8396C38.5666 32.4211 38.7309 32.0189 39.0253 31.7216C39.3197 31.4242 39.7202 31.2559 40.1387 31.2538H40.1545C40.573 31.2538 40.9743 31.4201 41.2702 31.716C41.5661 32.0119 41.7324 32.4132 41.7324 32.8317C41.7324 33.2502 41.5661 33.6515 41.2702 33.9474C40.9743 34.2433 40.573 34.4096 40.1545 34.4096ZM54.3238 24.1535V24.8635C54.3238 24.9891 54.2739 25.1095 54.1851 25.1982C54.0964 25.287 53.976 25.3369 53.8504 25.3369H26.3954C26.2699 25.3369 26.1495 25.287 26.0607 25.1982C25.972 25.1095 25.9221 24.9891 25.9221 24.8635V24.1535C25.8303 23.5105 25.8895 22.855 26.095 22.2388C26.3004 21.6227 26.6465 21.0628 27.1057 20.6036C27.565 20.1443 28.1249 19.7983 28.741 19.5928C29.3572 19.3874 30.0127 19.3282 30.6557 19.4199H32.628V17.0531C32.628 16.7393 32.7527 16.4383 32.9746 16.2164C33.1966 15.9944 33.4976 15.8697 33.8114 15.8697C34.1253 15.8697 34.4263 15.9944 34.6482 16.2164C34.8702 16.4383 34.9948 16.7393 34.9948 17.0531V19.4199H45.251V17.0531C45.251 16.7393 45.3757 16.4383 45.5976 16.2164C45.8196 15.9944 46.1206 15.8697 46.4344 15.8697C46.7483 15.8697 47.0493 15.9944 47.2712 16.2164C47.4931 16.4383 47.6178 16.7393 47.6178 17.0531V19.4199H49.5902C50.2331 19.3282 50.8887 19.3874 51.5048 19.5928C52.121 19.7983 52.6808 20.1443 53.1401 20.6036C53.5994 21.0628 53.9454 21.6227 54.1509 22.2388C54.3563 22.855 54.4155 23.5105 54.3238 24.1535Z" fill="#9A4D49"/>
<path d="M15.822 57.0644L13.9104 62.6103H12.7546L15.1628 56.2118H15.9011L15.822 57.0644ZM17.4216 62.6103L15.5056 57.0644L15.4221 56.2118H16.1648L18.5818 62.6103H17.4216ZM17.3293 60.2372V61.1117H13.8489V60.2372H17.3293ZM21.3767 56.2118V62.6103H20.2825V56.2118H21.3767ZM23.385 56.2118V57.0907H18.2917V56.2118H23.385ZM26.9314 56.2118V62.6103H25.8372V56.2118H26.9314ZM28.9397 56.2118V57.0907H23.8464V56.2118H28.9397ZM33.9714 61.7357V62.6103H30.5745V61.7357H33.9714ZM30.8865 56.2118V62.6103H29.7834V56.2118H30.8865ZM33.5276 58.8837V59.745H30.5745V58.8837H33.5276ZM33.9495 56.2118V57.0907H30.5745V56.2118H33.9495ZM39.948 56.2118V62.6103H38.845L35.9753 58.0268V62.6103H34.8723V56.2118H35.9753L38.8538 60.8041V56.2118H39.948ZM43.1208 62.6103H41.7542L41.7629 61.7357H43.1208C43.5164 61.7357 43.8474 61.6493 44.114 61.4765C44.3835 61.3036 44.5857 61.0561 44.7205 60.7338C44.8582 60.4115 44.927 60.0277 44.927 59.5824V59.2353C44.927 58.8896 44.8875 58.5834 44.8083 58.3168C44.7322 58.0502 44.6179 57.8261 44.4656 57.6444C44.3162 57.4628 44.1316 57.3251 43.9119 57.2314C43.6951 57.1376 43.4446 57.0907 43.1604 57.0907H41.7278V56.2118H43.1604C43.5852 56.2118 43.9734 56.2836 44.325 56.4272C44.6765 56.5678 44.9797 56.7714 45.2346 57.038C45.4924 57.3046 45.6902 57.6239 45.8279 57.996C45.9656 58.3681 46.0344 58.7841 46.0344 59.244V59.5824C46.0344 60.0424 45.9656 60.4584 45.8279 60.8305C45.6902 61.2025 45.4924 61.5219 45.2346 61.7885C44.9768 62.0522 44.6692 62.2558 44.3118 62.3993C43.9573 62.5399 43.5603 62.6103 43.1208 62.6103ZM42.365 56.2118V62.6103H41.262V56.2118H42.365ZM49.5369 57.0644L47.6252 62.6103H46.4695L48.8777 56.2118H49.616L49.5369 57.0644ZM51.1365 62.6103L49.2205 57.0644L49.137 56.2118H49.8796L52.2966 62.6103H51.1365ZM51.0442 60.2372V61.1117H47.5637V60.2372H51.0442ZM58.0886 56.2118V62.6103H56.9856L54.116 58.0268V62.6103H53.0129V56.2118H54.116L56.9944 60.8041V56.2118H58.0886ZM63.1819 60.5273H64.2805C64.2454 60.9462 64.1282 61.3197 63.929 61.6479C63.7297 61.9731 63.45 62.2294 63.0896 62.4169C62.7292 62.6044 62.2913 62.6982 61.7756 62.6982C61.3801 62.6982 61.0242 62.6278 60.7078 62.4872C60.3914 62.3437 60.1204 62.1415 59.8948 61.8808C59.6692 61.6171 59.4963 61.2992 59.3762 60.9272C59.259 60.5551 59.2004 60.1391 59.2004 59.6791V59.1474C59.2004 58.6874 59.2605 58.2714 59.3806 57.8993C59.5037 57.5273 59.6794 57.2094 59.908 56.9457C60.1365 56.6791 60.4104 56.4755 60.7297 56.3349C61.052 56.1942 61.4138 56.1239 61.8152 56.1239C62.325 56.1239 62.7556 56.2177 63.1072 56.4052C63.4587 56.5927 63.7312 56.852 63.9246 57.183C64.1208 57.5141 64.241 57.8935 64.2849 58.3212H63.1863C63.157 58.0458 63.0925 57.81 62.9929 57.6137C62.8962 57.4174 62.7527 57.268 62.5623 57.1654C62.3718 57.06 62.1228 57.0072 61.8152 57.0072C61.5632 57.0072 61.3435 57.0541 61.156 57.1479C60.9685 57.2416 60.8118 57.3793 60.6858 57.5609C60.5598 57.7426 60.4646 57.9667 60.4001 58.2333C60.3386 58.497 60.3079 58.7987 60.3079 59.1386V59.6791C60.3079 60.0014 60.3357 60.2943 60.3914 60.558C60.45 60.8188 60.5378 61.0429 60.655 61.2304C60.7751 61.4179 60.9275 61.5629 61.1121 61.6654C61.2966 61.768 61.5178 61.8192 61.7756 61.8192C62.0891 61.8192 62.3425 61.7694 62.5359 61.6698C62.7322 61.5702 62.8801 61.4252 62.9797 61.2348C63.0823 61.0414 63.1497 60.8056 63.1819 60.5273ZM69.4705 61.7357V62.6103H66.0735V61.7357H69.4705ZM66.3855 56.2118V62.6103H65.2825V56.2118H66.3855ZM69.0266 58.8837V59.745H66.0735V58.8837H69.0266ZM69.4485 56.2118V57.0907H66.0735V56.2118H69.4485Z" fill="#9A4D49"/>
</g>
<defs>
<filter id="filter0_d_1088_22124" x="0.439941" y="0" width="82.48" height="82.48" filterUnits="userSpaceOnUse" color-interpolation-filters="sRGB">
<feFlood flood-opacity="0" result="BackgroundImageFix"/>
<feColorMatrix in="SourceAlpha" type="matrix" values="0 0 0 0 0 0 0 0 0 0 0 0 0 0 0 0 0 0 127 0" result="hardAlpha"/>
<feOffset dy="1"/>
<feGaussianBlur stdDeviation="4"/>
<feComposite in2="hardAlpha" operator="out"/>
<feColorMatrix type="matrix" values="0 0 0 0 0 0 0 0 0 0 0 0 0 0 0 0 0 0 0.1 0"/>
<feBlend mode="normal" in2="BackgroundImageFix" result="effect1_dropShadow_1088_22124"/>
<feBlend mode="normal" in="SourceGraphic" in2="effect1_dropShadow_1088_22124" result="shape"/>
</filter>
</defs>
</svg>
