<svg width="67" height="67" viewBox="0 0 67 67" fill="none" xmlns="http://www.w3.org/2000/svg">
<path d="M43.168 28.9874C41.9197 28.9874 40.6995 29.3576 39.6616 30.0511C38.6236 30.7446 37.8147 31.7303 37.337 32.8836C36.8593 34.0368 36.7343 35.3058 36.9778 36.5301C37.2213 37.7544 37.8225 38.879 38.7051 39.7617C39.5878 40.6444 40.7124 41.2455 41.9367 41.489C43.161 41.7325 44.4301 41.6075 45.5833 41.1298C46.7366 40.6521 47.7223 39.8432 48.4158 38.8053C49.1094 37.7674 49.4795 36.5471 49.4795 35.2988C49.4795 33.6249 48.8146 32.0196 47.6309 30.836C46.4473 29.6524 44.8419 28.9874 43.168 28.9874ZM45.6926 34.5415L43.0623 37.1718C42.989 37.2452 42.902 37.3035 42.8061 37.3433C42.7103 37.3831 42.6075 37.4035 42.5037 37.4035C42.4 37.4035 42.2972 37.3831 42.2014 37.3433C42.1055 37.3035 42.0185 37.2452 41.9452 37.1718L40.6308 35.8574C40.5575 35.784 40.4993 35.697 40.4596 35.6011C40.4199 35.5053 40.3994 35.4026 40.3994 35.2988C40.3994 35.1951 40.4199 35.0924 40.4596 34.9965C40.4993 34.9007 40.5575 34.8136 40.6308 34.7403C40.7042 34.6669 40.7912 34.6087 40.8871 34.569C40.9829 34.5293 41.0856 34.5089 41.1894 34.5089C41.2931 34.5089 41.3958 34.5293 41.4917 34.569C41.5875 34.6087 41.6746 34.6669 41.7479 34.7403L42.5037 35.4976L44.5881 33.4259C44.736 33.2778 44.9368 33.1945 45.1461 33.1943C45.3555 33.1942 45.5563 33.2772 45.7045 33.4251C45.8526 33.5731 45.9359 33.7738 45.9361 33.9831C45.9362 34.1925 45.8532 34.3933 45.7052 34.5415H45.6926ZM45.8504 20.7037H18.3954C18.2699 20.7037 18.1495 20.7535 18.0607 20.8423C17.972 20.9311 17.9221 21.0515 17.9221 21.177V33.721C17.8303 34.364 17.8895 35.0195 18.095 35.6356C18.3004 36.2518 18.6465 36.8116 19.1057 37.2709C19.565 37.7302 20.1249 38.0762 20.741 38.2817C21.3572 38.4871 22.0127 38.5463 22.6557 38.4545H34.4266C34.5001 38.453 34.5722 38.4344 34.6373 38.4002C34.7024 38.366 34.7585 38.3171 34.8014 38.2574C34.8443 38.1976 34.8727 38.1288 34.8843 38.0562C34.8959 37.9836 34.8905 37.9093 34.8684 37.8392C34.5784 36.8839 34.4556 35.8857 34.5055 34.8886C34.6365 32.7423 35.5483 30.7181 37.0692 29.1978C38.59 27.6776 40.6145 26.7665 42.7609 26.6364C43.757 26.5864 44.7542 26.7092 45.7084 26.9993C45.7785 27.0214 45.8528 27.0268 45.9254 27.0152C45.998 27.0036 46.0669 26.9752 46.1266 26.9323C46.1863 26.8894 46.2352 26.8333 46.2694 26.7682C46.3037 26.7031 46.3223 26.631 46.3238 26.5575V21.177C46.3238 21.0515 46.2739 20.9311 46.1851 20.8423C46.0964 20.7535 45.976 20.7037 45.8504 20.7037ZM25.843 33.721C25.4245 33.7231 25.0223 33.5588 24.725 33.2644C24.4276 32.97 24.2593 32.5695 24.2572 32.151C24.2551 31.7325 24.4194 31.3304 24.7138 31.033C25.0082 30.7356 25.4087 30.5674 25.8272 30.5653H25.843C26.2615 30.5653 26.6628 30.7315 26.9587 31.0274C27.2546 31.3233 27.4209 31.7247 27.4209 32.1431C27.4209 32.5616 27.2546 32.9629 26.9587 33.2588C26.6628 33.5547 26.2615 33.721 25.843 33.721ZM25.843 27.4096C25.4245 27.4117 25.0223 27.2474 24.725 26.953C24.4276 26.6586 24.2593 26.2581 24.2572 25.8396C24.2551 25.4211 24.4194 25.019 24.7138 24.7216C25.0082 24.4242 25.4087 24.2559 25.8272 24.2538H25.843C26.2615 24.2538 26.6628 24.4201 26.9587 24.716C27.2546 25.0119 27.4209 25.4132 27.4209 25.8317C27.4209 26.2502 27.2546 26.6515 26.9587 26.9474C26.6628 27.2433 26.2615 27.4096 25.843 27.4096ZM32.1545 27.4096C31.736 27.4117 31.3338 27.2474 31.0365 26.953C30.7391 26.6586 30.5708 26.2581 30.5687 25.8396C30.5666 25.4211 30.7309 25.019 31.0253 24.7216C31.3197 24.4242 31.7202 24.2559 32.1387 24.2538H32.1545C32.573 24.2538 32.9743 24.4201 33.2702 24.716C33.5661 25.0119 33.7324 25.4132 33.7324 25.8317C33.7324 26.2502 33.5661 26.6515 33.2702 26.9474C32.9743 27.2433 32.573 27.4096 32.1545 27.4096ZM46.3238 17.1535V17.8635C46.3238 17.9891 46.2739 18.1095 46.1851 18.1982C46.0964 18.287 45.976 18.3369 45.8504 18.3369H18.3954C18.2699 18.3369 18.1495 18.287 18.0607 18.1982C17.972 18.1095 17.9221 17.9891 17.9221 17.8635V17.1535C17.8303 16.5105 17.8895 15.855 18.095 15.2389C18.3004 14.6227 18.6465 14.0628 19.1057 13.6036C19.565 13.1443 20.1249 12.7983 20.741 12.5928C21.3572 12.3874 22.0127 12.3282 22.6557 12.4199H24.628V10.0531C24.628 9.73929 24.7527 9.43829 24.9746 9.21636C25.1966 8.99443 25.4976 8.86975 25.8114 8.86975C26.1253 8.86975 26.4263 8.99443 26.6482 9.21636C26.8702 9.43829 26.9948 9.73929 26.9948 10.0531V12.4199H37.251V10.0531C37.251 9.73929 37.3757 9.43829 37.5976 9.21636C37.8196 8.99443 38.1206 8.86975 38.4344 8.86975C38.7483 8.86975 39.0493 8.99443 39.2712 9.21636C39.4931 9.43829 39.6178 9.73929 39.6178 10.0531V12.4199H41.5902C42.2331 12.3282 42.8887 12.3874 43.5048 12.5928C44.121 12.7983 44.6808 13.1443 45.1401 13.6036C45.5994 14.0628 45.9454 14.6227 46.1509 15.2389C46.3563 15.855 46.4155 16.5105 46.3238 17.1535Z" fill="#898989"/>
<path d="M7.82202 50.0643L5.9104 55.6102H4.75464L7.16284 49.2118H7.90112L7.82202 50.0643ZM9.42163 55.6102L7.50562 50.0643L7.42212 49.2118H8.16479L10.5818 55.6102H9.42163ZM9.32935 53.2372V54.1117H5.84888V53.2372H9.32935ZM13.3767 49.2118V55.6102H12.2825V49.2118H13.3767ZM15.385 49.2118V50.0907H10.2917V49.2118H15.385ZM18.9314 49.2118V55.6102H17.8372V49.2118H18.9314ZM20.9397 49.2118V50.0907H15.8464V49.2118H20.9397ZM25.9714 54.7357V55.6102H22.5745V54.7357H25.9714ZM22.8865 49.2118V55.6102H21.7834V49.2118H22.8865ZM25.5276 51.8837V52.745H22.5745V51.8837H25.5276ZM25.9495 49.2118V50.0907H22.5745V49.2118H25.9495ZM31.948 49.2118V55.6102H30.845L27.9753 51.0267V55.6102H26.8723V49.2118H27.9753L30.8538 53.8041V49.2118H31.948ZM35.1208 55.6102H33.7542L33.7629 54.7357H35.1208C35.5164 54.7357 35.8474 54.6493 36.114 54.4764C36.3835 54.3036 36.5857 54.056 36.7205 53.7338C36.8582 53.4115 36.927 53.0277 36.927 52.5824V52.2352C36.927 51.8895 36.8875 51.5834 36.8083 51.3168C36.7322 51.0502 36.6179 50.826 36.4656 50.6444C36.3162 50.4628 36.1316 50.3251 35.9119 50.2313C35.6951 50.1376 35.4446 50.0907 35.1604 50.0907H33.7278V49.2118H35.1604C35.5852 49.2118 35.9734 49.2836 36.325 49.4271C36.6765 49.5677 36.9797 49.7714 37.2346 50.038C37.4924 50.3046 37.6902 50.6239 37.8279 50.996C37.9656 51.368 38.0344 51.7841 38.0344 52.244V52.5824C38.0344 53.0424 37.9656 53.4584 37.8279 53.8304C37.6902 54.2025 37.4924 54.5219 37.2346 54.7885C36.9768 55.0521 36.6692 55.2557 36.3118 55.3993C35.9573 55.5399 35.5603 55.6102 35.1208 55.6102ZM34.365 49.2118V55.6102H33.262V49.2118H34.365ZM41.5369 50.0643L39.6252 55.6102H38.4695L40.8777 49.2118H41.616L41.5369 50.0643ZM43.1365 55.6102L41.2205 50.0643L41.137 49.2118H41.8796L44.2966 55.6102H43.1365ZM43.0442 53.2372V54.1117H39.5637V53.2372H43.0442ZM50.0886 49.2118V55.6102H48.9856L46.116 51.0267V55.6102H45.0129V49.2118H46.116L48.9944 53.8041V49.2118H50.0886ZM55.1819 53.5272H56.2805C56.2454 53.9462 56.1282 54.3197 55.929 54.6478C55.7297 54.973 55.45 55.2294 55.0896 55.4169C54.7292 55.6044 54.2913 55.6981 53.7756 55.6981C53.3801 55.6981 53.0242 55.6278 52.7078 55.4872C52.3914 55.3436 52.1204 55.1415 51.8948 54.8807C51.6692 54.6171 51.4963 54.2992 51.3762 53.9271C51.259 53.5551 51.2004 53.139 51.2004 52.6791V52.1473C51.2004 51.6874 51.2605 51.2714 51.3806 50.8993C51.5037 50.5272 51.6794 50.2094 51.908 49.9457C52.1365 49.6791 52.4104 49.4755 52.7297 49.3348C53.052 49.1942 53.4138 49.1239 53.8152 49.1239C54.325 49.1239 54.7556 49.2177 55.1072 49.4052C55.4587 49.5927 55.7312 49.8519 55.9246 50.183C56.1208 50.514 56.241 50.8934 56.2849 51.3212H55.1863C55.157 51.0458 55.0925 50.8099 54.9929 50.6136C54.8962 50.4174 54.7527 50.2679 54.5623 50.1654C54.3718 50.0599 54.1228 50.0072 53.8152 50.0072C53.5632 50.0072 53.3435 50.0541 53.156 50.1478C52.9685 50.2416 52.8118 50.3793 52.6858 50.5609C52.5598 50.7426 52.4646 50.9667 52.4001 51.2333C52.3386 51.4969 52.3079 51.7987 52.3079 52.1385V52.6791C52.3079 53.0013 52.3357 53.2943 52.3914 53.558C52.45 53.8187 52.5378 54.0428 52.655 54.2303C52.7751 54.4178 52.9275 54.5629 53.1121 54.6654C53.2966 54.7679 53.5178 54.8192 53.7756 54.8192C54.0891 54.8192 54.3425 54.7694 54.5359 54.6698C54.7322 54.5702 54.8801 54.4252 54.9797 54.2347C55.0823 54.0414 55.1497 53.8055 55.1819 53.5272ZM61.4705 54.7357V55.6102H58.0735V54.7357H61.4705ZM58.3855 49.2118V55.6102H57.2825V49.2118H58.3855ZM61.0266 51.8837V52.745H58.0735V51.8837H61.0266ZM61.4485 49.2118V50.0907H58.0735V49.2118H61.4485Z" fill="#898989"/>
</svg>
