<svg width="15" height="15" viewBox="0 0 15 15" fill="none" xmlns="http://www.w3.org/2000/svg">
<path fill-rule="evenodd" clip-rule="evenodd" d="M3.59022 11.3556L5.83522 10.4559C5.75907 10.6348 5.71689 10.8316 5.71689 11.0383C5.71689 11.8603 6.3836 12.527 7.20566 12.527C7.60133 12.527 7.96095 12.3726 8.2276 12.1207L10.6382 12.9608L10.2106 14.5592C8.26444 14.9323 5.50848 14.5094 3.4179 14.3025C3.89779 13.9662 4.21166 13.4091 4.21166 12.7788C4.21166 12.2077 3.95403 11.6968 3.54876 11.3556H3.59022ZM4.56066 7.15516L5.92238 5.79345C5.96499 5.75084 6.02082 5.72955 6.07665 5.72955L8.32632 5.72952C8.23895 5.86013 8.20394 6.01549 8.2214 6.16592H6.16701L4.86923 7.4637C4.90524 7.5425 4.92534 7.63016 4.92534 7.72246C4.92534 8.06678 4.64623 8.3459 4.30191 8.3459C3.95761 8.3459 3.67847 8.06678 3.67847 7.72246C3.67847 7.37817 3.95761 7.09902 4.30191 7.09902C4.39424 7.09905 4.48183 7.11916 4.56066 7.15516ZM14.281 4.7115C14.3989 4.7115 14.4945 4.61587 14.4945 4.49798V3.84792C14.4945 3.73003 14.3989 3.63442 14.281 3.63442C13.6409 3.63442 13.3197 2.85896 13.7723 2.40638C13.8557 2.32299 13.8557 2.18777 13.7723 2.10441L13.3126 1.64472C13.2293 1.56137 13.094 1.56137 13.0107 1.64472C12.5581 2.09731 11.7826 1.77614 11.7826 1.13606C11.7826 1.0181 11.687 0.922563 11.5691 0.922563H10.9191C10.8012 0.922563 10.7056 1.0181 10.7056 1.13606C10.7056 1.77617 9.93011 2.09734 9.47753 1.64472C9.39418 1.56137 9.25892 1.56137 9.1756 1.64472L8.71591 2.10441C8.63255 2.18777 8.63255 2.32299 8.71591 2.40638C9.16849 2.85896 8.84733 3.63442 8.20721 3.63442C8.08926 3.63442 7.99372 3.73003 7.99372 3.84792V4.49798C7.99372 4.61587 8.08926 4.7115 8.20721 4.7115C8.84733 4.7115 9.16849 5.48697 8.71591 5.93955C8.63255 6.02291 8.63255 6.15816 8.71591 6.24151L9.1756 6.70117C9.25895 6.78456 9.39418 6.78456 9.47753 6.70117C9.93071 6.24803 10.7056 6.56897 10.7056 7.20984C10.7056 7.32779 10.8012 7.42333 10.9191 7.42333H11.5691C11.687 7.42333 11.7826 7.32779 11.7826 7.20984C11.7826 6.56975 12.5581 6.24859 13.0107 6.70117C13.094 6.78456 13.2293 6.78456 13.3126 6.70117L13.7723 6.24151C13.8557 6.15816 13.8557 6.02291 13.7723 5.93955C13.3197 5.48697 13.6409 4.7115 14.281 4.7115ZM11.2441 2.58458C12.1213 2.58458 12.8325 3.29574 12.8325 4.17298C12.8325 5.05022 12.1213 5.7614 11.2441 5.7614C10.3668 5.7614 9.65565 5.05025 9.65565 4.17298C9.65565 3.29571 10.3668 2.58458 11.2441 2.58458ZM4.92534 0.623438C4.92534 0.715769 4.90524 0.803393 4.86923 0.882226L6.16701 2.18001H8.2214C8.20394 2.33044 8.23891 2.4858 8.32632 2.61641H6.07665C6.02082 2.61638 5.96496 2.59509 5.92238 2.55248L4.56066 1.19077C4.48186 1.22677 4.39421 1.24688 4.30191 1.24688C3.95758 1.24688 3.67847 0.967762 3.67847 0.623438C3.67847 0.279144 3.95758 0 4.30191 0C4.64623 0 4.92534 0.279144 4.92534 0.623438ZM5.82543 3.95478C5.73697 3.71809 5.50885 3.54954 5.2413 3.54954C4.89698 3.54954 4.61786 3.82869 4.61786 4.17298C4.61786 4.51727 4.89698 4.79642 5.2413 4.79642C5.50885 4.79642 5.737 4.62787 5.82543 4.39118H7.55725V3.95478H5.82543ZM2.35214 11.3556C1.56617 11.3556 0.929016 11.9928 0.929016 12.7788C0.929016 13.5647 1.56617 14.2019 2.35214 14.2019C3.1381 14.2019 3.77526 13.5647 3.77526 12.7788C3.77526 11.9928 3.1381 11.3556 2.35214 11.3556ZM2.35214 12.4923C2.51033 12.4923 2.63861 12.6206 2.63861 12.7788C2.63861 12.937 2.51037 13.0653 2.35214 13.0653C2.19391 13.0653 2.06567 12.937 2.06567 12.7788C2.06567 12.6206 2.19391 12.4923 2.35214 12.4923ZM7.20569 9.98591C6.62449 9.98591 6.1533 10.4571 6.1533 11.0383C6.1533 11.6195 6.62449 12.0907 7.20569 12.0907C7.78689 12.0907 8.25809 11.6195 8.25809 11.0383C8.25805 10.4571 7.78689 9.98591 7.20569 9.98591ZM7.20569 10.7518C7.04746 10.7518 6.91922 10.8801 6.91922 11.0383C6.91922 11.1965 7.04746 11.3248 7.20569 11.3248C7.36392 11.3248 7.49216 11.1965 7.49216 11.0383C7.49216 10.8801 7.36389 10.7518 7.20569 10.7518ZM8.35179 10.0882C8.6722 10.4742 8.77588 10.9976 8.62909 11.4757L9.87912 11.2935C10.2071 11.2457 10.4818 11.0223 10.4818 10.6908C10.4818 10.3594 10.2104 10.0882 9.87912 10.0882H8.35179ZM1.81978 14.5608V14.9625H0V10.595H1.81978V10.9968C1.05233 11.2258 0.492609 11.937 0.492609 12.7788C0.492609 13.6206 1.05233 14.3318 1.81978 14.5608ZM11.0328 12.9235L14.1256 11.1379C14.3919 10.9842 14.7356 11.0763 14.8893 11.3426C15.0431 11.6089 14.9449 11.9425 14.6847 12.1064L11.6456 14.0204C11.4418 13.6559 11.2411 13.285 11.0328 12.9235ZM11.2661 14.233L10.9161 13.6071L10.6924 14.4446C10.8963 14.3859 11.0885 14.3161 11.2661 14.233Z" fill="#9A4D49"/>
</svg>
