<svg width="18" height="18" viewBox="0 0 18 18" fill="none" xmlns="http://www.w3.org/2000/svg">
<path d="M16.6322 7.88554H3.8921L9.45804 2.41846C9.90286 1.98154 9.90286 1.26454 9.45804 0.827626C9.35252 0.72377 9.22719 0.641374 9.08921 0.585156C8.95123 0.528937 8.80332 0.5 8.65394 0.5C8.50457 0.5 8.35666 0.528937 8.21868 0.585156C8.0807 0.641374 7.95537 0.72377 7.84985 0.827626L0.333551 8.21042C0.227816 8.31407 0.143931 8.43718 0.0866959 8.5727C0.0294609 8.70823 0 8.85351 0 9.00024C0 9.14696 0.0294609 9.29225 0.0866959 9.42777C0.143931 9.5633 0.227816 9.68641 0.333551 9.79005L7.84985 17.1729C7.95544 17.2766 8.0808 17.3588 8.21877 17.415C8.35674 17.4711 8.50461 17.5 8.65394 17.5C8.80328 17.5 8.95115 17.4711 9.08912 17.415C9.22708 17.3588 9.35244 17.2766 9.45804 17.1729C9.56363 17.0691 9.6474 16.946 9.70455 16.8105C9.76169 16.675 9.79111 16.5297 9.79111 16.383C9.79111 16.2364 9.76169 16.0911 9.70455 15.9556C9.6474 15.8201 9.56363 15.6969 9.45804 15.5932L3.8921 10.1261H16.6322C17.2595 10.1261 17.7727 9.62201 17.7727 9.00584C17.7727 8.38967 17.2595 7.88554 16.6322 7.88554Z" fill="black"/>
</svg>
