<svg width="12" height="15" viewBox="0 0 12 15" fill="none" xmlns="http://www.w3.org/2000/svg">
<path d="M9.13983 0C8.20983 0 7.41983 0.54 7.04983 1.33C6.91983 1.63 6.82983 1.95 6.82983 2.3C6.82983 3.57 7.85983 4.61 9.13983 4.61C9.76983 4.61 10.3398 4.36 10.7598 3.95C11.1798 3.53 11.4498 2.95 11.4498 2.31C11.4398 1.03 10.4098 0 9.13983 0ZM8.76983 3.23L8.46983 3.54L7.63983 2.73L7.94983 2.42L8.45983 2.93L10.3198 1.06L10.6298 1.37L8.76983 3.23Z" fill="#9A4D49"/>
<path d="M6.5599 2.36995C6.5599 1.98995 6.6499 1.63995 6.7999 1.31995H1.8499C1.0499 1.31995 0.399902 1.96995 0.399902 2.76995V12.6699C0.399902 13.4699 1.0499 14.1199 1.8499 14.1199H9.3399C10.1399 14.1199 10.7899 13.4699 10.7899 12.6699V4.13995C10.3399 4.57995 9.7299 4.85995 9.0499 4.85995C7.6699 4.84995 6.5599 3.73995 6.5599 2.36995ZM1.5399 6.05995C1.5399 5.80995 1.7499 5.59995 1.9999 5.59995H5.8699C6.1199 5.59995 6.3299 5.80995 6.3299 6.05995C6.3299 6.30995 6.1199 6.51995 5.8699 6.51995H2.0099C1.7499 6.51995 1.5399 6.30995 1.5399 6.05995ZM2.0099 7.11995H6.6699C6.9199 7.11995 7.1299 7.32995 7.1299 7.57995C7.1299 7.82995 6.9199 8.03995 6.6699 8.03995H2.0099C1.7599 8.03995 1.5499 7.82995 1.5499 7.57995C1.5399 7.32995 1.7499 7.11995 2.0099 7.11995ZM7.3399 9.57995H2.0099C1.7599 9.57995 1.5499 9.36995 1.5499 9.11995C1.5499 8.86995 1.7599 8.65995 2.0099 8.65995H7.3399C7.5899 8.65995 7.7999 8.86995 7.7999 9.11995C7.7999 9.36995 7.5899 9.57995 7.3399 9.57995Z" fill="#9A4D49"/>
</svg>
