<svg width="13" height="16" viewBox="0 0 13 16" fill="none" xmlns="http://www.w3.org/2000/svg">
<path d="M9.72016 0.939941C8.79016 0.939941 8.00016 1.47994 7.63016 2.26994C7.50016 2.56994 7.41016 2.88994 7.41016 3.23994C7.41016 4.50994 8.44016 5.54994 9.72016 5.54994C10.3502 5.54994 10.9202 5.29994 11.3402 4.88994C11.7602 4.46994 12.0302 3.88994 12.0302 3.24994C12.0202 1.96994 10.9902 0.939941 9.72016 0.939941ZM9.35016 4.16994L9.05016 4.47994L8.22016 3.66994L8.53016 3.35994L9.04016 3.86994L10.9002 1.99994L11.2102 2.30994L9.35016 4.16994Z" fill="#898989"/>
<path d="M7.13998 3.30977C7.13998 2.92977 7.22998 2.57977 7.37998 2.25977H2.42998C1.62998 2.25977 0.97998 2.90977 0.97998 3.70977V13.6098C0.97998 14.4098 1.62998 15.0598 2.42998 15.0598H9.91998C10.72 15.0598 11.37 14.4098 11.37 13.6098V5.07977C10.92 5.51977 10.31 5.79977 9.62998 5.79977C8.24998 5.78977 7.13998 4.67977 7.13998 3.30977ZM2.11998 6.99977C2.11998 6.74977 2.32998 6.53977 2.57998 6.53977H6.44998C6.69998 6.53977 6.90998 6.74977 6.90998 6.99977C6.90998 7.24977 6.69998 7.45977 6.44998 7.45977H2.58998C2.32998 7.45977 2.11998 7.24977 2.11998 6.99977ZM2.58998 8.05977H7.24998C7.49998 8.05977 7.70998 8.26977 7.70998 8.51977C7.70998 8.76977 7.49998 8.97976 7.24998 8.97976H2.58998C2.33998 8.97976 2.12998 8.76977 2.12998 8.51977C2.11998 8.26977 2.32998 8.05977 2.58998 8.05977ZM7.91998 10.5198H2.58998C2.33998 10.5198 2.12998 10.3098 2.12998 10.0598C2.12998 9.80977 2.33998 9.59977 2.58998 9.59977H7.91998C8.16998 9.59977 8.37998 9.80977 8.37998 10.0598C8.37998 10.3098 8.16998 10.5198 7.91998 10.5198Z" fill="#898989"/>
</svg>
