<svg width="16" height="15" viewBox="0 0 16 15" fill="none" xmlns="http://www.w3.org/2000/svg">
<path d="M13.7399 1.28003H11.9999V1.99003C11.9999 2.30003 11.7499 2.56003 11.4299 2.56003C11.1199 2.56003 10.8599 2.31003 10.8599 1.99003V1.28003H4.50986V1.99003C4.50986 2.30003 4.25986 2.56003 3.93986 2.56003C3.61986 2.56003 3.37986 2.30003 3.37986 1.99003V1.28003H2.05986C1.53986 1.28003 1.10986 1.71003 1.10986 2.23003V3.83003H14.6799V2.23003C14.6899 1.71003 14.2599 1.28003 13.7399 1.28003Z" fill="#9A4D49"/>
<path d="M1.10986 4.67004V12.77C1.10986 13.29 1.53986 13.72 2.05986 13.72H13.7399C14.2599 13.72 14.6899 13.29 14.6899 12.77V4.67004H1.10986ZM4.30986 10.39H2.60986V8.70004H4.30986V10.39ZM4.30986 7.80004H2.60986V6.10004H4.30986V7.80004ZM6.89986 7.80004H5.19986V6.10004H6.89986V7.80004Z" fill="#9A4D49"/>
</svg>
