<svg width="15" height="14" viewBox="0 0 15 14" fill="none" xmlns="http://www.w3.org/2000/svg">
<path d="M13.34 0.779785H11.6V1.48979C11.6 1.79979 11.35 2.05979 11.03 2.05979C10.72 2.05979 10.46 1.80979 10.46 1.48979V0.779785H4.10996V1.48979C4.10996 1.79979 3.85996 2.05979 3.53996 2.05979C3.21996 2.05979 2.97996 1.79979 2.97996 1.48979V0.779785H1.65996C1.13996 0.779785 0.709961 1.20979 0.709961 1.72979V3.32979H14.28V1.72979C14.29 1.20979 13.86 0.779785 13.34 0.779785Z" fill="#898989"/>
<path d="M0.709961 4.16992V12.2699C0.709961 12.7899 1.13996 13.2199 1.65996 13.2199H13.34C13.86 13.2199 14.29 12.7899 14.29 12.2699V4.16992H0.709961ZM3.90996 9.88992H2.20996V8.19992H3.90996V9.88992ZM3.90996 7.29992H2.20996V5.59992H3.90996V7.29992ZM6.49996 7.29992H4.79996V5.59992H6.49996V7.29992Z" fill="#898989"/>
</svg>
