<svg width="12" height="13" viewBox="0 0 12 13" fill="none" xmlns="http://www.w3.org/2000/svg">
<path d="M4.35632 3.88491C4.77617 3.49933 5.04179 2.92525 4.84472 2.35974C4.58767 1.63143 4.065 0.997377 3.33669 0.706054C2.84829 0.51755 2.3599 0.680349 1.94005 0.963104C1.89721 0.997377 1.85437 1.02308 1.81152 1.05736C3.0625 1.51148 4.20209 2.53111 4.35632 3.88491Z" fill="#898989"/>
<path d="M8.34913 8.9317C8.24631 9.01738 8.15206 9.10306 8.04067 9.18875C7.89501 9.30014 7.79219 9.46293 7.63796 9.55719C7.52657 9.62573 7.38948 9.66858 7.26095 9.6343C7.01247 9.56575 6.85824 9.26586 6.76399 9.05165C6.52407 8.53755 6.22418 8.0663 5.89002 7.59504C5.54728 7.13235 5.17028 6.66109 4.75043 6.24981C4.53622 6.0356 4.29631 5.82996 4.04782 5.65002C3.81648 5.47866 3.51659 5.3587 3.33665 5.12735C3.25097 5.0074 3.19956 4.83603 3.25954 4.69894C3.37949 4.41618 3.84218 4.30479 4.06496 4.11629C4.09067 4.09915 4.11637 4.07345 4.13351 4.05631C3.97928 2.70251 2.83969 1.69145 1.58871 1.22876C1.3745 1.39156 1.17743 1.58006 1.01463 1.75143C0.466257 2.31694 0.457689 3.13093 0.534804 3.86781C0.689034 5.33299 1.39164 6.64395 2.23134 7.82638C2.94251 8.83745 3.74793 9.77996 4.69045 10.5854C5.21312 11.0309 5.77006 11.4337 6.36984 11.7592C6.95249 12.0763 7.53514 12.3762 8.1949 12.5218C8.6833 12.6332 9.21453 12.6675 9.69436 12.4961C10.0457 12.3762 10.4569 12.102 10.774 11.7935C10.6369 10.4312 9.49729 9.62573 8.34913 8.9317Z" fill="#898989"/>
<path d="M11.2365 9.62569C11.0051 9.1887 10.6196 8.82883 10.1826 8.61463C9.89125 8.46896 9.55709 8.38328 9.22292 8.43469C8.96587 8.47753 8.7688 8.59749 8.58887 8.75172C9.73702 9.43719 10.8766 10.2426 11.0137 11.6135C11.1679 11.4679 11.305 11.3051 11.3993 11.1509C11.6563 10.7139 11.4507 10.037 11.2365 9.62569Z" fill="#898989"/>
</svg>
