<svg width="15" height="16" viewBox="0 0 15 16" fill="none" xmlns="http://www.w3.org/2000/svg">
<g clip-path="url(#clip0_1927_23977)">
<path d="M7.58414 13.1929L9.63645 11.9883C9.75536 11.9185 9.88846 11.8815 10.0213 11.8815C10.2433 11.8815 10.4356 11.9833 10.5358 12.1539C10.5416 12.1638 10.5464 12.1749 10.5517 12.1855L8.00813 13.6785L7.59097 13.7391C7.64801 13.5689 7.64646 13.3781 7.58414 13.1929ZM11.1352 12.2432C11.0067 12.2432 10.8774 12.2778 10.7614 12.3434C10.7592 12.3447 10.7566 12.3453 10.7542 12.3464C10.7526 12.3475 10.7513 12.3488 10.7496 12.3498L8.11011 13.8991C8.09666 13.907 8.08175 13.9122 8.06631 13.9145L7.43558 14.0061C7.42989 14.0125 7.42436 14.019 7.41855 14.0251H9.17596L11.6771 13.0071C11.7431 12.8364 11.7335 12.6592 11.6489 12.5149C11.549 12.3448 11.3569 12.2432 11.1352 12.2432ZM1.74899 11.0328L1.74888 14.096L5.09549 15.4628L9.45735 15.463L12.5309 14.2118C12.884 14.0679 13.0703 13.7025 12.9461 13.3971C12.8593 13.184 12.6338 13.0462 12.3715 13.0462C12.2723 13.0462 12.1742 13.0657 12.08 13.1041L11.8176 13.2109C11.8168 13.2112 11.8162 13.2117 11.8155 13.212L9.24524 14.2582C9.23077 14.264 9.21527 14.2671 9.19963 14.2671H6.84161C6.84047 14.2671 6.83936 14.2667 6.83824 14.2667C6.8352 14.2667 6.83209 14.2668 6.82901 14.2668C6.60504 14.2668 6.38379 14.1856 6.20341 14.0369L4.41111 12.8891C4.35486 12.853 4.33849 12.7782 4.37449 12.722C4.4105 12.6657 4.48532 12.6493 4.54157 12.6853L6.34017 13.8372C6.34447 13.8399 6.3486 13.8429 6.35259 13.8463C6.49339 13.9641 6.66674 14.0271 6.83977 14.0248H6.84167C6.84202 14.0248 6.84234 14.0249 6.8427 14.0249C7.01505 14.0214 7.16563 13.9531 7.2668 13.8321C7.40757 13.6641 7.42975 13.42 7.32501 13.1945C7.32463 13.1938 7.32416 13.1933 7.32375 13.1925C7.27688 13.0925 7.20973 13.005 7.12409 12.9324L4.43798 11.0328H1.74899ZM1.23029 15.0355V14.9145L0.276621 14.9145C0.124102 14.9144 0 14.7903 0 14.6379V10.5131C0 10.4396 0.0288867 10.3703 0.0813281 10.3179C0.13377 10.2654 0.203115 10.2365 0.276592 10.2365L1.23044 10.2366C1.38299 10.2366 1.50706 10.3607 1.50706 10.5133L1.50691 14.638C1.50691 14.7114 1.47803 14.7807 1.42559 14.8332C1.37314 14.8856 1.3038 14.9145 1.23035 14.9145L1.23029 15.0355ZM1.35773 14.0253C1.35773 13.6921 1.08671 13.421 0.753545 13.421C0.420352 13.421 0.149268 13.6921 0.149268 14.0253C0.149268 14.3585 0.420352 14.6295 0.753545 14.6295C1.08671 14.6295 1.35773 14.3585 1.35773 14.0253ZM3.86484 4.09479C3.99331 4.09479 4.12254 4.06013 4.23858 3.99462C4.24084 3.9933 4.24339 3.99272 4.24573 3.99157C4.2474 3.99052 4.24872 3.98917 4.25042 3.98817L6.88986 2.43887C6.90331 2.43093 6.91822 2.42574 6.93363 2.42349L7.56442 2.33187C7.57011 2.32555 7.57562 2.31898 7.58145 2.31289H5.82404L3.32288 3.3309C3.25688 3.50161 3.26646 3.6788 3.35112 3.82303C3.451 3.99318 3.64307 4.09479 3.86484 4.09479ZM7.40906 2.59889L6.99188 2.65944L4.44838 4.15247C4.45362 4.16305 4.4584 4.17409 4.46423 4.18402C4.56439 4.35462 4.75664 4.4564 4.97868 4.4564C5.11154 4.4564 5.24467 4.41948 5.36358 4.34964L7.41586 3.14501C7.35355 2.95988 7.35196 2.76904 7.40906 2.59889ZM13.251 5.30521L13.2511 2.24199L9.90448 0.875146L5.54262 0.875L2.46911 2.12618C2.11597 2.27006 1.92967 2.63554 2.05389 2.9409C2.14061 3.154 2.36616 3.29173 2.62852 3.29173C2.72766 3.29173 2.82568 3.27228 2.91993 3.2339L3.18246 3.12705C3.18319 3.12673 3.18381 3.12626 3.18451 3.12597L5.75473 2.07983C5.7692 2.07395 5.78464 2.07093 5.80034 2.07093H8.15836C8.15974 2.07093 8.161 2.07128 8.16234 2.07131C8.38872 2.06873 8.61395 2.15059 8.79659 2.30111L10.5888 3.44894C10.6451 3.48497 10.6615 3.5598 10.6255 3.61604C10.6024 3.65211 10.5634 3.6718 10.5235 3.6718C10.5012 3.6718 10.4786 3.66562 10.4584 3.6527L8.65983 2.50086C8.65553 2.49808 8.6514 2.49503 8.64741 2.49175C8.50664 2.37392 8.33347 2.31017 8.16023 2.31321C8.15959 2.31321 8.15895 2.31321 8.15833 2.31321C8.15798 2.31321 8.15766 2.31312 8.1573 2.31312C7.98495 2.31664 7.83439 2.3849 7.73317 2.5059C7.59243 2.67392 7.57025 2.91799 7.67499 3.14343C7.67534 3.14413 7.67584 3.14472 7.67622 3.14545C7.72313 3.24556 7.79027 3.33307 7.87588 3.40563L10.562 5.30524H13.251V5.30521ZM14.7234 6.22247V6.1015L13.7696 6.10142C13.617 6.10136 13.4929 5.97726 13.4929 5.82474L13.4931 1.70003C13.4931 1.54754 13.6171 1.4235 13.7697 1.4235L14.7234 1.42353C14.8759 1.42355 15 1.54766 15 1.70018V5.82494C15 5.89839 14.9711 5.96771 14.9187 6.02018C14.8662 6.07262 14.7969 6.1015 14.7235 6.1015L14.7234 6.22247ZM14.8507 2.31269C14.8507 1.97952 14.5796 1.7085 14.2465 1.7085C13.9133 1.7085 13.6423 1.97952 13.6423 2.31269C13.6423 2.64588 13.9133 2.91696 14.2465 2.91696C14.5796 2.91696 14.8507 2.64591 14.8507 2.31269ZM14.2465 1.95043C14.0467 1.95043 13.8842 2.11294 13.8842 2.31269C13.8842 2.51246 14.0467 2.675 14.2465 2.675C14.4462 2.675 14.6088 2.51246 14.6088 2.31269C14.6088 2.11294 14.4462 1.95043 14.2465 1.95043ZM4.7947 8.86836L7.5 11.5737L10.2053 8.86839C10.5266 8.547 10.7054 8.11979 10.7088 7.66537C10.7121 7.21165 10.5399 6.78775 10.224 6.47185C9.91137 6.15919 9.49198 5.98698 9.04301 5.98698C8.58387 5.98698 8.15215 6.16581 7.82742 6.49054L7.58549 6.73241C7.56287 6.75509 7.53208 6.76783 7.5 6.76783C7.46792 6.76783 7.43713 6.75509 7.41448 6.73241L7.17258 6.49054C6.84785 6.16581 6.41613 5.98698 5.95699 5.98698C5.50802 5.98698 5.08857 6.15919 4.77592 6.47185C4.1204 7.12745 4.12881 8.20256 4.7947 8.86836Z" fill="#9A4D49"/>
</g>
<defs>
<clipPath id="clip0_1927_23977">
<rect width="15" height="15" fill="white" transform="translate(0 0.875)"/>
</clipPath>
</defs>
</svg>
