<svg width="22" height="22" viewBox="0 0 22 22" fill="none" xmlns="http://www.w3.org/2000/svg">
<path d="M21.2956 0.00524592L14.0245 0.941925C13.5594 1.00183 13.231 1.42737 13.2909 1.89241C13.3508 2.35744 13.7764 2.68585 14.2414 2.62595L18.7474 2.0455L7.89514 12.8978C7.56361 13.2293 7.56359 13.7669 7.89514 14.0984C8.22667 14.4299 8.76422 14.4299 9.09577 14.0984L19.9561 3.23809L19.3676 7.80638C19.3077 8.27139 19.6361 8.69693 20.1011 8.75686C20.5662 8.81677 20.9917 8.48836 21.0516 8.02332L21.9945 0.7041C22.0467 0.29845 21.7013 -0.0469904 21.2956 0.00524592Z" fill="#9A4D49"/>
<path d="M18.9684 11.051C18.4996 11.051 18.1195 11.4311 18.1195 11.8999V20.2161H1.69795V3.79463H10.0142C10.483 3.79463 10.8631 3.41453 10.8631 2.94566C10.8631 2.47679 10.483 2.09668 10.0142 2.09668H1.27887C0.572564 2.09668 0 2.66924 0 3.37555V20.6352C0 21.3415 0.572564 21.9141 1.27887 21.9141H18.5385C19.2448 21.9141 19.8174 21.3415 19.8174 20.6352V11.9C19.8174 11.431 19.4373 11.051 18.9684 11.051Z" fill="#9A4D49"/>
</svg>
