<svg width="15" height="15" viewBox="0 0 15 15" fill="none" xmlns="http://www.w3.org/2000/svg">
<g clip-path="url(#clip0_1912_21731)">
<path d="M7.58414 12.3179L9.63645 11.1133C9.75536 11.0435 9.88846 11.0065 10.0213 11.0065C10.2433 11.0065 10.4356 11.1083 10.5358 11.2789C10.5416 11.2888 10.5464 11.2999 10.5517 11.3105L8.00813 12.8035L7.59097 12.8641C7.64801 12.6939 7.64646 12.5031 7.58414 12.3179ZM11.1352 11.3682C11.0067 11.3682 10.8774 11.4028 10.7614 11.4684C10.7592 11.4697 10.7566 11.4703 10.7542 11.4714C10.7526 11.4725 10.7513 11.4738 10.7496 11.4748L8.11011 13.0241C8.09666 13.032 8.08175 13.0372 8.06631 13.0395L7.43558 13.1311C7.42989 13.1375 7.42436 13.144 7.41855 13.1501H9.17596L11.6771 12.1321C11.7431 11.9614 11.7335 11.7842 11.6489 11.6399C11.549 11.4698 11.3569 11.3682 11.1352 11.3682ZM1.74899 10.1578L1.74888 13.221L5.09549 14.5878L9.45735 14.588L12.5309 13.3368C12.884 13.1929 13.0703 12.8275 12.9461 12.5221C12.8593 12.309 12.6338 12.1712 12.3715 12.1712C12.2723 12.1712 12.1742 12.1907 12.08 12.2291L11.8176 12.3359C11.8168 12.3362 11.8162 12.3367 11.8155 12.337L9.24524 13.3832C9.23077 13.389 9.21527 13.3921 9.19963 13.3921H6.84161C6.84047 13.3921 6.83936 13.3917 6.83824 13.3917C6.8352 13.3917 6.83209 13.3918 6.82901 13.3918C6.60504 13.3918 6.38379 13.3106 6.20341 13.1619L4.41111 12.0141C4.35486 11.978 4.33849 11.9032 4.37449 11.847C4.4105 11.7907 4.48532 11.7743 4.54157 11.8103L6.34017 12.9622C6.34447 12.9649 6.3486 12.9679 6.35259 12.9713C6.49339 13.0891 6.66674 13.1521 6.83977 13.1498H6.84167C6.84202 13.1498 6.84234 13.1499 6.8427 13.1499C7.01505 13.1464 7.16563 13.0781 7.2668 12.9571C7.40757 12.7891 7.42975 12.545 7.32501 12.3195C7.32463 12.3188 7.32416 12.3183 7.32375 12.3175C7.27688 12.2175 7.20973 12.13 7.12409 12.0574L4.43798 10.1578H1.74899ZM1.23029 14.1605V14.0395L0.276621 14.0395C0.124102 14.0394 0 13.9153 0 13.7629V9.63806C0 9.56461 0.0288867 9.49529 0.0813281 9.44285C0.13377 9.39038 0.203115 9.36149 0.276592 9.36149L1.23044 9.36158C1.38299 9.36161 1.50706 9.48574 1.50706 9.63826L1.50691 13.763C1.50691 13.8364 1.47803 13.9057 1.42559 13.9582C1.37314 14.0106 1.3038 14.0395 1.23035 14.0395L1.23029 14.1605ZM1.35773 13.1503C1.35773 12.8171 1.08671 12.546 0.753545 12.546C0.420352 12.546 0.149268 12.8171 0.149268 13.1503C0.149268 13.4835 0.420352 13.7545 0.753545 13.7545C1.08671 13.7545 1.35773 13.4835 1.35773 13.1503ZM3.86484 3.21979C3.99331 3.21979 4.12254 3.18513 4.23858 3.11962C4.24084 3.1183 4.24339 3.11772 4.24573 3.11657C4.2474 3.11552 4.24872 3.11417 4.25042 3.11317L6.88986 1.56387C6.90331 1.55593 6.91822 1.55074 6.93363 1.54849L7.56442 1.45687C7.57011 1.45055 7.57562 1.44398 7.58145 1.43789H5.82404L3.32288 2.4559C3.25688 2.62661 3.26646 2.8038 3.35112 2.94803C3.451 3.11818 3.64307 3.21979 3.86484 3.21979ZM7.40906 1.72389L6.99188 1.78444L4.44838 3.27747C4.45362 3.28805 4.4584 3.29909 4.46423 3.30902C4.56439 3.47962 4.75664 3.5814 4.97868 3.5814C5.11154 3.5814 5.24467 3.54448 5.36358 3.47464L7.41586 2.27001C7.35355 2.08488 7.35196 1.89404 7.40906 1.72389ZM13.251 4.43021L13.2511 1.36699L9.90448 0.000146488L5.54262 0L2.46911 1.25118C2.11597 1.39506 1.92967 1.76054 2.05389 2.0659C2.14061 2.279 2.36616 2.41673 2.62852 2.41673C2.72766 2.41673 2.82568 2.39728 2.91993 2.3589L3.18246 2.25205C3.18319 2.25173 3.18381 2.25126 3.18451 2.25097L5.75473 1.20483C5.7692 1.19895 5.78464 1.19593 5.80034 1.19593H8.15836C8.15974 1.19593 8.161 1.19628 8.16234 1.19631C8.38872 1.19373 8.61395 1.27559 8.79659 1.42611L10.5888 2.57394C10.6451 2.60997 10.6615 2.6848 10.6255 2.74104C10.6024 2.77711 10.5634 2.7968 10.5235 2.7968C10.5012 2.7968 10.4786 2.79062 10.4584 2.7777L8.65983 1.62586C8.65553 1.62308 8.6514 1.62003 8.64741 1.61675C8.50664 1.49892 8.33347 1.43517 8.16023 1.43821C8.15959 1.43821 8.15895 1.43821 8.15833 1.43821C8.15798 1.43821 8.15766 1.43812 8.1573 1.43812C7.98495 1.44164 7.83439 1.5099 7.73317 1.6309C7.59243 1.79892 7.57025 2.04299 7.67499 2.26843C7.67534 2.26913 7.67584 2.26972 7.67622 2.27045C7.72313 2.37056 7.79027 2.45807 7.87588 2.53063L10.562 4.43024H13.251V4.43021ZM14.7234 5.34747V5.2265L13.7696 5.22642C13.617 5.22636 13.4929 5.10226 13.4929 4.94974L13.4931 0.825029C13.4931 0.672539 13.6171 0.548496 13.7697 0.548496L14.7234 0.548525C14.8759 0.548555 15 0.672656 15 0.825176V4.94994C15 5.02339 14.9711 5.09271 14.9187 5.14518C14.8662 5.19762 14.7969 5.2265 14.7235 5.2265L14.7234 5.34747ZM14.8507 1.43769C14.8507 1.10452 14.5796 0.833496 14.2465 0.833496C13.9133 0.833496 13.6423 1.10452 13.6423 1.43769C13.6423 1.77088 13.9133 2.04196 14.2465 2.04196C14.5796 2.04196 14.8507 1.77091 14.8507 1.43769ZM14.2465 1.07543C14.0467 1.07543 13.8842 1.23794 13.8842 1.43769C13.8842 1.63746 14.0467 1.8 14.2465 1.8C14.4462 1.8 14.6088 1.63746 14.6088 1.43769C14.6088 1.23794 14.4462 1.07543 14.2465 1.07543ZM4.7947 7.99336L7.5 10.6987L10.2053 7.99339C10.5266 7.672 10.7054 7.24479 10.7088 6.79037C10.7121 6.33665 10.5399 5.91275 10.224 5.59685C9.91137 5.28419 9.49198 5.11198 9.04301 5.11198C8.58387 5.11198 8.15215 5.29081 7.82742 5.61554L7.58549 5.85741C7.56287 5.88009 7.53208 5.89283 7.5 5.89283C7.46792 5.89283 7.43713 5.88009 7.41448 5.85741L7.17258 5.61554C6.84785 5.29081 6.41613 5.11198 5.95699 5.11198C5.50802 5.11198 5.08857 5.28419 4.77592 5.59685C4.1204 6.25245 4.12881 7.32756 4.7947 7.99336Z" fill="#898989"/>
</g>
<defs>
<clipPath id="clip0_1912_21731">
<rect width="15" height="15" fill="white"/>
</clipPath>
</defs>
</svg>
