<svg width="41" height="41" viewBox="0 0 41 41" fill="none" xmlns="http://www.w3.org/2000/svg">
<rect x="0.25" y="0.25" width="40.5" height="40.5" rx="20.25" fill="white"/>
<rect x="0.25" y="0.25" width="40.5" height="40.5" rx="20.25" stroke="#DCDCDC" stroke-width="0.5"/>
<path d="M18.8563 18.2599C19.2762 17.8743 19.5418 17.3003 19.3447 16.7347C19.0877 16.0064 18.565 15.3724 17.8367 15.0811C17.3483 14.8926 16.8599 15.0553 16.44 15.3381C16.3972 15.3724 16.3544 15.3981 16.3115 15.4324C17.5625 15.8865 18.7021 16.9061 18.8563 18.2599Z" fill="#898989"/>
<path d="M22.8491 23.3065C22.7463 23.3921 22.6521 23.4778 22.5407 23.5635C22.395 23.6749 22.2922 23.8377 22.138 23.9319C22.0266 24.0005 21.8895 24.0433 21.761 24.0091C21.5125 23.9405 21.3582 23.6406 21.264 23.4264C21.0241 22.9123 20.7242 22.4411 20.39 21.9698C20.0473 21.5071 19.6703 21.0358 19.2504 20.6246C19.0362 20.4104 18.7963 20.2047 18.5478 20.0248C18.3165 19.8534 18.0166 19.7335 17.8367 19.5021C17.751 19.3822 17.6996 19.2108 17.7595 19.0737C17.8795 18.7909 18.3422 18.6795 18.565 18.491C18.5907 18.4739 18.6164 18.4482 18.6335 18.4311C18.4793 17.0773 17.3397 16.0662 16.0887 15.6035C15.8745 15.7663 15.6774 15.9548 15.5146 16.1262C14.9663 16.6917 14.9577 17.5057 15.0348 18.2426C15.189 19.7078 15.8916 21.0187 16.7313 22.2011C17.4425 23.2122 18.2479 24.1547 19.1904 24.9601C19.7131 25.4057 20.2701 25.8084 20.8698 26.134C21.4525 26.451 22.0351 26.7509 22.6949 26.8966C23.1833 27.008 23.7145 27.0422 24.1944 26.8709C24.5457 26.7509 24.9569 26.4767 25.274 26.1683C25.1369 24.8059 23.9973 24.0005 22.8491 23.3065Z" fill="#898989"/>
<path d="M25.7365 24.0009C25.5051 23.5639 25.1196 23.2041 24.6826 22.9899C24.3913 22.8442 24.0571 22.7585 23.7229 22.8099C23.4659 22.8528 23.2688 22.9727 23.0889 23.127C24.237 23.8124 25.3766 24.6179 25.5137 25.9888C25.6679 25.8431 25.805 25.6803 25.8993 25.5261C26.1563 25.0891 25.9507 24.4122 25.7365 24.0009Z" fill="#898989"/>
</svg>
