<svg width="41" height="41" viewBox="0 0 41 41" fill="none" xmlns="http://www.w3.org/2000/svg">
<rect x="0.25" y="0.25" width="40.5" height="40.5" rx="20.25" fill="white"/>
<rect x="0.25" y="0.25" width="40.5" height="40.5" rx="20.25" stroke="#DCDCDC" stroke-width="0.5"/>
<path d="M24.7907 15H15.6899C14.7647 15 14 15.7647 14 16.6899V21.6368C14 22.4487 14.5853 23.1379 15.3595 23.2889L14.7647 25.3375L17.9462 23.3172H24.8001C25.7253 23.3172 26.49 22.5525 26.49 21.6273V16.6899C26.4806 15.7647 25.7253 15 24.7907 15ZM17.021 19.6731C16.5301 19.6731 16.143 19.2766 16.143 18.7951C16.143 18.3042 16.5395 17.9172 17.021 17.9172C17.5025 17.9172 17.899 18.3137 17.899 18.7951C17.9084 19.2766 17.5119 19.6731 17.021 19.6731ZM20.0515 19.6731C19.5606 19.6731 19.1735 19.2766 19.1735 18.7951C19.1735 18.3042 19.57 17.9172 20.0515 17.9172C20.5329 17.9172 20.9294 18.3137 20.9294 18.7951C20.9294 19.2766 20.5424 19.6731 20.0515 19.6731ZM23.0819 19.6731C22.591 19.6731 22.2039 19.2766 22.2039 18.7951C22.2039 18.3042 22.6004 17.9172 23.0819 17.9172C23.5728 17.9172 23.9599 18.3137 23.9599 18.7951C23.9599 19.2766 23.5634 19.6731 23.0819 19.6731Z" fill="#898989"/>
</svg>
