<svg width="45" height="45" viewBox="0 0 45 45" fill="none" xmlns="http://www.w3.org/2000/svg">
<rect x="0.25" y="0.25" width="44.5" height="44.5" rx="22.25" fill="white"/>
<rect x="0.25" y="0.25" width="44.5" height="44.5" rx="22.25" stroke="#DCDCDC" stroke-width="0.5"/>
<g clip-path="url(#clip0_2_23454)">
<path d="M22.2591 19.0123C23.2198 19.0123 23.9986 18.2335 23.9986 17.2728C23.9986 16.312 23.2198 15.5332 22.2591 15.5332C21.2984 15.5332 20.5195 16.312 20.5195 17.2728C20.5195 18.2335 21.2984 19.0123 22.2591 19.0123Z" fill="#898989"/>
<path d="M20.7018 18.8159C20.7018 18.8159 22.0766 20.5555 23.8161 18.9141C23.8161 18.9141 26.1028 19.3771 25.7381 21.4673C25.7381 21.4673 22.0766 22.9263 18.6536 21.4673C18.6536 21.4673 18.4151 19.363 20.7018 18.8159Z" fill="#898989"/>
<path d="M30.143 25.7038V23.8941C30.2272 23.838 30.2833 23.7538 30.2833 23.6416C30.2833 23.4873 30.1571 23.347 29.9887 23.347H22.5956V21.2427C22.5956 21.0463 22.4273 20.8779 22.2309 20.8779C22.0345 20.8779 21.8661 21.0463 21.8661 21.2427V23.347H14.3187C14.1644 23.347 14.0241 23.4732 14.0241 23.6416C14.0241 23.7538 14.0802 23.838 14.1644 23.8941V25.7038C13.505 25.8441 13 26.4193 13 27.1207C13 27.9203 13.6453 28.5656 14.445 28.5656C15.2446 28.5656 15.8899 27.9203 15.8899 27.1207C15.8899 26.4754 15.469 25.9142 14.8798 25.7319V23.9362H21.8381V25.7038C21.1787 25.8441 20.6737 26.4193 20.6737 27.1207C20.6737 27.9203 21.319 28.5656 22.1186 28.5656C22.9183 28.5656 23.5636 27.9203 23.5636 27.1207C23.5636 26.4754 23.1427 25.9142 22.5535 25.7319V23.9362H29.3715V25.7459C28.7823 25.9283 28.3614 26.4754 28.3614 27.1347C28.3614 27.9344 29.0067 28.5797 29.8064 28.5797C30.606 28.5797 31.2513 27.9344 31.2513 27.1347C31.3074 26.4333 30.8024 25.8441 30.143 25.7038Z" fill="#898989"/>
</g>
<defs>
<clipPath id="clip0_2_23454">
<rect width="19" height="19" fill="white" transform="translate(13 13)"/>
</clipPath>
</defs>
</svg>
