<svg width="41" height="41" viewBox="0 0 41 41" fill="none" xmlns="http://www.w3.org/2000/svg">
<rect x="0.25" y="0.25" width="40.5" height="40.5" rx="20.25" fill="white"/>
<rect x="0.25" y="0.25" width="40.5" height="40.5" rx="20.25" stroke="#DCDCDC" stroke-width="0.5"/>
<g clip-path="url(#clip0_2_25421)">
<path d="M20.5 17.7002C21.6156 17.7002 22.52 16.7958 22.52 15.6802C22.52 14.5645 21.6156 13.6602 20.5 13.6602C19.3844 13.6602 18.48 14.5645 18.48 15.6802C18.48 16.7958 19.3844 17.7002 20.5 17.7002Z" fill="#898989"/>
<path d="M25.3896 25.9702C26.5052 25.9702 27.4096 25.0658 27.4096 23.9502C27.4096 22.8346 26.5052 21.9302 25.3896 21.9302C24.274 21.9302 23.3696 22.8346 23.3696 23.9502C23.3696 25.0658 24.274 25.9702 25.3896 25.9702Z" fill="#898989"/>
<path d="M15.6098 25.9702C16.7255 25.9702 17.6298 25.0658 17.6298 23.9502C17.6298 22.8346 16.7255 21.9302 15.6098 21.9302C14.4942 21.9302 13.5898 22.8346 13.5898 23.9502C13.5898 25.0658 14.4942 25.9702 15.6098 25.9702Z" fill="#898989"/>
<path d="M21.3501 15.68C21.3501 15.93 21.2501 16.15 21.0801 16.3C23.5801 16.59 25.5201 18.71 25.5201 21.28C25.5201 22.01 25.3601 22.71 25.0801 23.34C25.1601 23.32 25.2401 23.3 25.3301 23.3C25.6401 23.3 25.9101 23.47 26.0601 23.71C26.3901 22.96 26.5701 22.14 26.5701 21.28C26.5701 18.18 24.2501 15.63 21.2501 15.27C21.3101 15.39 21.3501 15.53 21.3501 15.68Z" fill="#898989"/>
<path d="M24.49 24.3198C23.57 25.5198 22.13 26.2998 20.5 26.2998C18.93 26.2998 17.52 25.5798 16.6 24.4398C16.48 24.7698 16.17 24.9998 15.81 24.9998C15.78 24.9998 15.74 24.9998 15.71 24.9898C16.82 26.4198 18.55 27.3398 20.5 27.3398C22.45 27.3398 24.18 26.4198 25.29 24.9898C24.89 24.9798 24.57 24.6998 24.49 24.3198Z" fill="#898989"/>
<path d="M15.8099 23.3C15.8399 23.3 15.8799 23.3 15.9099 23.31C15.6399 22.69 15.4799 22 15.4799 21.28C15.4799 18.7 17.4199 16.58 19.9199 16.3C19.7599 16.14 19.6499 15.92 19.6499 15.68C19.6499 15.53 19.6899 15.39 19.7599 15.27C16.7599 15.64 14.4399 18.19 14.4399 21.28C14.4399 22.2 14.6499 23.07 15.0099 23.86C15.1299 23.53 15.4399 23.3 15.8099 23.3Z" fill="#898989"/>
</g>
<defs>
<clipPath id="clip0_2_25421">
<rect width="15" height="15" fill="white" transform="translate(13 13)"/>
</clipPath>
</defs>
</svg>
