<svg width="40" height="40" viewBox="0 0 43 43" fill="none" xmlns="http://www.w3.org/2000/svg">
<rect x="0.25" y="0.25" width="42.5" height="42.5" rx="21.25" fill="white"/>
<rect x="0.25" y="0.25" width="42.5" height="42.5" rx="21.25" stroke="#DCDCDC" stroke-width="0.5"/>
<path d="M15.8064 24.9476L15.8063 24.9475C15.6623 24.71 15.4299 24.5395 15.1601 24.4734C14.8904 24.4073 14.6055 24.4511 14.368 24.5951C14.1305 24.739 13.96 24.9715 13.8939 25.2412C13.8278 25.5109 13.8716 25.7959 14.0156 26.0333C15.0524 27.745 16.6447 29.0496 18.527 29.7295C20.4093 30.4095 22.4679 30.4236 24.3593 29.7696C26.2508 29.1156 27.8609 27.833 28.9212 26.1356C29.9815 24.4382 30.4278 22.4287 30.1858 20.4421C30.0255 19.1249 29.5677 17.8615 28.847 16.7473C28.1264 15.6332 27.1618 14.6975 26.0262 14.0111L26.0261 14.0111C25.7885 13.8674 25.5035 13.8241 25.2339 13.8906C24.9643 13.9571 24.7321 14.1279 24.5885 14.3656C24.4449 14.6032 24.4015 14.8882 24.468 15.1578C24.5345 15.4274 24.7054 15.6596 24.943 15.8032C25.807 16.3253 26.5409 17.0371 27.0892 17.8847C27.6374 18.7323 27.9857 19.6935 28.1077 20.6956C28.2297 21.6976 28.1221 22.7143 27.7932 23.6687C27.4642 24.623 26.9225 25.49 26.209 26.2042C25.4955 26.9183 24.6289 27.4608 23.6748 27.7905C22.7207 28.1203 21.704 28.2288 20.7018 28.1077C19.6996 27.9867 18.738 27.6393 17.8899 27.0918C17.0418 26.5443 16.3293 25.8111 15.8064 24.9476ZM14.7188 16.5084L14.7843 16.7497L14.7188 16.5084C14.5517 16.5537 14.3953 16.6317 14.2585 16.7377C14.1217 16.8438 14.0072 16.9758 13.9217 17.1263C13.7504 17.4276 13.7052 17.7844 13.796 18.1189C13.8868 18.4534 14.1063 18.7383 14.4064 18.9116C14.7066 19.0849 15.0631 19.1325 15.3982 19.0439C15.7332 18.9553 16.0197 18.7378 16.195 18.4388C16.2825 18.2895 16.3397 18.1243 16.3631 17.9528C16.3866 17.7813 16.3758 17.6069 16.3316 17.4395C16.2874 17.2722 16.2104 17.1153 16.1053 16.9778C16.0002 16.8403 15.8689 16.7249 15.719 16.6384C15.5691 16.5518 15.4035 16.4958 15.2319 16.4735C15.0602 16.4512 14.8858 16.463 14.7188 16.5084ZM22.4282 14.9905C22.6744 14.7444 22.8127 14.4106 22.8127 14.0625C22.8127 13.7144 22.6744 13.3805 22.4282 13.1344C22.1821 12.8883 21.8482 12.75 21.5001 12.75C21.152 12.75 20.8182 12.8883 20.5721 13.1344C20.3259 13.3805 20.1876 13.7144 20.1876 14.0625C20.1876 14.4106 20.3259 14.7444 20.5721 14.9905C20.8182 15.2367 21.152 15.3749 21.5001 15.3749C21.8482 15.3749 22.1821 15.2367 22.4282 14.9905ZM14.9906 20.5717C14.7445 20.3256 14.4106 20.1873 14.0625 20.1873C13.7144 20.1873 13.3806 20.3256 13.1344 20.5717C12.8883 20.8178 12.75 21.1517 12.75 21.4998C12.75 21.8479 12.8883 22.1817 13.1344 22.4278C13.3806 22.674 13.7144 22.8122 14.0625 22.8122C14.4106 22.8122 14.7445 22.674 14.9906 22.4278C15.2368 22.1817 15.375 21.8479 15.375 21.4998C15.375 21.1517 15.2368 20.8178 14.9906 20.5717ZM18.4362 16.1965C18.5866 16.1109 18.7187 15.9965 18.8247 15.8597C18.9308 15.7229 19.0087 15.5665 19.0541 15.3994C19.0995 15.2324 19.1113 15.058 19.089 14.8864C19.0667 14.7147 19.0106 14.5492 18.9241 14.3993C18.8375 14.2494 18.7222 14.1181 18.5847 14.013C18.4472 13.9078 18.2903 13.8309 18.1229 13.7867C17.9556 13.7424 17.7811 13.7317 17.6096 13.7552C17.4381 13.7786 17.273 13.8358 17.1236 13.9233C16.8246 14.0986 16.6071 14.385 16.5185 14.7201C16.4299 15.0551 16.4775 15.4116 16.6508 15.7118C16.8241 16.0119 17.1091 16.2314 17.4435 16.3222C17.778 16.413 18.1349 16.3678 18.4362 16.1965Z" fill="#898989" stroke="#898989" stroke-width="0.5"/>
</svg>
