<svg width="41" height="41" viewBox="0 0 41 41" fill="none" xmlns="http://www.w3.org/2000/svg">
<rect x="0.25" y="0.25" width="40.5" height="40.5" rx="20.25" fill="white"/>
<rect x="0.25" y="0.25" width="40.5" height="40.5" rx="20.25" stroke="#DCDCDC" stroke-width="0.5"/>
<path d="M22.4604 15.2502C22.4604 15.2002 22.4704 15.1502 22.4704 15.1002V14.3402C22.4704 13.8802 22.0904 13.4902 21.6204 13.4902H19.2904C18.8304 13.4902 18.4404 13.8702 18.4404 14.3402V15.1002C18.4404 15.1502 18.4504 15.2002 18.4504 15.2402H17.6504V16.4702H23.2604V15.2502H22.4604Z" fill="#898989"/>
<path d="M24.1602 15.6001H23.9102V16.8301H17.0802V15.6001H16.8402C15.8202 15.6001 14.9902 16.4301 14.9902 17.4501V25.6501C14.9902 26.6701 15.8202 27.5001 16.8402 27.5001H24.1702C25.1902 27.5001 26.0202 26.6701 26.0202 25.6501V17.4501C26.0202 16.4301 25.1802 15.6001 24.1602 15.6001ZM17.3502 23.9201C17.0602 23.9201 16.8202 23.6801 16.8202 23.3901C16.8202 23.1001 17.0602 22.8601 17.3502 22.8601C17.6402 22.8601 17.8802 23.1001 17.8802 23.3901C17.8802 23.6801 17.6402 23.9201 17.3502 23.9201ZM17.3502 21.8101C17.0602 21.8101 16.8202 21.5701 16.8202 21.2801C16.8202 20.9901 17.0602 20.7501 17.3502 20.7501C17.6402 20.7501 17.8702 21.0001 17.8702 21.2901C17.8702 21.5801 17.6402 21.8101 17.3502 21.8101ZM17.3502 19.7101C17.0602 19.7101 16.8202 19.4701 16.8202 19.1801C16.8202 18.8901 17.0602 18.6501 17.3502 18.6501C17.6402 18.6501 17.8702 18.9001 17.8702 19.1901C17.8702 19.4801 17.6402 19.7101 17.3502 19.7101ZM23.6502 23.9201H19.1002C18.8102 23.9201 18.5702 23.6801 18.5702 23.3901C18.5702 23.1001 18.8102 22.8601 19.1002 22.8601H23.6502C23.9402 22.8601 24.1802 23.1001 24.1802 23.3901C24.1802 23.6801 23.9402 23.9201 23.6502 23.9201ZM23.6502 21.8101H19.1002C18.8102 21.8101 18.5702 21.5701 18.5702 21.2801C18.5702 21.0001 18.8102 20.7601 19.1002 20.7601H23.6502C23.9402 20.7601 24.1802 21.0001 24.1802 21.2901C24.1802 21.5801 23.9402 21.8101 23.6502 21.8101ZM23.6502 19.7101H19.1002C18.8102 19.7101 18.5702 19.4701 18.5702 19.1801C18.5702 18.8901 18.8102 18.6501 19.1002 18.6501H23.6502C23.9402 18.6501 24.1802 18.8901 24.1802 19.1801C24.1802 19.4801 23.9402 19.7101 23.6502 19.7101Z" fill="#898989"/>
</svg>
