<svg width="41" height="41" viewBox="0 0 41 41" fill="none" xmlns="http://www.w3.org/2000/svg">
<rect x="0.25" y="0.25" width="40.5" height="40.5" rx="20.25" fill="white"/>
<rect x="0.25" y="0.25" width="40.5" height="40.5" rx="20.25" stroke="#DCDCDC" stroke-width="0.5"/>
<path d="M18.1792 18.6294V25.1162C18.1792 26.1507 19.0271 26.9902 20.0532 26.9902H22.8853C23.9198 26.9902 24.7593 26.1422 24.7593 25.1162V18.6294H18.1792ZM20.2906 25.0568C20.2906 25.3028 20.0871 25.5063 19.8412 25.5063C19.5953 25.5063 19.3918 25.3028 19.3918 25.0568V20.5542C19.3918 20.3083 19.5953 20.1048 19.8412 20.1048C20.0871 20.1048 20.2906 20.3083 20.2906 20.5542V25.0568ZM21.9271 25.0568C21.9271 25.3028 21.7236 25.5063 21.4777 25.5063C21.2318 25.5063 21.0283 25.3028 21.0283 25.0568V20.5542C21.0283 20.3083 21.2318 20.1048 21.4777 20.1048C21.7236 20.1048 21.9271 20.3083 21.9271 20.5542V25.0568ZM23.5552 25.0568C23.5552 25.3028 23.3517 25.5063 23.1058 25.5063C22.8599 25.5063 22.6564 25.3028 22.6564 25.0568V20.5542C22.6564 20.3083 22.8599 20.1048 23.1058 20.1048C23.3517 20.1048 23.5552 20.3083 23.5552 20.5542V25.0568Z" fill="#898989"/>
<path d="M20.9096 15.2544C20.5704 14.9152 20.0023 14.9152 19.6631 15.2544L19.2392 15.6784C18.8661 15.3137 18.2979 15.2629 17.9333 15.5936L16.6444 16.7892C16.2798 17.1284 16.2798 17.7304 16.6444 18.1205L16.7123 18.1968L16.2544 18.6631C15.9152 19.0023 15.9152 19.5704 16.2544 19.9096L17.0091 20.6643L21.6643 16.0091L20.9096 15.2544ZM17.1447 16.8231L17.9248 16.1023C18.1962 15.8479 18.6032 15.814 18.9424 15.9751L17.0006 17.9169C16.8056 17.5438 16.8479 17.0944 17.1447 16.8231Z" fill="#898989"/>
<path d="M21.1216 17.883H24.7678V17.1029C24.7678 17.1029 24.6575 16.45 23.8944 16.662C23.1312 16.874 21.4523 17.3827 21.4523 17.3827C21.4523 17.3827 21.1555 17.476 21.1216 17.883Z" fill="#898989"/>
</svg>
