<svg width="41" height="41" viewBox="0 0 41 41" fill="none" xmlns="http://www.w3.org/2000/svg">
<rect x="0.25" y="0.25" width="40.5" height="40.5" rx="20.25" fill="white"/>
<rect x="0.25" y="0.25" width="40.5" height="40.5" rx="20.25" stroke="#DCDCDC" stroke-width="0.5"/>
<path d="M25.2613 19.5216L22.377 16.6372L16.1679 22.8462L19.0523 25.7306L25.2613 19.5216Z" fill="#898989"/>
<path d="M22.8184 16.1997L25.7875 18.9974C26.1936 18.5913 27.0238 18.0408 26.8704 17.382C26.8163 17.1112 26.6448 16.8766 26.4643 16.669C26.0943 16.2358 25.6701 15.8568 25.246 15.4778C25.0474 15.2973 24.8399 15.1168 24.5782 15.0356C23.802 14.81 23.2606 15.7124 22.8184 16.1997Z" fill="#898989"/>
<path d="M15.8511 23.0493L15.0028 26.8577C14.9847 26.9389 15.0569 27.0111 15.1382 26.9841L18.748 25.9372L15.8511 23.0493Z" fill="#898989"/>
</svg>
