<svg width="15" height="18" viewBox="0 0 15 18" fill="none" xmlns="http://www.w3.org/2000/svg">
<path d="M6.15212 2.84277H0.745897C0.143751 2.84277 -0.209615 3.52175 0.135854 4.01512C0.140286 4.02175 0.0209754 3.85912 4.46793 9.91251C4.6652 10.1986 4.60616 9.89255 4.60616 16.2757C4.60616 16.9169 5.33891 17.2872 5.85697 16.9018C7.77392 15.4567 8.2397 15.294 8.2397 14.5377C8.2397 10.0762 8.18236 10.1961 8.37793 9.91251L9.30586 8.64901C6.9709 7.79955 5.5714 5.33032 6.15212 2.84277Z" fill="white"/>
<path d="M8.36448 1.00506C5.86313 3.24766 7.07559 7.24709 10.229 7.87013C12.7438 8.40147 14.9998 6.40859 14.9998 3.97381C14.9998 0.55564 10.923 -1.26233 8.36448 1.00506ZM12.3136 4.5635C12.6306 4.87888 12.404 5.41896 11.9603 5.41896C11.6933 5.41896 11.6264 5.29269 11.012 4.68071C10.4102 5.27989 10.3367 5.41896 10.0634 5.41896C9.61865 5.41896 9.39495 4.87708 9.71014 4.5635L10.3022 3.97381L9.71014 3.38413C9.24013 2.91652 9.94809 2.20729 10.417 2.67456L11.012 3.26692L11.6067 2.67456C12.0756 2.20729 12.7838 2.91625 12.3136 3.38413L11.7215 3.97381L12.3136 4.5635Z" fill="white"/>
</svg>
