<svg width="285" height="286" viewBox="0 0 285 286" fill="none" xmlns="http://www.w3.org/2000/svg">
<path d="M51.8932 83.8934C51.9326 83.8934 51.9642 83.8611 51.9642 83.8215C51.9642 83.7818 51.9324 83.7495 51.8932 83.7495C51.8541 83.7495 51.8223 83.7818 51.8223 83.8215C51.8224 83.8613 51.8541 83.8934 51.8932 83.8934Z" fill="#898989"/>
<path d="M64.7698 84.04C64.8882 84.04 64.9841 83.9426 64.9841 83.8221C64.9841 83.7017 64.8882 83.6045 64.7698 83.6045C64.6515 83.6045 64.5557 83.7019 64.5557 83.8221C64.5555 83.9424 64.6515 84.04 64.7698 84.04Z" fill="#898989"/>
<path d="M77.6451 84.1852C77.8424 84.1852 78.0021 84.0225 78.0021 83.8219C78.0021 83.6214 77.8422 83.459 77.6451 83.459C77.4479 83.459 77.2881 83.6216 77.2881 83.8219C77.2881 84.0225 77.4477 84.1852 77.6451 84.1852Z" fill="#898989"/>
<path d="M90.5205 84.2216C90.7375 84.2216 90.9133 84.0428 90.9133 83.8221C90.9133 83.6017 90.7375 83.4229 90.5205 83.4229C90.3038 83.4229 90.1279 83.6017 90.1279 83.8221C90.1279 84.0428 90.3038 84.2216 90.5205 84.2216Z" fill="#898989"/>
<path d="M103.395 84.1852C103.593 84.1852 103.752 84.0225 103.752 83.8219C103.752 83.6214 103.593 83.459 103.395 83.459C103.198 83.459 103.038 83.6216 103.038 83.8219C103.038 84.0225 103.198 84.1852 103.395 84.1852Z" fill="#898989"/>
<path d="M116.271 84.0762C116.409 84.0762 116.521 83.9625 116.521 83.822C116.521 83.6818 116.409 83.5679 116.271 83.5679C116.133 83.5679 116.021 83.6816 116.021 83.822C116.021 83.9625 116.133 84.0762 116.271 84.0762Z" fill="#898989"/>
<path d="M129.147 83.9305C129.206 83.9305 129.254 83.8819 129.254 83.8218C129.254 83.7619 129.206 83.7134 129.147 83.7134C129.087 83.7134 129.04 83.7617 129.04 83.8218C129.04 83.8819 129.087 83.9305 129.147 83.9305Z" fill="#898989"/>
<path d="M26.1429 96.9528C26.1625 96.9528 26.1784 96.9365 26.1784 96.9164C26.1784 96.8962 26.1625 96.8809 26.1429 96.8809C26.1233 96.8809 26.1074 96.8962 26.1074 96.9164C26.1074 96.9365 26.1233 96.9528 26.1429 96.9528Z" fill="#898989"/>
<path d="M39.0194 97.1706C39.1574 97.1706 39.2693 97.0569 39.2693 96.9163C39.2693 96.7767 39.1575 96.6621 39.0194 96.6621C38.8813 96.6621 38.7695 96.7767 38.7695 96.9163C38.7693 97.0569 38.8813 97.1706 39.0194 97.1706Z" fill="#898989"/>
<path d="M51.8944 97.4982C52.21 97.4982 52.4657 97.2373 52.4657 96.9166C52.4657 96.5959 52.21 96.3359 51.8944 96.3359C51.579 96.3359 51.3232 96.5959 51.3232 96.9166C51.3232 97.2373 51.579 97.4982 51.8944 97.4982Z" fill="#898989"/>
<path d="M64.7699 97.7155C65.2036 97.7155 65.5553 97.3573 65.5553 96.9163C65.5553 96.4752 65.2036 96.1177 64.7699 96.1177C64.3361 96.1177 63.9844 96.4752 63.9844 96.9163C63.9844 97.3573 64.3359 97.7155 64.7699 97.7155Z" fill="#898989"/>
<path d="M77.645 97.861C78.1576 97.861 78.5733 97.4383 78.5733 96.9164C78.5733 96.3954 78.1576 95.9727 77.645 95.9727C77.1323 95.9727 76.7168 96.3954 76.7168 96.9164C76.7166 97.4383 77.1323 97.861 77.645 97.861Z" fill="#898989"/>
<path d="M90.5201 97.9333C91.0722 97.9333 91.5199 97.4778 91.5199 96.9164C91.5199 96.355 91.0724 95.8999 90.5201 95.8999C89.968 95.8999 89.5205 96.355 89.5205 96.9164C89.5205 97.4778 89.968 97.9333 90.5201 97.9333Z" fill="#898989"/>
<path d="M103.396 97.8968C103.929 97.8968 104.359 97.4587 104.359 96.9165C104.359 96.3753 103.929 95.9365 103.396 95.9365C102.863 95.9365 102.432 96.3753 102.432 96.9165C102.432 97.4587 102.863 97.8968 103.396 97.8968Z" fill="#898989"/>
<path d="M116.271 97.7523C116.725 97.7523 117.092 97.3787 117.092 96.9164C117.092 96.4552 116.725 96.0815 116.271 96.0815C115.818 96.0815 115.449 96.4552 115.449 96.9164C115.449 97.3787 115.817 97.7523 116.271 97.7523Z" fill="#898989"/>
<path d="M129.147 97.5338C129.482 97.5338 129.754 97.2575 129.754 96.9166C129.754 96.5757 129.482 96.2993 129.147 96.2993C128.812 96.2993 128.54 96.5757 128.54 96.9166C128.54 97.2584 128.812 97.5338 129.147 97.5338Z" fill="#898989"/>
<path d="M142.022 97.2071C142.179 97.2071 142.307 97.0771 142.307 96.9163C142.307 96.7565 142.179 96.6265 142.022 96.6265C141.864 96.6265 141.736 96.7565 141.736 96.9163C141.736 97.0771 141.864 97.2071 142.022 97.2071Z" fill="#898989"/>
<path d="M154.897 96.9528C154.917 96.9528 154.933 96.9365 154.933 96.9164C154.933 96.8962 154.917 96.8809 154.897 96.8809C154.877 96.8809 154.862 96.8962 154.862 96.9164C154.862 96.9365 154.877 96.9528 154.897 96.9528Z" fill="#898989"/>
<path d="M13.2679 110.047C13.2875 110.047 13.3034 110.031 13.3034 110.011C13.3034 109.991 13.2875 109.975 13.2679 109.975C13.2483 109.975 13.2324 109.991 13.2324 110.011C13.2324 110.031 13.2483 110.047 13.2679 110.047Z" fill="#898989"/>
<path d="M26.144 110.375C26.3412 110.375 26.5011 110.212 26.5011 110.012C26.5011 109.811 26.3412 109.648 26.144 109.648C25.9467 109.648 25.7871 109.811 25.7871 110.012C25.7869 110.212 25.9467 110.375 26.144 110.375Z" fill="#898989"/>
<path d="M39.0192 110.774C39.4332 110.774 39.769 110.433 39.769 110.012C39.769 109.591 39.4332 109.249 39.0192 109.249C38.6052 109.249 38.2695 109.591 38.2695 110.012C38.2695 110.433 38.6051 110.774 39.0192 110.774Z" fill="#898989"/>
<path d="M51.8937 111.137C52.5051 111.137 53.0005 110.633 53.0005 110.012C53.0005 109.39 52.5051 108.886 51.8937 108.886C51.2825 108.886 50.7871 109.39 50.7871 110.012C50.7871 110.633 51.2825 111.137 51.8937 111.137Z" fill="#898989"/>
<path d="M64.7698 111.391C65.5192 111.391 66.1266 110.773 66.1266 110.012C66.1266 109.249 65.5192 108.631 64.7698 108.631C64.0207 108.631 63.4131 109.249 63.4131 110.012C63.4131 110.773 64.0205 111.391 64.7698 111.391Z" fill="#898989"/>
<path d="M78.6192 111.224C79.2771 110.68 79.3768 109.696 78.8418 109.028C78.3068 108.358 77.3399 108.257 76.6819 108.801C76.0241 109.345 75.9245 110.329 76.4593 110.998C76.9943 111.666 77.9613 111.768 78.6192 111.224Z" fill="#898989"/>
<path d="M91.9932 110.637C92.3345 109.804 91.9473 108.847 91.1283 108.5C90.3094 108.152 89.3687 108.546 89.0274 109.379C88.686 110.212 89.0733 111.169 89.8922 111.516C90.7112 111.864 91.6518 111.47 91.9932 110.637Z" fill="#898989"/>
<path d="M103.395 111.609C104.263 111.609 104.966 110.894 104.966 110.012C104.966 109.129 104.263 108.413 103.395 108.413C102.528 108.413 101.824 109.129 101.824 110.012C101.824 110.894 102.528 111.609 103.395 111.609Z" fill="#898989"/>
<path d="M116.272 111.427C117.041 111.427 117.664 110.794 117.664 110.012C117.664 109.229 117.041 108.595 116.272 108.595C115.502 108.595 114.879 109.229 114.879 110.012C114.879 110.794 115.502 111.427 116.272 111.427Z" fill="#898989"/>
<path d="M129.147 111.137C129.758 111.137 130.254 110.633 130.254 110.012C130.254 109.39 129.758 108.886 129.147 108.886C128.535 108.886 128.04 109.39 128.04 110.012C128.04 110.633 128.535 111.137 129.147 111.137Z" fill="#898989"/>
<path d="M142.022 110.81C142.456 110.81 142.808 110.453 142.808 110.012C142.808 109.57 142.456 109.212 142.022 109.212C141.589 109.212 141.236 109.57 141.236 110.012C141.236 110.453 141.589 110.81 142.022 110.81Z" fill="#898989"/>
<path d="M154.897 110.411C155.114 110.411 155.29 110.232 155.29 110.012C155.29 109.791 155.114 109.612 154.897 109.612C154.68 109.612 154.504 109.791 154.504 110.012C154.504 110.232 154.68 110.411 154.897 110.411Z" fill="#898989"/>
<path d="M167.772 110.047C167.792 110.047 167.808 110.031 167.808 110.011C167.808 109.991 167.792 109.975 167.772 109.975C167.752 109.975 167.737 109.991 167.737 110.011C167.737 110.031 167.752 110.047 167.772 110.047Z" fill="#898989"/>
<path d="M13.2675 123.36C13.4056 123.36 13.5174 123.247 13.5174 123.106C13.5174 122.966 13.4056 122.852 13.2675 122.852C13.1296 122.852 13.0176 122.966 13.0176 123.106C13.0178 123.247 13.1296 123.36 13.2675 123.36Z" fill="#898989"/>
<path d="M26.1432 123.869C26.5572 123.869 26.8929 123.527 26.8929 123.106C26.8929 122.685 26.5572 122.343 26.1432 122.343C25.7292 122.343 25.3936 122.685 25.3936 123.106C25.3934 123.527 25.729 123.869 26.1432 123.869Z" fill="#898989"/>
<path d="M39.0187 124.341C39.689 124.341 40.2326 123.788 40.2326 123.106C40.2326 122.424 39.689 121.872 39.0187 121.872C38.3485 121.872 37.8047 122.424 37.8047 123.106C37.8047 123.788 38.3483 124.341 39.0187 124.341Z" fill="#898989"/>
<path d="M51.8937 124.74C52.781 124.74 53.5003 124.009 53.5003 123.106C53.5003 122.204 52.781 121.472 51.8937 121.472C51.0064 121.472 50.2871 122.204 50.2871 123.106C50.2871 124.009 51.0064 124.74 51.8937 124.74Z" fill="#898989"/>
<path d="M64.7699 125.067C65.8346 125.067 66.6979 124.188 66.6979 123.106C66.6979 122.023 65.8346 121.146 64.7699 121.146C63.7051 121.146 62.8418 122.023 62.8418 123.106C62.8418 124.188 63.7049 125.067 64.7699 125.067Z" fill="#898989"/>
<path d="M77.6452 125.284C78.8282 125.284 79.7873 124.309 79.7873 123.106C79.7873 121.902 78.8282 120.927 77.6452 120.927C76.4621 120.927 75.5029 121.902 75.5029 123.106C75.5029 124.309 76.4621 125.284 77.6452 125.284Z" fill="#898989"/>
<path d="M90.5203 125.358C91.7428 125.358 92.7338 124.35 92.7338 123.106C92.7338 121.863 91.7428 120.855 90.5203 120.855C89.2978 120.855 88.3066 121.863 88.3066 123.106C88.3068 124.35 89.2978 125.358 90.5203 125.358Z" fill="#898989"/>
<path d="M103.396 125.284C104.579 125.284 105.538 124.309 105.538 123.106C105.538 121.902 104.579 120.927 103.396 120.927C102.213 120.927 101.254 121.902 101.254 123.106C101.254 124.309 102.213 125.284 103.396 125.284Z" fill="#898989"/>
<path d="M116.271 125.103C117.356 125.103 118.234 124.209 118.234 123.106C118.234 122.003 117.356 121.109 116.271 121.109C115.186 121.109 114.308 122.003 114.308 123.106C114.308 124.209 115.186 125.103 116.271 125.103Z" fill="#898989"/>
<path d="M129.147 124.776C130.054 124.776 130.789 124.029 130.789 123.106C130.789 122.184 130.054 121.436 129.147 121.436C128.24 121.436 127.504 122.184 127.504 123.106C127.504 124.029 128.24 124.776 129.147 124.776Z" fill="#898989"/>
<path d="M142.022 124.377C142.713 124.377 143.272 123.808 143.272 123.106C143.272 122.404 142.713 121.835 142.022 121.835C141.332 121.835 140.772 122.404 140.772 123.106C140.772 123.808 141.332 124.377 142.022 124.377Z" fill="#898989"/>
<path d="M154.897 123.905C155.331 123.905 155.683 123.547 155.683 123.106C155.683 122.664 155.331 122.307 154.897 122.307C154.464 122.307 154.112 122.664 154.112 123.106C154.112 123.547 154.464 123.905 154.897 123.905Z" fill="#898989"/>
<path d="M167.772 123.433C167.95 123.433 168.094 123.286 168.094 123.106C168.094 122.925 167.95 122.779 167.772 122.779C167.595 122.779 167.451 122.925 167.451 123.106C167.451 123.286 167.595 123.433 167.772 123.433Z" fill="#898989"/>
<path d="M0.39229 136.272C0.431431 136.272 0.46329 136.24 0.46329 136.2C0.46329 136.16 0.431431 136.128 0.39229 136.128C0.352967 136.128 0.32129 136.16 0.32129 136.2C0.321108 136.24 0.352967 136.272 0.39229 136.272Z" fill="#898989"/>
<path d="M13.2684 136.781C13.584 136.781 13.8397 136.521 13.8397 136.2C13.8397 135.88 13.584 135.62 13.2684 135.62C12.953 135.62 12.6973 135.88 12.6973 136.2C12.6973 136.521 12.953 136.781 13.2684 136.781Z" fill="#898989"/>
<path d="M26.1439 137.326C26.7551 137.326 27.2507 136.822 27.2507 136.2C27.2507 135.578 26.7551 135.075 26.1439 135.075C25.5327 135.075 25.0371 135.578 25.0371 136.2C25.0369 136.822 25.5325 137.326 26.1439 137.326Z" fill="#898989"/>
<path d="M39.3677 137.789C40.2331 137.589 40.7759 136.714 40.5801 135.834C40.3842 134.954 39.5239 134.402 38.6586 134.601C37.7932 134.801 37.2503 135.675 37.4462 136.555C37.642 137.435 38.5024 137.988 39.3677 137.789Z" fill="#898989"/>
<path d="M51.894 138.307C53.0377 138.307 53.9649 137.364 53.9649 136.201C53.9649 135.037 53.0377 134.095 51.894 134.095C50.7504 134.095 49.8232 135.037 49.8232 136.201C49.8232 137.364 50.7504 138.307 51.894 138.307Z" fill="#898989"/>
<path d="M66.4844 137.946C67.4326 136.982 67.4326 135.419 66.4844 134.454C65.5363 133.49 63.999 133.49 63.051 134.454C62.1028 135.419 62.1028 136.982 63.051 137.946C63.999 138.911 65.5363 138.911 66.4844 137.946Z" fill="#898989"/>
<path d="M77.645 138.96C79.1436 138.96 80.3583 137.725 80.3583 136.2C80.3583 134.676 79.1436 133.44 77.645 133.44C76.1465 133.44 74.9316 134.676 74.9316 136.2C74.9316 137.725 76.1463 138.96 77.645 138.96Z" fill="#898989"/>
<path d="M90.5207 139.069C92.0784 139.069 93.3412 137.785 93.3412 136.201C93.3412 134.617 92.0786 133.332 90.5207 133.332C88.9629 133.332 87.7002 134.617 87.7002 136.201C87.7002 137.785 88.9631 139.069 90.5207 139.069Z" fill="#898989"/>
<path d="M104.454 138.785C105.856 138.194 106.523 136.559 105.941 135.132C105.361 133.706 103.752 133.028 102.349 133.619C100.947 134.21 100.28 135.845 100.861 137.272C101.443 138.699 103.051 139.377 104.454 138.785Z" fill="#898989"/>
<path d="M116.271 138.706C117.632 138.706 118.735 137.584 118.735 136.2C118.735 134.817 117.632 133.695 116.271 133.695C114.911 133.695 113.808 134.817 113.808 136.2C113.808 137.584 114.911 138.706 116.271 138.706Z" fill="#898989"/>
<path d="M129.147 138.343C130.309 138.343 131.253 137.384 131.253 136.201C131.253 135.017 130.309 134.058 129.147 134.058C127.983 134.058 127.04 135.017 127.04 136.201C127.04 137.384 127.983 138.343 129.147 138.343Z" fill="#898989"/>
<path d="M142.022 137.87C142.929 137.87 143.664 137.123 143.664 136.201C143.664 135.278 142.929 134.53 142.022 134.53C141.115 134.53 140.379 135.278 140.379 136.201C140.379 137.123 141.115 137.87 142.022 137.87Z" fill="#898989"/>
<path d="M154.897 137.363C155.528 137.363 156.04 136.842 156.04 136.2C156.04 135.559 155.528 135.038 154.897 135.038C154.266 135.038 153.755 135.559 153.755 136.2C153.755 136.842 154.266 137.363 154.897 137.363Z" fill="#898989"/>
<path d="M167.772 136.818C168.107 136.818 168.379 136.542 168.379 136.201C168.379 135.86 168.107 135.583 167.772 135.583C167.437 135.583 167.165 135.86 167.165 136.201C167.165 136.542 167.437 136.818 167.772 136.818Z" fill="#898989"/>
<path d="M180.647 136.309C180.707 136.309 180.755 136.261 180.755 136.2C180.755 136.141 180.707 136.092 180.647 136.092C180.588 136.092 180.54 136.14 180.54 136.2C180.54 136.26 180.588 136.309 180.647 136.309Z" fill="#898989"/>
<path d="M0.392938 149.512C0.511303 149.512 0.607163 149.415 0.607163 149.295C0.607163 149.174 0.511303 149.077 0.392938 149.077C0.274574 149.077 0.178711 149.174 0.178711 149.295C0.178711 149.415 0.274574 149.512 0.392938 149.512Z" fill="#898989"/>
<path d="M13.2678 150.094C13.7018 150.094 14.0534 149.736 14.0534 149.295C14.0534 148.854 13.7018 148.497 13.2678 148.497C12.8341 148.497 12.4824 148.854 12.4824 149.295C12.4824 149.736 12.8341 150.094 13.2678 150.094Z" fill="#898989"/>
<path d="M26.1438 150.675C26.8932 150.675 27.5006 150.058 27.5006 149.295C27.5006 148.533 26.8932 147.915 26.1438 147.915C25.3947 147.915 24.7871 148.533 24.7871 149.295C24.7871 150.058 25.3945 150.675 26.1438 150.675Z" fill="#898989"/>
<path d="M39.0189 151.256C40.0836 151.256 40.9467 150.378 40.9467 149.295C40.9467 148.213 40.0836 147.334 39.0189 147.334C37.9542 147.334 37.0908 148.213 37.0908 149.295C37.0908 150.378 37.954 151.256 39.0189 151.256Z" fill="#898989"/>
<path d="M53.6093 151.041C54.5575 150.076 54.5575 148.513 53.6093 147.548C52.6613 146.584 51.1241 146.584 50.1759 147.548C49.2278 148.513 49.2278 150.076 50.1759 151.041C51.1241 152.005 52.6613 152.005 53.6093 151.041Z" fill="#898989"/>
<path d="M64.7694 152.272C66.3864 152.272 67.6971 150.94 67.6971 149.295C67.6971 147.651 66.3864 146.317 64.7694 146.317C63.1526 146.317 61.8418 147.65 61.8418 149.295C61.8418 150.94 63.1526 152.272 64.7694 152.272Z" fill="#898989"/>
<path d="M77.6451 152.636C79.4592 152.636 80.9298 151.14 80.9298 149.295C80.9298 147.45 79.4592 145.955 77.6451 145.955C75.831 145.955 74.3604 147.45 74.3604 149.295C74.3604 151.14 75.831 152.636 77.6451 152.636Z" fill="#898989"/>
<path d="M90.5202 152.781C92.4131 152.781 93.9476 151.22 93.9476 149.295C93.9476 147.37 92.4131 145.809 90.5202 145.809C88.6273 145.809 87.0928 147.37 87.0928 149.295C87.093 151.221 88.6275 152.781 90.5202 152.781Z" fill="#898989"/>
<path d="M103.395 152.636C105.209 152.636 106.68 151.14 106.68 149.295C106.68 147.45 105.209 145.955 103.395 145.955C101.581 145.955 100.11 147.45 100.11 149.295C100.11 151.14 101.581 152.636 103.395 152.636Z" fill="#898989"/>
<path d="M116.271 152.309C117.907 152.309 119.234 150.96 119.234 149.295C119.234 147.631 117.907 146.281 116.271 146.281C114.634 146.281 113.308 147.63 113.308 149.295C113.308 150.96 114.634 152.309 116.271 152.309Z" fill="#898989"/>
<path d="M129.147 151.837C130.527 151.837 131.646 150.699 131.646 149.295C131.646 147.891 130.527 146.753 129.147 146.753C127.767 146.753 126.647 147.892 126.647 149.295C126.647 150.699 127.767 151.837 129.147 151.837Z" fill="#898989"/>
<path d="M142.021 151.292C143.105 151.292 143.985 150.399 143.985 149.295C143.985 148.192 143.105 147.298 142.021 147.298C140.937 147.298 140.058 148.192 140.058 149.295C140.058 150.399 140.937 151.292 142.021 151.292Z" fill="#898989"/>
<path d="M155.905 150.322C156.462 149.755 156.462 148.835 155.905 148.268C155.347 147.701 154.443 147.701 153.885 148.268C153.327 148.835 153.327 149.755 153.885 150.322C154.443 150.889 155.347 150.889 155.905 150.322Z" fill="#898989"/>
<path d="M167.772 150.166C168.245 150.166 168.629 149.776 168.629 149.295C168.629 148.813 168.245 148.423 167.772 148.423C167.299 148.423 166.915 148.813 166.915 149.295C166.915 149.776 167.299 150.166 167.772 150.166Z" fill="#898989"/>
<path d="M180.647 149.586C180.805 149.586 180.933 149.456 180.933 149.295C180.933 149.134 180.805 149.004 180.647 149.004C180.49 149.004 180.362 149.134 180.362 149.295C180.362 149.456 180.49 149.586 180.647 149.586Z" fill="#898989"/>
<path d="M0.393241 162.753C0.590453 162.753 0.750161 162.591 0.750161 162.389C0.750161 162.189 0.590271 162.026 0.393241 162.026C0.196028 162.026 0.0361328 162.189 0.0361328 162.389C0.0361328 162.591 0.196028 162.753 0.393241 162.753Z" fill="#898989"/>
<path d="M13.2679 163.334C13.7808 163.334 14.1962 162.911 14.1962 162.389C14.1962 161.868 13.7806 161.445 13.2679 161.445C12.7553 161.445 12.3398 161.868 12.3398 162.389C12.3398 162.911 12.7553 163.334 13.2679 163.334Z" fill="#898989"/>
<path d="M26.1437 163.951C26.9915 163.951 27.6789 163.252 27.6789 162.389C27.6789 161.527 26.9916 160.828 26.1437 160.828C25.2958 160.828 24.6084 161.527 24.6084 162.389C24.6084 163.252 25.2958 163.951 26.1437 163.951Z" fill="#898989"/>
<path d="M39.0192 164.568C40.2023 164.568 41.1613 163.593 41.1613 162.389C41.1613 161.186 40.2023 160.211 39.0192 160.211C37.8361 160.211 36.877 161.186 36.877 162.389C36.877 163.593 37.8361 164.568 39.0192 164.568Z" fill="#898989"/>
<path d="M51.894 165.149C53.3927 165.149 54.6074 163.914 54.6074 162.389C54.6074 160.866 53.3927 159.63 51.894 159.63C50.3956 159.63 49.1807 160.866 49.1807 162.389C49.1808 163.914 50.3956 165.149 51.894 165.149Z" fill="#898989"/>
<path d="M66.2348 165.371C67.8573 164.545 68.515 162.539 67.7037 160.889C66.8925 159.238 64.9194 158.569 63.2969 159.394C61.6743 160.22 61.0167 162.227 61.828 163.876C62.6393 165.527 64.6122 166.196 66.2348 165.371Z" fill="#898989"/>
<path d="M77.6453 166.202C79.7157 166.202 81.3941 164.495 81.3941 162.389C81.3941 160.284 79.7157 158.577 77.6453 158.577C75.575 158.577 73.8965 160.284 73.8965 162.389C73.8965 164.495 75.5748 166.202 77.6453 166.202Z" fill="#898989"/>
<path d="M90.5203 166.457C92.7287 166.457 94.519 164.636 94.519 162.389C94.519 160.144 92.7287 158.323 90.5203 158.323C88.3118 158.323 86.5215 160.144 86.5215 162.389C86.5217 164.636 88.312 166.457 90.5203 166.457Z" fill="#898989"/>
<path d="M103.395 166.238C105.486 166.238 107.179 164.516 107.179 162.389C107.179 160.264 105.486 158.541 103.395 158.541C101.305 158.541 99.6104 160.264 99.6104 162.389C99.6104 164.516 101.305 166.238 103.395 166.238Z" fill="#898989"/>
<path d="M116.272 165.766C118.105 165.766 119.592 164.255 119.592 162.389C119.592 160.525 118.105 159.013 116.272 159.013C114.438 159.013 112.951 160.525 112.951 162.389C112.951 164.255 114.438 165.766 116.272 165.766Z" fill="#898989"/>
<path d="M129.147 165.186C130.665 165.186 131.896 163.934 131.896 162.389C131.896 160.846 130.665 159.594 129.147 159.594C127.628 159.594 126.397 160.846 126.397 162.389C126.397 163.934 127.628 165.186 129.147 165.186Z" fill="#898989"/>
<path d="M142.021 164.605C143.224 164.605 144.199 163.613 144.199 162.389C144.199 161.166 143.224 160.174 142.021 160.174C140.819 160.174 139.844 161.166 139.844 162.389C139.844 163.613 140.819 164.605 142.021 164.605Z" fill="#898989"/>
<path d="M154.897 164.023C155.784 164.023 156.504 163.291 156.504 162.389C156.504 161.487 155.784 160.756 154.897 160.756C154.01 160.756 153.29 161.487 153.29 162.389C153.29 163.291 154.01 164.023 154.897 164.023Z" fill="#898989"/>
<path d="M167.772 163.406C168.325 163.406 168.772 162.951 168.772 162.389C168.772 161.828 168.325 161.373 167.772 161.373C167.22 161.373 166.772 161.828 166.772 162.389C166.772 162.951 167.22 163.406 167.772 163.406Z" fill="#898989"/>
<path d="M180.649 162.789C180.866 162.789 181.041 162.611 181.041 162.389C181.041 162.169 180.866 161.991 180.649 161.991C180.431 161.991 180.256 162.169 180.256 162.389C180.256 162.611 180.432 162.789 180.649 162.789Z" fill="#898989"/>
<path d="M0.39278 175.883C0.609568 175.883 0.785376 175.705 0.785376 175.485C0.785376 175.263 0.609568 175.085 0.39278 175.085C0.175809 175.085 0 175.263 0 175.485C0 175.705 0.175809 175.883 0.39278 175.883Z" fill="#898989"/>
<path d="M13.2681 176.501C13.8204 176.501 14.2679 176.046 14.2679 175.485C14.2679 174.922 13.8204 174.468 13.2681 174.468C12.716 174.468 12.2686 174.922 12.2686 175.485C12.2686 176.046 12.7162 176.501 13.2681 176.501Z" fill="#898989"/>
<path d="M26.1437 177.118C27.031 177.118 27.7503 176.387 27.7503 175.485C27.7503 174.581 27.031 173.851 26.1437 173.851C25.2564 173.851 24.5371 174.581 24.5371 175.485C24.5371 176.387 25.2564 177.118 26.1437 177.118Z" fill="#898989"/>
<path d="M39.0193 177.735C40.2417 177.735 41.2329 176.728 41.2329 175.485C41.2329 174.242 40.2417 173.233 39.0193 173.233C37.7966 173.233 36.8057 174.242 36.8057 175.485C36.8055 176.728 37.7966 177.735 39.0193 177.735Z" fill="#898989"/>
<path d="M51.8937 178.353C53.4516 178.353 54.7143 177.068 54.7143 175.484C54.7143 173.899 53.4516 172.616 51.8937 172.616C50.336 172.616 49.0732 173.899 49.0732 175.484C49.0732 177.068 50.3361 178.353 51.8937 178.353Z" fill="#898989"/>
<path d="M65.5624 178.861C67.4046 178.418 68.5454 176.54 68.1104 174.667C67.6753 172.793 65.8294 171.633 63.9872 172.076C62.1449 172.518 61.0041 174.395 61.4392 176.269C61.8742 178.142 63.7202 179.303 65.5624 178.861Z" fill="#898989"/>
<path d="M77.6452 179.551C79.8537 179.551 81.644 177.73 81.644 175.485C81.644 173.238 79.8537 171.417 77.6452 171.417C75.4368 171.417 73.6465 173.238 73.6465 175.485C73.6465 177.73 75.4368 179.551 77.6452 179.551Z" fill="#898989"/>
<path d="M90.5198 179.987C92.9651 179.987 94.9472 177.971 94.9472 175.485C94.9472 172.997 92.9651 170.982 90.5198 170.982C88.0748 170.982 86.0928 172.997 86.0928 175.485C86.0928 177.971 88.0748 179.987 90.5198 179.987Z" fill="#898989"/>
<path d="M103.396 179.623C105.644 179.623 107.466 177.771 107.466 175.485C107.466 173.198 105.644 171.345 103.396 171.345C101.148 171.345 99.3262 173.198 99.3262 175.485C99.3262 177.771 101.148 179.623 103.396 179.623Z" fill="#898989"/>
<path d="M116.271 179.006C118.184 179.006 119.734 177.43 119.734 175.484C119.734 173.538 118.184 171.962 116.271 171.962C114.358 171.962 112.808 173.538 112.808 175.484C112.808 177.43 114.358 179.006 116.271 179.006Z" fill="#898989"/>
<path d="M129.147 178.426C130.744 178.426 132.038 177.108 132.038 175.485C132.038 173.86 130.743 172.543 129.147 172.543C127.549 172.543 126.255 173.86 126.255 175.485C126.255 177.108 127.549 178.426 129.147 178.426Z" fill="#898989"/>
<path d="M142.022 177.808C143.284 177.808 144.307 176.767 144.307 175.485C144.307 174.201 143.284 173.16 142.022 173.16C140.76 173.16 139.737 174.201 139.737 175.485C139.737 176.767 140.76 177.808 142.022 177.808Z" fill="#898989"/>
<path d="M154.897 177.191C155.824 177.191 156.574 176.426 156.574 175.485C156.574 174.542 155.824 173.777 154.897 173.777C153.971 173.777 153.219 174.542 153.219 175.485C153.219 176.426 153.971 177.191 154.897 177.191Z" fill="#898989"/>
<path d="M167.772 176.574C168.364 176.574 168.844 176.085 168.844 175.485C168.844 174.883 168.364 174.395 167.772 174.395C167.18 174.395 166.701 174.883 166.701 175.485C166.701 176.085 167.181 176.574 167.772 176.574Z" fill="#898989"/>
<path d="M180.648 175.956C180.904 175.956 181.112 175.745 181.112 175.485C181.112 175.224 180.904 175.012 180.648 175.012C180.392 175.012 180.184 175.224 180.184 175.485C180.185 175.745 180.392 175.956 180.648 175.956Z" fill="#898989"/>
<path d="M193.523 175.52C193.542 175.52 193.558 175.504 193.558 175.484C193.558 175.465 193.542 175.448 193.523 175.448C193.503 175.448 193.487 175.465 193.487 175.484C193.487 175.504 193.503 175.52 193.523 175.52Z" fill="#898989"/>
<path d="M0.393241 188.942C0.590453 188.942 0.750161 188.779 0.750161 188.579C0.750161 188.379 0.590271 188.216 0.393241 188.216C0.196028 188.216 0.0361328 188.379 0.0361328 188.579C0.0361328 188.779 0.196028 188.942 0.393241 188.942Z" fill="#898989"/>
<path d="M13.2676 189.559C13.8 189.559 14.2315 189.12 14.2315 188.579C14.2315 188.038 13.8 187.599 13.2676 187.599C12.7352 187.599 12.3037 188.038 12.3037 188.579C12.3038 189.12 12.7352 189.559 13.2676 189.559Z" fill="#898989"/>
<path d="M26.1433 190.177C27.0109 190.177 27.7142 189.461 27.7142 188.579C27.7142 187.696 27.0109 186.981 26.1433 186.981C25.2757 186.981 24.5723 187.696 24.5723 188.579C24.5723 189.461 25.2757 190.177 26.1433 190.177Z" fill="#898989"/>
<path d="M39.0192 190.757C40.2023 190.757 41.1613 189.782 41.1613 188.579C41.1613 187.375 40.2023 186.4 39.0192 186.4C37.8361 186.4 36.877 187.375 36.877 188.579C36.877 189.782 37.8361 190.757 39.0192 190.757Z" fill="#898989"/>
<path d="M51.8946 191.375C53.413 191.375 54.6436 190.123 54.6436 188.579C54.6436 187.035 53.4128 185.783 51.8946 185.783C50.3763 185.783 49.1455 187.035 49.1455 188.579C49.1456 190.123 50.3763 191.375 51.8946 191.375Z" fill="#898989"/>
<path d="M67.8107 189.859C68.505 188.154 67.709 186.201 66.033 185.494C64.3569 184.788 62.4354 185.598 61.7412 187.302C61.0469 189.007 61.8428 190.961 63.5189 191.667C65.1949 192.373 67.1164 191.563 67.8107 189.859Z" fill="#898989"/>
<path d="M77.6449 192.428C79.735 192.428 81.4292 190.704 81.4292 188.579C81.4292 186.454 79.7348 184.73 77.6449 184.73C75.5547 184.73 73.8604 186.454 73.8604 188.579C73.8602 190.704 75.5547 192.428 77.6449 192.428Z" fill="#898989"/>
<path d="M91.0629 192.695C93.2908 192.389 94.8539 190.305 94.5538 188.04C94.254 185.774 92.2049 184.184 89.977 184.489C87.7492 184.794 86.1862 186.878 86.4861 189.144C86.7859 191.41 88.8351 193 91.0629 192.695Z" fill="#898989"/>
<path d="M104.374 192.371C106.435 191.827 107.672 189.686 107.136 187.59C106.601 185.494 104.497 184.236 102.435 184.78C100.374 185.325 99.1375 187.466 99.6725 189.562C100.207 191.659 102.313 192.916 104.374 192.371Z" fill="#898989"/>
<path d="M116.272 191.991C118.125 191.991 119.627 190.463 119.627 188.579C119.627 186.693 118.125 185.165 116.272 185.165C114.418 185.165 112.915 186.693 112.915 188.579C112.915 190.463 114.418 191.991 116.272 191.991Z" fill="#898989"/>
<path d="M129.147 191.411C130.685 191.411 131.932 190.143 131.932 188.579C131.932 187.014 130.685 185.746 129.147 185.746C127.609 185.746 126.362 187.014 126.362 188.579C126.362 190.143 127.609 191.411 129.147 191.411Z" fill="#898989"/>
<path d="M142.021 190.794C143.224 190.794 144.199 189.802 144.199 188.579C144.199 187.355 143.224 186.364 142.021 186.364C140.819 186.364 139.844 187.356 139.844 188.579C139.844 189.802 140.819 190.794 142.021 190.794Z" fill="#898989"/>
<path d="M154.897 190.213C155.784 190.213 156.504 189.481 156.504 188.579C156.504 187.677 155.784 186.945 154.897 186.945C154.01 186.945 153.29 187.677 153.29 188.579C153.29 189.481 154.01 190.213 154.897 190.213Z" fill="#898989"/>
<path d="M167.772 189.596C168.325 189.596 168.772 189.14 168.772 188.579C168.772 188.017 168.325 187.562 167.772 187.562C167.22 187.562 166.772 188.017 166.772 188.579C166.772 189.14 167.22 189.596 167.772 189.596Z" fill="#898989"/>
<path d="M180.649 188.978C180.866 188.978 181.041 188.799 181.041 188.579C181.041 188.358 180.866 188.179 180.649 188.179C180.431 188.179 180.256 188.358 180.256 188.579C180.256 188.799 180.432 188.978 180.649 188.978Z" fill="#898989"/>
<path d="M0.392481 201.927C0.530421 201.927 0.642381 201.814 0.642381 201.673C0.642381 201.533 0.530603 201.419 0.392481 201.419C0.254359 201.419 0.142578 201.533 0.142578 201.673C0.142578 201.814 0.254359 201.927 0.392481 201.927Z" fill="#898989"/>
<path d="M13.2675 202.508C13.721 202.508 14.0888 202.135 14.0888 201.673C14.0888 201.212 13.7212 200.837 13.2675 200.837C12.814 200.837 12.4463 201.212 12.4463 201.673C12.4465 202.135 12.8142 202.508 13.2675 202.508Z" fill="#898989"/>
<path d="M26.1434 203.09C26.9124 203.09 27.5357 202.455 27.5357 201.673C27.5357 200.891 26.9124 200.257 26.1434 200.257C25.3743 200.257 24.751 200.891 24.751 201.673C24.751 202.455 25.3743 203.09 26.1434 203.09Z" fill="#898989"/>
<path d="M39.0194 203.671C40.1038 203.671 40.9829 202.777 40.9829 201.673C40.9829 200.571 40.1038 199.676 39.0194 199.676C37.9349 199.676 37.0557 200.571 37.0557 201.673C37.0557 202.776 37.9349 203.671 39.0194 203.671Z" fill="#898989"/>
<path d="M53.6342 203.444C54.5962 202.466 54.5962 200.879 53.6341 199.901C52.6721 198.922 51.1123 198.922 50.1503 199.901C49.1882 200.879 49.1882 202.466 50.1502 203.444C51.1123 204.423 52.6721 204.423 53.6342 203.444Z" fill="#898989"/>
<path d="M64.77 204.687C66.4066 204.687 67.7333 203.337 67.7333 201.673C67.7333 200.008 66.4066 198.659 64.77 198.659C63.1334 198.659 61.8066 200.008 61.8066 201.673C61.8066 203.337 63.1334 204.687 64.77 204.687Z" fill="#898989"/>
<path d="M77.6446 205.051C79.4785 205.051 80.9651 203.539 80.9651 201.673C80.9651 199.808 79.4785 198.296 77.6446 198.296C75.8108 198.296 74.3242 199.808 74.3242 201.673C74.3242 203.539 75.8108 205.051 77.6446 205.051Z" fill="#898989"/>
<path d="M90.5207 205.196C92.4336 205.196 93.9839 203.619 93.9839 201.673C93.9839 199.728 92.4334 198.151 90.5207 198.151C88.6081 198.151 87.0576 199.728 87.0576 201.673C87.0576 203.619 88.6081 205.196 90.5207 205.196Z" fill="#898989"/>
<path d="M103.396 205.087C105.25 205.087 106.752 203.559 106.752 201.673C106.752 199.789 105.25 198.261 103.396 198.261C101.543 198.261 100.04 199.789 100.04 201.673C100.04 203.559 101.543 205.087 103.396 205.087Z" fill="#898989"/>
<path d="M116.271 204.723C117.927 204.723 119.27 203.357 119.27 201.673C119.27 199.989 117.927 198.623 116.271 198.623C114.614 198.623 113.271 199.989 113.271 201.673C113.271 203.357 114.614 204.723 116.271 204.723Z" fill="#898989"/>
<path d="M129.147 204.251C130.546 204.251 131.682 203.098 131.682 201.674C131.682 200.25 130.546 199.096 129.147 199.096C127.747 199.096 126.611 200.249 126.611 201.674C126.612 203.098 127.747 204.251 129.147 204.251Z" fill="#898989"/>
<path d="M142.022 203.707C143.126 203.707 144.021 202.796 144.021 201.673C144.021 200.551 143.126 199.641 142.022 199.641C140.918 199.641 140.022 200.551 140.022 201.673C140.022 202.796 140.918 203.707 142.022 203.707Z" fill="#898989"/>
<path d="M154.897 203.125C155.685 203.125 156.325 202.475 156.325 201.673C156.325 200.871 155.685 200.221 154.897 200.221C154.108 200.221 153.469 200.871 153.469 201.673C153.469 202.475 154.108 203.125 154.897 203.125Z" fill="#898989"/>
<path d="M167.772 202.545C168.245 202.545 168.629 202.155 168.629 201.673C168.629 201.192 168.245 200.802 167.772 200.802C167.299 200.802 166.915 201.192 166.915 201.673C166.915 202.155 167.299 202.545 167.772 202.545Z" fill="#898989"/>
<path d="M180.647 201.964C180.805 201.964 180.933 201.834 180.933 201.673C180.933 201.512 180.805 201.382 180.647 201.382C180.49 201.382 180.362 201.512 180.362 201.673C180.362 201.834 180.49 201.964 180.647 201.964Z" fill="#898989"/>
<path d="M0.392364 214.876C0.451571 214.876 0.499568 214.828 0.499568 214.767C0.499568 214.708 0.451571 214.659 0.392364 214.659C0.333156 214.659 0.285156 214.708 0.285156 214.767C0.285156 214.828 0.333156 214.876 0.392364 214.876Z" fill="#898989"/>
<path d="M13.268 215.385C13.6033 215.385 13.875 215.109 13.875 214.768C13.875 214.427 13.6031 214.15 13.268 214.15C12.9329 214.15 12.6611 214.427 12.6611 214.768C12.6611 215.109 12.9331 215.385 13.268 215.385Z" fill="#898989"/>
<path d="M26.1439 215.894C26.7552 215.894 27.2507 215.39 27.2507 214.768C27.2507 214.147 26.7552 213.642 26.1439 213.642C25.5326 213.642 25.0371 214.147 25.0371 214.768C25.0371 215.39 25.5326 215.894 26.1439 215.894Z" fill="#898989"/>
<path d="M39.2874 216.418C40.1828 216.271 40.7907 215.413 40.6455 214.502C40.5001 213.592 39.6566 212.973 38.7613 213.121C37.8659 213.268 37.258 214.126 37.4033 215.037C37.5486 215.947 38.3922 216.567 39.2874 216.418Z" fill="#898989"/>
<path d="M51.8944 216.91C53.058 216.91 54.0011 215.951 54.0011 214.768C54.0011 213.585 53.058 212.626 51.8944 212.626C50.7311 212.626 49.7881 213.585 49.7881 214.768C49.7881 215.951 50.7311 216.91 51.8944 216.91Z" fill="#898989"/>
<path d="M65.2005 217.267C66.5608 217.03 67.4744 215.716 67.241 214.333C67.0076 212.949 65.7157 212.02 64.3553 212.257C62.9948 212.495 62.0813 213.809 62.3147 215.192C62.5481 216.576 63.8401 217.505 65.2005 217.267Z" fill="#898989"/>
<path d="M77.6448 217.564C79.163 217.564 80.3938 216.312 80.3938 214.768C80.3938 213.224 79.163 211.972 77.6448 211.972C76.1263 211.972 74.8955 213.224 74.8955 214.768C74.8955 216.312 76.1263 217.564 77.6448 217.564Z" fill="#898989"/>
<path d="M90.52 217.709C92.1172 217.709 93.4119 216.392 93.4119 214.768C93.4119 213.143 92.117 211.827 90.52 211.827C88.9228 211.827 87.6279 213.143 87.6279 214.768C87.6281 216.392 88.9228 217.709 90.52 217.709Z" fill="#898989"/>
<path d="M103.395 217.6C104.934 217.6 106.181 216.332 106.181 214.768C106.181 213.204 104.934 211.936 103.395 211.936C101.857 211.936 100.61 213.204 100.61 214.768C100.61 216.332 101.857 217.6 103.395 217.6Z" fill="#898989"/>
<path d="M118.784 214.887C118.851 213.465 117.772 212.256 116.374 212.188C114.975 212.12 113.787 213.217 113.72 214.64C113.653 216.061 114.732 217.27 116.13 217.338C117.529 217.406 118.716 216.309 118.784 214.887Z" fill="#898989"/>
<path d="M129.147 216.947C130.329 216.947 131.288 215.971 131.288 214.768C131.288 213.565 130.329 212.589 129.147 212.589C127.963 212.589 127.004 213.565 127.004 214.768C127.004 215.971 127.963 216.947 129.147 216.947Z" fill="#898989"/>
<path d="M142.022 216.474C142.949 216.474 143.699 215.711 143.699 214.768C143.699 213.825 142.949 213.062 142.022 213.062C141.095 213.062 140.344 213.825 140.344 214.768C140.344 215.711 141.095 216.474 142.022 216.474Z" fill="#898989"/>
<path d="M154.897 215.967C155.548 215.967 156.075 215.429 156.075 214.768C156.075 214.106 155.548 213.57 154.897 213.57C154.246 213.57 153.719 214.106 153.719 214.768C153.719 215.429 154.246 215.967 154.897 215.967Z" fill="#898989"/>
<path d="M167.772 215.421C168.127 215.421 168.415 215.129 168.415 214.768C168.415 214.407 168.127 214.114 167.772 214.114C167.417 214.114 167.13 214.407 167.13 214.768C167.13 215.129 167.417 215.421 167.772 215.421Z" fill="#898989"/>
<path d="M180.648 214.913C180.727 214.913 180.791 214.847 180.791 214.767C180.791 214.688 180.727 214.622 180.648 214.622C180.569 214.622 180.506 214.688 180.506 214.767C180.506 214.847 180.569 214.913 180.648 214.913Z" fill="#898989"/>
<path d="M13.268 228.153C13.4258 228.153 13.5537 228.023 13.5537 227.862C13.5537 227.702 13.4258 227.572 13.268 227.572C13.1102 227.572 12.9824 227.702 12.9824 227.862C12.9826 228.023 13.1104 228.153 13.268 228.153Z" fill="#898989"/>
<path d="M26.1438 228.662C26.5776 228.662 26.9292 228.304 26.9292 227.862C26.9292 227.421 26.5776 227.064 26.1438 227.064C25.7101 227.064 25.3584 227.421 25.3584 227.862C25.3582 228.304 25.7101 228.662 26.1438 228.662Z" fill="#898989"/>
<path d="M39.0193 229.133C39.7093 229.133 40.2687 228.564 40.2687 227.862C40.2687 227.16 39.7093 226.592 39.0193 226.592C38.329 226.592 37.7695 227.16 37.7695 227.862C37.7695 228.564 38.329 229.133 39.0193 229.133Z" fill="#898989"/>
<path d="M51.8943 229.533C52.8012 229.533 53.5366 228.785 53.5366 227.862C53.5366 226.94 52.8012 226.192 51.8943 226.192C50.9873 226.192 50.252 226.94 50.252 227.862C50.252 228.785 50.9873 229.533 51.8943 229.533Z" fill="#898989"/>
<path d="M64.7692 229.859C65.8537 229.859 66.733 228.965 66.733 227.862C66.733 226.759 65.8537 225.865 64.7692 225.865C63.6847 225.865 62.8057 226.759 62.8057 227.862C62.8057 228.965 63.6847 229.859 64.7692 229.859Z" fill="#898989"/>
<path d="M77.6447 230.078C78.8475 230.078 79.8225 229.086 79.8225 227.862C79.8225 226.639 78.8474 225.647 77.6447 225.647C76.442 225.647 75.4668 226.639 75.4668 227.862C75.4668 229.086 76.4419 230.078 77.6447 230.078Z" fill="#898989"/>
<path d="M90.5204 230.187C91.7825 230.187 92.8055 229.146 92.8055 227.862C92.8055 226.58 91.7825 225.539 90.5204 225.539C89.2584 225.539 88.2354 226.58 88.2354 227.862C88.2354 229.146 89.2584 230.187 90.5204 230.187Z" fill="#898989"/>
<path d="M103.396 230.078C104.599 230.078 105.573 229.086 105.573 227.862C105.573 226.639 104.598 225.647 103.396 225.647C102.193 225.647 101.218 226.639 101.218 227.862C101.218 229.086 102.193 230.078 103.396 230.078Z" fill="#898989"/>
<path d="M116.271 229.896C117.375 229.896 118.27 228.985 118.27 227.862C118.27 226.739 117.375 225.829 116.271 225.829C115.166 225.829 114.271 226.739 114.271 227.862C114.271 228.986 115.166 229.896 116.271 229.896Z" fill="#898989"/>
<path d="M129.147 229.569C130.073 229.569 130.824 228.805 130.824 227.862C130.824 226.92 130.073 226.156 129.147 226.156C128.22 226.156 127.469 226.92 127.469 227.862C127.469 228.805 128.22 229.569 129.147 229.569Z" fill="#898989"/>
<path d="M142.022 229.17C142.732 229.17 143.307 228.584 143.307 227.862C143.307 227.141 142.732 226.555 142.022 226.555C141.312 226.555 140.737 227.141 140.737 227.862C140.737 228.584 141.312 229.17 142.022 229.17Z" fill="#898989"/>
<path d="M154.897 228.698C155.351 228.698 155.719 228.323 155.719 227.862C155.719 227.401 155.351 227.027 154.897 227.027C154.444 227.027 154.076 227.401 154.076 227.862C154.076 228.323 154.444 228.698 154.897 228.698Z" fill="#898989"/>
<path d="M167.772 228.189C167.95 228.189 168.094 228.043 168.094 227.862C168.094 227.682 167.95 227.536 167.772 227.536C167.595 227.536 167.451 227.682 167.451 227.862C167.451 228.043 167.595 228.189 167.772 228.189Z" fill="#898989"/>
<path d="M13.2679 240.993C13.2875 240.993 13.3034 240.977 13.3034 240.956C13.3034 240.937 13.2875 240.921 13.2679 240.921C13.2483 240.921 13.2324 240.937 13.2324 240.956C13.2324 240.977 13.2483 240.993 13.2679 240.993Z" fill="#898989"/>
<path d="M26.1435 241.356C26.3605 241.356 26.5363 241.178 26.5363 240.957C26.5363 240.737 26.3605 240.558 26.1435 240.558C25.9265 240.558 25.751 240.737 25.751 240.957C25.7508 241.178 25.9265 241.356 26.1435 241.356Z" fill="#898989"/>
<path d="M39.0188 241.756C39.4526 241.756 39.8041 241.399 39.8041 240.957C39.8041 240.515 39.4526 240.158 39.0188 240.158C38.5849 240.158 38.2334 240.515 38.2334 240.957C38.2332 241.399 38.5849 241.756 39.0188 241.756Z" fill="#898989"/>
<path d="M51.8945 242.119C52.5254 242.119 53.037 241.599 53.037 240.957C53.037 240.315 52.5254 239.795 51.8945 239.795C51.2635 239.795 50.752 240.315 50.752 240.957C50.7521 241.599 51.2636 242.119 51.8945 242.119Z" fill="#898989"/>
<path d="M64.7698 242.41C65.5585 242.41 66.1979 241.76 66.1979 240.957C66.1979 240.154 65.5585 239.504 64.7698 239.504C63.9812 239.504 63.3418 240.154 63.3418 240.957C63.3416 241.76 63.981 242.41 64.7698 242.41Z" fill="#898989"/>
<path d="M77.6447 242.591C78.532 242.591 79.2513 241.86 79.2513 240.957C79.2513 240.054 78.532 239.323 77.6447 239.323C76.7573 239.323 76.0381 240.054 76.0381 240.957C76.0381 241.86 76.7573 242.591 77.6447 242.591Z" fill="#898989"/>
<path d="M90.52 242.664C91.4468 242.664 92.1981 241.899 92.1981 240.957C92.1981 240.015 91.4468 239.25 90.52 239.25C89.5931 239.25 88.8418 240.015 88.8418 240.957C88.8418 241.899 89.5931 242.664 90.52 242.664Z" fill="#898989"/>
<path d="M103.395 242.591C104.282 242.591 105.002 241.86 105.002 240.957C105.002 240.054 104.282 239.323 103.395 239.323C102.508 239.323 101.788 240.054 101.788 240.957C101.788 241.86 102.508 242.591 103.395 242.591Z" fill="#898989"/>
<path d="M116.272 242.41C117.06 242.41 117.699 241.76 117.699 240.957C117.699 240.154 117.06 239.504 116.272 239.504C115.483 239.504 114.843 240.154 114.843 240.957C114.843 241.76 115.483 242.41 116.272 242.41Z" fill="#898989"/>
<path d="M129.147 242.155C129.797 242.155 130.324 241.619 130.324 240.956C130.324 240.295 129.797 239.758 129.147 239.758C128.496 239.758 127.968 240.295 127.968 240.956C127.968 241.619 128.496 242.155 129.147 242.155Z" fill="#898989"/>
<path d="M142.022 241.792C142.476 241.792 142.843 241.419 142.843 240.956C142.843 240.495 142.476 240.122 142.022 240.122C141.569 240.122 141.201 240.495 141.201 240.956C141.201 241.419 141.569 241.792 142.022 241.792Z" fill="#898989"/>
<path d="M154.897 241.392C155.133 241.392 155.326 241.197 155.326 240.957C155.326 240.716 155.133 240.521 154.897 240.521C154.66 240.521 154.469 240.716 154.469 240.957C154.469 241.197 154.66 241.392 154.897 241.392Z" fill="#898989"/>
<path d="M167.772 241.028C167.811 241.028 167.843 240.997 167.843 240.956C167.843 240.917 167.811 240.884 167.772 240.884C167.733 240.884 167.701 240.917 167.701 240.956C167.701 240.997 167.733 241.028 167.772 241.028Z" fill="#898989"/>
<path d="M26.1429 254.087C26.1625 254.087 26.1784 254.071 26.1784 254.052C26.1784 254.031 26.1625 254.015 26.1429 254.015C26.1233 254.015 26.1074 254.031 26.1074 254.052C26.1074 254.071 26.1233 254.087 26.1429 254.087Z" fill="#898989"/>
<path d="M39.0187 254.378C39.1962 254.378 39.34 254.232 39.34 254.052C39.34 253.871 39.1962 253.725 39.0187 253.725C38.8413 253.725 38.6973 253.871 38.6973 254.052C38.6973 254.232 38.8413 254.378 39.0187 254.378Z" fill="#898989"/>
<path d="M51.8941 254.669C52.2294 254.669 52.5011 254.393 52.5011 254.052C52.5011 253.71 52.2292 253.435 51.8941 253.435C51.5589 253.435 51.2871 253.71 51.2871 254.052C51.2871 254.393 51.5589 254.669 51.8941 254.669Z" fill="#898989"/>
<path d="M64.77 254.923C65.2432 254.923 65.6269 254.533 65.6269 254.052C65.6269 253.57 65.2432 253.18 64.77 253.18C64.2967 253.18 63.9131 253.57 63.9131 254.052C63.9131 254.533 64.2967 254.923 64.77 254.923Z" fill="#898989"/>
<path d="M77.6453 255.068C78.1975 255.068 78.6451 254.613 78.6451 254.052C78.6451 253.49 78.1975 253.035 77.6453 253.035C77.0932 253.035 76.6455 253.49 76.6455 254.052C76.6455 254.613 77.0932 255.068 77.6453 255.068Z" fill="#898989"/>
<path d="M90.5202 255.141C91.1119 255.141 91.5914 254.654 91.5914 254.052C91.5914 253.45 91.1119 252.963 90.5202 252.963C89.9286 252.963 89.4492 253.45 89.4492 254.052C89.4492 254.653 89.9288 255.141 90.5202 255.141Z" fill="#898989"/>
<path d="M103.395 255.068C103.947 255.068 104.395 254.613 104.395 254.052C104.395 253.49 103.947 253.035 103.395 253.035C102.843 253.035 102.396 253.49 102.396 254.052C102.396 254.613 102.843 255.068 103.395 255.068Z" fill="#898989"/>
<path d="M116.272 254.923C116.745 254.923 117.129 254.533 117.129 254.052C117.129 253.57 116.745 253.18 116.272 253.18C115.799 253.18 115.415 253.57 115.415 254.052C115.415 254.533 115.799 254.923 116.272 254.923Z" fill="#898989"/>
<path d="M129.147 254.705C129.501 254.705 129.789 254.412 129.789 254.052C129.789 253.691 129.501 253.398 129.147 253.398C128.792 253.398 128.504 253.691 128.504 254.052C128.504 254.412 128.792 254.705 129.147 254.705Z" fill="#898989"/>
<path d="M142.022 254.378C142.199 254.378 142.343 254.232 142.343 254.052C142.343 253.871 142.199 253.725 142.022 253.725C141.844 253.725 141.7 253.871 141.7 254.052C141.7 254.232 141.844 254.378 142.022 254.378Z" fill="#898989"/>
<path d="M154.897 254.122C154.936 254.122 154.968 254.091 154.968 254.05C154.968 254.011 154.936 253.979 154.897 253.979C154.858 253.979 154.826 254.011 154.826 254.05C154.826 254.091 154.858 254.122 154.897 254.122Z" fill="#898989"/>
<path d="M51.8941 267.254C51.9532 267.254 52.0013 267.206 52.0013 267.146C52.0013 267.086 51.9534 267.037 51.8941 267.037C51.835 267.037 51.7871 267.086 51.7871 267.146C51.7871 267.205 51.835 267.254 51.8941 267.254Z" fill="#898989"/>
<path d="M64.7692 267.437C64.9269 267.437 65.0549 267.307 65.0549 267.146C65.0549 266.985 64.9271 266.855 64.7692 266.855C64.6113 266.855 64.4834 266.985 64.4834 267.146C64.4834 267.307 64.6113 267.437 64.7692 267.437Z" fill="#898989"/>
<path d="M77.6448 267.546C77.8615 267.546 78.0374 267.367 78.0374 267.146C78.0374 266.926 77.8615 266.747 77.6448 266.747C77.4278 266.747 77.252 266.926 77.252 267.146C77.252 267.367 77.4278 267.546 77.6448 267.546Z" fill="#898989"/>
<path d="M90.5198 267.618C90.7763 267.618 90.9839 267.407 90.9839 267.146C90.9839 266.885 90.7761 266.674 90.5198 266.674C90.2635 266.674 90.0557 266.885 90.0557 267.146C90.0557 267.407 90.2635 267.618 90.5198 267.618Z" fill="#898989"/>
<path d="M103.395 267.546C103.612 267.546 103.788 267.367 103.788 267.146C103.788 266.926 103.612 266.747 103.395 266.747C103.178 266.747 103.003 266.926 103.003 267.146C103.003 267.367 103.178 267.546 103.395 267.546Z" fill="#898989"/>
<path d="M116.271 267.437C116.428 267.437 116.556 267.307 116.556 267.146C116.556 266.985 116.428 266.855 116.271 266.855C116.113 266.855 115.985 266.985 115.985 267.146C115.985 267.307 116.113 267.437 116.271 267.437Z" fill="#898989"/>
<path d="M129.147 267.292C129.225 267.292 129.29 267.226 129.29 267.146C129.29 267.066 129.225 267.001 129.147 267.001C129.067 267.001 129.004 267.066 129.004 267.146C129.004 267.226 129.067 267.292 129.147 267.292Z" fill="#898989"/>
<path d="M90.5198 280.277C90.5395 280.277 90.5553 280.261 90.5553 280.241C90.5553 280.22 90.5395 280.205 90.5198 280.205C90.5002 280.205 90.4844 280.22 90.4844 280.241C90.4844 280.261 90.5004 280.277 90.5198 280.277Z" fill="#898989"/>
<path d="M214.146 214.482C252.969 174.996 252.969 110.978 214.146 71.4937C175.321 32.0087 112.375 32.0086 73.5515 71.4935C34.7276 110.978 34.7276 174.996 73.5516 214.481C112.375 253.966 175.321 253.966 214.146 214.482Z" fill="#D0837F"/>
<path d="M131.873 227.726C76.6832 227.726 31.7832 182.062 31.7832 125.933C31.7832 69.804 76.6832 24.1392 131.873 24.1392C187.063 24.1392 231.962 69.8042 231.962 125.933H230.615C230.615 70.5589 186.32 25.5095 131.873 25.5095C77.426 25.5095 33.1308 70.5587 33.1308 125.933C33.1308 181.307 77.426 226.356 131.873 226.356V227.726Z" fill="#161616"/>
<path d="M162.72 95.8014C161.51 84.7328 158.986 75.3043 156.314 70.812C141.234 83.8527 123.654 91.1015 119.751 92.6169L121.492 108.534C123.956 108.948 131.598 110.37 141.053 113.338L141.15 114.22C141.297 115.566 140.34 116.783 139.016 116.933L121.176 118.95C119.853 119.1 118.656 118.127 118.509 116.78L117.513 107.677L118.817 107.529L117.356 94.173L109.354 95.078C108.901 95.1291 108.6 95.6948 108.418 96.5563L105.847 96.8472C104.156 97.0378 105.32 107.683 107.011 107.487L109.581 107.196C109.946 108.001 110.362 108.486 110.815 108.434L114.843 107.979L115.838 117.083C116.149 119.926 118.677 121.983 121.474 121.667L139.313 119.649C142.002 119.346 143.969 116.956 143.84 114.244C149.557 116.15 155.774 118.6 161.841 121.712C163.501 116.757 163.939 106.945 162.72 95.8014Z" fill="#F9F9F9"/>
<path d="M160.308 67.1581C159.512 67.2482 158.815 67.9277 158.23 69.098C161.237 72.7733 164.228 83.1059 165.581 95.4798C166.938 107.895 166.241 118.667 164.086 122.899C164.119 122.918 164.157 122.936 164.191 122.956C164.987 123.897 165.788 124.374 166.553 124.288C170.239 123.871 171.833 110.742 170.109 94.9678C168.384 79.1937 163.994 66.7413 160.308 67.1581Z" fill="#F9F9F9"/>
<path d="M63.1049 168.66C61.6337 166.246 61.2693 162.763 62.01 158.208L64.4707 143.091C65.2287 138.434 66.7243 134.915 68.9586 132.534C71.1917 130.154 74.5526 128.963 79.0398 128.963C83.3193 128.963 86.1768 130.015 87.6131 132.117C89.0481 134.221 89.4462 137.236 88.8072 141.162L88.2302 144.707H79.9463L80.5826 140.797C80.7866 139.545 80.8898 138.538 80.8933 137.773C80.8966 137.009 80.6892 136.375 80.2714 135.87C79.8523 135.368 79.126 135.114 78.0903 135.114C76.5377 135.114 75.4539 135.619 74.842 136.626C74.228 137.634 73.7641 139.112 73.4478 141.058L70.3252 160.242C70.0027 162.224 70.0211 163.701 70.3804 164.673C70.7397 165.647 71.6266 166.132 73.0418 166.132C74.492 166.132 75.5047 165.637 76.0796 164.647C76.6548 163.657 77.1013 162.189 77.4181 160.242L78.0883 156.123H86.3722L85.8036 159.617C85.1476 163.649 83.7595 166.769 81.6402 168.974C79.5201 171.182 76.3033 172.286 71.9892 172.286C67.5369 172.285 64.5754 171.077 63.1049 168.66Z" fill="#F9F9F9"/>
<path d="M91.7699 168.765C90.2526 166.42 89.8652 162.972 90.6059 158.417L93.1686 142.673C93.9095 138.122 95.416 134.696 97.6874 132.405C99.958 130.11 103.321 128.963 107.773 128.963C112.191 128.963 115.17 130.119 116.71 132.43C118.25 134.743 118.652 138.156 117.917 142.673L115.345 158.469C114.61 162.987 113.094 166.42 110.796 168.765C108.498 171.111 105.14 172.285 100.723 172.285C96.27 172.285 93.2853 171.111 91.7699 168.765ZM104.892 164.647C105.552 163.657 106.025 162.293 106.308 160.555L109.558 140.588C109.84 138.851 109.81 137.504 109.464 136.547C109.12 135.592 108.222 135.114 106.772 135.114C105.324 135.114 104.269 135.592 103.614 136.547C102.958 137.504 102.488 138.851 102.206 140.588L98.9562 160.555C98.6674 162.328 98.6864 163.701 99.0111 164.673C99.3349 165.647 100.24 166.132 101.724 166.132C103.173 166.132 104.23 165.637 104.892 164.647Z" fill="#F9F9F9"/>
<path d="M126.327 129.484H135.387L136.229 156.123L146.053 129.484H154.802L148.707 171.711H142.493L146.487 143.039L136.435 171.711H131.155L130.308 142.882L124.994 171.711H118.729L126.327 129.484Z" fill="#F9F9F9"/>
<path d="M161.843 129.484H170.334L163.462 171.711H154.971L161.843 129.484Z" fill="#F9F9F9"/>
<path d="M176.702 129.484H182.656L188.403 151.431L191.976 129.484H199.069L192.196 171.711H186.449L180.931 148.356L177.13 171.711H169.83L176.702 129.484Z" fill="#F9F9F9"/>
<path d="M201.018 168.558C199.685 166.038 199.4 162.433 200.165 157.74L202.464 143.611C203.244 138.816 204.76 135.176 207.011 132.691C209.261 130.207 212.631 128.964 217.118 128.964C221.432 128.964 224.331 130.023 225.816 132.144C227.299 134.263 227.718 137.322 227.066 141.319L226.668 143.768H218.384L218.868 140.797C219.184 138.851 219.201 137.418 218.921 136.495C218.637 135.576 217.739 135.114 216.22 135.114C214.667 135.114 213.58 135.636 212.962 136.679C212.344 137.721 211.873 139.232 211.551 141.215L208.497 159.982C208.174 161.963 208.203 163.483 208.582 164.542C208.962 165.605 209.911 166.132 211.431 166.132C212.914 166.132 214.05 165.569 214.838 164.438C215.626 163.31 216.184 161.737 216.512 159.721L217.242 155.237H213.152L214.001 150.025H225.805L222.275 171.711H216.683L216.726 167.957C214.972 170.877 212.439 172.337 209.125 172.337C205.053 172.337 202.351 171.078 201.018 168.558Z" fill="#F9F9F9"/>
<path d="M139.933 223.709C138.162 221.324 137.589 217.629 138.212 212.626L146.644 211.229C146.234 214.216 146.29 216.417 146.811 217.832C147.331 219.25 148.343 219.956 149.846 219.956C150.962 219.956 151.831 219.597 152.447 218.88C153.064 218.162 153.466 217.242 153.649 216.116C153.952 214.255 153.794 212.674 153.178 211.374C152.561 210.075 151.493 208.65 149.974 207.099L145.812 202.851C144.15 201.222 142.961 199.476 142.244 197.614C141.525 195.752 141.377 193.522 141.8 190.924C142.426 187.083 144.034 184.126 146.625 182.05C149.216 179.976 152.495 178.938 156.464 178.938C160.701 178.938 163.446 180.171 164.702 182.633C165.958 185.097 166.392 188.229 166.005 192.029L157.543 193.251C157.87 190.77 157.889 188.936 157.601 187.753C157.311 186.57 156.453 185.978 155.029 185.978C153.988 185.978 153.115 186.376 152.408 187.171C151.701 187.966 151.259 188.907 151.082 189.992C150.83 191.545 150.953 192.854 151.454 193.921C151.954 194.987 152.831 196.161 154.088 197.44L158.144 201.629C160.056 203.607 161.47 205.692 162.385 207.885C163.299 210.075 163.517 212.646 163.037 215.593C162.671 217.843 161.843 219.85 160.555 221.615C159.264 223.38 157.623 224.766 155.63 225.776C153.636 226.783 151.445 227.287 149.057 227.287C144.743 227.287 141.701 226.095 139.933 223.709Z" fill="#2B2B2B"/>
<path d="M169.283 223.361C167.59 220.742 167.157 216.893 167.984 211.812L170.844 194.24C171.671 189.159 173.353 185.338 175.887 182.779C178.422 180.219 182.175 178.938 187.144 178.938C192.076 178.938 195.4 180.228 197.117 182.807C198.836 185.387 199.285 189.197 198.464 194.24L195.595 211.87C194.774 216.911 193.083 220.742 190.518 223.361C187.955 225.979 184.207 227.287 179.276 227.287C174.307 227.287 170.975 225.979 169.283 223.361ZM183.927 218.764C184.666 217.659 185.193 216.136 185.508 214.196L189.136 191.913C189.45 189.974 189.416 188.471 189.031 187.404C188.646 186.337 187.645 185.804 186.027 185.804C184.409 185.804 183.233 186.337 182.502 187.404C181.769 188.471 181.246 189.974 180.93 191.913L177.304 214.196C176.982 216.174 177.002 217.708 177.364 218.793C177.727 219.88 178.736 220.422 180.392 220.422C182.011 220.422 183.189 219.87 183.927 218.764Z" fill="#2B2B2B"/>
<path d="M202.565 223.361C200.873 220.742 200.441 216.893 201.267 211.812L204.127 194.24C204.954 189.159 206.635 185.338 209.171 182.779C211.705 180.219 215.459 178.938 220.428 178.938C225.359 178.938 228.683 180.228 230.401 182.807C232.119 185.387 232.567 189.197 231.747 194.24L228.877 211.87C228.057 216.911 226.365 220.742 223.8 223.361C221.237 225.979 217.49 227.287 212.558 227.287C207.589 227.287 204.258 225.979 202.565 223.361ZM217.21 218.764C217.949 217.659 218.476 216.136 218.791 214.196L222.418 191.913C222.733 189.974 222.698 188.471 222.315 187.404C221.929 186.337 220.928 185.804 219.31 185.804C217.692 185.804 216.516 186.337 215.784 187.404C215.052 188.471 214.529 189.974 214.213 191.913L210.587 214.196C210.265 216.174 210.285 217.708 210.648 218.793C211.01 219.88 212.02 220.422 213.676 220.422C215.294 220.422 216.473 219.87 217.21 218.764Z" fill="#2B2B2B"/>
<path d="M240.498 179.521H247.142L253.557 204.014L257.544 179.521H265.46L257.79 226.648H251.376L245.218 200.581L240.975 226.648H232.827L240.498 179.521Z" fill="#2B2B2B"/>
<path d="M276.491 32.5479L232.028 77.7682L232.981 78.7371L277.444 33.5168L276.491 32.5479Z" fill="#161616"/>
<path d="M37.987 227.595L5.02637 261.117L5.9791 262.087L38.9398 228.565L37.987 227.595Z" fill="#161616"/>
</svg>
