<svg width="15" height="14" viewBox="0 0 15 14" fill="none" xmlns="http://www.w3.org/2000/svg">
<path d="M9.85997 9.06001C9.89997 8.96001 9.94997 8.88001 10.02 8.80001C10.2 8.60001 10.47 8.50001 10.74 8.50001C11.15 8.49001 11.56 8.68001 11.94 8.81001C12.36 8.95001 12.77 9.07001 13.19 9.19001C13.51 9.29001 13.84 9.45001 14 9.74001C14.25 10.18 14.08 10.76 13.94 11.21C13.76 11.79 13.42 12.31 12.95 12.7C11.59 13.82 9.80997 13.38 8.35996 12.69C5.85996 11.51 3.77997 9.55001 2.21997 7.29001C1.20997 5.84001 0.0799654 3.14001 1.62997 1.66001C1.98997 1.31001 2.47997 1.04001 2.94997 0.88001C3.32997 0.75001 3.75997 0.69001 4.15997 0.77001C4.62997 0.85001 4.84996 1.28001 4.98996 1.70001C5.18996 2.30001 5.39997 2.91001 5.59997 3.52001C5.70997 3.85001 5.79997 4.14001 5.54997 4.44001C5.39997 4.63001 5.18996 4.75001 4.98996 4.88001C4.54996 5.14001 4.15997 5.49001 4.45997 6.02001C4.95997 6.90001 5.55997 7.72001 6.30997 8.40001C6.68997 8.74001 7.08997 9.04001 7.52997 9.30001C7.89997 9.52001 8.35997 9.78001 8.78997 9.84001C9.17997 9.89001 9.52997 9.74001 9.70997 9.38001C9.75997 9.27001 9.80997 9.16001 9.85997 9.06001Z" fill="#898989"/>
<path d="M6.33993 0.650117C6.41993 0.630117 6.51993 0.620117 6.61993 0.620117C7.85993 0.640117 9.10993 0.900117 10.2099 1.47012C12.2899 2.53012 13.4299 4.63012 13.7199 6.88012C13.7299 6.94012 13.7299 7.00012 13.7299 7.05012C13.6999 7.29012 13.3999 7.58012 13.1499 7.61012C12.8099 7.65012 12.5499 7.29012 12.4599 7.01012C12.3399 6.62012 12.3399 6.21012 12.2199 5.82012C12.0899 5.40012 11.9199 4.99012 11.7099 4.60012C10.7599 2.87012 8.99993 2.00012 7.06993 1.90012C6.64993 1.88012 5.84993 1.90012 5.81993 1.28012C5.80993 1.15012 5.86993 1.02012 5.95993 0.920117C6.07993 0.780117 6.19993 0.690117 6.33993 0.650117Z" fill="#898989"/>
<path d="M6.55992 2.99027C6.61992 2.97027 6.67992 2.96027 6.75992 2.96027C7.62992 2.93027 8.49992 3.08027 9.25992 3.45027C10.6899 4.14027 11.4199 5.60027 11.5499 7.19027C11.5499 7.23027 11.5599 7.27027 11.5499 7.31027C11.5199 7.48027 11.2999 7.70027 11.1199 7.73027C10.8799 7.77027 10.6999 7.52027 10.6499 7.32027C10.5799 7.05027 10.5899 6.76027 10.5199 6.48027C10.4399 6.18027 10.3399 5.89027 10.1999 5.63027C9.60992 4.42027 8.39992 3.86027 7.03992 3.85027C6.73992 3.85027 6.17992 3.89027 6.16992 3.45027C6.16992 3.36027 6.21992 3.26027 6.27992 3.19027C6.36992 3.09027 6.45992 3.02027 6.55992 2.99027Z" fill="#898989"/>
</svg>
