<svg width="16" height="15" viewBox="0 0 16 15" fill="none" xmlns="http://www.w3.org/2000/svg">
<path d="M10.2599 9.56001C10.2999 9.46001 10.3499 9.38001 10.4199 9.30001C10.5999 9.10001 10.8699 9.00001 11.1399 9.00001C11.5499 8.99001 11.9599 9.18001 12.3399 9.31001C12.7599 9.45001 13.1699 9.57001 13.5899 9.69001C13.9099 9.79001 14.2399 9.95001 14.3999 10.24C14.6499 10.68 14.4799 11.26 14.3399 11.71C14.1599 12.29 13.8199 12.81 13.3499 13.2C11.9899 14.32 10.2099 13.88 8.75987 13.19C6.25987 12.01 4.17987 10.05 2.61987 7.79001C1.60987 6.34001 0.479868 3.64001 2.02987 2.16001C2.38987 1.81001 2.87987 1.54001 3.34987 1.38001C3.72987 1.25001 4.15987 1.19001 4.55987 1.27001C5.02987 1.35001 5.24987 1.78001 5.38987 2.20001C5.58987 2.80001 5.79987 3.41001 5.99987 4.02001C6.10987 4.35001 6.19987 4.64001 5.94987 4.94001C5.79987 5.13001 5.58987 5.25001 5.38987 5.38001C4.94987 5.64001 4.55987 5.99001 4.85987 6.52001C5.35987 7.40001 5.95987 8.22001 6.70987 8.90001C7.08987 9.24001 7.48987 9.54001 7.92987 9.80001C8.29987 10.02 8.75987 10.28 9.18987 10.34C9.57987 10.39 9.92987 10.24 10.1099 9.88001C10.1599 9.77001 10.2099 9.66001 10.2599 9.56001Z" fill="#9A4D49"/>
<path d="M6.73984 1.15C6.81984 1.13 6.91984 1.12 7.01984 1.12C8.25984 1.14 9.50984 1.4 10.6098 1.97C12.6898 3.03 13.8298 5.13 14.1198 7.38C14.1298 7.44 14.1298 7.5 14.1298 7.55C14.0998 7.79 13.7998 8.07999 13.5498 8.10999C13.2098 8.14999 12.9498 7.79 12.8598 7.51C12.7398 7.12 12.7398 6.71 12.6198 6.32C12.4898 5.9 12.3198 5.49 12.1098 5.1C11.1598 3.37 9.39984 2.5 7.46984 2.4C7.04984 2.38 6.24984 2.4 6.21984 1.78C6.20984 1.65 6.26984 1.52 6.35984 1.42C6.47984 1.28 6.59984 1.19 6.73984 1.15Z" fill="#9A4D49"/>
<path d="M6.95982 3.49003C7.01982 3.47003 7.07982 3.46003 7.15982 3.46003C8.02982 3.43003 8.89982 3.58003 9.65982 3.95003C11.0898 4.64003 11.8198 6.10003 11.9498 7.69003C11.9498 7.73003 11.9598 7.77003 11.9498 7.81003C11.9198 7.98003 11.6998 8.20003 11.5198 8.23003C11.2798 8.27003 11.0998 8.02003 11.0498 7.82003C10.9798 7.55003 10.9898 7.26003 10.9198 6.98003C10.8398 6.68003 10.7398 6.39003 10.5998 6.13003C10.0098 4.92003 8.79982 4.36003 7.43982 4.35003C7.13982 4.35003 6.57982 4.39003 6.56982 3.95003C6.56982 3.86003 6.61982 3.76003 6.67982 3.69003C6.76982 3.59003 6.85982 3.52003 6.95982 3.49003Z" fill="#9A4D49"/>
</svg>
