<svg width="20" height="25" viewBox="0 0 29 32" fill="none" xmlns="http://www.w3.org/2000/svg">
<path d="M27.0632 13.2633C27.0462 10.1966 26.9109 8.53564 25.8264 7.45276C24.5883 6.21338 22.5928 6.21338 18.6048 6.21338H14.3742C10.3862 6.21338 8.39079 6.21338 7.15265 7.45276C5.91309 8.69074 5.91309 10.6859 5.91309 14.6733V21.7233C5.91309 25.7108 5.91309 27.7059 7.15265 28.9439C8.39079 30.1833 10.3862 30.1833 14.3742 30.1833H18.6048C22.5928 30.1833 24.5883 30.1833 25.8264 28.9439C27.066 27.7059 27.066 25.7108 27.066 21.7233V20.3133" stroke="#9A4D49" stroke-width="2.98608" stroke-linecap="round"/>
<path d="M1.68604 13.2634V21.7233C1.68604 22.8452 2.13176 23.9211 2.92514 24.7144C3.71853 25.5076 4.79459 25.9533 5.91661 25.9533M22.8389 6.21338C22.8389 5.09152 22.3932 4.01561 21.5998 3.22233C20.8064 2.42906 19.7304 1.9834 18.6083 1.9834H12.9676C7.64974 1.9834 4.99012 1.9834 3.33878 3.63591C2.41651 4.55664 2.00897 5.79038 1.82987 7.62337" stroke="#9A4D49" stroke-width="2.98608" stroke-linecap="round"/>
</svg>
