<svg width="21" height="21" viewBox="0 0 21 21" fill="none" xmlns="http://www.w3.org/2000/svg">
<path d="M0.218095 20.781C0.287749 20.8508 0.370466 20.9061 0.461514 20.9438C0.552563 20.9816 0.650158 21.001 0.74872 21.001C0.847281 21.001 0.944876 20.9816 1.03592 20.9438C1.12697 20.9061 1.20969 20.8508 1.27934 20.781L10.4968 11.5635L19.7181 20.781C19.8588 20.9218 20.0497 21.0008 20.2487 21.0008C20.4477 21.0008 20.6386 20.9218 20.7793 20.781C20.9201 20.6403 20.9991 20.4494 20.9991 20.2504C20.9991 20.0514 20.9201 19.8605 20.7793 19.7198L11.5581 10.5023L20.7756 1.28104C20.9163 1.14031 20.9954 0.94944 20.9954 0.750417C20.9954 0.551394 20.9163 0.360523 20.7756 0.219792C20.6349 0.0790615 20.444 0 20.245 0C20.0459 0 19.8551 0.0790615 19.7143 0.219792L10.4968 9.44104L1.27559 0.223542C1.13212 0.100672 0.947561 0.0364678 0.758804 0.0437586C0.570047 0.0510495 0.390993 0.129299 0.257422 0.26287C0.123851 0.39644 0.0456019 0.575495 0.0383111 0.764252C0.0310202 0.953009 0.0952247 1.13757 0.218095 1.28104L9.43559 10.5023L0.218095 19.7235C0.0784063 19.8641 0 20.0542 0 20.2523C0 20.4504 0.0784063 20.6405 0.218095 20.781Z" fill="#A1A1A1"/>
</svg>
