<svg width="15" height="11" viewBox="0 0 15 11" fill="none" xmlns="http://www.w3.org/2000/svg">
<path d="M13.2198 1.79001L13.6798 0.26001L11.2398 1.63001L10.6198 2.70001L7.21977 4.61001C7.00977 4.45001 6.75977 4.36001 6.47977 4.36001C5.80977 4.36001 5.25977 4.91001 5.25977 5.58001C5.25977 6.25001 5.79977 6.80001 6.47977 6.80001C7.15977 6.80001 7.69977 6.25001 7.69977 5.58001C7.69977 5.56001 7.69977 5.54001 7.69977 5.53001L11.0998 3.62001H12.6098L14.9698 2.14001L13.2198 1.79001Z" fill="#9A4D49"/>
<path d="M10.7298 5.06C10.7398 5.21 10.7498 5.35 10.7498 5.5C10.7498 7.94 8.76983 9.93 6.31983 9.93C3.86983 9.93 1.89983 7.94 1.89983 5.5C1.89983 3.06 3.87983 1.07 6.32983 1.07C7.38983 1.07 8.36983 1.45 9.12983 2.07L9.97983 1.4C9.00983 0.53 7.72983 0 6.31983 0C3.28983 0 0.829834 2.46 0.829834 5.49C0.829834 8.52 3.28983 10.98 6.31983 10.98C9.34983 10.98 11.8098 8.52 11.8098 5.49C11.8098 5.18 11.7798 4.87 11.7298 4.57L10.7298 5.06Z" fill="#9A4D49"/>
<path d="M9.12992 5.22995C9.13992 5.31995 9.13992 5.40995 9.13992 5.49995C9.13992 6.96995 7.94992 8.15995 6.47992 8.15995C5.00992 8.15995 3.80992 6.96995 3.80992 5.49995C3.80992 4.02995 4.99992 2.83995 6.46992 2.83995C7.10992 2.83995 7.69992 3.06995 8.15992 3.43995L8.67992 3.03995C8.09992 2.51995 7.31992 2.19995 6.47992 2.19995C4.64992 2.19995 3.16992 3.67995 3.16992 5.50995C3.16992 7.33995 4.64992 8.81995 6.47992 8.81995C8.30992 8.81995 9.77992 7.32995 9.77992 5.49995C9.77992 5.30995 9.75992 5.12995 9.72992 4.94995L9.12992 5.22995Z" fill="#9A4D49"/>
</svg>
