<svg width="75" height="67" viewBox="0 0 75 67" fill="none" xmlns="http://www.w3.org/2000/svg">
<g filter="url(#filter0_d_1088_21819)">
<path d="M20.8696 39.4276H53.6105V41.6103H20.8696V39.4276Z" fill="#898989"/>
<path d="M25.7808 20.8746C25.3466 20.8746 24.9302 21.0471 24.6232 21.3541C24.3162 21.6611 24.1437 22.0775 24.1437 22.5116V37.2449H30.6919V22.5116C30.6919 22.0775 30.5194 21.6611 30.2124 21.3541C29.9054 21.0471 29.489 20.8746 29.0548 20.8746H25.7808Z" fill="#898989"/>
<path d="M35.603 29.6054C35.1688 29.6054 34.7525 29.7779 34.4454 30.0849C34.1384 30.3919 33.966 30.8083 33.966 31.2424V37.2449H40.5141V31.2424C40.5141 30.8083 40.3417 30.3919 40.0347 30.0849C39.7277 29.7779 39.3113 29.6054 38.8771 29.6054H35.603Z" fill="#898989"/>
<path d="M45.4253 32.8795C44.9911 32.8795 44.5747 33.0519 44.2677 33.3589C43.9607 33.6659 43.7882 34.0823 43.7882 34.5165V37.2449H50.3364V34.5165C50.3364 34.0823 50.1639 33.6659 49.8569 33.3589C49.5499 33.0519 49.1335 32.8795 48.6994 32.8795H45.4253Z" fill="#898989"/>
<path d="M34.2934 23.1446C34.6561 24.3518 35.3157 25.4488 36.2117 26.3353C37.1078 27.2218 38.2118 27.8696 39.4228 28.2194C40.1337 28.4158 40.868 28.5149 41.6055 28.5141C43.6316 28.5141 45.5748 27.7092 47.0075 26.2765C48.4402 24.8438 49.245 22.9007 49.245 20.8746C49.245 20.5852 49.1301 20.3076 48.9254 20.1029C48.7207 19.8982 48.4431 19.7833 48.1537 19.7833H44.3339C43.8997 19.7833 43.4834 19.6108 43.1763 19.3038C42.8693 18.9968 42.6969 18.5804 42.6969 18.1462V14.3265C42.6969 14.0371 42.5819 13.7595 42.3772 13.5548C42.1725 13.3501 41.895 13.2352 41.6055 13.2352C40.466 13.2329 39.3405 13.4856 38.3113 13.9747C37.2822 14.4637 36.3754 15.1769 35.6576 16.0617C34.8712 17.0423 34.336 18.2 34.0983 19.4342C33.8605 20.6685 33.9275 21.9421 34.2934 23.1446Z" fill="#898989"/>
<path d="M45.9709 17.6006H52.5191C52.8086 17.6006 53.0862 17.4856 53.2908 17.2809C53.4955 17.0762 53.6105 16.7986 53.6105 16.5092C53.6105 14.4831 52.8056 12.54 51.3729 11.1073C49.9402 9.67462 47.9971 8.86975 45.9709 8.86975C45.6815 8.86975 45.4039 8.98473 45.1992 9.1894C44.9946 9.39407 44.8796 9.67166 44.8796 9.9611V15.9744C44.8796 17.1094 45.3707 17.6006 45.9709 17.6006Z" fill="#898989"/>
<path d="M20.8696 8.86975H36.1487V11.0525H20.8696V8.86975Z" fill="#898989"/>
<path d="M20.8696 13.2352H30.6919V15.4179H20.8696V13.2352Z" fill="#898989"/>
<path d="M10.7693 55.6102H9.40259L9.41138 54.7357H10.7693C11.1648 54.7357 11.4958 54.6493 11.7625 54.4764C12.032 54.3036 12.2341 54.056 12.3689 53.7338C12.5066 53.4115 12.5754 53.0277 12.5754 52.5824V52.2352C12.5754 51.8895 12.5359 51.5834 12.4568 51.3168C12.3806 51.0502 12.2664 50.826 12.114 50.6444C11.9646 50.4628 11.78 50.3251 11.5603 50.2313C11.3435 50.1376 11.093 50.0907 10.8088 50.0907H9.37622V49.2118H10.8088C11.2336 49.2118 11.6218 49.2836 11.9734 49.4271C12.325 49.5677 12.6282 49.7714 12.8831 50.038C13.1409 50.3046 13.3386 50.6239 13.4763 50.996C13.614 51.368 13.6829 51.7841 13.6829 52.244V52.5824C13.6829 53.0424 13.614 53.4584 13.4763 53.8304C13.3386 54.2025 13.1409 54.5219 12.8831 54.7885C12.6252 55.0521 12.3176 55.2557 11.9602 55.3993C11.6057 55.5399 11.2087 55.6102 10.7693 55.6102ZM10.0134 49.2118V55.6102H8.9104V49.2118H10.0134ZM17.1853 50.0643L15.2737 55.6102H14.1179L16.5261 49.2118H17.2644L17.1853 50.0643ZM18.7849 55.6102L16.8689 50.0643L16.7854 49.2118H17.5281L19.9451 55.6102H18.7849ZM18.6926 53.2372V54.1117H15.2122V53.2372H18.6926ZM24.0276 53.9623C24.0276 53.8304 24.0071 53.7133 23.9661 53.6107C23.928 53.5082 23.8591 53.4144 23.7595 53.3295C23.6599 53.2445 23.5193 53.1625 23.3376 53.0834C23.1589 53.0013 22.9304 52.9178 22.6521 52.8329C22.3474 52.7391 22.0662 52.6351 21.8083 52.5209C21.5535 52.4037 21.3308 52.2689 21.1404 52.1166C20.95 51.9613 20.802 51.7841 20.6965 51.5848C20.5911 51.3827 20.5383 51.1498 20.5383 50.8861C20.5383 50.6254 20.5925 50.3881 20.7009 50.1742C20.8123 49.9603 20.969 49.7758 21.1711 49.6205C21.3762 49.4623 21.6179 49.3407 21.8962 49.2557C22.1746 49.1678 22.4822 49.1239 22.8191 49.1239C23.2937 49.1239 23.7024 49.2118 24.0452 49.3876C24.3909 49.5634 24.656 49.7992 24.8406 50.0951C25.0281 50.391 25.1218 50.7177 25.1218 51.0751H24.0276C24.0276 50.8641 23.9822 50.6781 23.8914 50.517C23.8035 50.3529 23.6687 50.224 23.4871 50.1302C23.3083 50.0365 23.0813 49.9896 22.8059 49.9896C22.5452 49.9896 22.3284 50.0292 22.1555 50.1083C21.9827 50.1874 21.8538 50.2943 21.7688 50.4291C21.6838 50.5638 21.6414 50.7162 21.6414 50.8861C21.6414 51.0062 21.6692 51.1161 21.7249 51.2157C21.7805 51.3124 21.8655 51.4032 21.9797 51.4882C22.094 51.5702 22.2375 51.6478 22.4104 51.7211C22.5833 51.7943 22.7869 51.8646 23.0212 51.932C23.3757 52.0375 23.6848 52.1547 23.9485 52.2836C24.2122 52.4095 24.4319 52.5531 24.6077 52.7142C24.7834 52.8754 24.9153 53.0585 25.0032 53.2635C25.0911 53.4657 25.135 53.6957 25.135 53.9535C25.135 54.223 25.0808 54.4662 24.9724 54.683C24.864 54.8969 24.7087 55.08 24.5066 55.2323C24.3074 55.3817 24.0671 55.4974 23.7859 55.5795C23.5076 55.6586 23.197 55.6981 22.8542 55.6981C22.5466 55.6981 22.2434 55.6571 21.9446 55.5751C21.6487 55.493 21.3792 55.3685 21.136 55.2015C20.8928 55.0316 20.6995 54.8207 20.5559 54.5687C20.4124 54.3138 20.3406 54.0165 20.3406 53.6766H21.4436C21.4436 53.8846 21.4788 54.0619 21.5491 54.2084C21.6223 54.3549 21.7234 54.475 21.8523 54.5687C21.9812 54.6595 22.1306 54.7269 22.3005 54.7709C22.4734 54.8148 22.658 54.8368 22.8542 54.8368C23.1121 54.8368 23.3274 54.8002 23.5002 54.7269C23.676 54.6537 23.8079 54.5511 23.8958 54.4193C23.9836 54.2875 24.0276 54.1351 24.0276 53.9623ZM30.3381 51.8837V52.7582H26.9412V51.8837H30.3381ZM27.2136 49.2118V55.6102H26.1106V49.2118H27.2136ZM31.1863 49.2118V55.6102H30.0876V49.2118H31.1863ZM34.8997 52.7186H33.2693L33.2605 51.9144H34.6843C34.9246 51.9144 35.1282 51.8793 35.2952 51.809C35.4651 51.7357 35.594 51.6317 35.6819 51.4969C35.7698 51.3593 35.8137 51.1937 35.8137 51.0004C35.8137 50.7865 35.7727 50.6122 35.6907 50.4774C35.6086 50.3427 35.4827 50.2445 35.3127 50.183C35.1458 50.1215 34.9319 50.0907 34.6711 50.0907H33.6033V55.6102H32.5002V49.2118H34.6711C35.0227 49.2118 35.3362 49.2455 35.6116 49.3129C35.8899 49.3802 36.1257 49.4857 36.3191 49.6293C36.5154 49.7699 36.6633 49.9486 36.7629 50.1654C36.8655 50.3822 36.9167 50.64 36.9167 50.9388C36.9167 51.2025 36.8538 51.4442 36.7278 51.6639C36.6018 51.8807 36.4158 52.058 36.1697 52.1957C35.9236 52.3334 35.6174 52.4154 35.2512 52.4418L34.8997 52.7186ZM34.8513 55.6102H32.9221L33.4187 54.7357H34.8513C35.1003 54.7357 35.3083 54.6947 35.4753 54.6127C35.6423 54.5277 35.7668 54.412 35.8489 54.2655C35.9338 54.1161 35.9763 53.9418 35.9763 53.7426C35.9763 53.5345 35.9397 53.3544 35.8665 53.202C35.7932 53.0468 35.6775 52.9281 35.5193 52.8461C35.3611 52.7611 35.1545 52.7186 34.8997 52.7186H33.6604L33.6692 51.9144H35.282L35.5325 52.2177C35.884 52.2294 36.1726 52.307 36.3982 52.4506C36.6267 52.5941 36.7966 52.7802 36.908 53.0087C37.0193 53.2372 37.075 53.4833 37.075 53.7469C37.075 54.1542 36.9856 54.4955 36.8069 54.7709C36.6311 55.0463 36.3777 55.2557 36.0466 55.3993C35.7156 55.5399 35.3171 55.6102 34.8513 55.6102ZM43.2888 52.2352V52.5868C43.2888 53.0702 43.2258 53.5038 43.0999 53.8876C42.9739 54.2714 42.7937 54.598 42.5593 54.8676C42.3279 55.1371 42.0496 55.3436 41.7244 55.4872C41.3992 55.6278 41.0388 55.6981 40.6433 55.6981C40.2507 55.6981 39.8918 55.6278 39.5667 55.4872C39.2444 55.3436 38.9646 55.1371 38.7273 54.8676C38.49 54.598 38.3054 54.2714 38.1736 53.8876C38.0447 53.5038 37.9802 53.0702 37.9802 52.5868V52.2352C37.9802 51.7518 38.0447 51.3197 38.1736 50.9388C38.3025 50.5551 38.4841 50.2284 38.7185 49.9589C38.9558 49.6864 39.2356 49.4799 39.5579 49.3392C39.8831 49.1957 40.2419 49.1239 40.6345 49.1239C41.03 49.1239 41.3904 49.1957 41.7156 49.3392C42.0408 49.4799 42.3206 49.6864 42.5549 49.9589C42.7893 50.2284 42.9695 50.5551 43.0955 50.9388C43.2244 51.3197 43.2888 51.7518 43.2888 52.2352ZM42.1858 52.5868V52.2264C42.1858 51.869 42.1506 51.5541 42.0803 51.2816C42.0129 51.0062 41.9119 50.7762 41.7771 50.5917C41.6453 50.4042 41.4827 50.2635 41.2893 50.1698C41.0959 50.0731 40.8777 50.0248 40.6345 50.0248C40.3914 50.0248 40.1746 50.0731 39.9841 50.1698C39.7937 50.2635 39.6311 50.4042 39.4963 50.5917C39.3645 50.7762 39.2634 51.0062 39.1931 51.2816C39.1228 51.5541 39.0876 51.869 39.0876 52.2264V52.5868C39.0876 52.9442 39.1228 53.2606 39.1931 53.536C39.2634 53.8114 39.366 54.0443 39.5007 54.2347C39.6384 54.4222 39.8025 54.5643 39.9929 54.661C40.1833 54.7548 40.4001 54.8016 40.6433 54.8016C40.8894 54.8016 41.1077 54.7548 41.2981 54.661C41.4885 54.5643 41.6497 54.4222 41.7815 54.2347C41.9133 54.0443 42.0129 53.8114 42.0803 53.536C42.1506 53.2606 42.1858 52.9442 42.1858 52.5868ZM46.7869 50.0643L44.8752 55.6102H43.7195L46.1277 49.2118H46.866L46.7869 50.0643ZM48.3865 55.6102L46.4705 50.0643L46.387 49.2118H47.1296L49.5466 55.6102H48.3865ZM48.2942 53.2372V54.1117H44.8137V53.2372H48.2942ZM50.2629 49.2118H52.5261C53.0125 49.2118 53.427 49.285 53.7698 49.4315C54.1125 49.578 54.3748 49.7948 54.5564 50.0819C54.741 50.3661 54.8333 50.7177 54.8333 51.1366C54.8333 51.4559 54.7747 51.7372 54.6575 51.9803C54.5403 52.2235 54.3748 52.4286 54.1609 52.5956C53.947 52.7596 53.6921 52.8871 53.3962 52.9779L53.0623 53.1405H51.0276L51.0188 52.266H52.5437C52.8074 52.266 53.0271 52.2191 53.2029 52.1254C53.3787 52.0316 53.5105 51.9042 53.5984 51.743C53.6892 51.579 53.7346 51.3944 53.7346 51.1893C53.7346 50.9667 53.6907 50.7733 53.6028 50.6093C53.5178 50.4423 53.386 50.3148 53.2073 50.2269C53.0286 50.1361 52.8015 50.0907 52.5261 50.0907H51.366V55.6102H50.2629V49.2118ZM53.9148 55.6102L52.4119 52.7362L53.5676 52.7318L55.0925 55.5531V55.6102H53.9148ZM57.7908 55.6102H56.4241L56.4329 54.7357H57.7908C58.1863 54.7357 58.5173 54.6493 58.7839 54.4764C59.0535 54.3036 59.2556 54.056 59.3904 53.7338C59.5281 53.4115 59.5969 53.0277 59.5969 52.5824V52.2352C59.5969 51.8895 59.5574 51.5834 59.4783 51.3168C59.4021 51.0502 59.2878 50.826 59.1355 50.6444C58.9861 50.4628 58.8015 50.3251 58.5818 50.2313C58.365 50.1376 58.1145 50.0907 57.8303 50.0907H56.3977V49.2118H57.8303C58.2551 49.2118 58.6433 49.2836 58.9949 49.4271C59.3464 49.5677 59.6497 49.7714 59.9045 50.038C60.1624 50.3046 60.3601 50.6239 60.4978 50.996C60.6355 51.368 60.7043 51.7841 60.7043 52.244V52.5824C60.7043 53.0424 60.6355 53.4584 60.4978 53.8304C60.3601 54.2025 60.1624 54.5219 59.9045 54.7885C59.6467 55.0521 59.3391 55.2557 58.9817 55.3993C58.6272 55.5399 58.2302 55.6102 57.7908 55.6102ZM57.0349 49.2118V55.6102H55.9319V49.2118H57.0349Z" fill="#898989"/>
</g>
<defs>
<filter id="filter0_d_1088_21819" x="-4" y="-7" width="82.48" height="82.48" filterUnits="userSpaceOnUse" color-interpolation-filters="sRGB">
<feFlood flood-opacity="0" result="BackgroundImageFix"/>
<feColorMatrix in="SourceAlpha" type="matrix" values="0 0 0 0 0 0 0 0 0 0 0 0 0 0 0 0 0 0 127 0" result="hardAlpha"/>
<feOffset dy="1"/>
<feGaussianBlur stdDeviation="4"/>
<feComposite in2="hardAlpha" operator="out"/>
<feColorMatrix type="matrix" values="0 0 0 0 0 0 0 0 0 0 0 0 0 0 0 0 0 0 0.1 0"/>
<feBlend mode="normal" in2="BackgroundImageFix" result="effect1_dropShadow_1088_21819"/>
<feBlend mode="normal" in="SourceGraphic" in2="effect1_dropShadow_1088_21819" result="shape"/>
</filter>
</defs>
</svg>
