<svg width="83" height="83" viewBox="0 0 83 83" fill="none" xmlns="http://www.w3.org/2000/svg">
<g filter="url(#filter0_d_1088_21602)">
<rect x="8" y="7" width="66.48" height="66.48" rx="7.56" fill="white" shape-rendering="crispEdges"/>
<path d="M24.8696 46.4274H57.6105V48.6101H24.8696V46.4274Z" fill="#9A4D49"/>
<path d="M29.7808 27.8745C29.3466 27.8745 28.9302 28.047 28.6232 28.354C28.3162 28.661 28.1437 29.0773 28.1437 29.5115V44.2447H34.6919V29.5115C34.6919 29.0773 34.5194 28.661 34.2124 28.354C33.9054 28.047 33.489 27.8745 33.0548 27.8745H29.7808Z" fill="#9A4D49"/>
<path d="M39.603 36.6053C39.1688 36.6053 38.7525 36.7778 38.4454 37.0848C38.1384 37.3918 37.966 37.8081 37.966 38.2423V44.2447H44.5141V38.2423C44.5141 37.8081 44.3417 37.3918 44.0347 37.0848C43.7277 36.7778 43.3113 36.6053 42.8771 36.6053H39.603Z" fill="#9A4D49"/>
<path d="M49.4253 39.8793C48.9911 39.8793 48.5747 40.0518 48.2677 40.3588C47.9607 40.6658 47.7882 41.0822 47.7882 41.5164V44.2447H54.3364V41.5164C54.3364 41.0822 54.1639 40.6658 53.8569 40.3588C53.5499 40.0518 53.1335 39.8793 52.6994 39.8793H49.4253Z" fill="#9A4D49"/>
<path d="M38.2934 30.1445C38.6561 31.3517 39.3157 32.4486 40.2117 33.3352C41.1078 34.2217 42.2118 34.8695 43.4228 35.2193C44.1337 35.4156 44.868 35.5148 45.6055 35.5139C47.6316 35.5139 49.5748 34.7091 51.0075 33.2764C52.4402 31.8437 53.245 29.9006 53.245 27.8745C53.245 27.585 53.1301 27.3075 52.9254 27.1028C52.7207 26.8981 52.4431 26.7831 52.1537 26.7831H48.3339C47.8997 26.7831 47.4834 26.6107 47.1763 26.3037C46.8693 25.9967 46.6969 25.5803 46.6969 25.1461V21.3264C46.6969 21.0369 46.5819 20.7593 46.3772 20.5547C46.1725 20.35 45.895 20.235 45.6055 20.235C44.466 20.2328 43.3405 20.4855 42.3113 20.9745C41.2822 21.4636 40.3754 22.1767 39.6576 23.0616C38.8712 24.0422 38.336 25.1999 38.0983 26.4341C37.8605 27.6684 37.9275 28.942 38.2934 30.1445Z" fill="#9A4D49"/>
<path d="M49.9709 24.6004H56.5191C56.8086 24.6004 57.0862 24.4855 57.2908 24.2808C57.4955 24.0761 57.6105 23.7985 57.6105 23.5091C57.6105 21.483 56.8056 19.5398 55.3729 18.1072C53.9402 16.6745 51.9971 15.8696 49.9709 15.8696C49.6815 15.8696 49.4039 15.9846 49.1992 16.1893C48.9946 16.3939 48.8796 16.6715 48.8796 16.961V22.9743C48.8796 24.1093 49.3707 24.6004 49.9709 24.6004Z" fill="#9A4D49"/>
<path d="M24.8696 15.8696H40.1487V18.0523H24.8696V15.8696Z" fill="#9A4D49"/>
<path d="M24.8696 20.235H34.6919V22.4177H24.8696V20.235Z" fill="#9A4D49"/>
<path d="M14.7693 62.6104H13.4026L13.4114 61.7358H14.7693C15.1648 61.7358 15.4958 61.6494 15.7625 61.4766C16.032 61.3037 16.2341 61.0562 16.3689 60.7339C16.5066 60.4116 16.5754 60.0278 16.5754 59.5825V59.2354C16.5754 58.8896 16.5359 58.5835 16.4568 58.3169C16.3806 58.0503 16.2664 57.8262 16.114 57.6445C15.9646 57.4629 15.78 57.3252 15.5603 57.2314C15.3435 57.1377 15.093 57.0908 14.8088 57.0908H13.3762V56.2119H14.8088C15.2336 56.2119 15.6218 56.2837 15.9734 56.4272C16.325 56.5679 16.6282 56.7715 16.8831 57.0381C17.1409 57.3047 17.3386 57.624 17.4763 57.9961C17.614 58.3682 17.6829 58.7842 17.6829 59.2441V59.5825C17.6829 60.0425 17.614 60.4585 17.4763 60.8306C17.3386 61.2026 17.1409 61.522 16.8831 61.7886C16.6252 62.0522 16.3176 62.2559 15.9602 62.3994C15.6057 62.54 15.2087 62.6104 14.7693 62.6104ZM14.0134 56.2119V62.6104H12.9104V56.2119H14.0134ZM21.1853 57.0645L19.2737 62.6104H18.1179L20.5261 56.2119H21.2644L21.1853 57.0645ZM22.7849 62.6104L20.8689 57.0645L20.7854 56.2119H21.5281L23.9451 62.6104H22.7849ZM22.6926 60.2373V61.1118H19.2122V60.2373H22.6926ZM28.0276 60.9624C28.0276 60.8306 28.0071 60.7134 27.9661 60.6108C27.928 60.5083 27.8591 60.4146 27.7595 60.3296C27.6599 60.2446 27.5193 60.1626 27.3376 60.0835C27.1589 60.0015 26.9304 59.918 26.6521 59.833C26.3474 59.7393 26.0662 59.6353 25.8083 59.521C25.5535 59.4038 25.3308 59.269 25.1404 59.1167C24.95 58.9614 24.802 58.7842 24.6965 58.585C24.5911 58.3828 24.5383 58.1499 24.5383 57.8862C24.5383 57.6255 24.5925 57.3882 24.7009 57.1743C24.8123 56.9604 24.969 56.7759 25.1711 56.6206C25.3762 56.4624 25.6179 56.3408 25.8962 56.2559C26.1746 56.168 26.4822 56.124 26.8191 56.124C27.2937 56.124 27.7024 56.2119 28.0452 56.3877C28.3909 56.5635 28.656 56.7993 28.8406 57.0952C29.0281 57.3911 29.1218 57.7178 29.1218 58.0752H28.0276C28.0276 57.8643 27.9822 57.6782 27.8914 57.5171C27.8035 57.353 27.6687 57.2241 27.4871 57.1304C27.3083 57.0366 27.0813 56.9897 26.8059 56.9897C26.5452 56.9897 26.3284 57.0293 26.1555 57.1084C25.9827 57.1875 25.8538 57.2944 25.7688 57.4292C25.6838 57.564 25.6414 57.7163 25.6414 57.8862C25.6414 58.0063 25.6692 58.1162 25.7249 58.2158C25.7805 58.3125 25.8655 58.4033 25.9797 58.4883C26.094 58.5703 26.2375 58.6479 26.4104 58.7212C26.5833 58.7944 26.7869 58.8647 27.0212 58.9321C27.3757 59.0376 27.6848 59.1548 27.9485 59.2837C28.2122 59.4097 28.4319 59.5532 28.6077 59.7144C28.7834 59.8755 28.9153 60.0586 29.0032 60.2637C29.0911 60.4658 29.135 60.6958 29.135 60.9536C29.135 61.2231 29.0808 61.4663 28.9724 61.6831C28.864 61.897 28.7087 62.0801 28.5066 62.2324C28.3074 62.3818 28.0671 62.4976 27.7859 62.5796C27.5076 62.6587 27.197 62.6982 26.8542 62.6982C26.5466 62.6982 26.2434 62.6572 25.9446 62.5752C25.6487 62.4932 25.3792 62.3687 25.136 62.2017C24.8928 62.0317 24.6995 61.8208 24.5559 61.5688C24.4124 61.314 24.3406 61.0166 24.3406 60.6768H25.4436C25.4436 60.8848 25.4788 61.062 25.5491 61.2085C25.6223 61.355 25.7234 61.4751 25.8523 61.5688C25.9812 61.6597 26.1306 61.7271 26.3005 61.771C26.4734 61.8149 26.658 61.8369 26.8542 61.8369C27.1121 61.8369 27.3274 61.8003 27.5002 61.7271C27.676 61.6538 27.8079 61.5513 27.8958 61.4194C27.9836 61.2876 28.0276 61.1353 28.0276 60.9624ZM34.3381 58.8838V59.7583H30.9412V58.8838H34.3381ZM31.2136 56.2119V62.6104H30.1106V56.2119H31.2136ZM35.1863 56.2119V62.6104H34.0876V56.2119H35.1863ZM38.8997 59.7188H37.2693L37.2605 58.9146H38.6843C38.9246 58.9146 39.1282 58.8794 39.2952 58.8091C39.4651 58.7358 39.594 58.6318 39.6819 58.4971C39.7698 58.3594 39.8137 58.1938 39.8137 58.0005C39.8137 57.7866 39.7727 57.6123 39.6907 57.4775C39.6086 57.3428 39.4827 57.2446 39.3127 57.1831C39.1458 57.1216 38.9319 57.0908 38.6711 57.0908H37.6033V62.6104H36.5002V56.2119H38.6711C39.0227 56.2119 39.3362 56.2456 39.6116 56.313C39.8899 56.3804 40.1257 56.4858 40.3191 56.6294C40.5154 56.77 40.6633 56.9487 40.7629 57.1655C40.8655 57.3823 40.9167 57.6401 40.9167 57.939C40.9167 58.2026 40.8538 58.4443 40.7278 58.6641C40.6018 58.8809 40.4158 59.0581 40.1697 59.1958C39.9236 59.3335 39.6174 59.4155 39.2512 59.4419L38.8997 59.7188ZM38.8513 62.6104H36.9221L37.4187 61.7358H38.8513C39.1003 61.7358 39.3083 61.6948 39.4753 61.6128C39.6423 61.5278 39.7668 61.4121 39.8489 61.2656C39.9338 61.1162 39.9763 60.9419 39.9763 60.7427C39.9763 60.5347 39.9397 60.3545 39.8665 60.2021C39.7932 60.0469 39.6775 59.9282 39.5193 59.8462C39.3611 59.7612 39.1545 59.7188 38.8997 59.7188H37.6604L37.6692 58.9146H39.282L39.5325 59.2178C39.884 59.2295 40.1726 59.3071 40.3982 59.4507C40.6267 59.5942 40.7966 59.7803 40.908 60.0088C41.0193 60.2373 41.075 60.4834 41.075 60.7471C41.075 61.1543 40.9856 61.4956 40.8069 61.771C40.6311 62.0464 40.3777 62.2559 40.0466 62.3994C39.7156 62.54 39.3171 62.6104 38.8513 62.6104ZM47.2888 59.2354V59.5869C47.2888 60.0703 47.2258 60.5039 47.0999 60.8877C46.9739 61.2715 46.7937 61.5981 46.5593 61.8677C46.3279 62.1372 46.0496 62.3438 45.7244 62.4873C45.3992 62.6279 45.0388 62.6982 44.6433 62.6982C44.2507 62.6982 43.8918 62.6279 43.5667 62.4873C43.2444 62.3438 42.9646 62.1372 42.7273 61.8677C42.49 61.5981 42.3054 61.2715 42.1736 60.8877C42.0447 60.5039 41.9802 60.0703 41.9802 59.5869V59.2354C41.9802 58.752 42.0447 58.3198 42.1736 57.939C42.3025 57.5552 42.4841 57.2285 42.7185 56.959C42.9558 56.6865 43.2356 56.48 43.5579 56.3394C43.8831 56.1958 44.2419 56.124 44.6345 56.124C45.03 56.124 45.3904 56.1958 45.7156 56.3394C46.0408 56.48 46.3206 56.6865 46.5549 56.959C46.7893 57.2285 46.9695 57.5552 47.0955 57.939C47.2244 58.3198 47.2888 58.752 47.2888 59.2354ZM46.1858 59.5869V59.2266C46.1858 58.8691 46.1506 58.5542 46.0803 58.2817C46.0129 58.0063 45.9119 57.7764 45.7771 57.5918C45.6453 57.4043 45.4827 57.2637 45.2893 57.1699C45.0959 57.0732 44.8777 57.0249 44.6345 57.0249C44.3914 57.0249 44.1746 57.0732 43.9841 57.1699C43.7937 57.2637 43.6311 57.4043 43.4963 57.5918C43.3645 57.7764 43.2634 58.0063 43.1931 58.2817C43.1228 58.5542 43.0876 58.8691 43.0876 59.2266V59.5869C43.0876 59.9443 43.1228 60.2607 43.1931 60.5361C43.2634 60.8115 43.366 61.0444 43.5007 61.2349C43.6384 61.4224 43.8025 61.5645 43.9929 61.6611C44.1833 61.7549 44.4001 61.8018 44.6433 61.8018C44.8894 61.8018 45.1077 61.7549 45.2981 61.6611C45.4885 61.5645 45.6497 61.4224 45.7815 61.2349C45.9133 61.0444 46.0129 60.8115 46.0803 60.5361C46.1506 60.2607 46.1858 59.9443 46.1858 59.5869ZM50.7869 57.0645L48.8752 62.6104H47.7195L50.1277 56.2119H50.866L50.7869 57.0645ZM52.3865 62.6104L50.4705 57.0645L50.387 56.2119H51.1296L53.5466 62.6104H52.3865ZM52.2942 60.2373V61.1118H48.8137V60.2373H52.2942ZM54.2629 56.2119H56.5261C57.0125 56.2119 57.427 56.2852 57.7698 56.4316C58.1125 56.5781 58.3748 56.7949 58.5564 57.082C58.741 57.3662 58.8333 57.7178 58.8333 58.1367C58.8333 58.4561 58.7747 58.7373 58.6575 58.9805C58.5403 59.2236 58.3748 59.4287 58.1609 59.5957C57.947 59.7598 57.6921 59.8872 57.3962 59.978L57.0623 60.1406H55.0276L55.0188 59.2661H56.5437C56.8074 59.2661 57.0271 59.2192 57.2029 59.1255C57.3787 59.0317 57.5105 58.9043 57.5984 58.7432C57.6892 58.5791 57.7346 58.3945 57.7346 58.1895C57.7346 57.9668 57.6907 57.7734 57.6028 57.6094C57.5178 57.4424 57.386 57.3149 57.2073 57.2271C57.0286 57.1362 56.8015 57.0908 56.5261 57.0908H55.366V62.6104H54.2629V56.2119ZM57.9148 62.6104L56.4119 59.7363L57.5676 59.7319L59.0925 62.5532V62.6104H57.9148ZM61.7908 62.6104H60.4241L60.4329 61.7358H61.7908C62.1863 61.7358 62.5173 61.6494 62.7839 61.4766C63.0535 61.3037 63.2556 61.0562 63.3904 60.7339C63.5281 60.4116 63.5969 60.0278 63.5969 59.5825V59.2354C63.5969 58.8896 63.5574 58.5835 63.4783 58.3169C63.4021 58.0503 63.2878 57.8262 63.1355 57.6445C62.9861 57.4629 62.8015 57.3252 62.5818 57.2314C62.365 57.1377 62.1145 57.0908 61.8303 57.0908H60.3977V56.2119H61.8303C62.2551 56.2119 62.6433 56.2837 62.9949 56.4272C63.3464 56.5679 63.6497 56.7715 63.9045 57.0381C64.1624 57.3047 64.3601 57.624 64.4978 57.9961C64.6355 58.3682 64.7043 58.7842 64.7043 59.2441V59.5825C64.7043 60.0425 64.6355 60.4585 64.4978 60.8306C64.3601 61.2026 64.1624 61.522 63.9045 61.7886C63.6467 62.0522 63.3391 62.2559 62.9817 62.3994C62.6272 62.54 62.2302 62.6104 61.7908 62.6104ZM61.0349 56.2119V62.6104H59.9319V56.2119H61.0349Z" fill="#9A4D49"/>
</g>
<defs>
<filter id="filter0_d_1088_21602" x="0" y="0" width="82.48" height="82.48" filterUnits="userSpaceOnUse" color-interpolation-filters="sRGB">
<feFlood flood-opacity="0" result="BackgroundImageFix"/>
<feColorMatrix in="SourceAlpha" type="matrix" values="0 0 0 0 0 0 0 0 0 0 0 0 0 0 0 0 0 0 127 0" result="hardAlpha"/>
<feOffset dy="1"/>
<feGaussianBlur stdDeviation="4"/>
<feComposite in2="hardAlpha" operator="out"/>
<feColorMatrix type="matrix" values="0 0 0 0 0 0 0 0 0 0 0 0 0 0 0 0 0 0 0.1 0"/>
<feBlend mode="normal" in2="BackgroundImageFix" result="effect1_dropShadow_1088_21602"/>
<feBlend mode="normal" in="SourceGraphic" in2="effect1_dropShadow_1088_21602" result="shape"/>
</filter>
</defs>
</svg>
