<svg width="15" height="12" viewBox="0 0 15 12" fill="none" xmlns="http://www.w3.org/2000/svg">
<path d="M12.8204 2.28977L13.2804 0.759766L10.8404 2.12977L10.2204 3.19977L6.82035 5.10977C6.61035 4.94977 6.36035 4.85977 6.08035 4.85977C5.41035 4.85977 4.86035 5.40977 4.86035 6.07977C4.86035 6.74977 5.40035 7.29977 6.08035 7.29977C6.76035 7.29977 7.30035 6.74977 7.30035 6.07977C7.30035 6.05977 7.30035 6.03977 7.30035 6.02977L10.7004 4.11977H12.2104L14.5704 2.63977L12.8204 2.28977Z" fill="#898989"/>
<path d="M10.3302 5.56C10.3402 5.71 10.3502 5.85 10.3502 6C10.3502 8.44 8.37018 10.43 5.92018 10.43C3.47018 10.43 1.50018 8.44 1.50018 6C1.50018 3.56 3.48018 1.57 5.93018 1.57C6.99018 1.57 7.97017 1.95 8.73018 2.57L9.58018 1.9C8.61018 1.03 7.33018 0.5 5.92018 0.5C2.89018 0.5 0.430176 2.96 0.430176 5.99C0.430176 9.02 2.89018 11.48 5.92018 11.48C8.95018 11.48 11.4102 9.02 11.4102 5.99C11.4102 5.68 11.3802 5.37 11.3302 5.07L10.3302 5.56Z" fill="#898989"/>
<path d="M8.73002 5.7302C8.74002 5.8202 8.74002 5.9102 8.74002 6.0002C8.74002 7.4702 7.55002 8.6602 6.08002 8.6602C4.61002 8.6602 3.41002 7.4702 3.41002 6.0002C3.41002 4.5302 4.60002 3.3402 6.07002 3.3402C6.71002 3.3402 7.30002 3.5702 7.76002 3.9402L8.28002 3.5402C7.70002 3.0202 6.92002 2.7002 6.08002 2.7002C4.25002 2.7002 2.77002 4.1802 2.77002 6.0102C2.77002 7.8402 4.25002 9.3202 6.08002 9.3202C7.91002 9.3202 9.38002 7.8302 9.38002 6.0002C9.38002 5.8102 9.36002 5.6302 9.33002 5.4502L8.73002 5.7302Z" fill="#898989"/>
</svg>
