<svg width="15" height="14" viewBox="0 0 15 14" fill="none" xmlns="http://www.w3.org/2000/svg">
<path d="M7.4999 0.209961C3.7199 0.209961 0.649902 3.27996 0.649902 7.05996C0.649902 10.84 3.7199 13.91 7.4999 13.91C11.2799 13.91 14.3499 10.84 14.3499 7.05996C14.3499 3.27996 11.2799 0.209961 7.4999 0.209961ZM2.5299 7.05996C2.5299 4.30996 4.7599 2.08996 7.4999 2.08996C8.1999 2.08996 8.8699 2.23996 9.4799 2.49996L3.5799 10.1C2.9299 9.24996 2.5299 8.20996 2.5299 7.05996ZM7.4999 12.03C6.7999 12.03 6.1299 11.88 5.5199 11.62L11.4199 4.01996C12.0699 4.85996 12.4799 5.90996 12.4799 7.04996C12.4699 9.80996 10.2499 12.03 7.4999 12.03Z" fill="#7C7C7C"/>
</svg>
