<svg width="12" height="15" viewBox="0 0 12 15" fill="none" xmlns="http://www.w3.org/2000/svg">
<path d="M3.40015 4.27002V11.92C3.40015 13.14 4.40015 14.13 5.61015 14.13H8.95015C10.1701 14.13 11.1601 13.13 11.1601 11.92V4.27002H3.40015ZM5.89015 11.85C5.89015 12.14 5.65015 12.38 5.36015 12.38C5.07015 12.38 4.83015 12.14 4.83015 11.85V6.54002C4.83015 6.25002 5.07015 6.01002 5.36015 6.01002C5.65015 6.01002 5.89015 6.25002 5.89015 6.54002V11.85ZM7.82015 11.85C7.82015 12.14 7.58015 12.38 7.29015 12.38C7.00015 12.38 6.76015 12.14 6.76015 11.85V6.54002C6.76015 6.25002 7.00015 6.01002 7.29015 6.01002C7.58015 6.01002 7.82015 6.25002 7.82015 6.54002V11.85ZM9.74015 11.85C9.74015 12.14 9.50015 12.38 9.21015 12.38C8.92015 12.38 8.68015 12.14 8.68015 11.85V6.54002C8.68015 6.25002 8.92015 6.01002 9.21015 6.01002C9.50015 6.01002 9.74015 6.25002 9.74015 6.54002V11.85Z" fill="#7C7C7C"/>
<path d="M6.62008 0.28999C6.22008 -0.11001 5.55008 -0.11001 5.15008 0.28999L4.65008 0.78999C4.21008 0.35999 3.54008 0.29999 3.11008 0.68999L1.59008 2.09999C1.16008 2.49999 1.16008 3.20999 1.59008 3.66999L1.67008 3.75999L1.13008 4.30999C0.730078 4.70999 0.730078 5.37999 1.13008 5.77999L2.02008 6.66999L7.51008 1.17999L6.62008 0.28999ZM2.18008 2.13999L3.10008 1.28999C3.42008 0.98999 3.90008 0.94999 4.30008 1.13999L2.01008 3.42999C1.78008 2.98999 1.83008 2.45999 2.18008 2.13999Z" fill="#7C7C7C"/>
<path d="M6.87012 3.39008H11.1701V2.47008C11.1701 2.47008 11.0401 1.70008 10.1401 1.95008C9.24012 2.20008 7.26012 2.80008 7.26012 2.80008C7.26012 2.80008 6.91012 2.91008 6.87012 3.39008Z" fill="#7C7C7C"/>
</svg>
