<svg width="36" height="36" viewBox="0 0 36 36" fill="none" xmlns="http://www.w3.org/2000/svg">
<rect x="0.3" y="0.8" width="35.4" height="34.4" rx="17.2" fill="white"/>
<rect x="0.3" y="0.8" width="35.4" height="34.4" rx="17.2" stroke="#898989" stroke-width="0.6"/>
<path d="M15.6792 16.1292V22.616C15.6792 23.6505 16.5271 24.4899 17.5532 24.4899H20.3853C21.4198 24.4899 22.2593 23.642 22.2593 22.616V16.1292H15.6792ZM17.7906 22.5566C17.7906 22.8025 17.5871 23.006 17.3412 23.006C17.0953 23.006 16.8918 22.8025 16.8918 22.5566V18.054C16.8918 17.8081 17.0953 17.6046 17.3412 17.6046C17.5871 17.6046 17.7906 17.8081 17.7906 18.054V22.5566ZM19.4271 22.5566C19.4271 22.8025 19.2236 23.006 18.9777 23.006C18.7318 23.006 18.5283 22.8025 18.5283 22.5566V18.054C18.5283 17.8081 18.7318 17.6046 18.9777 17.6046C19.2236 17.6046 19.4271 17.8081 19.4271 18.054V22.5566ZM21.0552 22.5566C21.0552 22.8025 20.8517 23.006 20.6058 23.006C20.3599 23.006 20.1564 22.8025 20.1564 22.5566V18.054C20.1564 17.8081 20.3599 17.6046 20.6058 17.6046C20.8517 17.6046 21.0552 17.8081 21.0552 18.054V22.5566Z" fill="#898989"/>
<path d="M18.4096 12.7544C18.0704 12.4152 17.5023 12.4152 17.1631 12.7544L16.7392 13.1784C16.3661 12.8137 15.7979 12.7629 15.4333 13.0936L14.1444 14.2892C13.7798 14.6284 13.7798 15.2304 14.1444 15.6205L14.2123 15.6968L13.7544 16.1631C13.4152 16.5023 13.4152 17.0704 13.7544 17.4096L14.5091 18.1643L19.1643 13.5091L18.4096 12.7544ZM14.6447 14.3231L15.4248 13.6023C15.6962 13.3479 16.1032 13.314 16.4424 13.4751L14.5006 15.4169C14.3056 15.0438 14.3479 14.5944 14.6447 14.3231Z" fill="#898989"/>
<path d="M18.6216 15.383H22.2678V14.6029C22.2678 14.6029 22.1575 13.95 21.3944 14.162C20.6312 14.374 18.9523 14.8827 18.9523 14.8827C18.9523 14.8827 18.6555 14.976 18.6216 15.383Z" fill="#898989"/>
</svg>
