<svg width="89" height="60" viewBox="0 0 89 60" fill="none" xmlns="http://www.w3.org/2000/svg">
<path d="M16.2431 27.5H10.2898L10.3274 23.1055H16.2431C17.7204 23.1055 18.9662 22.7737 19.9803 22.1101C20.9944 21.434 21.7582 20.4512 22.2715 19.1617C22.7973 17.8721 23.0602 16.3134 23.0602 14.4854V13.152C23.0602 11.7498 22.91 10.5166 22.6095 9.45237C22.3216 8.38817 21.8896 7.49299 21.3137 6.76683C20.7378 6.04066 20.0304 5.49604 19.1916 5.13296C18.3527 4.75736 17.3887 4.56956 16.2994 4.56956H10.1771V0.156249H16.2994C18.1274 0.156249 19.7988 0.46925 21.3137 1.09525C22.8411 1.70873 24.162 2.5914 25.2763 3.74324C26.3906 4.89508 27.2482 6.27228 27.8492 7.87485C28.4626 9.46489 28.7694 11.2365 28.7694 13.1896V14.4854C28.7694 16.426 28.4626 18.1976 27.8492 19.8002C27.2482 21.4027 26.3906 22.7799 25.2763 23.9318C24.1745 25.0711 22.8537 25.9538 21.3137 26.5798C19.7863 27.1933 18.0961 27.5 16.2431 27.5ZM13.4824 0.156249V27.5H7.8484V0.156249H13.4824ZM55.1178 0.156249V27.5H49.4838L38.4974 9.17067V27.5H32.8634V0.156249H38.4974L49.5026 18.5044V0.156249H55.1178ZM68.4141 27.5H62.4608L62.4983 23.1055H68.4141C69.8914 23.1055 71.1372 22.7737 72.1513 22.1101C73.1654 21.434 73.9291 20.4512 74.4425 19.1617C74.9683 17.8721 75.2312 16.3134 75.2312 14.4854V13.152C75.2312 11.7498 75.081 10.5166 74.7805 9.45237C74.4925 8.38817 74.0606 7.49299 73.4847 6.76683C72.9088 6.04066 72.2014 5.49604 71.3625 5.13296C70.5237 4.75736 69.5596 4.56956 68.4704 4.56956H62.3481V0.156249H68.4704C70.2983 0.156249 71.9697 0.46925 73.4847 1.09525C75.0121 1.70873 76.333 2.5914 77.4473 3.74324C78.5615 4.89508 79.4192 6.27228 80.0201 7.87485C80.6336 9.46489 80.9404 11.2365 80.9404 13.1896V14.4854C80.9404 16.426 80.6336 18.1976 80.0201 19.8002C79.4192 21.4027 78.5615 22.7799 77.4473 23.9318C76.3455 25.0711 75.0246 25.9538 73.4847 26.5798C71.9572 27.1933 70.267 27.5 68.4141 27.5ZM65.6534 0.156249V27.5H60.0194V0.156249H65.6534ZM6.74414 59.5H2.57684L2.60314 56.4238H6.74414C7.77829 56.4238 8.65031 56.1916 9.3602 55.7271C10.0701 55.2538 10.6047 54.5659 10.964 53.6632C11.3321 52.7605 11.5161 51.6693 11.5161 50.3898V49.4564C11.5161 48.4749 11.411 47.6116 11.2006 46.8667C10.9991 46.1217 10.6967 45.4951 10.2936 44.9868C9.89042 44.4785 9.39525 44.0972 8.80806 43.8431C8.22087 43.5802 7.54605 43.4487 6.78358 43.4487H2.49797V40.3594H6.78358C8.06312 40.3594 9.23312 40.5785 10.2936 41.0167C11.3628 41.4461 12.2874 42.064 13.0674 42.8703C13.8474 43.6766 14.4477 44.6406 14.8684 45.7624C15.2978 46.8754 15.5125 48.1155 15.5125 49.4827V50.3898C15.5125 51.7482 15.2978 52.9883 14.8684 54.1101C14.4477 55.2319 13.8474 56.196 13.0674 57.0023C12.2961 57.7998 11.3715 58.4176 10.2936 58.8558C9.22436 59.2853 8.04121 59.5 6.74414 59.5ZM4.81167 40.3594V59.5H0.867859V40.3594H4.81167ZM22.1381 45.276V59.5H18.3389V45.276H22.1381ZM18.1023 41.5688C18.1023 41.0167 18.2951 40.5609 18.6807 40.2016C19.0664 39.8423 19.5834 39.6626 20.232 39.6626C20.8717 39.6626 21.3844 39.8423 21.7701 40.2016C22.1644 40.5609 22.3616 41.0167 22.3616 41.5688C22.3616 42.1209 22.1644 42.5767 21.7701 42.936C21.3844 43.2953 20.8717 43.475 20.232 43.475C19.5834 43.475 19.0664 43.2953 18.6807 42.936C18.2951 42.5767 18.1023 42.1209 18.1023 41.5688ZM32.9573 55.5693C32.9573 55.2977 32.8785 55.0523 32.7207 54.8332C32.5629 54.6141 32.2694 54.4125 31.8399 54.2284C31.4192 54.0356 30.8101 53.8604 30.0126 53.7026C29.294 53.5448 28.6235 53.3477 28.0013 53.111C27.3878 52.8656 26.8532 52.572 26.3975 52.2302C25.9505 51.8884 25.5999 51.4853 25.3458 51.0208C25.0916 50.5475 24.9645 50.0086 24.9645 49.4038C24.9645 48.8079 25.0916 48.247 25.3458 47.7212C25.6087 47.1953 25.9812 46.7308 26.4632 46.3277C26.954 45.9158 27.5499 45.5959 28.2511 45.368C28.9609 45.1314 29.7585 45.0131 30.6436 45.0131C31.8794 45.0131 32.9398 45.2103 33.825 45.6046C34.7189 45.999 35.4025 46.5424 35.8758 47.2347C36.3578 47.9183 36.5988 48.6983 36.5988 49.5747H32.8127C32.8127 49.2067 32.7338 48.878 32.5761 48.5888C32.4271 48.2908 32.1905 48.0586 31.8662 47.8921C31.5507 47.7168 31.1388 47.6291 30.6305 47.6291C30.2098 47.6291 29.8461 47.7036 29.5394 47.8526C29.2326 47.9928 28.996 48.1856 28.8295 48.431C28.6717 48.6677 28.5928 48.9306 28.5928 49.2198C28.5928 49.4389 28.6367 49.6361 28.7243 49.8114C28.8207 49.9779 28.9741 50.1313 29.1844 50.2715C29.3948 50.4117 29.6664 50.5432 29.9995 50.6659C30.3413 50.7798 30.7619 50.885 31.2615 50.9814C32.2869 51.1917 33.2027 51.4678 34.009 51.8096C34.8153 52.1426 35.4551 52.5983 35.9283 53.1768C36.4016 53.7464 36.6382 54.4957 36.6382 55.4247C36.6382 56.0557 36.498 56.6342 36.2175 57.16C35.9371 57.6858 35.534 58.146 35.0081 58.5403C34.4823 58.926 33.8513 59.2283 33.1151 59.4474C32.3877 59.6578 31.5682 59.7629 30.6568 59.7629C29.3334 59.7629 28.2116 59.5263 27.2914 59.053C26.3799 58.5798 25.6876 57.9794 25.2143 57.252C24.7498 56.5158 24.5176 55.7621 24.5176 54.9909H28.1064C28.124 55.508 28.2554 55.9243 28.5008 56.2398C28.755 56.5553 29.0749 56.7832 29.4605 56.9234C29.8549 57.0636 30.2799 57.1337 30.7357 57.1337C31.2264 57.1337 31.634 57.068 31.9582 56.9365C32.2825 56.7963 32.5279 56.6123 32.6944 56.3844C32.8697 56.1478 32.9573 55.8761 32.9573 55.5693ZM46.7738 56.2924V49.956C46.7738 49.5002 46.6993 49.1103 46.5503 48.786C46.4013 48.4529 46.1691 48.1944 45.8536 48.0104C45.5468 47.8263 45.1481 47.7343 44.6573 47.7343C44.2366 47.7343 43.8729 47.8088 43.5662 47.9578C43.2594 48.098 43.0228 48.304 42.8563 48.5756C42.6898 48.8386 42.6065 49.1497 42.6065 49.509H38.8205C38.8205 48.9043 38.9607 48.3303 39.2411 47.7869C39.5216 47.2435 39.9291 46.7659 40.4637 46.354C40.9983 45.9333 41.6337 45.6046 42.3699 45.368C43.1148 45.1314 43.9474 45.0131 44.8676 45.0131C45.9719 45.0131 46.9535 45.1971 47.8123 45.5652C48.6712 45.9333 49.3461 46.4854 49.8368 47.2216C50.3364 47.9578 50.5862 48.878 50.5862 49.9823V56.0689C50.5862 56.8489 50.6344 57.4887 50.7308 57.9882C50.8272 58.479 50.9674 58.9084 51.1514 59.2765V59.5H47.3259C47.1419 59.1144 47.0017 58.6324 46.9053 58.0539C46.8176 57.4667 46.7738 56.8796 46.7738 56.2924ZM47.2734 50.8368L47.2997 52.9796H45.1831C44.6836 52.9796 44.2498 53.0365 43.8817 53.1505C43.5136 53.2644 43.2112 53.4265 42.9746 53.6369C42.738 53.8384 42.5627 54.0751 42.4488 54.3468C42.3436 54.6184 42.291 54.9164 42.291 55.2407C42.291 55.565 42.3655 55.8585 42.5145 56.1215C42.6635 56.3756 42.8782 56.5772 43.1587 56.7262C43.4391 56.8664 43.7678 56.9365 44.1446 56.9365C44.7143 56.9365 45.2094 56.8226 45.6301 56.5947C46.0508 56.3669 46.375 56.0864 46.6029 55.7534C46.8395 55.4203 46.9622 55.1048 46.971 54.8069L47.9701 56.4107C47.8299 56.77 47.6371 57.1425 47.3917 57.5281C47.155 57.9137 46.8527 58.2774 46.4846 58.6192C46.1165 58.9522 45.6739 59.2283 45.1569 59.4474C44.6398 59.6578 44.0263 59.7629 43.3164 59.7629C42.4137 59.7629 41.5943 59.5833 40.8581 59.2239C40.1307 58.8558 39.5523 58.3519 39.1228 57.7121C38.7021 57.0636 38.4918 56.3274 38.4918 55.5036C38.4918 54.7587 38.632 54.097 38.9125 53.5186C39.1929 52.9401 39.6048 52.4537 40.1482 52.0593C40.7003 51.6562 41.3883 51.3538 42.2121 51.1523C43.036 50.9419 43.9912 50.8368 45.078 50.8368H47.2734ZM53.5046 39.3077H57.2906V56.2398L56.9094 59.5H53.5046V39.3077ZM66.2957 52.2434V52.5195C66.2957 53.5799 66.1817 54.5527 65.9539 55.4379C65.7348 56.323 65.393 57.0899 64.9285 57.7384C64.464 58.3782 63.8856 58.8778 63.1932 59.2371C62.5096 59.5876 61.7033 59.7629 60.7743 59.7629C59.9067 59.7629 59.153 59.5876 58.5132 59.2371C57.8822 58.8865 57.352 58.3914 56.9226 57.7516C56.4931 57.1118 56.1469 56.3625 55.884 55.5036C55.6211 54.6447 55.4239 53.707 55.2924 52.6904V52.0856C55.4239 51.069 55.6211 50.1313 55.884 49.2724C56.1469 48.4135 56.4931 47.6642 56.9226 47.0244C57.352 46.3846 57.8822 45.8895 58.5132 45.5389C59.1442 45.1883 59.8892 45.0131 60.748 45.0131C61.6858 45.0131 62.5009 45.1927 63.1932 45.5521C63.8943 45.9026 64.4728 46.4022 64.9285 47.0507C65.393 47.6905 65.7348 48.4529 65.9539 49.3381C66.1817 50.2145 66.2957 51.1829 66.2957 52.2434ZM62.5096 52.5195V52.2434C62.5096 51.665 62.4658 51.1216 62.3782 50.6133C62.2993 50.0962 62.1591 49.6449 61.9575 49.2592C61.7559 48.8649 61.4798 48.5537 61.1293 48.3259C60.7875 48.098 60.3449 47.9841 59.8015 47.9841C59.2845 47.9841 58.8463 48.0717 58.4869 48.247C58.1276 48.4223 57.8296 48.6677 57.593 48.9832C57.3651 49.2987 57.1942 49.6755 57.0803 50.1137C56.9664 50.5432 56.8963 51.0164 56.87 51.5335V53.2556C56.8963 53.948 57.0102 54.5615 57.2118 55.0961C57.4221 55.6219 57.7376 56.0382 58.1583 56.345C58.5877 56.6429 59.1442 56.7919 59.8278 56.7919C60.3624 56.7919 60.805 56.6867 61.1556 56.4764C61.5061 56.2661 61.7778 55.9681 61.9706 55.5825C62.1722 55.1969 62.3124 54.7455 62.3913 54.2284C62.4702 53.7026 62.5096 53.1329 62.5096 52.5195ZM72.6452 39.3077V59.5H68.846V39.3077H72.6452ZM82.3207 59.7629C81.2164 59.7629 80.2261 59.5876 79.3497 59.2371C78.4733 58.8778 77.7283 58.3826 77.1149 57.7516C76.5101 57.1206 76.0457 56.3888 75.7214 55.5562C75.3971 54.7148 75.235 53.8209 75.235 52.8744V52.3486C75.235 51.2706 75.3884 50.2846 75.6951 49.3907C76.0018 48.4968 76.44 47.7212 77.0097 47.0639C77.5881 46.4065 78.2892 45.9026 79.1131 45.5521C79.9369 45.1927 80.8659 45.0131 81.9 45.0131C82.9079 45.0131 83.8018 45.1796 84.5818 45.5126C85.3618 45.8457 86.0147 46.3189 86.5406 46.9324C87.0752 47.5459 87.4783 48.282 87.75 49.1409C88.0217 49.991 88.1575 50.9375 88.1575 51.9805V53.558H76.8519V51.034H84.4372V50.7447C84.4372 50.2189 84.3408 49.75 84.148 49.3381C83.9639 48.9174 83.6835 48.5844 83.3066 48.339C82.9298 48.0936 82.4478 47.9709 81.8606 47.9709C81.361 47.9709 80.9316 48.0805 80.5723 48.2996C80.2129 48.5187 79.9194 48.8254 79.6915 49.2198C79.4724 49.6142 79.3059 50.0787 79.1919 50.6133C79.0868 51.1391 79.0342 51.7175 79.0342 52.3486V52.8744C79.0342 53.4441 79.1131 53.9699 79.2708 54.4519C79.4373 54.9339 79.6696 55.3502 79.9676 55.7008C80.2743 56.0514 80.6424 56.323 81.0718 56.5158C81.51 56.7087 82.0052 56.8051 82.5573 56.8051C83.2409 56.8051 83.8763 56.6736 84.4635 56.4107C85.0595 56.139 85.5721 55.7315 86.0016 55.1881L87.842 57.1863C87.5441 57.6157 87.1365 58.0276 86.6194 58.422C86.1111 58.8164 85.4977 59.1407 84.779 59.3948C84.0604 59.6402 83.2409 59.7629 82.3207 59.7629Z" fill="white"/>
</svg>
