<svg width="81" height="60" viewBox="0 0 81 60" fill="none" xmlns="http://www.w3.org/2000/svg">
<path d="M12.2431 27.5H6.28981L6.32737 23.1055H12.2431C13.7204 23.1055 14.9662 22.7737 15.9803 22.1101C16.9944 21.434 17.7582 20.4512 18.2715 19.1617C18.7973 17.8721 19.0602 16.3134 19.0602 14.4854V13.152C19.0602 11.7498 18.91 10.5166 18.6095 9.45237C18.3216 8.38817 17.8896 7.49299 17.3137 6.76683C16.7378 6.04066 16.0304 5.49604 15.1916 5.13296C14.3527 4.75736 13.3887 4.56956 12.2994 4.56956H6.17713V0.156249H12.2994C14.1274 0.156249 15.7988 0.46925 17.3137 1.09525C18.8411 1.70873 20.162 2.5914 21.2763 3.74324C22.3906 4.89508 23.2482 6.27228 23.8492 7.87485C24.4626 9.46489 24.7694 11.2365 24.7694 13.1896V14.4854C24.7694 16.426 24.4626 18.1976 23.8492 19.8002C23.2482 21.4027 22.3906 22.7799 21.2763 23.9318C20.1745 25.0711 18.8537 25.9538 17.3137 26.5798C15.7863 27.1933 14.0961 27.5 12.2431 27.5ZM9.48242 0.156249V27.5H3.8484V0.156249H9.48242ZM51.1178 0.156249V27.5H45.4838L34.4974 9.17067V27.5H28.8634V0.156249H34.4974L45.5026 18.5044V0.156249H51.1178ZM64.4141 27.5H58.4608L58.4983 23.1055H64.4141C65.8914 23.1055 67.1372 22.7737 68.1513 22.1101C69.1654 21.434 69.9291 20.4512 70.4425 19.1617C70.9683 17.8721 71.2312 16.3134 71.2312 14.4854V13.152C71.2312 11.7498 71.081 10.5166 70.7805 9.45237C70.4925 8.38817 70.0606 7.49299 69.4847 6.76683C68.9088 6.04066 68.2014 5.49604 67.3625 5.13296C66.5237 4.75736 65.5596 4.56956 64.4704 4.56956H58.3481V0.156249H64.4704C66.2983 0.156249 67.9697 0.46925 69.4847 1.09525C71.0121 1.70873 72.333 2.5914 73.4473 3.74324C74.5615 4.89508 75.4192 6.27228 76.0201 7.87485C76.6336 9.46489 76.9404 11.2365 76.9404 13.1896V14.4854C76.9404 16.426 76.6336 18.1976 76.0201 19.8002C75.4192 21.4027 74.5615 22.7799 73.4473 23.9318C72.3455 25.0711 71.0246 25.9538 69.4847 26.5798C67.9572 27.1933 66.267 27.5 64.4141 27.5ZM61.6534 0.156249V27.5H56.0194V0.156249H61.6534ZM13.8262 56.4238V59.5H3.63807V56.4238H13.8262ZM4.92638 40.3594V59.5H0.982567V40.3594H4.92638ZM12.4985 48.155V51.1523H3.63807V48.155H12.4985ZM13.8131 40.3594V43.4487H3.63807V40.3594H13.8131ZM19.5974 48.3127V59.5H15.8113V45.276H19.3607L19.5974 48.3127ZM19.0452 51.8884H18.0198C18.0198 50.8368 18.1557 49.8902 18.4274 49.0489C18.699 48.1988 19.0803 47.4758 19.5711 46.8798C20.0618 46.2751 20.6447 45.815 21.3195 45.4995C22.0031 45.1752 22.7655 45.0131 23.6069 45.0131C24.273 45.0131 24.8821 45.1095 25.4342 45.3023C25.9863 45.4951 26.4596 45.8018 26.854 46.2225C27.2571 46.6432 27.5639 47.1997 27.7742 47.8921C27.9933 48.5844 28.1028 49.4301 28.1028 50.4292V59.5H24.2905V50.4161C24.2905 49.7851 24.2028 49.2943 24.0276 48.9437C23.8523 48.5932 23.5937 48.3478 23.252 48.2076C22.9189 48.0586 22.507 47.9841 22.0162 47.9841C21.5079 47.9841 21.0653 48.0849 20.6885 48.2864C20.3204 48.488 20.0136 48.7685 19.7683 49.1278C19.5316 49.4783 19.352 49.8902 19.2293 50.3635C19.1066 50.8368 19.0452 51.3451 19.0452 51.8884ZM38.6591 56.2924V49.956C38.6591 49.5002 38.5846 49.1103 38.4356 48.786C38.2866 48.4529 38.0544 48.1944 37.7389 48.0104C37.4321 47.8263 37.0334 47.7343 36.5426 47.7343C36.1219 47.7343 35.7582 47.8088 35.4515 47.9578C35.1447 48.098 34.9081 48.304 34.7416 48.5756C34.5751 48.8386 34.4918 49.1497 34.4918 49.509H30.7058C30.7058 48.9043 30.846 48.3303 31.1264 47.7869C31.4069 47.2435 31.8144 46.7659 32.349 46.354C32.8836 45.9333 33.519 45.6046 34.2552 45.368C35.0001 45.1314 35.8327 45.0131 36.7529 45.0131C37.8572 45.0131 38.8388 45.1971 39.6976 45.5652C40.5565 45.9333 41.2313 46.4854 41.7221 47.2216C42.2217 47.9578 42.4715 48.878 42.4715 49.9823V56.0689C42.4715 56.8489 42.5197 57.4887 42.6161 57.9882C42.7125 58.479 42.8527 58.9084 43.0367 59.2765V59.5H39.2112C39.0272 59.1144 38.887 58.6324 38.7906 58.0539C38.7029 57.4667 38.6591 56.8796 38.6591 56.2924ZM39.1587 50.8368L39.1849 52.9796H37.0684C36.5689 52.9796 36.1351 53.0365 35.767 53.1505C35.3989 53.2644 35.0965 53.4265 34.8599 53.6369C34.6233 53.8384 34.448 54.0751 34.3341 54.3468C34.2289 54.6184 34.1763 54.9164 34.1763 55.2407C34.1763 55.565 34.2508 55.8585 34.3998 56.1215C34.5488 56.3756 34.7635 56.5772 35.0439 56.7262C35.3244 56.8664 35.653 56.9365 36.0299 56.9365C36.5996 56.9365 37.0947 56.8226 37.5154 56.5947C37.9361 56.3669 38.2603 56.0864 38.4882 55.7534C38.7248 55.4203 38.8475 55.1048 38.8563 54.8069L39.8554 56.4107C39.7152 56.77 39.5224 57.1425 39.277 57.5281C39.0403 57.9137 38.738 58.2774 38.3699 58.6192C38.0018 58.9522 37.5592 59.2283 37.0421 59.4474C36.5251 59.6578 35.9116 59.7629 35.2017 59.7629C34.299 59.7629 33.4796 59.5833 32.7434 59.2239C32.016 58.8558 31.4375 58.3519 31.0081 57.7121C30.5874 57.0636 30.3771 56.3274 30.3771 55.5036C30.3771 54.7587 30.5173 54.097 30.7978 53.5186C31.0782 52.9401 31.4901 52.4537 32.0335 52.0593C32.5856 51.6562 33.2736 51.3538 34.0974 51.1523C34.9212 50.9419 35.8765 50.8368 36.9633 50.8368H39.1587ZM45.3899 39.3077H49.1759V56.2398L48.7947 59.5H45.3899V39.3077ZM58.181 52.2434V52.5195C58.181 53.5799 58.067 54.5527 57.8392 55.4379C57.6201 56.323 57.2783 57.0899 56.8138 57.7384C56.3493 58.3782 55.7709 58.8778 55.0785 59.2371C54.3949 59.5876 53.5886 59.7629 52.6596 59.7629C51.792 59.7629 51.0383 59.5876 50.3985 59.2371C49.7675 58.8865 49.2373 58.3914 48.8078 57.7516C48.3784 57.1118 48.0322 56.3625 47.7693 55.5036C47.5064 54.6447 47.3092 53.707 47.1777 52.6904V52.0856C47.3092 51.069 47.5064 50.1313 47.7693 49.2724C48.0322 48.4135 48.3784 47.6642 48.8078 47.0244C49.2373 46.3846 49.7675 45.8895 50.3985 45.5389C51.0295 45.1883 51.7745 45.0131 52.6333 45.0131C53.5711 45.0131 54.3861 45.1927 55.0785 45.5521C55.7796 45.9026 56.3581 46.4022 56.8138 47.0507C57.2783 47.6905 57.6201 48.4529 57.8392 49.3381C58.067 50.2145 58.181 51.1829 58.181 52.2434ZM54.3949 52.5195V52.2434C54.3949 51.665 54.3511 51.1216 54.2634 50.6133C54.1846 50.0962 54.0443 49.6449 53.8428 49.2592C53.6412 48.8649 53.3651 48.5537 53.0146 48.3259C52.6728 48.098 52.2302 47.9841 51.6868 47.9841C51.1697 47.9841 50.7315 48.0717 50.3722 48.247C50.0129 48.4223 49.7149 48.6677 49.4783 48.9832C49.2504 49.2987 49.0795 49.6755 48.9656 50.1137C48.8517 50.5432 48.7816 51.0164 48.7553 51.5335V53.2556C48.7816 53.948 48.8955 54.5615 49.0971 55.0961C49.3074 55.6219 49.6229 56.0382 50.0436 56.345C50.473 56.6429 51.0295 56.7919 51.7131 56.7919C52.2477 56.7919 52.6903 56.6867 53.0409 56.4764C53.3914 56.2661 53.6631 55.9681 53.8559 55.5825C54.0575 55.1969 54.1977 54.7455 54.2766 54.2284C54.3555 53.7026 54.3949 53.1329 54.3949 52.5195ZM64.5305 39.3077V59.5H60.7313V39.3077H64.5305ZM74.206 59.7629C73.1017 59.7629 72.1114 59.5876 71.235 59.2371C70.3586 58.8778 69.6136 58.3826 69.0002 57.7516C68.3954 57.1206 67.9309 56.3888 67.6067 55.5562C67.2824 54.7148 67.1203 53.8209 67.1203 52.8744V52.3486C67.1203 51.2706 67.2736 50.2846 67.5804 49.3907C67.8871 48.4968 68.3253 47.7212 68.895 47.0639C69.4734 46.4065 70.1745 45.9026 70.9984 45.5521C71.8222 45.1927 72.7512 45.0131 73.7853 45.0131C74.7932 45.0131 75.6871 45.1796 76.4671 45.5126C77.2471 45.8457 77.9 46.3189 78.4259 46.9324C78.9605 47.5459 79.3636 48.282 79.6353 49.1409C79.907 49.991 80.0428 50.9375 80.0428 51.9805V53.558H68.7372V51.034H76.3225V50.7447C76.3225 50.2189 76.2261 49.75 76.0333 49.3381C75.8492 48.9174 75.5688 48.5844 75.1919 48.339C74.8151 48.0936 74.3331 47.9709 73.7459 47.9709C73.2463 47.9709 72.8169 48.0805 72.4576 48.2996C72.0982 48.5187 71.8046 48.8254 71.5768 49.2198C71.3577 49.6142 71.1912 50.0787 71.0772 50.6133C70.9721 51.1391 70.9195 51.7175 70.9195 52.3486V52.8744C70.9195 53.4441 70.9984 53.9699 71.1561 54.4519C71.3226 54.9339 71.5549 55.3502 71.8528 55.7008C72.1596 56.0514 72.5277 56.323 72.9571 56.5158C73.3953 56.7087 73.8905 56.8051 74.4426 56.8051C75.1262 56.8051 75.7616 56.6736 76.3488 56.4107C76.9447 56.139 77.4574 55.7315 77.8869 55.1881L79.7273 57.1863C79.4293 57.6157 79.0218 58.0276 78.5047 58.422C77.9964 58.8164 77.3829 59.1407 76.6643 59.3948C75.9456 59.6402 75.1262 59.7629 74.206 59.7629Z" fill="white"/>
</svg>
