<svg width="14" height="14" viewBox="0 0 14 14" fill="none" xmlns="http://www.w3.org/2000/svg">
<path fill-rule="evenodd" clip-rule="evenodd" d="M0 6.99992C0 3.85725 0 2.28592 0.976 1.30925C1.95333 0.333252 3.524 0.333252 6.66667 0.333252C9.80933 0.333252 11.3807 0.333252 12.3567 1.30925C13.3333 2.28659 13.3333 3.85725 13.3333 6.99992C13.3333 10.1426 13.3333 11.7139 12.3567 12.6899C11.3813 13.6666 9.80933 13.6666 6.66667 13.6666C3.524 13.6666 1.95267 13.6666 0.976 12.6899C0 11.7146 0 10.1426 0 6.99992ZM6.66667 10.8333C6.79927 10.8333 6.92645 10.7806 7.02022 10.6868C7.11399 10.593 7.16667 10.4659 7.16667 10.3333V6.87325L8.31333 8.01992C8.35911 8.06904 8.41431 8.10844 8.47564 8.13577C8.53697 8.1631 8.60318 8.17779 8.67032 8.17898C8.73745 8.18016 8.80414 8.16781 8.8664 8.14267C8.92866 8.11752 8.98521 8.08009 9.03269 8.03261C9.08017 7.98513 9.1176 7.92858 9.14275 7.86632C9.1679 7.80406 9.18025 7.73737 9.17906 7.67024C9.17788 7.6031 9.16318 7.53689 9.13585 7.47556C9.10853 7.41423 9.06912 7.35903 9.02 7.31325L7.02 5.31325C6.92625 5.21962 6.79917 5.16703 6.66667 5.16703C6.53417 5.16703 6.40708 5.21962 6.31333 5.31325L4.31333 7.31325C4.26421 7.35903 4.22481 7.41423 4.19748 7.47556C4.17015 7.53689 4.15546 7.6031 4.15427 7.67024C4.15309 7.73737 4.16544 7.80406 4.19058 7.86632C4.21573 7.92858 4.25316 7.98513 4.30064 8.03261C4.34812 8.08009 4.40468 8.11752 4.46693 8.14267C4.52919 8.16781 4.59588 8.18016 4.66301 8.17898C4.73015 8.17779 4.79636 8.1631 4.85769 8.13577C4.91902 8.10844 4.97423 8.06904 5.02 8.01992L6.16667 6.87325V10.3333C6.16667 10.6093 6.39067 10.8333 6.66667 10.8333ZM4 4.16658C3.86739 4.16658 3.74021 4.11391 3.64645 4.02014C3.55268 3.92637 3.5 3.79919 3.5 3.66658C3.5 3.53398 3.55268 3.4068 3.64645 3.31303C3.74021 3.21926 3.86739 3.16659 4 3.16659H9.33333C9.46594 3.16659 9.59312 3.21926 9.68689 3.31303C9.78065 3.4068 9.83333 3.53398 9.83333 3.66658C9.83333 3.79919 9.78065 3.92637 9.68689 4.02014C9.59312 4.11391 9.46594 4.16658 9.33333 4.16658H4Z" fill="#C0C0C0"/>
</svg>
