<svg width="15" height="16" viewBox="0 0 15 16" fill="none" xmlns="http://www.w3.org/2000/svg">
<path d="M12.6301 0.625L15 2.99492L13.1933 4.80238L10.8235 2.43246L12.6301 0.625ZM3.95007 11.6751H6.31994L12.0763 5.91861L9.70648 3.54869L3.95007 9.30522V11.6751Z" fill="#7C7C7C"/>
<path d="M12.6393 14.0451H4.07459C4.05405 14.0451 4.03272 14.053 4.01218 14.053C3.98612 14.053 3.96005 14.0459 3.93319 14.0451H1.57991V2.98546H6.98874L8.56865 1.40552H1.57991C0.70859 1.40552 0 2.11333 0 2.98546V14.0451C0 14.9172 0.70859 15.625 1.57991 15.625H12.6393C13.0583 15.625 13.4602 15.4586 13.7565 15.1623C14.0527 14.866 14.2192 14.4641 14.2192 14.0451V7.1976L12.6393 8.77754V14.0451Z" fill="#7C7C7C"/>
</svg>
