<svg width="15" height="16" viewBox="0 0 15 16" fill="none" xmlns="http://www.w3.org/2000/svg">
<path d="M12.2774 6.43096L9.0813 3.23486L2.20122 10.1149L5.39731 13.311L12.2774 6.43096Z" fill="#7C7C7C"/>
<path d="M9.57007 2.75007L12.8601 5.85007C13.3101 5.40007 14.2301 4.79007 14.0601 4.06007C14.0001 3.76007 13.8101 3.50007 13.6101 3.27007C13.2001 2.79007 12.7301 2.37007 12.2601 1.95007C12.0401 1.75007 11.8101 1.55007 11.5201 1.46007C10.6601 1.21007 10.0601 2.21007 9.57007 2.75007Z" fill="#7C7C7C"/>
<path d="M1.85008 10.3401L0.910079 14.5601C0.890079 14.6501 0.970079 14.7301 1.06008 14.7001L5.06008 13.5401L1.85008 10.3401Z" fill="#7C7C7C"/>
</svg>
