<svg width="24" height="24" viewBox="0 0 24 24" fill="none" xmlns="http://www.w3.org/2000/svg">
<path d="M21.2706 9.80249C22.3313 9.80249 23.1912 10.6624 23.1912 11.7231C23.1912 12.7838 22.3313 13.6436 21.2706 13.6436H2.72916C1.66846 13.6436 0.808594 12.7838 0.808594 11.7231C0.808594 10.6624 1.66846 9.80249 2.72916 9.80249H21.2706ZM12.1356 0.42041C13.2126 0.42041 14.0857 1.29345 14.0857 2.37041V21.8704C14.0857 22.9474 13.2126 23.8204 12.1356 23.8204H11.8866C10.8096 23.8204 9.93657 22.9474 9.93657 21.8704V2.37041C9.93657 1.29345 10.8096 0.42041 11.8866 0.42041H12.1356Z" fill="white"/>
</svg>
