<svg width="22" height="22" viewBox="0 0 22 22" fill="none" xmlns="http://www.w3.org/2000/svg">
<path d="M17.3205 2.74531H16.807V2.23908C16.807 1.11092 15.8958 0.199707 14.7749 0.199707H2.82063C1.69246 0.199707 0.78125 1.11092 0.78125 2.23908V15.9289C0.78125 17.0571 1.69246 17.9683 2.82063 17.9683H3.32686V18.4746C3.32686 19.5955 4.2453 20.5139 5.36623 20.5139H13.5013C12.6885 19.6165 12.1887 18.4304 12.1887 17.1273C12.1887 14.3387 14.4574 12.07 17.246 12.07C18.001 12.07 18.7155 12.2407 19.3598 12.5394V4.78469C19.3598 3.66376 18.4414 2.74531 17.3205 2.74531ZM4.62859 7.1184V6.75898C4.62859 6.66207 4.67053 6.563 4.73489 6.49502L7.06282 4.15986C7.13586 4.08754 7.23205 4.04704 7.33329 4.04704H7.69778V6.38582C7.69778 6.78936 7.36873 7.1184 6.96519 7.1184H4.62859ZM11.2349 15.26H7.74912C7.3897 15.26 7.09826 14.9686 7.09826 14.6091C7.09826 14.2497 7.3897 13.9583 7.74912 13.9583H11.2349C11.5943 13.9583 11.8857 14.2497 11.8857 14.6091C11.8857 14.9686 11.595 15.26 11.2349 15.26ZM13.8419 12.2407H7.75274C7.39332 12.2407 7.10187 11.9493 7.10187 11.5898C7.10187 11.2304 7.39332 10.939 7.75274 10.939H13.8419C14.2014 10.939 14.4928 11.2304 14.4928 11.5898C14.4928 11.9493 14.2014 12.2407 13.8419 12.2407ZM15.5089 2.74531H7.33329C6.8842 2.74531 6.46113 2.92105 6.14221 3.24069L3.8056 5.58453C3.4968 5.9049 3.32686 6.32218 3.32686 6.75898V16.6659H2.81701C2.41203 16.6659 2.08226 16.3361 2.08226 15.9311V2.23619C2.08226 1.83844 2.41854 1.50144 2.81701 1.50144H14.7749C15.1798 1.50144 15.5089 1.83121 15.5089 2.23619V2.74531Z" fill="white"/>
<path d="M17.2459 13.1548C15.0517 13.1548 13.2734 14.9331 13.2734 17.1272C13.2734 19.3214 15.0517 21.0997 17.2459 21.0997C19.44 21.0997 21.2183 19.3214 21.2183 17.1272C21.2183 14.9331 19.44 13.1548 17.2459 13.1548ZM19.0047 16.9573L17.0651 18.5201C16.9487 18.6141 16.8047 18.664 16.6572 18.664C16.6326 18.664 16.608 18.6625 16.5834 18.6597C16.4106 18.6401 16.2522 18.5519 16.1452 18.4145L15.383 17.4425C15.1609 17.1598 15.2108 16.7505 15.4936 16.5284C15.7764 16.3071 16.1857 16.357 16.4077 16.6391L16.7628 17.0918L18.1889 15.9434C18.4688 15.7177 18.8788 15.7626 19.1037 16.0417C19.3287 16.3223 19.2845 16.7324 19.0047 16.9573Z" fill="white"/>
</svg>
