<svg width="22" height="21" viewBox="0 0 22 21" fill="none" xmlns="http://www.w3.org/2000/svg">
<path d="M0.274902 3.44187V6.16981H3.68592C3.68592 6.16981 5.29164 6.01219 6.24418 7.30342L10.5896 14.5779C11.061 15.3541 11.6471 15.9921 12.3112 16.452C12.9754 16.912 13.7033 17.1841 14.4497 17.2513H16.3366V19.5064C16.3366 19.5064 16.5906 20.64 17.5477 19.8277C18.5048 19.0154 21.4758 16.439 21.4758 16.439C21.4758 16.439 22.0111 15.8328 21.4758 15.372C20.9406 14.9113 17.5296 11.9652 17.5296 11.9652C17.5296 11.9652 16.6224 11.3589 16.3638 12.4198V14.5355L14.8579 14.5718C14.0777 14.4546 13.3613 13.94 12.8576 13.1351C12.0093 11.7894 8.77523 6.2668 8.77523 6.2668C8.282 5.40531 7.64896 4.70458 6.92378 4.21736C6.19859 3.73015 5.40015 3.46914 4.58857 3.454C1.82619 3.37519 0.274902 3.44187 0.274902 3.44187Z" fill="white"/>
<path d="M0.274902 14.5476V17.2998H3.4818C3.97168 17.2998 4.47063 17.2998 4.96052 17.2998C5.81429 17.2326 6.64277 16.8871 7.37363 16.2935C7.96751 15.7993 8.46378 15.1215 8.82059 14.3172L7.23755 11.7227C6.91471 12.4025 6.51888 13.0152 6.06275 13.5413C5.77937 13.8729 5.45569 14.1374 5.10566 14.3233C4.61176 14.5188 4.09422 14.5846 3.58159 14.5173H1.15941L0.274902 14.5476Z" fill="white"/>
<path d="M10.4219 6.40023L11.9868 9.02511C11.9868 9.02511 13.3475 6.13956 14.8081 6.18806H16.3639V8.20067C16.3838 8.34019 16.4289 8.47111 16.4953 8.58207C16.5616 8.69304 16.6472 8.78069 16.7446 8.83743C16.842 8.89417 16.9484 8.91829 17.0543 8.90768C17.1603 8.89707 17.2628 8.85207 17.3528 8.77656C18.142 8.27947 21.544 5.19994 21.544 5.19994C21.5993 5.15433 21.645 5.09056 21.6767 5.0147C21.7084 4.93883 21.725 4.85339 21.725 4.7665C21.725 4.67961 21.7084 4.59417 21.6767 4.5183C21.645 4.44243 21.5993 4.37866 21.544 4.33306L17.3074 0.677628C17.3074 0.677628 16.5635 0.459393 16.373 1.24746V3.43587H14.7537C13.9176 3.50341 13.1011 3.80167 12.3555 4.31186C11.61 4.82205 10.9516 5.53312 10.4219 6.40023Z" fill="white"/>
</svg>
