<svg width="24" height="16" viewBox="0 0 24 16" fill="none" xmlns="http://www.w3.org/2000/svg">
<path d="M17.54 3.08H1.58004C0.730039 3.08 0.0400391 2.39 0.0400391 1.54C0.0400391 0.69 0.730039 0 1.58004 0H17.54C18.39 0 19.08 0.69 19.08 1.54C19.08 2.39 18.39 3.08 17.54 3.08Z" fill="white"/>
<path d="M22.42 9.37H1.58004C0.730039 9.37 0.0400391 8.68 0.0400391 7.83C0.0400391 6.98 0.730039 6.29 1.58004 6.29H22.42C23.27 6.29 23.96 6.98 23.96 7.83C23.96 8.67 23.27 9.37 22.42 9.37Z" fill="white"/>
<path d="M17.54 15.65H1.58004C0.730039 15.65 0.0400391 14.96 0.0400391 14.11C0.0400391 13.26 0.730039 12.57 1.58004 12.57H17.54C18.39 12.57 19.08 13.26 19.08 14.11C19.08 14.96 18.39 15.65 17.54 15.65Z" fill="white"/>
</svg>
