<svg width="22" height="20" viewBox="0 0 22 20" fill="none" xmlns="http://www.w3.org/2000/svg">
<path d="M20.8438 12.2749C20.4815 12.2749 20.1875 11.9809 20.1875 11.6187C20.1875 9.08555 18.1269 7.02493 15.5938 7.02493H9.25V9.86867C9.25 10.4462 8.55525 10.7384 8.1405 10.3429L3.328 5.74918C3.1985 5.6258 3.125 5.4543 3.125 5.27493C3.125 5.09555 3.1985 4.92405 3.328 4.80068L8.1405 0.206927C8.557 -0.190323 9.25 0.105427 9.25 0.681177V3.52493H14.7188C18.4576 3.52493 21.5 6.5673 21.5 10.3062V11.6187C21.5 11.9809 21.206 12.2749 20.8438 12.2749Z" fill="white"/>
<path d="M12.75 18.6187V15.7749H7.28125C3.54238 15.7749 0.5 12.7325 0.5 8.99368V7.68118C0.5 7.31893 0.794 7.02493 1.15625 7.02493C1.5185 7.02493 1.8125 7.31893 1.8125 7.68118C1.8125 10.2143 3.87312 12.2749 6.40625 12.2749H12.75V9.43118C12.75 8.8563 13.4421 8.55793 13.8595 8.95693L18.672 13.5507C18.8015 13.674 18.875 13.8455 18.875 14.0249C18.875 14.2043 18.8015 14.3758 18.672 14.4992L13.8595 19.0929C13.4421 19.4902 12.75 19.1944 12.75 18.6187Z" fill="white"/>
</svg>
