<svg width="41" height="40" viewBox="0 0 41 40" fill="none" xmlns="http://www.w3.org/2000/svg">
<rect x="0.121094" width="40" height="40" rx="10" fill="#D9D9D9"/>
<path d="M14.1211 23H13.1211V14C13.1214 13.7349 13.2268 13.4807 13.4143 13.2932C13.6018 13.1057 13.856 13.0003 14.1211 13H23.1211V14H14.1211V23ZM22.6211 20.5C22.9178 20.5 23.2078 20.412 23.4544 20.2472C23.7011 20.0824 23.8934 19.8481 24.0069 19.574C24.1204 19.2999 24.1501 18.9983 24.0923 18.7074C24.0344 18.4164 23.8915 18.1491 23.6818 17.9393C23.472 17.7296 23.2047 17.5867 22.9137 17.5288C22.6228 17.4709 22.3212 17.5006 22.0471 17.6142C21.773 17.7277 21.5387 17.92 21.3739 18.1666C21.2091 18.4133 21.1211 18.7033 21.1211 19C21.1215 19.3977 21.2797 19.779 21.5609 20.0602C21.8421 20.3414 22.2234 20.4996 22.6211 20.5ZM22.6211 18.5C22.72 18.5 22.8167 18.5293 22.8989 18.5843C22.9811 18.6392 23.0452 18.7173 23.083 18.8087C23.1209 18.9 23.1308 19.0006 23.1115 19.0975C23.0922 19.1945 23.0446 19.2836 22.9746 19.3536C22.9047 19.4235 22.8156 19.4711 22.7186 19.4904C22.6216 19.5097 22.5211 19.4998 22.4298 19.4619C22.3384 19.4241 22.2603 19.36 22.2054 19.2778C22.1504 19.1956 22.1211 19.0989 22.1211 19C22.1211 18.8674 22.1738 18.7402 22.2675 18.6464C22.3613 18.5527 22.4885 18.5 22.6211 18.5Z" fill="#898989"/>
<path d="M26.1211 15.5H16.6211C16.356 15.5004 16.1019 15.6059 15.9144 15.7933C15.727 15.9808 15.6215 16.2349 15.6211 16.5V26C15.6215 26.2651 15.727 26.5192 15.9144 26.7067C16.1019 26.8941 16.356 26.9996 16.6211 27H26.1211C26.3862 26.9996 26.6403 26.8941 26.8278 26.7067C27.0152 26.5192 27.1207 26.2651 27.1211 26V16.5C27.1207 16.2349 27.0152 15.9808 26.8278 15.7933C26.6403 15.6059 26.3862 15.5004 26.1211 15.5ZM26.1211 26H16.6211V23L18.6211 21.0015L21.4141 23.7945C21.6016 23.982 21.8559 24.0873 22.1211 24.0873C22.3863 24.0873 22.6406 23.982 22.8281 23.7945L23.6211 23.0015L26.1211 25.5V26ZM26.1211 24.086L24.3281 22.293C24.1406 22.1055 23.8863 22.0002 23.6211 22.0002C23.3559 22.0002 23.1016 22.1055 22.9141 22.293L22.1211 23.086L19.3281 20.293C19.1406 20.1055 18.8863 20.0002 18.6211 20.0002C18.3559 20.0002 18.1016 20.1055 17.9141 20.293L16.6211 21.586V16.5H26.1211V24.086Z" fill="#898989"/>
</svg>
