<svg width="15" height="14" viewBox="0 0 15 14" fill="none" xmlns="http://www.w3.org/2000/svg">
<path d="M8.43604 10.896H0V12.2007C0.000985455 12.9866 0.609995 13.6375 1.39413 13.6909C1.41089 13.6885 1.42778 13.6871 1.44467 13.6869H9.03097C8.64805 13.2721 8.43562 12.7281 8.43604 12.1634V10.896Z" fill="#898989"/>
<path d="M2.36287 0.936067L2.2998 10.1755H8.79633C8.99539 10.1755 9.15673 10.337 9.15673 10.5359V12.1639C9.15673 12.9483 9.78249 13.6173 10.5506 13.6874H10.6735C10.6932 13.6875 10.7129 13.6892 10.7323 13.6926C11.5564 13.6646 12.2101 12.9884 12.2102 12.1639V1.05094C12.2101 0.670699 12.3361 0.301154 12.5682 2.75978e-05H3.31538C2.79408 -0.00391422 2.36808 0.414903 2.36287 0.936067ZM3.90609 2.46281H7.31942C7.51848 2.46281 7.67981 2.62415 7.67981 2.82321C7.67981 3.02227 7.51848 3.1836 7.31942 3.1836H3.90609C3.70703 3.1836 3.5457 3.02227 3.5457 2.82321C3.5457 2.62415 3.70703 2.46281 3.90609 2.46281ZM3.90609 5.03963H10.2732C10.4723 5.03963 10.6336 5.20097 10.6336 5.40003C10.6336 5.59909 10.4723 5.76042 10.2732 5.76042H3.90609C3.70703 5.76042 3.5457 5.59909 3.5457 5.40003C3.5457 5.20097 3.70703 5.03963 3.90609 5.03963ZM3.90609 7.61645H10.2732C10.4723 7.61645 10.6336 7.77778 10.6336 7.97685C10.6336 8.17591 10.4723 8.33724 10.2732 8.33724H3.90609C3.70703 8.33724 3.5457 8.17591 3.5457 7.97685C3.5457 7.77778 3.70703 7.61645 3.90609 7.61645Z" fill="#898989"/>
<path d="M13.9651 0.0327402C13.3986 0.0289392 12.9359 0.484218 12.9307 1.05071V6.0402H14.9996V1.05071C14.9943 0.484218 14.5316 0.0287984 13.9651 0.0327402Z" fill="#898989"/>
</svg>
