<svg width="15" height="14" viewBox="0 0 15 14" fill="none" xmlns="http://www.w3.org/2000/svg">
<path d="M7.50002 0.0200195C3.65002 0.0200195 0.52002 3.14002 0.52002 7.00002C0.52002 10.85 3.64002 13.98 7.50002 13.98C11.36 13.98 14.48 10.86 14.48 7.00002C14.48 3.15002 11.35 0.0200195 7.50002 0.0200195ZM11.92 6.31002L9.55002 8.02002C9.47002 8.08002 9.44002 8.19002 9.47002 8.29002L10.37 11.07C10.44 11.29 10.19 11.47 10 11.34L7.64002 9.62002C7.56002 9.56002 7.44002 9.56002 7.36002 9.62002L5.00002 11.33C4.81002 11.47 4.56002 11.28 4.63002 11.06L5.53002 8.28002C5.56002 8.18002 5.53002 8.07002 5.44002 8.01002L3.08002 6.31002C2.90002 6.17002 2.99002 5.88002 3.23002 5.88002H6.15002C6.25002 5.88002 6.35002 5.81002 6.38002 5.71002L7.28002 2.93002C7.35002 2.71002 7.66002 2.71002 7.73002 2.93002L8.63002 5.71002C8.66002 5.81002 8.75002 5.88002 8.86002 5.88002H11.78C12.01 5.88002 12.1 6.17002 11.92 6.31002Z" fill="#898989"/>
</svg>
