<svg width="15" height="15" viewBox="0 0 15 15" fill="none" xmlns="http://www.w3.org/2000/svg">
<path d="M7.89992 0.52002C4.04992 0.52002 0.919922 3.64002 0.919922 7.50002C0.919922 11.35 4.03992 14.48 7.89992 14.48C11.7599 14.48 14.8799 11.36 14.8799 7.50002C14.8799 3.65002 11.7499 0.52002 7.89992 0.52002ZM12.3199 6.81002L9.94992 8.52002C9.86992 8.58002 9.83992 8.69002 9.86992 8.79002L10.7699 11.57C10.8399 11.79 10.5899 11.97 10.3999 11.84L8.03992 10.12C7.95992 10.06 7.83992 10.06 7.75992 10.12L5.39992 11.83C5.20992 11.97 4.95992 11.78 5.02992 11.56L5.92992 8.78002C5.95992 8.68002 5.92992 8.57002 5.83992 8.51002L3.47992 6.81002C3.29992 6.67002 3.38992 6.38002 3.62992 6.38002H6.54992C6.64992 6.38002 6.74992 6.31002 6.77992 6.21002L7.67992 3.43002C7.74992 3.21002 8.05992 3.21002 8.12992 3.43002L9.02992 6.21002C9.05992 6.31002 9.14992 6.38002 9.25992 6.38002H12.1799C12.4099 6.38002 12.4999 6.67002 12.3199 6.81002Z" fill="#9A4D49"/>
</svg>
