<svg width="84" height="83" viewBox="0 0 84 83" fill="none" xmlns="http://www.w3.org/2000/svg">
<g filter="url(#filter0_d_1088_21990)">
<rect x="8.91992" y="7" width="66.48" height="66.48" rx="7.56" fill="white" shape-rendering="crispEdges"/>
<path fill-rule="evenodd" clip-rule="evenodd" d="M34.5703 15.8698C34.4393 15.8698 34.3331 15.9759 34.3331 16.1069V31.286C34.3331 31.4172 34.4393 31.5233 34.5703 31.5233H49.7496C49.8806 31.5233 49.9869 31.4172 49.9869 31.286V16.1069C49.9869 15.9759 49.8806 15.8698 49.7496 15.8698H34.5703ZM39.6649 20.1294C39.6649 18.7625 40.7719 17.6533 42.16 17.6533C43.528 17.6533 44.6361 18.7614 44.6361 20.1294C44.6361 21.4995 43.5258 22.6245 42.16 22.6245C40.7919 22.6245 39.6649 21.4974 39.6649 20.1294ZM37.9003 27.1308C37.9003 25.4385 39.2759 24.0476 40.9647 24.0476H43.3363C45.0251 24.0476 46.4008 25.4385 46.4008 27.1308V28.3072C46.4008 28.7075 46.0893 29.0187 45.6892 29.0187H38.6118C38.2115 29.0187 37.9003 28.7075 37.9003 28.3072V27.1308ZM33.6216 48.6103H50.6983C52.6717 48.6103 54.2656 46.9974 54.2656 45.043V32.2357C54.2656 30.6607 53.2219 29.2757 51.723 28.8583C51.6472 28.8393 51.5711 28.8583 51.5143 28.8962C51.4573 28.9342 51.4193 29.086 51.4193 29.086V32.2357C51.4193 32.6341 51.0968 32.9567 50.6983 32.9567H33.6216C33.2042 32.9567 32.9006 32.6341 32.9006 32.2357V29.086C32.9006 29.0101 32.8626 28.9342 32.8057 28.8962C32.7488 28.8583 32.6729 28.8393 32.597 28.8583C31.098 29.2757 30.0544 30.6607 30.0544 32.2357V45.043C30.0544 47.0164 31.6672 48.6103 33.6216 48.6103ZM32.9196 38.6489C32.9196 37.093 34.2098 35.8027 35.7657 35.8027H48.5733C50.1292 35.8027 51.4193 37.0739 51.4193 38.6489V42.9181C51.4193 44.4928 50.1481 45.7641 48.5733 45.7641H35.7657C34.1908 45.7641 32.9196 44.474 32.9196 42.9181V38.6489ZM35.7657 44.3407H48.5733C49.3323 44.3407 49.9963 43.6767 49.9963 42.9177V38.6485C49.9963 37.8705 49.3702 37.2255 48.5733 37.2255H35.7657C34.9688 37.2255 34.3426 37.8516 34.3426 38.6485V42.9177C34.3426 43.7146 34.9878 44.3407 35.7657 44.3407ZM40.6041 40.2803C40.737 40.1474 40.9076 40.0715 41.0975 40.0715L41.0785 40.0906C41.2682 40.0906 41.4581 40.1664 41.5907 40.2991L41.9892 40.6976C42.0462 40.7546 42.16 40.7737 42.16 40.7737C42.217 40.7737 42.3309 40.6976 42.3309 40.6976L43.7918 39.2178C44.0574 38.952 44.5128 38.952 44.7784 39.2178C44.9113 39.3505 44.9872 39.5402 44.9872 39.7301C44.9872 39.9197 44.9113 40.0906 44.7784 40.2233L42.6723 42.3484C42.3688 42.614 41.9133 42.5761 41.6478 42.3484L40.5853 41.2669C40.4524 41.134 40.3765 40.9443 40.3765 40.7737C40.3765 40.6028 40.4524 40.4131 40.6041 40.2803ZM41.0975 20.1504C41.0975 20.7385 41.5719 21.2129 42.16 21.2129C42.7484 21.2129 43.2227 20.7385 43.2227 20.1504C43.2227 19.5622 42.7484 19.0878 42.16 19.0878C41.5719 19.0878 41.0975 19.5622 41.0975 20.1504ZM39.5605 27.6051H44.7405H44.7595C44.8734 27.6051 44.9872 27.5102 44.9872 27.3774V27.1497C44.9872 26.22 44.2661 25.48 43.3554 25.48H40.9835C40.0728 25.48 39.3329 26.239 39.3329 27.1497V27.3774C39.3329 27.4913 39.4276 27.6051 39.5605 27.6051Z" fill="#9A4D49"/>
<path d="M30.3381 61.7357V62.6102H27.1257V61.7357H30.3381ZM27.4333 56.2118V62.6102H26.3303V56.2118H27.4333ZM35.3787 61.7357V62.6102H31.9817V61.7357H35.3787ZM32.2937 56.2118V62.6102H31.1907V56.2118H32.2937ZM34.9348 58.8837V59.745H31.9817V58.8837H34.9348ZM35.3567 56.2118V57.0907H31.9817V56.2118H35.3567ZM38.7712 57.0643L36.8596 62.6102H35.7039L38.1121 56.2118H38.8503L38.7712 57.0643ZM40.3708 62.6102L38.4548 57.0643L38.3713 56.2118H39.114L41.531 62.6102H40.3708ZM40.2786 60.2372V61.1117H36.7981V60.2372H40.2786ZM44.071 61.4413L45.7542 56.2118H46.9714L44.6775 62.6102H43.8557L44.071 61.4413ZM42.5154 56.2118L44.1853 61.4413L44.4138 62.6102H43.5876L41.3025 56.2118H42.5154ZM51.8757 61.7357V62.6102H48.4788V61.7357H51.8757ZM48.7908 56.2118V62.6102H47.6877V56.2118H48.7908ZM51.4319 58.8837V59.745H48.4788V58.8837H51.4319ZM51.8538 56.2118V57.0907H48.4788V56.2118H51.8538ZM56.1428 60.9623C56.1428 60.8304 56.1223 60.7133 56.0813 60.6107C56.0432 60.5082 55.9744 60.4144 55.8748 60.3295C55.7751 60.2445 55.6345 60.1625 55.4529 60.0834C55.2742 60.0013 55.0457 59.9178 54.7673 59.8329C54.4626 59.7391 54.1814 59.6351 53.9236 59.5209C53.6687 59.4037 53.446 59.2689 53.2556 59.1166C53.0652 58.9613 52.9172 58.7841 52.8118 58.5848C52.7063 58.3827 52.6536 58.1498 52.6536 57.8861C52.6536 57.6254 52.7078 57.3881 52.8162 57.1742C52.9275 56.9603 53.0842 56.7758 53.2864 56.6205C53.4915 56.4623 53.7332 56.3407 54.0115 56.2557C54.2898 56.1678 54.5974 56.1239 54.9343 56.1239C55.4089 56.1239 55.8176 56.2118 56.1604 56.3876C56.5061 56.5634 56.7712 56.7992 56.9558 57.0951C57.1433 57.391 57.2371 57.7177 57.2371 58.0751H56.1428C56.1428 57.8641 56.0974 57.6781 56.0066 57.517C55.9187 57.3529 55.7839 57.224 55.6023 57.1302C55.4236 57.0365 55.1965 56.9896 54.9211 56.9896C54.6604 56.9896 54.4436 57.0292 54.2708 57.1083C54.0979 57.1874 53.969 57.2943 53.884 57.4291C53.7991 57.5638 53.7566 57.7162 53.7566 57.8861C53.7566 58.0062 53.7844 58.1161 53.8401 58.2157C53.8958 58.3124 53.9807 58.4032 54.095 58.4882C54.2092 58.5702 54.3528 58.6478 54.5256 58.7211C54.6985 58.7943 54.9021 58.8646 55.1365 58.932C55.491 59.0375 55.8 59.1547 56.0637 59.2836C56.3274 59.4095 56.5471 59.5531 56.7229 59.7142C56.8987 59.8754 57.0305 60.0585 57.1184 60.2635C57.2063 60.4657 57.2502 60.6957 57.2502 60.9535C57.2502 61.223 57.196 61.4662 57.0876 61.683C56.9792 61.8969 56.824 62.08 56.6218 62.2323C56.4226 62.3817 56.1824 62.4974 55.9011 62.5795C55.6228 62.6586 55.3123 62.6981 54.9695 62.6981C54.6619 62.6981 54.3586 62.6571 54.0598 62.5751C53.7639 62.493 53.4944 62.3685 53.2512 62.2015C53.0081 62.0316 52.8147 61.8207 52.6711 61.5687C52.5276 61.3138 52.4558 61.0165 52.4558 60.6766H53.5588C53.5588 60.8846 53.594 61.0619 53.6643 61.2084C53.7375 61.3549 53.8386 61.475 53.9675 61.5687C54.0964 61.6595 54.2458 61.7269 54.4158 61.7709C54.5886 61.8148 54.7732 61.8368 54.9695 61.8368C55.2273 61.8368 55.4426 61.8002 55.6155 61.7269C55.7913 61.6537 55.9231 61.5511 56.011 61.4193C56.0989 61.2875 56.1428 61.1351 56.1428 60.9623Z" fill="#9A4D49"/>
</g>
<defs>
<filter id="filter0_d_1088_21990" x="0.919922" y="0" width="82.48" height="82.48" filterUnits="userSpaceOnUse" color-interpolation-filters="sRGB">
<feFlood flood-opacity="0" result="BackgroundImageFix"/>
<feColorMatrix in="SourceAlpha" type="matrix" values="0 0 0 0 0 0 0 0 0 0 0 0 0 0 0 0 0 0 127 0" result="hardAlpha"/>
<feOffset dy="1"/>
<feGaussianBlur stdDeviation="4"/>
<feComposite in2="hardAlpha" operator="out"/>
<feColorMatrix type="matrix" values="0 0 0 0 0 0 0 0 0 0 0 0 0 0 0 0 0 0 0.1 0"/>
<feBlend mode="normal" in2="BackgroundImageFix" result="effect1_dropShadow_1088_21990"/>
<feBlend mode="normal" in="SourceGraphic" in2="effect1_dropShadow_1088_21990" result="shape"/>
</filter>
</defs>
</svg>
