<svg width="68" height="67" viewBox="0 0 68 67" fill="none" xmlns="http://www.w3.org/2000/svg">
<path fill-rule="evenodd" clip-rule="evenodd" d="M26.5703 8.86975C26.4393 8.86975 26.3331 8.97594 26.3331 9.10692V24.286C26.3331 24.4172 26.4393 24.5233 26.5703 24.5233H41.7496C41.8806 24.5233 41.9869 24.4172 41.9869 24.286V9.10692C41.9869 8.97594 41.8806 8.86975 41.7496 8.86975H26.5703ZM31.6649 13.1294C31.6649 11.7625 32.7719 10.6533 34.16 10.6533C35.528 10.6533 36.6361 11.7614 36.6361 13.1294C36.6361 14.4995 35.5258 15.6245 34.16 15.6245C32.7919 15.6245 31.6649 14.4974 31.6649 13.1294ZM29.9003 20.1308C29.9003 18.4385 31.2759 17.0476 32.9647 17.0476H35.3363C37.0251 17.0476 38.4008 18.4385 38.4008 20.1308V21.3072C38.4008 21.7075 38.0893 22.0187 37.6892 22.0187H30.6118C30.2115 22.0187 29.9003 21.7075 29.9003 21.3072V20.1308ZM25.6216 41.6103H42.6983C44.6717 41.6103 46.2656 39.9974 46.2656 38.043V25.2357C46.2656 23.6607 45.2219 22.2757 43.723 21.8583C43.6472 21.8393 43.5711 21.8583 43.5143 21.8962C43.4573 21.9342 43.4193 22.086 43.4193 22.086V25.2357C43.4193 25.6341 43.0968 25.9567 42.6983 25.9567H25.6216C25.2042 25.9567 24.9006 25.6341 24.9006 25.2357V22.086C24.9006 22.0101 24.8626 21.9342 24.8057 21.8962C24.7488 21.8583 24.6729 21.8393 24.597 21.8583C23.098 22.2757 22.0544 23.6607 22.0544 25.2357V38.043C22.0544 40.0164 23.6672 41.6103 25.6216 41.6103ZM24.9196 31.6489C24.9196 30.093 26.2098 28.8027 27.7657 28.8027H40.5733C42.1292 28.8027 43.4193 30.0739 43.4193 31.6489V35.9181C43.4193 37.4928 42.1481 38.7641 40.5733 38.7641H27.7657C26.1908 38.7641 24.9196 37.474 24.9196 35.9181V31.6489ZM27.7657 37.3407H40.5733C41.3323 37.3407 41.9963 36.6767 41.9963 35.9177V31.6485C41.9963 30.8705 41.3702 30.2255 40.5733 30.2255H27.7657C26.9688 30.2255 26.3426 30.8516 26.3426 31.6485V35.9177C26.3426 36.7146 26.9878 37.3407 27.7657 37.3407ZM32.6041 33.2803C32.737 33.1474 32.9076 33.0715 33.0975 33.0715L33.0785 33.0906C33.2682 33.0906 33.4581 33.1664 33.5907 33.2991L33.9892 33.6976C34.0462 33.7546 34.16 33.7737 34.16 33.7737C34.217 33.7737 34.3309 33.6976 34.3309 33.6976L35.7918 32.2178C36.0574 31.952 36.5128 31.952 36.7784 32.2178C36.9113 32.3505 36.9872 32.5402 36.9872 32.7301C36.9872 32.9197 36.9113 33.0906 36.7784 33.2233L34.6723 35.3484C34.3688 35.614 33.9133 35.5761 33.6478 35.3484L32.5853 34.2669C32.4524 34.134 32.3765 33.9443 32.3765 33.7737C32.3765 33.6028 32.4524 33.4131 32.6041 33.2803ZM33.0975 13.1504C33.0975 13.7385 33.5719 14.2129 34.16 14.2129C34.7484 14.2129 35.2227 13.7385 35.2227 13.1504C35.2227 12.5622 34.7484 12.0878 34.16 12.0878C33.5719 12.0878 33.0975 12.5622 33.0975 13.1504ZM31.5605 20.6051H36.7405H36.7595C36.8734 20.6051 36.9872 20.5102 36.9872 20.3774V20.1497C36.9872 19.22 36.2661 18.48 35.3554 18.48H32.9835C32.0728 18.48 31.3329 19.239 31.3329 20.1497V20.3774C31.3329 20.4913 31.4276 20.6051 31.5605 20.6051Z" fill="#898989"/>
<path d="M22.3381 54.7357V55.6102H19.1257V54.7357H22.3381ZM19.4333 49.2118V55.6102H18.3303V49.2118H19.4333ZM27.3787 54.7357V55.6102H23.9817V54.7357H27.3787ZM24.2937 49.2118V55.6102H23.1907V49.2118H24.2937ZM26.9348 51.8837V52.745H23.9817V51.8837H26.9348ZM27.3567 49.2118V50.0907H23.9817V49.2118H27.3567ZM30.7712 50.0643L28.8596 55.6102H27.7039L30.1121 49.2118H30.8503L30.7712 50.0643ZM32.3708 55.6102L30.4548 50.0643L30.3713 49.2118H31.114L33.531 55.6102H32.3708ZM32.2786 53.2372V54.1117H28.7981V53.2372H32.2786ZM36.071 54.4413L37.7542 49.2118H38.9714L36.6775 55.6102H35.8557L36.071 54.4413ZM34.5154 49.2118L36.1853 54.4413L36.4138 55.6102H35.5876L33.3025 49.2118H34.5154ZM43.8757 54.7357V55.6102H40.4788V54.7357H43.8757ZM40.7908 49.2118V55.6102H39.6877V49.2118H40.7908ZM43.4319 51.8837V52.745H40.4788V51.8837H43.4319ZM43.8538 49.2118V50.0907H40.4788V49.2118H43.8538ZM48.1428 53.9623C48.1428 53.8304 48.1223 53.7133 48.0813 53.6107C48.0432 53.5082 47.9744 53.4144 47.8748 53.3295C47.7751 53.2445 47.6345 53.1625 47.4529 53.0834C47.2742 53.0013 47.0457 52.9178 46.7673 52.8329C46.4626 52.7391 46.1814 52.6351 45.9236 52.5209C45.6687 52.4037 45.446 52.2689 45.2556 52.1166C45.0652 51.9613 44.9172 51.7841 44.8118 51.5848C44.7063 51.3827 44.6536 51.1498 44.6536 50.8861C44.6536 50.6254 44.7078 50.3881 44.8162 50.1742C44.9275 49.9603 45.0842 49.7758 45.2864 49.6205C45.4915 49.4623 45.7332 49.3407 46.0115 49.2557C46.2898 49.1678 46.5974 49.1239 46.9343 49.1239C47.4089 49.1239 47.8176 49.2118 48.1604 49.3876C48.5061 49.5634 48.7712 49.7992 48.9558 50.0951C49.1433 50.391 49.2371 50.7177 49.2371 51.0751H48.1428C48.1428 50.8641 48.0974 50.6781 48.0066 50.517C47.9187 50.3529 47.7839 50.224 47.6023 50.1302C47.4236 50.0365 47.1965 49.9896 46.9211 49.9896C46.6604 49.9896 46.4436 50.0292 46.2708 50.1083C46.0979 50.1874 45.969 50.2943 45.884 50.4291C45.7991 50.5638 45.7566 50.7162 45.7566 50.8861C45.7566 51.0062 45.7844 51.1161 45.8401 51.2157C45.8958 51.3124 45.9807 51.4032 46.095 51.4882C46.2092 51.5702 46.3528 51.6478 46.5256 51.7211C46.6985 51.7943 46.9021 51.8646 47.1365 51.932C47.491 52.0375 47.8 52.1547 48.0637 52.2836C48.3274 52.4095 48.5471 52.5531 48.7229 52.7142C48.8987 52.8754 49.0305 53.0585 49.1184 53.2635C49.2063 53.4657 49.2502 53.6957 49.2502 53.9535C49.2502 54.223 49.196 54.4662 49.0876 54.683C48.9792 54.8969 48.824 55.08 48.6218 55.2323C48.4226 55.3817 48.1824 55.4974 47.9011 55.5795C47.6228 55.6586 47.3123 55.6981 46.9695 55.6981C46.6619 55.6981 46.3586 55.6571 46.0598 55.5751C45.7639 55.493 45.4944 55.3685 45.2512 55.2015C45.0081 55.0316 44.8147 54.8207 44.6711 54.5687C44.5276 54.3138 44.4558 54.0165 44.4558 53.6766H45.5588C45.5588 53.8846 45.594 54.0619 45.6643 54.2084C45.7375 54.3549 45.8386 54.475 45.9675 54.5687C46.0964 54.6595 46.2458 54.7269 46.4158 54.7709C46.5886 54.8148 46.7732 54.8368 46.9695 54.8368C47.2273 54.8368 47.4426 54.8002 47.6155 54.7269C47.7913 54.6537 47.9231 54.5511 48.011 54.4193C48.0989 54.2875 48.1428 54.1351 48.1428 53.9623Z" fill="#898989"/>
</svg>
