<svg width="18" height="19" viewBox="0 0 18 19" fill="none" xmlns="http://www.w3.org/2000/svg">
<rect y="0.5" width="18" height="18" rx="9" fill="#9A4D49"/>
<path d="M7.01893 4.55037L11.5459 9.19442C11.6254 9.27599 11.6699 9.38539 11.6699 9.4993C11.6699 9.61321 11.6254 9.72262 11.5459 9.80419L7.01893 14.45C6.9819 14.488 6.93761 14.5183 6.8887 14.5389C6.83979 14.5595 6.78723 14.5702 6.73414 14.5702C6.68105 14.5702 6.62849 14.5595 6.57958 14.5389C6.53067 14.5183 6.48639 14.488 6.44935 14.45C6.37314 14.372 6.33048 14.2672 6.33048 14.1582C6.33048 14.0491 6.37314 13.9444 6.44935 13.8664L10.7064 9.4993L6.44935 5.13306C6.37341 5.0551 6.33091 4.95056 6.33091 4.84172C6.33091 4.73288 6.37341 4.62834 6.44935 4.55037C6.48639 4.51233 6.53067 4.4821 6.57958 4.46146C6.62849 4.44081 6.68105 4.43018 6.73414 4.43018C6.78723 4.43018 6.83979 4.44081 6.8887 4.46146C6.93761 4.4821 6.9819 4.51233 7.01893 4.55037Z" fill="white"/>
</svg>
