<svg width="16" height="15" viewBox="0 0 16 15" fill="none" xmlns="http://www.w3.org/2000/svg">
<g clip-path="url(#clip0_4_5713)">
<path d="M7.89997 0.319946C3.92997 0.319946 0.719971 3.53995 0.719971 7.49995C0.719971 11.4699 3.93997 14.6799 7.89997 14.6799C11.87 14.6799 15.08 11.4599 15.08 7.49995C15.08 3.52995 11.87 0.319946 7.89997 0.319946ZM7.09997 3.71995C7.09997 3.27995 7.45997 2.91995 7.89997 2.91995C8.33997 2.91995 8.69997 3.27995 8.69997 3.71995V5.88995C8.69997 6.32995 8.33997 6.68995 7.89997 6.68995C7.45997 6.68995 7.09997 6.32995 7.09997 5.88995V3.71995ZM7.36997 12.0499C5.54997 11.8299 4.02997 10.3899 3.71997 8.57995C3.44997 6.98995 4.06997 5.52995 5.15997 4.60995C5.57997 4.24995 6.22997 4.40995 6.42997 4.92995C6.54997 5.24995 6.44997 5.59995 6.18997 5.81995C5.61997 6.29995 5.24997 7.01995 5.24997 7.82995C5.24997 9.44995 6.70997 10.7399 8.38997 10.4399C9.45997 10.2499 10.33 9.36995 10.52 8.30995C10.69 7.31995 10.32 6.41995 9.64997 5.84995C9.38997 5.62995 9.29997 5.26995 9.42997 4.94995C9.63997 4.44995 10.28 4.29995 10.7 4.65995C11.59 5.42995 12.15 6.55995 12.15 7.82995C12.14 10.3499 9.94997 12.3599 7.36997 12.0499Z" fill="#898989"/>
</g>
<defs>
<clipPath id="clip0_4_5713">
<rect width="15" height="15" fill="white" transform="translate(0.399902)"/>
</clipPath>
</defs>
</svg>
