<svg width="15" height="11" viewBox="0 0 15 11" fill="none" xmlns="http://www.w3.org/2000/svg">
<path d="M1.34667 11C0.962778 11 0.6425 10.879 0.385833 10.637C0.129167 10.395 0.000555556 10.0928 0 9.73028V1.26971C0 0.907762 0.128611 0.605785 0.385833 0.363786C0.643056 0.121786 0.963055 0.000523809 1.34583 0H13.6542C14.0375 0 14.3575 0.121262 14.6142 0.363786C14.8708 0.606309 14.9994 0.908286 15 1.26971V9.73107C15 10.0925 14.8714 10.3945 14.6142 10.637C14.3569 10.8795 14.0369 11.0005 13.6542 11H1.34667ZM7.5 5.59114L14.1667 1.48107L13.91 0.785714L7.5 4.71428L1.09 0.785714L0.833333 1.48107L7.5 5.59114Z" fill="#898989"/>
</svg>
