<svg width="16" height="15" viewBox="0 0 16 15" fill="none" xmlns="http://www.w3.org/2000/svg">
<path d="M7.89998 8.16996C8.27001 8.16996 8.56998 7.86999 8.56998 7.49996C8.56998 7.12993 8.27001 6.82996 7.89998 6.82996C7.52995 6.82996 7.22998 7.12993 7.22998 7.49996C7.22998 7.86999 7.52995 8.16996 7.89998 8.16996Z" fill="#9A4D49"/>
<path d="M13.28 3.55996V8.55996L12.05 9.79996L12.4 10.15C12.55 10.3 12.55 10.54 12.4 10.68L10.92 12.16C10.77 12.31 10.53 12.31 10.39 12.16C10.35 12.12 10.31 12.08 10.27 12.04C10.23 12 10.18 11.95 10.14 11.91C10.12 11.89 10.1 11.88 10.07 11.91C10.02 11.96 9.96998 12.01 9.91998 12.06C9.85998 12.12 9.78998 12.17 9.72998 12.23C9.61998 12.32 9.45998 12.31 9.36998 12.21C9.27998 12.1 9.28998 11.94 9.38998 11.85C9.44998 11.79 9.50998 11.74 9.57998 11.68C9.62998 11.64 9.67998 11.59 9.72998 11.55C9.73998 11.54 9.73998 11.54 9.74998 11.53C9.75998 11.5 9.70998 11.47 9.69998 11.45C9.66998 11.42 9.63998 11.39 9.60998 11.36C9.50998 11.26 9.37998 11.16 9.34998 11.02C9.31998 10.9 9.35998 10.77 9.44998 10.68L10.93 9.19996C11.08 9.04996 11.32 9.04996 11.46 9.19996L11.73 9.46996L12.74 8.42996V2.88996C11.51 1.61996 9.79998 0.829956 7.89998 0.829956C4.21998 0.829956 1.22998 3.81996 1.22998 7.49996C1.22998 11.18 4.21998 14.17 7.89998 14.17C11.58 14.17 14.57 11.18 14.57 7.49996C14.57 6.02996 14.09 4.65996 13.28 3.55996ZM5.14998 7.49996C5.14998 5.97996 6.37998 4.74996 7.89998 4.74996C9.41998 4.74996 10.65 5.97996 10.65 7.49996C10.65 9.01996 9.41998 10.25 7.89998 10.25C6.37998 10.25 5.14998 9.01996 5.14998 7.49996Z" fill="#9A4D49"/>
</svg>
