<svg width="15" height="14" viewBox="0 0 15 14" fill="none" xmlns="http://www.w3.org/2000/svg">
<path d="M7.50008 7.67008C7.87011 7.67008 8.17008 7.37011 8.17008 7.00008C8.17008 6.63005 7.87011 6.33008 7.50008 6.33008C7.13005 6.33008 6.83008 6.63005 6.83008 7.00008C6.83008 7.37011 7.13005 7.67008 7.50008 7.67008Z" fill="#898989"/>
<path d="M12.8801 3.06008V8.06008L11.6501 9.30008L12.0001 9.65008C12.1501 9.80008 12.1501 10.0401 12.0001 10.1801L10.5201 11.6601C10.3701 11.8101 10.1301 11.8101 9.99008 11.6601C9.95008 11.6201 9.91008 11.5801 9.87008 11.5401C9.83008 11.5001 9.78008 11.4501 9.74008 11.4101C9.72008 11.3901 9.70008 11.3801 9.67008 11.4101C9.62008 11.4601 9.57008 11.5101 9.52008 11.5601C9.46008 11.6201 9.39008 11.6701 9.33008 11.7301C9.22008 11.8201 9.06008 11.8101 8.97008 11.7101C8.88008 11.6001 8.89008 11.4401 8.99008 11.3501C9.05008 11.2901 9.11008 11.2401 9.18008 11.1801C9.23008 11.1401 9.28008 11.0901 9.33008 11.0501C9.34008 11.0401 9.34008 11.0401 9.35008 11.0301C9.36008 11.0001 9.31008 10.9701 9.30008 10.9501C9.27008 10.9201 9.24008 10.8901 9.21008 10.8601C9.11008 10.7601 8.98008 10.6601 8.95008 10.5201C8.92008 10.4001 8.96008 10.2701 9.05008 10.1801L10.5301 8.70008C10.6801 8.55008 10.9201 8.55008 11.0601 8.70008L11.3301 8.97008L12.3401 7.93008V2.39008C11.1101 1.12008 9.40008 0.330078 7.50008 0.330078C3.82008 0.330078 0.830078 3.32008 0.830078 7.00008C0.830078 10.6801 3.82008 13.6701 7.50008 13.6701C11.1801 13.6701 14.1701 10.6801 14.1701 7.00008C14.1701 5.53008 13.6901 4.16008 12.8801 3.06008ZM4.75008 7.00008C4.75008 5.48008 5.98008 4.25008 7.50008 4.25008C9.02008 4.25008 10.2501 5.48008 10.2501 7.00008C10.2501 8.52008 9.02008 9.75008 7.50008 9.75008C5.98008 9.75008 4.75008 8.52008 4.75008 7.00008Z" fill="#898989"/>
</svg>
