<svg width="14" height="13" viewBox="0 0 14 13" fill="none" xmlns="http://www.w3.org/2000/svg">
<path d="M2.78981 8.93003V4.82003C2.78981 4.82003 2.89981 1.14003 6.78981 0.930033C10.6798 0.720033 10.8898 4.93003 10.8898 4.93003V8.93003C10.8898 8.93003 10.7898 9.46003 11.3098 9.46003C11.8398 9.46003 12.1498 9.46003 12.1498 9.46003C12.1498 9.46003 13.6698 9.07003 13.6998 7.68003C13.7298 6.29003 13.7298 6.30003 13.7298 6.30003C13.7298 6.30003 13.5198 4.62003 11.7298 4.62003C11.7298 4.62003 11.4098 0.410033 7.09981 0.0900333C2.78981 -0.229967 1.94981 4.30003 2.05981 4.51003C2.05981 4.51003 0.269814 4.40003 0.0598145 6.09003V7.90003C0.0598145 7.90003 0.189814 9.35003 1.59981 9.45003H2.43981C2.43981 9.46003 2.78981 9.56003 2.78981 8.93003Z" fill="#9A4D49"/>
<path d="M7.57979 12.93H6.21979C5.83979 12.93 5.52979 12.62 5.52979 12.24V12.05C5.52979 11.67 5.83979 11.36 6.21979 11.36H7.56979C7.94979 11.36 8.25978 11.67 8.25978 12.05V12.24C8.26978 12.62 7.95979 12.93 7.57979 12.93Z" fill="#9A4D49"/>
<path d="M1.73975 9.97998H2.28975C2.28975 9.97998 2.68975 12.19 4.99975 11.87V12.47C5.00975 12.48 2.47975 12.82 1.73975 9.97998Z" fill="#9A4D49"/>
</svg>
