<svg width="15" height="14" viewBox="0 0 15 14" fill="none" xmlns="http://www.w3.org/2000/svg">
<path d="M3.39016 9.42991V5.31991C3.39016 5.31991 3.50016 1.63991 7.39016 1.42991C11.2802 1.21991 11.4902 5.42991 11.4902 5.42991V9.42991C11.4902 9.42991 11.3902 9.95991 11.9102 9.95991C12.4402 9.95991 12.7502 9.95991 12.7502 9.95991C12.7502 9.95991 14.2702 9.56991 14.3002 8.17991C14.3302 6.78991 14.3302 6.79991 14.3302 6.79991C14.3302 6.79991 14.1202 5.11991 12.3302 5.11991C12.3302 5.11991 12.0102 0.909911 7.70016 0.589911C3.39016 0.269911 2.55016 4.79991 2.66016 5.00991C2.66016 5.00991 0.870156 4.89991 0.660156 6.58991V8.39991C0.660156 8.39991 0.790156 9.84991 2.20016 9.94991H3.04016C3.04016 9.95991 3.39016 10.0599 3.39016 9.42991Z" fill="#898989"/>
<path d="M8.18037 13.4299H6.82037C6.44037 13.4299 6.13037 13.1199 6.13037 12.7399V12.5499C6.13037 12.1699 6.44037 11.8599 6.82037 11.8599H8.17037C8.55037 11.8599 8.86037 12.1699 8.86037 12.5499V12.7399C8.87037 13.1199 8.56037 13.4299 8.18037 13.4299Z" fill="#898989"/>
<path d="M2.34033 10.48H2.89033C2.89033 10.48 3.29033 12.69 5.60033 12.37V12.97C5.61033 12.98 3.08033 13.32 2.34033 10.48Z" fill="#898989"/>
</svg>
