<svg width="277" height="259" viewBox="0 0 277 259" fill="none" xmlns="http://www.w3.org/2000/svg">
<g clip-path="url(#clip0_2_132943)">
<path d="M23.7489 249.33C23.7489 249.33 -7.82031 230.329 3.72946 204.909C10.5173 189.966 39.989 195.529 36.8869 170.656C32.8241 138.047 0.437392 116.079 19.1273 88.2006C38.3705 59.4858 86.4138 93.7387 133.375 63.3504C163.684 43.7273 217.634 32.7556 237.177 63.9367C255.856 93.7277 218.515 126.863 245.625 149.12C272.735 171.378 303.789 204.959 235.251 244.546C231.84 246.514 228.84 249.947 225.121 249.947C168.033 249.947 115.415 249.776 115.415 249.776" fill="#F9F9FA"/>
<path d="M17.5943 221.937C10.501 220.803 17.1374 241.629 27.2971 238.945C37.4568 236.261 23.5536 222.889 17.5943 221.937Z" fill="#8A8A8A"/>
<path d="M13.6252 210.139C9.56237 211.604 10.9469 220.431 16.9585 218.559C22.9701 216.688 17.6191 208.702 13.6252 210.139Z" fill="#8A8A8A"/>
<path d="M225.13 249.936C161.496 249.776 115.423 249.776 115.423 249.776L225.13 249.936Z" fill="#8A8A8A"/>
<path d="M119.847 146.076C119.536 143.692 118.011 141.917 116.447 142.107C114.884 142.297 113.866 144.383 114.179 146.767C114.493 149.151 116.015 150.926 117.579 150.736C119.142 150.546 120.161 148.46 119.847 146.076Z" fill="#9C4D4B"/>
<path d="M152.949 142.492C152.635 140.108 151.113 138.333 149.547 138.523C147.981 138.713 146.968 140.799 147.279 143.183C147.59 145.567 149.115 147.342 150.681 147.152C152.247 146.962 153.268 144.876 152.949 142.492Z" fill="#9C4D4B"/>
<path d="M128.966 155.173C137.4 151.32 144.433 154.397 144.757 154.546C144.842 154.583 144.918 154.637 144.982 154.704C145.046 154.771 145.095 154.851 145.128 154.937C145.161 155.024 145.176 155.116 145.173 155.208C145.17 155.301 145.148 155.392 145.11 155.476C145.031 155.646 144.888 155.778 144.712 155.843C144.537 155.909 144.342 155.902 144.171 155.826C144.089 155.79 135.897 152.247 126.959 157.86C126.8 157.959 126.608 157.992 126.425 157.952C126.242 157.911 126.082 157.8 125.979 157.642C125.93 157.564 125.896 157.477 125.88 157.386C125.864 157.295 125.866 157.202 125.886 157.111C125.906 157.021 125.944 156.935 125.998 156.86C126.051 156.784 126.119 156.72 126.197 156.671C127.086 156.112 128.011 155.612 128.966 155.173Z" fill="#9C4D4B"/>
<path d="M113.183 124.039C113.426 124.022 113.669 124.07 113.887 124.177C114.226 124.337 114.487 124.626 114.613 124.979C114.739 125.332 114.719 125.721 114.559 126.059C111.179 133.073 104.697 133.959 104.421 133.992C104.048 134.04 103.671 133.938 103.373 133.709C103.074 133.48 102.878 133.143 102.828 132.77C102.803 132.587 102.815 132.401 102.863 132.223C102.911 132.045 102.994 131.878 103.106 131.732C103.219 131.586 103.359 131.464 103.519 131.372C103.679 131.281 103.856 131.221 104.039 131.198C104.253 131.168 109.299 130.425 111.996 124.829C112.106 124.604 112.274 124.411 112.482 124.273C112.691 124.134 112.933 124.053 113.183 124.039Z" fill="#9C4D4B"/>
<path d="M146.307 120.406C146.532 120.341 146.77 120.333 146.999 120.381C147.228 120.428 147.442 120.532 147.623 120.681C152.415 124.716 157.339 123.389 157.546 123.332C157.907 123.229 158.294 123.272 158.624 123.453C158.953 123.633 159.199 123.935 159.307 124.295C159.36 124.472 159.377 124.657 159.358 124.84C159.339 125.023 159.283 125.201 159.195 125.363C159.107 125.524 158.987 125.667 158.844 125.782C158.7 125.898 158.535 125.983 158.358 126.035C158.083 126.109 151.793 127.879 145.792 122.822C145.65 122.704 145.532 122.558 145.446 122.394C145.36 122.23 145.308 122.05 145.292 121.866C145.276 121.681 145.297 121.495 145.354 121.319C145.41 121.142 145.501 120.979 145.622 120.838C145.803 120.63 146.042 120.48 146.307 120.406Z" fill="#9C4D4B"/>
<path d="M92.4477 174.257L102.596 183.299L118.245 174.257L129.046 183.299L141.964 175.93L156.109 185.308L165.336 175.93L177.02 185.308L185.974 179.253V116.321C185.988 115.992 185.872 115.67 185.651 115.426C185.43 115.181 185.122 115.033 184.794 115.013L168.856 114.738C168.803 114.734 168.75 114.734 168.697 114.738C164.744 115.289 161.479 111.867 161.859 107.532L163.175 92.4972C163.198 92.3236 163.184 92.1471 163.135 91.979C163.086 91.8108 163.003 91.6546 162.891 91.5202C162.779 91.3857 162.64 91.276 162.483 91.1978C162.326 91.1196 162.155 91.0747 161.98 91.0659H90.9145C86.1746 91.0659 82.332 95.2498 82.332 100.425V178.743L92.4477 174.257Z" stroke="#9C4D4B" stroke-width="1.37628" stroke-miterlimit="10"/>
<path d="M179.792 194.967L167.681 185.952L153.946 193.643L141.664 184.89L129.046 193.376L118.245 183.299L104.278 193.899L89.6899 183.558L82.3433 188.196V212.399C82.3433 216.487 86.1969 219.801 90.9258 219.801H177.395C182.135 219.801 185.977 216.498 185.977 212.399V190.654L179.792 194.967Z" stroke="#9C4D4B" stroke-width="1.37628" stroke-miterlimit="10"/>
<path d="M168.432 117.405L187.585 116.709C187.669 116.704 187.751 116.675 187.821 116.627C187.89 116.578 187.945 116.511 187.978 116.433C188.011 116.355 188.022 116.269 188.01 116.185C187.997 116.101 187.962 116.022 187.907 115.957L187.152 115.071L187.133 115.049L163.885 90.9365L163.868 90.9173L162.371 89.1666C162.315 89.1002 162.241 89.0513 162.158 89.0257C162.074 89.0002 161.986 88.9991 161.902 89.0226C161.818 89.0461 161.743 89.0932 161.685 89.1582C161.627 89.2233 161.589 89.3036 161.576 89.3896L161.427 90.2897L158.479 108.352C157.697 113.141 163.409 117.771 168.432 117.405Z" fill="#9C4D4B"/>
<path d="M235.039 65.0184C233.895 64.7582 232.824 64.2435 231.906 63.5127L232.201 63.1439C233.063 63.8295 234.069 64.3121 235.143 64.556L235.039 65.0184ZM238.512 65.0184L238.408 64.5587C239.481 64.3106 240.484 63.8253 241.345 63.1384L241.642 63.5072C240.725 64.2376 239.655 64.753 238.512 65.0156V65.0184ZM229.745 60.8014C229.232 59.7469 228.966 58.5888 228.969 57.4158H229.44C229.44 58.5173 229.691 59.6044 230.172 60.595L229.745 60.8014ZM243.817 60.8014L243.393 60.5978C243.872 59.6046 244.119 58.5157 244.117 57.413L244.455 57.391L244.59 57.4048C244.589 58.5774 244.321 59.7344 243.806 60.7877L243.817 60.8014ZM230.158 54.2448L229.732 54.0411C230.24 52.9842 230.979 52.0541 231.892 51.3189L232.19 51.6905C231.328 52.3748 230.631 53.2428 230.147 54.2311L230.158 54.2448ZM243.371 54.2063C242.887 53.2168 242.188 52.3479 241.326 51.6629L241.62 51.2913C242.538 52.0199 243.282 52.9443 243.797 53.9971L243.371 54.2063ZM235.113 50.2646L235.008 49.8022C235.584 49.67 236.174 49.6035 236.765 49.604C237.341 49.604 237.916 49.6667 238.479 49.7912L238.375 50.2536C237.846 50.1357 237.306 50.0766 236.765 50.0774C236.209 50.073 235.655 50.1312 235.113 50.2509V50.2646Z" fill="#8A8A8A"/>
<path d="M14.9134 164.27H14.7703V163.797H14.9079C15.9499 163.797 16.989 163.685 18.0073 163.464L18.1091 163.926C17.0593 164.155 15.9879 164.27 14.9134 164.27ZM11.4397 163.863C10.3459 163.604 9.28564 163.22 8.27972 162.718L8.48892 162.294C9.46395 162.776 10.4909 163.146 11.5498 163.395L11.4397 163.863ZM21.2911 162.839L21.0902 162.412C22.0689 161.944 22.9921 161.368 23.8427 160.695L24.1373 161.066C23.2581 161.762 22.3034 162.357 21.2911 162.839ZM5.45834 160.893C4.58998 160.18 3.80426 159.372 3.11591 158.485L3.48475 158.195C4.15122 159.055 4.91202 159.837 5.75286 160.527L5.45834 160.893ZM26.532 158.691L26.1631 158.396C26.8438 157.546 27.4281 156.623 27.9055 155.644L28.3294 155.85C27.8403 156.866 27.2373 157.823 26.532 158.702V158.691ZM1.37078 155.616C0.900177 154.597 0.545624 153.528 0.313792 152.429L0.778976 152.33C0.99965 153.395 1.34231 154.431 1.80018 155.418L1.37078 155.616ZM29.447 152.696L28.9845 152.591C29.2305 151.532 29.3561 150.448 29.3589 149.36H29.8323C29.8288 150.483 29.6995 151.602 29.447 152.696ZM0.473442 149.093H0C0.0209865 147.97 0.167789 146.853 0.437658 145.762L0.897336 145.878C0.635379 146.93 0.493179 148.009 0.473442 149.093ZM29.1001 146.648C28.8963 145.579 28.5722 144.537 28.134 143.541L28.5661 143.351C29.0182 144.378 29.3516 145.453 29.5598 146.555L29.1001 146.648ZM2.03415 142.82L1.613 142.605C2.12177 141.604 2.7423 140.664 3.46273 139.803L3.82607 140.106C3.12933 140.941 2.52827 141.851 2.03415 142.82ZM26.488 140.733C25.8385 139.861 25.0924 139.065 24.2639 138.361L24.5722 138C25.4266 138.728 26.1967 139.55 26.8678 140.45L26.488 140.733ZM6.17951 137.86L5.90426 137.482C6.79679 136.803 7.76363 136.226 8.78619 135.765L8.98163 136.194C7.98753 136.641 7.04746 137.2 6.17951 137.86ZM21.5664 136.544C20.6039 136.043 19.5883 135.651 18.5385 135.377L18.6569 134.92C19.7439 135.202 20.7956 135.605 21.7921 136.123L21.5664 136.544ZM12.0673 135.201L11.9737 134.735C12.9396 134.549 13.9214 134.456 14.9051 134.46L15.3208 134.444V134.917C15.1859 134.917 15.0455 134.917 14.9162 134.917C13.9595 134.918 13.0053 135.013 12.0673 135.201Z" fill="#8A8A8A"/>
<path d="M28.8742 162.143C31.3582 162.143 33.3719 160.129 33.3719 157.645C33.3719 155.161 31.3582 153.147 28.8742 153.147C26.3902 153.147 24.3765 155.161 24.3765 157.645C24.3765 160.129 26.3902 162.143 28.8742 162.143Z" fill="#8A8A8A"/>
<path d="M227.26 152.118C229.091 152.118 230.574 150.634 230.574 148.804C230.574 146.973 229.091 145.49 227.26 145.49C225.43 145.49 223.946 146.973 223.946 148.804C223.946 150.634 225.43 152.118 227.26 152.118Z" fill="#8A8A8A"/>
<path d="M233.69 51.7042C233.69 52.1724 233.551 52.6301 233.291 53.0194C233.031 53.4087 232.661 53.7121 232.229 53.8913C231.796 54.0704 231.32 54.1173 230.861 54.026C230.402 53.9346 229.98 53.7092 229.649 53.3781C229.318 53.0471 229.092 52.6253 229.001 52.1661C228.91 51.7069 228.957 51.2309 229.136 50.7984C229.315 50.3658 229.618 49.9961 230.008 49.736C230.397 49.4759 230.855 49.337 231.323 49.337C231.634 49.337 231.941 49.3983 232.229 49.5172C232.516 49.6362 232.777 49.8106 232.997 50.0304C233.216 50.2502 233.391 50.5112 233.51 50.7984C233.629 51.0856 233.69 51.3934 233.69 51.7042Z" fill="#8A8A8A"/>
<path d="M113.012 49.3371C113.012 50.0392 112.804 50.7256 112.414 51.3095C112.024 51.8934 111.469 52.3485 110.82 52.6173C110.172 52.8862 109.458 52.9566 108.769 52.8198C108.081 52.6831 107.448 52.3452 106.951 51.8488C106.454 51.3525 106.116 50.7201 105.979 50.0315C105.841 49.3429 105.911 48.629 106.18 47.9801C106.448 47.3313 106.903 46.7765 107.486 46.386C108.07 45.9955 108.756 45.7868 109.458 45.7863C109.925 45.7859 110.387 45.8775 110.818 46.0558C111.249 46.234 111.641 46.4955 111.971 46.8253C112.301 47.155 112.563 47.5466 112.741 47.9776C112.92 48.4086 113.012 48.8705 113.012 49.3371Z" fill="#8A8A8A"/>
<path d="M115.853 60.2262C115.572 60.2258 115.292 60.2074 115.013 60.1712L115.076 59.7005C116.135 59.8391 117.211 59.6908 118.192 59.2711L118.38 59.706C117.582 60.0505 116.722 60.2275 115.853 60.2262ZM111.884 58.8499C110.979 58.1296 110.286 57.1786 109.877 56.0973L110.32 55.9294C110.7 56.9268 111.342 57.8034 112.178 58.4673L111.884 58.8499ZM121.033 57.5837L120.648 57.3085C121.274 56.4433 121.655 55.4246 121.749 54.3605L122.219 54.4018C122.119 55.5485 121.709 56.6465 121.033 57.5782V57.5837ZM109.937 53.8402H109.458C109.457 52.6859 109.769 51.5529 110.361 50.5619L110.766 50.8069C110.223 51.7233 109.936 52.7693 109.937 53.8347V53.8402ZM121.182 51.2638C120.715 50.3026 119.998 49.4849 119.106 48.8966L119.368 48.5003C120.331 49.136 121.105 50.0193 121.608 51.0574L121.182 51.2638ZM113.037 48.6241L112.811 48.2085C113.825 47.6656 114.965 47.4033 116.114 47.4488L116.095 47.9222C115.031 47.8808 113.976 48.1231 113.037 48.6241Z" fill="#8A8A8A"/>
<path d="M234.524 161.482C233.386 161.399 232.277 161.078 231.27 160.541L231.493 160.125C232.443 160.63 233.487 160.931 234.56 161.009L234.524 161.482ZM237.882 161.044L237.728 160.593C238.745 160.239 239.677 159.676 240.464 158.941L240.786 159.288C239.95 160.068 238.961 160.666 237.882 161.044ZM228.667 158.391C227.954 157.499 227.435 156.467 227.144 155.363L227.601 155.242C227.877 156.282 228.366 157.253 229.038 158.094L228.667 158.391ZM242.743 156.55L242.311 156.36C242.743 155.369 242.963 154.299 242.958 153.219H243.431C243.435 154.36 243.201 155.49 242.743 156.536V156.55ZM242.917 152.382C242.799 151.315 242.462 150.284 241.926 149.354L242.339 149.12C242.908 150.109 243.265 151.206 243.387 152.341L242.917 152.382ZM227.428 152.057L226.96 151.986C227.129 150.857 227.532 149.776 228.144 148.812L228.543 149.065C227.969 149.97 227.59 150.984 227.428 152.044V152.057ZM239.814 146.962C238.949 146.312 237.957 145.851 236.902 145.608L237.01 145.146C238.121 145.401 239.168 145.886 240.081 146.569L239.814 146.962ZM230.772 146.77L230.497 146.379C231.439 145.735 232.507 145.296 233.629 145.091L233.715 145.556C232.658 145.746 231.653 146.155 230.764 146.756L230.772 146.77Z" fill="#8A8A8A"/>
<path d="M175.278 36.7275L204.846 48.2332C202.369 33.5895 221.196 27.2394 218.727 12.5985L189.159 1.07898C191.628 15.7226 172.806 22.0728 175.278 36.7275Z" stroke="#9C4D4B" stroke-width="1.37628" stroke-miterlimit="10"/>
<path d="M212.234 29.8461C216.165 24.7868 219.916 19.6616 218.727 12.604L189.159 1.07898" stroke="#9C4D4B" stroke-width="1.37628" stroke-miterlimit="10"/>
<path d="M175.278 36.7275L204.846 48.2333C204.059 43.5539 205.435 39.7416 207.598 36.2211" stroke="#9C4D4B" stroke-width="1.37628" stroke-miterlimit="10"/>
<path d="M147.334 77.2315L176.838 65.5524C165.066 56.502 174.537 39.0424 162.765 29.9948L133.26 41.6821C145.032 50.7216 135.561 68.1811 147.334 77.2315Z" stroke="#9C4D4B" stroke-width="1.37628" stroke-miterlimit="10"/>
<path d="M147.334 77.2315L176.839 65.5523C171.502 61.4483 170.53 55.6156 169.957 49.6205" stroke="#9C4D4B" stroke-width="1.37628" stroke-miterlimit="10"/>
<path d="M150.628 34.8007L133.26 41.6821C139.445 46.4358 139.764 53.5181 140.383 60.4683" stroke="#9C4D4B" stroke-width="1.37628" stroke-miterlimit="10"/>
<path d="M200.048 100.901L175.578 80.697C189.567 75.7149 185.936 56.1992 199.925 51.2061L224.395 71.4099C210.406 76.392 214.037 95.9077 200.048 100.901Z" stroke="#9C4D4B" stroke-width="1.37628" stroke-miterlimit="10"/>
<path d="M213.131 84.0221C210.175 90.8072 207.855 98.1207 200.048 100.901L183.808 87.4848" stroke="#9C4D4B" stroke-width="1.37628" stroke-miterlimit="10"/>
<path d="M189.033 62.9788C191.298 57.9278 194.067 53.2925 199.925 51.2061L213.068 62.0512" stroke="#9C4D4B" stroke-width="1.37628" stroke-miterlimit="10"/>
<path d="M67.8092 248.079H64.6523L57.5043 237.278V248.079H54.3474V232.317H57.5043L64.6523 243.141V232.317H67.8092V248.079ZM76.4759 248.282C75.2733 248.282 74.1909 248.019 73.2288 247.493C72.2668 246.952 71.5076 246.192 70.9514 245.215C70.4102 244.238 70.1396 243.111 70.1396 241.833C70.1396 240.555 70.4177 239.428 70.9739 238.451C71.5452 237.473 72.3194 236.722 73.2965 236.196C74.2736 235.654 75.3635 235.384 76.5661 235.384C77.7687 235.384 78.8586 235.654 79.8357 236.196C80.8128 236.722 81.5795 237.473 82.1357 238.451C82.707 239.428 82.9926 240.555 82.9926 241.833C82.9926 243.111 82.6994 244.238 82.1132 245.215C81.5419 246.192 80.7602 246.952 79.7681 247.493C78.7909 248.019 77.6936 248.282 76.4759 248.282ZM76.4759 245.531C77.0471 245.531 77.5808 245.396 78.0769 245.125C78.588 244.839 78.9939 244.419 79.2945 243.862C79.5952 243.306 79.7455 242.63 79.7455 241.833C79.7455 240.645 79.4298 239.736 78.7985 239.104C78.1821 238.458 77.423 238.135 76.521 238.135C75.619 238.135 74.8599 238.458 74.2436 239.104C73.6422 239.736 73.3416 240.645 73.3416 241.833C73.3416 243.02 73.6347 243.937 74.221 244.584C74.8223 245.215 75.5739 245.531 76.4759 245.531ZM96.1832 232.34C97.8368 232.34 99.2875 232.663 100.535 233.309C101.798 233.956 102.768 234.88 103.444 236.083C104.136 237.27 104.481 238.653 104.481 240.232C104.481 241.81 104.136 243.193 103.444 244.381C102.768 245.553 101.798 246.463 100.535 247.109C99.2875 247.756 97.8368 248.079 96.1832 248.079H90.6813V232.34H96.1832ZM96.0705 245.396C97.7241 245.396 99.0019 244.945 99.9038 244.043C100.806 243.141 101.257 241.87 101.257 240.232C101.257 238.593 100.806 237.316 99.9038 236.399C99.0019 235.467 97.7241 235.001 96.0705 235.001H93.8381V245.396H96.0705ZM106.033 241.788C106.033 240.525 106.281 239.405 106.777 238.428C107.288 237.451 107.972 236.699 108.829 236.173C109.701 235.647 110.67 235.384 111.737 235.384C112.669 235.384 113.481 235.572 114.173 235.948C114.879 236.323 115.443 236.797 115.864 237.368V235.587H119.043V248.079H115.864V246.253C115.458 246.839 114.894 247.327 114.173 247.718C113.466 248.094 112.647 248.282 111.715 248.282C110.663 248.282 109.701 248.011 108.829 247.47C107.972 246.929 107.288 246.17 106.777 245.193C106.281 244.201 106.033 243.066 106.033 241.788ZM115.864 241.833C115.864 241.066 115.714 240.412 115.413 239.871C115.112 239.315 114.706 238.894 114.195 238.608C113.684 238.308 113.136 238.157 112.549 238.157C111.963 238.157 111.422 238.3 110.926 238.586C110.43 238.871 110.024 239.292 109.708 239.849C109.407 240.39 109.257 241.036 109.257 241.788C109.257 242.539 109.407 243.201 109.708 243.772C110.024 244.328 110.43 244.757 110.926 245.057C111.437 245.358 111.978 245.508 112.549 245.508C113.136 245.508 113.684 245.366 114.195 245.08C114.706 244.779 115.112 244.358 115.413 243.817C115.714 243.261 115.864 242.6 115.864 241.833ZM125.802 238.18V244.223C125.802 244.644 125.9 244.952 126.095 245.148C126.306 245.328 126.651 245.418 127.132 245.418H128.598V248.079H126.614C123.953 248.079 122.623 246.786 122.623 244.201V238.18H121.134V235.587H122.623V232.498H125.802V235.587H128.598V238.18H125.802ZM130.057 241.788C130.057 240.525 130.305 239.405 130.801 238.428C131.312 237.451 131.996 236.699 132.853 236.173C133.725 235.647 134.695 235.384 135.762 235.384C136.694 235.384 137.506 235.572 138.197 235.948C138.904 236.323 139.467 236.797 139.888 237.368V235.587H143.068V248.079H139.888V246.253C139.482 246.839 138.919 247.327 138.197 247.718C137.491 248.094 136.671 248.282 135.739 248.282C134.687 248.282 133.725 248.011 132.853 247.47C131.996 246.929 131.312 246.17 130.801 245.193C130.305 244.201 130.057 243.066 130.057 241.788ZM139.888 241.833C139.888 241.066 139.738 240.412 139.437 239.871C139.137 239.315 138.731 238.894 138.22 238.608C137.709 238.308 137.16 238.157 136.574 238.157C135.987 238.157 135.446 238.3 134.95 238.586C134.454 238.871 134.048 239.292 133.732 239.849C133.432 240.39 133.281 241.036 133.281 241.788C133.281 242.539 133.432 243.201 133.732 243.772C134.048 244.328 134.454 244.757 134.95 245.057C135.461 245.358 136.002 245.508 136.574 245.508C137.16 245.508 137.709 245.366 138.22 245.08C138.731 244.779 139.137 244.358 139.437 243.817C139.738 243.261 139.888 242.6 139.888 241.833ZM161.243 232.34V234.888H154.681V238.924H159.709V241.427H154.681V248.079H151.524V232.34H161.243ZM169.028 248.282C167.826 248.282 166.743 248.019 165.781 247.493C164.819 246.952 164.06 246.192 163.504 245.215C162.963 244.238 162.692 243.111 162.692 241.833C162.692 240.555 162.97 239.428 163.526 238.451C164.097 237.473 164.872 236.722 165.849 236.196C166.826 235.654 167.916 235.384 169.118 235.384C170.321 235.384 171.411 235.654 172.388 236.196C173.365 236.722 174.132 237.473 174.688 238.451C175.259 239.428 175.545 240.555 175.545 241.833C175.545 243.111 175.252 244.238 174.665 245.215C174.094 246.192 173.313 246.952 172.32 247.493C171.343 248.019 170.246 248.282 169.028 248.282ZM169.028 245.531C169.599 245.531 170.133 245.396 170.629 245.125C171.14 244.839 171.546 244.419 171.847 243.862C172.147 243.306 172.298 242.63 172.298 241.833C172.298 240.645 171.982 239.736 171.351 239.104C170.734 238.458 169.975 238.135 169.073 238.135C168.171 238.135 167.412 238.458 166.796 239.104C166.195 239.736 165.894 240.645 165.894 241.833C165.894 243.02 166.187 243.937 166.773 244.584C167.375 245.215 168.126 245.531 169.028 245.531ZM189.654 235.587V248.079H186.474V246.501C186.068 247.042 185.535 247.47 184.873 247.786C184.227 248.086 183.52 248.237 182.754 248.237C181.777 248.237 180.912 248.034 180.161 247.628C179.409 247.207 178.815 246.598 178.379 245.802C177.958 244.99 177.748 244.028 177.748 242.915V235.587H180.905V242.464C180.905 243.456 181.153 244.223 181.649 244.764C182.145 245.29 182.821 245.553 183.678 245.553C184.55 245.553 185.234 245.29 185.73 244.764C186.226 244.223 186.474 243.456 186.474 242.464V235.587H189.654ZM199.691 235.406C201.179 235.406 202.382 235.88 203.299 236.827C204.216 237.759 204.674 239.067 204.674 240.751V248.079H201.517V241.179C201.517 240.187 201.269 239.428 200.773 238.902C200.277 238.36 199.601 238.09 198.744 238.09C197.872 238.09 197.181 238.36 196.669 238.902C196.173 239.428 195.925 240.187 195.925 241.179V248.079H192.768V235.587H195.925V237.143C196.346 236.602 196.88 236.181 197.526 235.88C198.188 235.564 198.909 235.406 199.691 235.406ZM206.865 241.788C206.865 240.525 207.113 239.405 207.609 238.428C208.12 237.451 208.811 236.699 209.683 236.173C210.555 235.647 211.525 235.384 212.592 235.384C213.404 235.384 214.178 235.564 214.915 235.925C215.651 236.271 216.237 236.737 216.673 237.323V231.393H219.875V248.079H216.673V246.23C216.283 246.846 215.734 247.342 215.027 247.718C214.321 248.094 213.502 248.282 212.569 248.282C211.517 248.282 210.555 248.011 209.683 247.47C208.811 246.929 208.12 246.17 207.609 245.193C207.113 244.201 206.865 243.066 206.865 241.788ZM216.696 241.833C216.696 241.066 216.546 240.412 216.245 239.871C215.944 239.315 215.538 238.894 215.027 238.608C214.516 238.308 213.968 238.157 213.381 238.157C212.795 238.157 212.254 238.3 211.758 238.586C211.262 238.871 210.856 239.292 210.54 239.849C210.239 240.39 210.089 241.036 210.089 241.788C210.089 242.539 210.239 243.201 210.54 243.772C210.856 244.328 211.262 244.757 211.758 245.057C212.269 245.358 212.81 245.508 213.381 245.508C213.968 245.508 214.516 245.366 215.027 245.08C215.538 244.779 215.944 244.358 216.245 243.817C216.546 243.261 216.696 242.6 216.696 241.833Z" fill="#9C4D4B"/>
</g>
<defs>
<clipPath id="clip0_2_132943">
<rect width="276.718" height="259" fill="white"/>
</clipPath>
</defs>
</svg>
