<svg width="20" height="20" viewBox="0 0 20 20" fill="none" xmlns="http://www.w3.org/2000/svg">
<g clip-path="url(#clip0_496_4781)">
<path d="M18.9279 16.2251C18.3999 15.5211 16.7279 14.1131 16.4079 11.3291C16.4079 11.3291 16.2159 10.2011 16.2799 8.45706C16.3359 6.71306 15.3519 3.28106 11.7999 2.24906C11.6799 2.21706 11.5679 2.19306 11.4479 2.16106V1.73706C11.4479 0.937063 10.7919 0.289062 9.99993 0.289062C9.20793 0.289062 8.55193 0.945063 8.55193 1.73706V2.13706C6.89593 2.51306 5.91993 3.44106 5.91993 3.44106C5.91993 3.44106 3.95193 5.03306 3.73593 7.56106C3.73593 7.56106 3.70393 10.6331 3.55993 11.4491C3.41593 12.2651 2.43993 14.7131 1.22393 16.0491C1.22393 16.0491 0.407933 16.8731 1.35993 17.2571H18.5919C18.5919 17.2491 19.4639 16.9371 18.9279 16.2251Z" fill="white"/>
<path d="M9.9845 19.7126C11.4645 19.7126 12.6565 18.9366 12.6565 17.9766H7.3125C7.3125 18.9366 8.5045 19.7126 9.9845 19.7126Z" fill="white"/>
</g>
<defs>
<clipPath id="clip0_496_4781">
<rect width="20" height="20" fill="white"/>
</clipPath>
</defs>
</svg>
