<svg width="30" height="30" viewBox="0 0 30 30" fill="none" xmlns="http://www.w3.org/2000/svg">
<path d="M17.5 5C17.5 5.1413 17.4882 5.27985 17.4657 5.41475C20.3966 6.43461 22.5 9.22167 22.5 12.5V16.25C22.5 17.2265 23.1786 18.0661 23.8403 18.8849C24.1141 19.2237 24.3851 19.5591 24.6039 19.899C24.8546 20.2886 25 20.7523 25 21.25C25 22.6308 23.8808 23.75 22.5 23.75H7.5C6.11929 23.75 5 22.6308 5 21.25C5 20.7523 5.14542 20.2886 5.39611 19.899C5.61485 19.5591 5.88586 19.2237 6.15976 18.8849C6.8214 18.0661 7.5 17.2265 7.5 16.25V12.5C7.5 9.22167 9.60339 6.43461 12.5343 5.41475C12.5118 5.27985 12.5 5.1413 12.5 5C12.5 3.61929 13.6193 2.5 15 2.5C16.3807 2.5 17.5 3.61929 17.5 5Z" fill="#898989"/>
<path d="M15 27.5C13.3672 27.5 11.9782 26.4565 11.4634 25H18.5366C18.0219 26.4565 16.6327 27.5 15 27.5Z" fill="#898989"/>
</svg>
