<svg width="21" height="12" viewBox="0 0 21 12" fill="none" xmlns="http://www.w3.org/2000/svg">
<path d="M10.5016 8.16645C11.9744 8.16645 13.1683 7.12177 13.1683 5.8331C13.1683 4.54443 11.9744 3.49976 10.5016 3.49976C9.02886 3.49976 7.83496 4.54443 7.83496 5.8331C7.83496 7.12177 9.02886 8.16645 10.5016 8.16645Z" fill="#898989"/>
<path d="M20.2857 5.19899C19.1832 3.70711 17.7528 2.43981 16.1495 1.53381C14.3757 0.530472 12.4174 0 10.4866 0C8.71494 0 6.97287 0.442971 5.30871 1.31652C3.61164 2.2072 2.07415 3.50841 0.738746 5.18368C0.587991 5.37301 0.504964 5.59728 0.500216 5.828C0.495468 6.05871 0.569212 6.28546 0.71208 6.47941C1.81249 7.98625 3.22873 9.25537 4.80705 10.149C6.58412 11.1563 8.49661 11.6667 10.4866 11.6667C12.4328 11.6667 14.3953 11.1406 16.1616 10.1457C17.764 9.24261 19.1915 7.97057 20.2899 6.46629C20.4278 6.27684 20.5007 6.05674 20.5 5.8321C20.4993 5.60747 20.4249 5.38774 20.2857 5.19899ZM10.5008 9.33339C9.70964 9.33339 8.93629 9.12812 8.2785 8.74353C7.6207 8.35894 7.10802 7.81231 6.80527 7.17277C6.50252 6.53322 6.42331 5.82949 6.57765 5.15055C6.73199 4.47161 7.11295 3.84797 7.67235 3.35848C8.23176 2.86899 8.94449 2.53565 9.7204 2.4006C10.4963 2.26555 11.3006 2.33486 12.0315 2.59977C12.7624 2.86468 13.3871 3.31329 13.8266 3.88886C14.2661 4.46444 14.5007 5.14113 14.5007 5.83337C14.4995 6.76131 14.0777 7.65093 13.3278 8.30708C12.578 8.96324 11.5612 9.33233 10.5008 9.33339Z" fill="#898989"/>
</svg>
