<svg width="15" height="12" viewBox="0 0 15 12" fill="none" xmlns="http://www.w3.org/2000/svg">
<path d="M14.5502 2.47006V2.41006C14.5502 1.53006 13.8302 0.810059 12.9502 0.810059H2.0502C1.1702 0.810059 0.450195 1.53006 0.450195 2.41006V2.48006H14.5502V2.47006Z" fill="#898989"/>
<path d="M0.450195 4.87012V9.59012C0.450195 10.4701 1.1702 11.1901 2.0502 11.1901H12.9602C13.8402 11.1901 14.5602 10.4701 14.5602 9.59012V4.87012H0.450195ZM4.5702 9.86012H2.1802C1.8902 9.86012 1.6502 9.62012 1.6502 9.33012C1.6502 9.04012 1.8902 8.80012 2.1802 8.80012H4.5702C4.8602 8.80012 5.1002 9.04012 5.1002 9.33012C5.1002 9.62012 4.8702 9.86012 4.5702 9.86012Z" fill="#898989"/>
<path d="M14.5502 3.41016H0.450195V3.94016H14.5502V3.41016Z" fill="#898989"/>
</svg>
