<svg width="16" height="15" viewBox="0 0 16 15" fill="none" xmlns="http://www.w3.org/2000/svg">
<g clip-path="url(#clip0_4_5779)">
<path d="M14.9499 3.97006V3.91006C14.9499 3.03006 14.2299 2.31006 13.3499 2.31006H2.44985C1.56985 2.31006 0.849854 3.03006 0.849854 3.91006V3.98006H14.9499V3.97006Z" fill="#9A4D49"/>
<path d="M0.849854 6.37012V11.0901C0.849854 11.9701 1.56985 12.6901 2.44985 12.6901H13.3599C14.2399 12.6901 14.9599 11.9701 14.9599 11.0901V6.37012H0.849854ZM4.96985 11.3601H2.57985C2.28985 11.3601 2.04985 11.1201 2.04985 10.8301C2.04985 10.5401 2.28985 10.3001 2.57985 10.3001H4.96985C5.25985 10.3001 5.49985 10.5401 5.49985 10.8301C5.49985 11.1201 5.26985 11.3601 4.96985 11.3601Z" fill="#9A4D49"/>
<path d="M14.9499 4.91003H0.849854V5.44003H14.9499V4.91003Z" fill="#9A4D49"/>
</g>
<defs>
<clipPath id="clip0_4_5779">
<rect width="15" height="15" fill="white" transform="translate(0.399902)"/>
</clipPath>
</defs>
</svg>
