<svg width="16" height="16" viewBox="0 0 16 16" fill="none" xmlns="http://www.w3.org/2000/svg">
<g clip-path="url(#clip0_2_130526)">
<path d="M7.9999 1.11011C4.0799 1.11011 0.899902 4.29011 0.899902 8.21011C0.899902 12.1301 4.0799 15.3101 7.9999 15.3101C11.9199 15.3101 15.0999 12.1301 15.0999 8.21011C15.0999 4.29011 11.9199 1.11011 7.9999 1.11011ZM6.8599 3.39011H9.1399V9.89011H6.8599V3.39011ZM9.0099 12.6901C8.7499 12.9201 8.4199 13.0401 7.9999 13.0401C7.5799 13.0401 7.2499 12.9301 6.9899 12.7101C6.7299 12.4901 6.6099 12.2101 6.6099 11.8601C6.6099 11.5001 6.7399 11.2001 6.9899 10.9701C7.2499 10.7301 7.5799 10.6201 7.9999 10.6201C8.4199 10.6201 8.7499 10.7401 9.0099 10.9701C9.2699 11.2001 9.3899 11.4901 9.3899 11.8301C9.3899 12.1701 9.2599 12.4601 9.0099 12.6901Z" fill="#7C7C7C"/>
</g>
<defs>
<clipPath id="clip0_2_130526">
<rect width="15" height="15" fill="white" transform="translate(0.5 0.560059)"/>
</clipPath>
</defs>
</svg>
