<svg width="24" height="25" viewBox="0 0 24 25" fill="none" xmlns="http://www.w3.org/2000/svg">
<path d="M21.3956 10.1819C22.4563 10.1819 23.3162 11.0417 23.3162 12.1024C23.3162 13.1631 22.4563 14.023 21.3956 14.023H2.85416C1.79346 14.023 0.933594 13.1631 0.933594 12.1024C0.933594 11.0417 1.79346 10.1819 2.85416 10.1819H21.3956ZM12.2606 0.799805C13.3376 0.799805 14.2107 1.67285 14.2107 2.7498V22.2498C14.2107 23.3268 13.3376 24.1998 12.2606 24.1998H12.0116C10.9346 24.1998 10.0616 23.3268 10.0616 22.2498V2.7498C10.0616 1.67285 10.9346 0.799805 12.0116 0.799805H12.2606Z" fill="white"/>
</svg>
