<svg width="15" height="12" viewBox="0 0 15 12" fill="none" xmlns="http://www.w3.org/2000/svg">
<path d="M13.7897 2.39988V1.53988C13.7897 1.52988 13.7797 1.52988 13.7797 1.52988H7.41973H7.40973L5.88973 0.379883C5.88973 0.379883 5.88973 0.379883 5.87973 0.379883H1.22973C1.21973 0.379883 1.21973 0.389883 1.21973 0.389883V2.39988C1.21973 2.40988 1.22973 2.40988 1.22973 2.40988H13.7797C13.7797 2.40988 13.7897 2.40988 13.7897 2.39988ZM2.27973 0.999883H5.44973C5.61973 0.999883 5.78973 1.11988 5.81973 1.28988C5.85973 1.50988 5.68973 1.70988 5.46973 1.70988H2.29973C2.12973 1.70988 1.95973 1.58988 1.92973 1.41988C1.88973 1.18988 2.05973 0.999883 2.27973 0.999883Z" fill="#898989"/>
<path d="M14.0598 2.77002H0.939766C0.699766 2.77002 0.509766 2.97002 0.509766 3.20002L1.03977 11.18C1.03977 11.42 1.23977 11.61 1.46977 11.61H13.5298C13.7698 11.61 13.9598 11.41 13.9598 11.18L14.4898 3.20002C14.4898 2.96002 14.2998 2.77002 14.0598 2.77002ZM13.4298 4.54002H1.56977V3.65002H13.4298V4.54002Z" fill="#898989"/>
</svg>
