<svg width="16" height="15" viewBox="0 0 16 15" fill="none" xmlns="http://www.w3.org/2000/svg">
<g clip-path="url(#clip0_4_5797)">
<path d="M14.1899 3.9V3.04C14.1899 3.03 14.1799 3.03 14.1799 3.03H7.81987H7.80987L6.28987 1.88C6.28987 1.88 6.28987 1.88 6.27987 1.88H1.62987C1.61987 1.88 1.61987 1.89 1.61987 1.89V3.9C1.61987 3.91 1.62987 3.91001 1.62987 3.91001H14.1799C14.1799 3.91001 14.1899 3.91 14.1899 3.9ZM2.67987 2.5H5.84987C6.01987 2.5 6.18987 2.62 6.21987 2.79C6.25987 3.01 6.08987 3.21 5.86987 3.21H2.69987C2.52987 3.21 2.35987 3.09 2.32987 2.92C2.28987 2.69 2.45987 2.5 2.67987 2.5Z" fill="#9A4D49"/>
<path d="M14.4599 4.27002H1.33991C1.09991 4.27002 0.909912 4.47002 0.909912 4.70002L1.43991 12.68C1.43991 12.92 1.63991 13.11 1.86991 13.11H13.9299C14.1699 13.11 14.3599 12.91 14.3599 12.68L14.8899 4.70002C14.8899 4.46002 14.6999 4.27002 14.4599 4.27002ZM13.8299 6.04002H1.96991V5.15002H13.8299V6.04002Z" fill="#9A4D49"/>
</g>
<defs>
<clipPath id="clip0_4_5797">
<rect width="15" height="15" fill="white" transform="translate(0.399902)"/>
</clipPath>
</defs>
</svg>
