<svg width="18" height="15" viewBox="0 0 18 15" fill="none" xmlns="http://www.w3.org/2000/svg">
<path d="M0.406414 7.62505C0.406414 7.35154 0.515064 7.08924 0.70846 6.89584C0.901857 6.70245 1.16416 6.5938 1.43766 6.5938L14.0705 6.5938L9.64298 2.16716C9.44924 1.97342 9.34041 1.71067 9.34041 1.43669C9.34041 1.16271 9.44924 0.899952 9.64298 0.706219C9.83671 0.512486 10.0995 0.403648 10.3734 0.403648C10.6474 0.403648 10.9102 0.512486 11.1039 0.706219L17.2914 6.89372C17.3876 6.98953 17.4638 7.10337 17.5159 7.22872C17.5679 7.35407 17.5947 7.48846 17.5947 7.62419C17.5947 7.75991 17.5679 7.89431 17.5159 8.01966C17.4638 8.14501 17.3876 8.25885 17.2914 8.35466L11.1039 14.5422C11.008 14.6381 10.8941 14.7142 10.7688 14.7661C10.6434 14.818 10.5091 14.8447 10.3734 14.8447C10.2378 14.8447 10.1035 14.818 9.97812 14.7661C9.85278 14.7142 9.7389 14.6381 9.64298 14.5422C9.54705 14.4462 9.47096 14.3323 9.41904 14.207C9.36713 14.0817 9.34041 13.9473 9.34041 13.8117C9.34041 13.676 9.36713 13.5417 9.41904 13.4164C9.47096 13.291 9.54705 13.1771 9.64298 13.0812L14.0705 8.6563L1.43766 8.6563C1.16416 8.6563 0.901857 8.54765 0.70846 8.35425C0.515064 8.16085 0.406414 7.89855 0.406414 7.62505Z" fill="#9A4D49"/>
</svg>
