<svg width="30" height="30" viewBox="0 0 30 30" fill="none" xmlns="http://www.w3.org/2000/svg">
<path d="M28.875 12.76L27.255 12.5975C27.1463 12.0363 26.9988 11.485 26.8175 10.9525L28.1375 10.0037C28.66 9.6275 28.8125 8.9225 28.49 8.36375L27.4925 6.6375C27.1712 6.08 26.485 5.85875 25.8962 6.1225L24.4188 6.79C24.045 6.36125 23.64 5.95625 23.2113 5.5825L23.8787 4.10375C24.1425 3.51625 23.9212 2.83 23.3638 2.5075L21.6375 1.51125C21.0775 1.18875 20.3738 1.34125 19.9975 1.86375L19.0487 3.18375C18.5163 3.00125 17.965 2.855 17.4038 2.74625L17.2413 1.12625C17.1763 0.48375 16.6413 0 15.9963 0H14.0025C13.3575 0 12.8225 0.48375 12.7587 1.125L12.5962 2.745C12.035 2.85375 11.4837 3.00125 10.9513 3.1825L10.0025 1.86375C9.6275 1.34125 8.9225 1.18875 8.3625 1.51125L6.6375 2.5075C6.07875 2.83 5.8575 3.51625 6.1225 4.105L6.79 5.5825C6.36 5.95625 5.95625 6.36 5.5825 6.79L4.10375 6.12125C3.51625 5.8575 2.83 6.07875 2.5075 6.6375L1.51125 8.3625C1.18875 8.9225 1.34125 9.6275 1.86375 10.0025L3.18375 10.9513C3.00125 11.4837 2.855 12.035 2.74625 12.5962L1.12625 12.7587C0.48375 12.8237 0 13.3588 0 14.0037V15.9975C0 16.6425 0.48375 17.1775 1.125 17.2413L2.745 17.4038C2.85375 17.965 3.00125 18.5163 3.1825 19.0487L1.8625 19.9975C1.34 20.3738 1.1875 21.0787 1.51 21.6375L2.50625 23.3638C2.82875 23.9225 3.51625 24.145 4.1025 23.8787L5.58 23.2113C5.95375 23.64 6.35875 24.045 6.7875 24.4188L6.12 25.8975C5.85625 26.485 6.0775 27.1713 6.635 27.4938L8.36125 28.49C8.92125 28.8137 9.62625 28.6613 10.0013 28.1375L10.95 26.8175C11.4825 27 12.0338 27.1463 12.595 27.255L12.7575 28.875C12.8238 29.5163 13.3588 30 14.0037 30H15.9975C16.6425 30 17.1775 29.5163 17.2413 28.875L17.4038 27.255C17.965 27.1463 18.5163 26.9988 19.0487 26.8175L19.9975 28.1375C20.3738 28.66 21.0763 28.8113 21.6375 28.49L23.3638 27.4938C23.9212 27.1713 24.1438 26.485 23.8787 25.8975L23.2113 24.42C23.64 24.0462 24.045 23.6412 24.4188 23.2125L25.8975 23.88C26.485 24.1437 27.1725 23.9237 27.4938 23.365L28.49 21.6388C28.8125 21.08 28.66 20.375 28.1375 19.9987L26.8175 19.05C27 18.5175 27.1463 17.9662 27.255 17.405L28.875 17.2425C29.5163 17.1763 30 16.6413 30 15.9963V14.0025C30 13.3587 29.5163 12.8238 28.875 12.76ZM15 6.25C19.3988 6.25 23.04 9.51625 23.65 13.75H17.86C17.3762 12.6488 16.2787 11.875 15 11.875C14.8837 11.875 14.7725 11.8975 14.6588 11.91L11.7562 6.88C12.76 6.4775 13.8538 6.25 15 6.25ZM6.25 15C6.25 12.2163 7.56125 9.7375 9.5925 8.13375L12.4913 13.1537C12.1088 13.6737 11.875 14.3075 11.875 15C11.875 15.6925 12.1088 16.3263 12.4913 16.845L9.5925 21.865C7.56125 20.2613 6.25 17.7838 6.25 15ZM15 23.75C13.8538 23.75 12.76 23.5225 11.7562 23.1188L14.66 18.09C14.7725 18.1025 14.8837 18.125 15 18.125C16.2787 18.125 17.3762 17.3512 17.86 16.25H23.65C23.04 20.4837 19.3988 23.75 15 23.75Z" fill="#898989"/>
</svg>
