<svg width="22" height="23" viewBox="0 0 22 23" fill="none" xmlns="http://www.w3.org/2000/svg">
<path d="M21.6192 13.9085L19.5426 12.2847C19.5689 12.0343 19.5915 11.7416 19.5915 11.4319C19.5915 11.1222 19.5698 10.8294 19.5426 10.579L21.6211 8.95429C22.007 8.64929 22.1124 8.10801 21.8667 7.65713L19.7073 3.92091C19.4767 3.4992 18.9712 3.28268 18.4582 3.47189L16.0078 4.45558C15.5381 4.11669 15.0458 3.83054 14.5365 3.60179L14.1637 1.00277C14.1025 0.50949 13.6733 0.136719 13.1659 0.136719H8.83578C8.32838 0.136719 7.9001 0.50949 7.83983 0.995221L7.46613 3.60369C6.97285 3.82586 6.48809 4.10826 5.99764 4.45747L3.54074 3.47096C3.08038 3.29305 2.52969 3.49258 2.30095 3.91244L0.138718 7.65334C-0.11637 8.08449 -0.0109549 8.64457 0.383482 8.95711L2.46006 10.5809C2.4271 10.8981 2.41113 11.174 2.41113 11.4329C2.41113 11.6917 2.42715 11.9675 2.46006 12.2857L0.381584 13.9104C-0.00438023 14.2164 -0.108869 14.7577 0.136821 15.2076L2.29627 18.9438C2.52691 19.3646 3.02769 19.5829 3.54542 19.3928L5.99574 18.4091C6.46453 18.7471 6.95683 19.0332 7.46613 19.2629L7.8389 21.861C7.90006 22.3561 8.32838 22.7289 8.83671 22.7289H13.1669C13.6743 22.7289 14.1035 22.3561 14.1637 21.8704L14.5374 19.2629C15.0307 19.0398 15.5145 18.7583 16.0059 18.4081L18.4628 19.3947C18.5814 19.4408 18.7048 19.4643 18.8318 19.4643C19.1971 19.4643 19.5331 19.2647 19.7026 18.9541L21.8714 15.1982C22.1124 14.7576 22.007 14.2164 21.6192 13.9085ZM11.0008 15.1982C8.92425 15.1982 7.23549 13.5094 7.23549 11.4328C7.23549 9.35623 8.92425 7.66746 11.0008 7.66746C13.0774 7.66746 14.7662 9.35623 14.7662 11.4328C14.7662 13.5094 13.0774 15.1982 11.0008 15.1982Z" fill="#9A4D49"/>
</svg>
