<svg width="84" height="83" viewBox="0 0 84 83" fill="none" xmlns="http://www.w3.org/2000/svg">
<g filter="url(#filter0_d_1088_21827)">
<rect x="8.95996" y="7" width="66.48" height="66.48" rx="7.56" fill="white" shape-rendering="crispEdges"/>
<path d="M33.9827 22.904C34.7774 22.904 35.4215 22.2598 35.4215 21.4651C35.4215 20.6705 34.7774 20.0263 33.9827 20.0263C33.1881 20.0263 32.5439 20.6705 32.5439 21.4651C32.5439 22.2598 33.1881 22.904 33.9827 22.904Z" fill="#9A4D49"/>
<path d="M37.34 29.1388C37.34 28.2484 36.9863 27.3945 36.3567 26.7649C35.7271 26.1353 34.8731 25.7816 33.9827 25.7816C33.0923 25.7816 32.2384 26.1353 31.6088 26.7649C30.9792 27.3945 30.6255 28.2484 30.6255 29.1388V30.3858C31.4916 30.724 32.4134 30.8975 33.3432 30.8974H37.34V29.1388Z" fill="#9A4D49"/>
<path d="M33.3432 15.8698C31.6814 15.8694 30.0663 16.4201 28.7508 17.4357C27.4353 18.4512 26.4937 19.8743 26.0734 21.4821C25.653 23.0899 25.7777 24.7917 26.4278 26.3212C27.0779 27.8506 28.2168 29.1213 29.6662 29.9343V29.1388C29.6662 27.994 30.121 26.8961 30.9305 26.0866C31.74 25.2771 32.8379 24.8224 33.9827 24.8224C35.1275 24.8224 36.2254 25.2771 37.0349 26.0866C37.8444 26.8961 38.2992 27.994 38.2992 29.1388V30.8974H40.3775C40.5047 30.8974 40.6267 30.8468 40.7166 30.7569C40.8066 30.6669 40.8571 30.545 40.8571 30.4178V23.3836C40.8549 21.3914 40.0626 19.4816 38.6539 18.0729C37.2453 16.6643 35.3354 15.872 33.3432 15.8698ZM33.9827 23.8632C33.5084 23.8632 33.0448 23.7225 32.6504 23.459C32.2561 23.1955 31.9487 22.821 31.7672 22.3828C31.5857 21.9446 31.5382 21.4625 31.6307 20.9973C31.7233 20.5321 31.9517 20.1048 32.287 19.7695C32.6224 19.4341 33.0497 19.2057 33.5149 19.1132C33.9801 19.0207 34.4622 19.0682 34.9004 19.2497C35.3386 19.4312 35.7131 19.7385 35.9766 20.1329C36.2401 20.5272 36.3808 20.9909 36.3808 21.4651C36.3801 22.1009 36.1272 22.7105 35.6776 23.16C35.2281 23.6096 34.6185 23.8625 33.9827 23.8632Z" fill="#9A4D49"/>
<path d="M50.4173 22.904C51.212 22.904 51.8562 22.2598 51.8562 21.4651C51.8562 20.6705 51.212 20.0263 50.4173 20.0263C49.6227 20.0263 48.9785 20.6705 48.9785 21.4651C48.9785 22.2598 49.6227 22.904 50.4173 22.904Z" fill="#9A4D49"/>
<path d="M53.7746 29.1388C53.7746 28.2484 53.4209 27.3945 52.7913 26.7649C52.1617 26.1353 51.3077 25.7816 50.4173 25.7816C49.5269 25.7816 48.673 26.1353 48.0434 26.7649C47.4138 27.3945 47.0601 28.2484 47.0601 29.1388V30.8974H51.0568C51.9867 30.8975 52.9084 30.724 53.7746 30.3858V29.1388Z" fill="#9A4D49"/>
<path d="M51.0568 15.8698C49.0647 15.872 47.1548 16.6643 45.7461 18.0729C44.3375 19.4816 43.5451 21.3914 43.5429 23.3836V30.4178C43.5429 30.545 43.5935 30.6669 43.6834 30.7569C43.7734 30.8468 43.8953 30.8974 44.0225 30.8974H46.1008V29.1388C46.1008 27.994 46.5556 26.8961 47.3651 26.0866C48.1746 25.2771 49.2725 24.8224 50.4173 24.8224C51.5621 24.8224 52.6601 25.2771 53.4696 26.0866C54.279 26.8961 54.7338 27.994 54.7338 29.1388V29.9343C56.1832 29.1213 57.3221 27.8506 57.9722 26.3212C58.6224 24.7917 58.747 23.0899 58.3267 21.4821C57.9063 19.8743 56.9647 18.4512 55.6492 17.4357C54.3338 16.4201 52.7187 15.8694 51.0568 15.8698ZM50.4173 23.8632C49.943 23.8632 49.4794 23.7225 49.0851 23.459C48.6907 23.1955 48.3833 22.821 48.2018 22.3828C48.0203 21.9446 47.9728 21.4625 48.0654 20.9973C48.1579 20.5321 48.3863 20.1048 48.7217 19.7695C49.057 19.4341 49.4843 19.2057 49.9495 19.1132C50.4147 19.0207 50.8968 19.0682 51.335 19.2497C51.7732 19.4312 52.1477 19.7385 52.4112 20.1329C52.6747 20.5272 52.8154 20.9909 52.8154 21.4651C52.8147 22.1009 52.5618 22.7105 52.1123 23.16C51.6627 23.6096 51.0531 23.8625 50.4173 23.8632Z" fill="#9A4D49"/>
<path d="M49.9377 40.6173C50.7324 40.6173 51.3766 39.9732 51.3766 39.1785C51.3766 38.3839 50.7324 37.7397 49.9377 37.7397C49.1431 37.7397 48.4989 38.3839 48.4989 39.1785C48.4989 39.9732 49.1431 40.6173 49.9377 40.6173Z" fill="#9A4D49"/>
<path d="M53.302 46.8522C53.302 45.9618 52.9483 45.1079 52.3187 44.4783C51.6891 43.8487 50.8352 43.495 49.9448 43.495C49.0544 43.495 48.2004 43.8487 47.5708 44.4783C46.9412 45.1079 46.5875 45.9618 46.5875 46.8522V47.4597C47.5791 48.083 48.7029 48.4654 49.8689 48.5765C51.0348 48.6875 52.2106 48.524 53.302 48.0992V46.8522Z" fill="#9A4D49"/>
<path d="M50.5772 33.5831H43.5429C43.4157 33.5831 43.2937 33.6337 43.2038 33.7236C43.1139 33.8136 43.0633 33.9355 43.0633 34.0627V41.0969C43.063 42.1676 43.292 43.2258 43.7349 44.2006C44.1778 45.1753 44.8242 46.0439 45.6308 46.748C45.6447 45.6032 46.1127 44.5108 46.932 43.711C47.7512 42.9113 48.8546 42.4698 49.9994 42.4836C51.1442 42.4975 52.2367 42.9655 53.0364 43.7848C53.8361 44.604 54.2776 45.7074 54.2638 46.8522V47.6432C55.7117 46.8287 56.8487 45.5573 57.4971 44.0279C58.1455 42.4984 58.2686 40.7972 57.8473 39.1903C57.426 37.5834 56.4839 36.1615 55.1685 35.1469C53.853 34.1324 52.2384 33.5824 50.5772 33.5831ZM49.9377 41.5766C49.4634 41.5766 48.9998 41.4359 48.6054 41.1724C48.2111 40.9089 47.9037 40.5344 47.7222 40.0962C47.5407 39.658 47.4932 39.1759 47.5858 38.7107C47.6783 38.2455 47.9067 37.8182 48.242 37.4829C48.5774 37.1475 49.0047 36.9191 49.4699 36.8266C49.9351 36.7341 50.4172 36.7815 50.8554 36.963C51.2936 37.1445 51.6681 37.4519 51.9316 37.8463C52.1951 38.2406 52.3358 38.7042 52.3358 39.1785C52.3351 39.8143 52.0822 40.4239 51.6327 40.8734C51.1831 41.323 50.5735 41.5759 49.9377 41.5766Z" fill="#9A4D49"/>
<path d="M33.9827 40.6173C34.7774 40.6173 35.4215 39.9732 35.4215 39.1785C35.4215 38.3839 34.7774 37.7397 33.9827 37.7397C33.1881 37.7397 32.5439 38.3839 32.5439 39.1785C32.5439 39.9732 33.1881 40.6173 33.9827 40.6173Z" fill="#9A4D49"/>
<path d="M37.3329 46.8522C37.3329 45.9618 36.9792 45.1079 36.3496 44.4783C35.72 43.8487 34.8661 43.495 33.9757 43.495C33.0853 43.495 32.2313 43.8487 31.6017 44.4783C30.9721 45.1079 30.6184 45.9618 30.6184 46.8522V48.0992C31.7099 48.524 32.8856 48.6875 34.0516 48.5765C35.2176 48.4654 36.3413 48.083 37.3329 47.4597V46.8522Z" fill="#9A4D49"/>
<path d="M40.3775 33.5831H33.3432C31.6822 33.583 30.068 34.1334 28.753 35.1481C27.438 36.1628 26.4964 37.5848 26.0754 39.1915C25.6544 40.7983 25.7777 42.4993 26.4262 44.0285C27.0746 45.5577 28.2115 46.8288 29.6592 47.6432V46.8522C29.6454 45.7074 30.0869 44.604 30.8866 43.7848C31.6863 42.9655 32.7788 42.4975 33.9236 42.4836C35.0684 42.4698 36.1718 42.9113 36.991 43.711C37.8103 44.5108 38.2783 45.6032 38.2922 46.748C39.0983 46.0437 39.7443 45.175 40.1867 44.2003C40.6291 43.2255 40.8577 42.1674 40.8571 41.0969V34.0627C40.8571 33.9355 40.8066 33.8136 40.7166 33.7236C40.6267 33.6337 40.5047 33.5831 40.3775 33.5831ZM33.9827 41.5766C33.5084 41.5766 33.0448 41.4359 32.6504 41.1724C32.2561 40.9089 31.9487 40.5344 31.7672 40.0962C31.5857 39.658 31.5382 39.1759 31.6307 38.7107C31.7233 38.2455 31.9517 37.8182 32.287 37.4829C32.6224 37.1475 33.0497 36.9191 33.5149 36.8266C33.9801 36.7341 34.4622 36.7815 34.9004 36.963C35.3386 37.1445 35.7131 37.4519 35.9766 37.8463C36.2401 38.2406 36.3808 38.7042 36.3808 39.1785C36.3801 39.8143 36.1272 40.4239 35.6776 40.8734C35.2281 41.323 34.6185 41.5759 33.9827 41.5766Z" fill="#9A4D49"/>
<path d="M30.5027 56.2118V62.6102H29.4084V56.2118H30.5027ZM32.511 56.2118V57.0907H27.4177V56.2118H32.511ZM37.5427 61.7357V62.6102H34.1458V61.7357H37.5427ZM34.4578 56.2118V62.6102H33.3547V56.2118H34.4578ZM37.0989 58.8837V59.745H34.1458V58.8837H37.0989ZM37.5208 56.2118V57.0907H34.1458V56.2118H37.5208ZM40.9353 57.0643L39.0237 62.6102H37.8679L40.2761 56.2118H41.0144L40.9353 57.0643ZM42.5349 62.6102L40.6189 57.0643L40.5354 56.2118H41.2781L43.6951 62.6102H42.5349ZM42.4426 60.2372V61.1117H38.9622V60.2372H42.4426ZM44.8596 56.2118H45.844L47.6941 61.1469L49.5398 56.2118H50.5242L48.0808 62.6102H47.2986L44.8596 56.2118ZM44.4114 56.2118H45.3474L45.51 60.4833V62.6102H44.4114V56.2118ZM50.0364 56.2118H50.9768V62.6102H49.8738V60.4833L50.0364 56.2118ZM55.6526 60.9623C55.6526 60.8304 55.6321 60.7133 55.5911 60.6107C55.553 60.5082 55.4841 60.4144 55.3845 60.3295C55.2849 60.2445 55.1443 60.1625 54.9626 60.0834C54.7839 60.0013 54.5554 59.9178 54.2771 59.8329C53.9724 59.7391 53.6912 59.6351 53.4333 59.5209C53.1785 59.4037 52.9558 59.2689 52.7654 59.1166C52.575 58.9613 52.427 58.7841 52.3215 58.5848C52.2161 58.3827 52.1633 58.1498 52.1633 57.8861C52.1633 57.6254 52.2175 57.3881 52.3259 57.1742C52.4373 56.9603 52.594 56.7758 52.7961 56.6205C53.0012 56.4623 53.2429 56.3407 53.5212 56.2557C53.7996 56.1678 54.1072 56.1239 54.4441 56.1239C54.9187 56.1239 55.3274 56.2118 55.6702 56.3876C56.0159 56.5634 56.281 56.7992 56.4656 57.0951C56.6531 57.391 56.7468 57.7177 56.7468 58.0751H55.6526C55.6526 57.8641 55.6072 57.6781 55.5164 57.517C55.4285 57.3529 55.2937 57.224 55.1121 57.1302C54.9333 57.0365 54.7063 56.9896 54.4309 56.9896C54.1702 56.9896 53.9534 57.0292 53.7805 57.1083C53.6077 57.1874 53.4788 57.2943 53.3938 57.4291C53.3088 57.5638 53.2664 57.7162 53.2664 57.8861C53.2664 58.0062 53.2942 58.1161 53.3499 58.2157C53.4055 58.3124 53.4905 58.4032 53.6047 58.4882C53.719 58.5702 53.8625 58.6478 54.0354 58.7211C54.2083 58.7943 54.4119 58.8646 54.6462 58.932C55.0007 59.0375 55.3098 59.1547 55.5735 59.2836C55.8372 59.4095 56.0569 59.5531 56.2327 59.7142C56.4084 59.8754 56.5403 60.0585 56.6282 60.2635C56.7161 60.4657 56.76 60.6957 56.76 60.9535C56.76 61.223 56.7058 61.4662 56.5974 61.683C56.489 61.8969 56.3337 62.08 56.1316 62.2323C55.9324 62.3817 55.6921 62.4974 55.4109 62.5795C55.1326 62.6586 54.822 62.6981 54.4792 62.6981C54.1716 62.6981 53.8684 62.6571 53.5696 62.5751C53.2737 62.493 53.0042 62.3685 52.761 62.2015C52.5178 62.0316 52.3245 61.8207 52.1809 61.5687C52.0374 61.3138 51.9656 61.0165 51.9656 60.6766H53.0686C53.0686 60.8846 53.1038 61.0619 53.1741 61.2084C53.2473 61.3549 53.3484 61.475 53.4773 61.5687C53.6062 61.6595 53.7556 61.7269 53.9255 61.7709C54.0984 61.8148 54.283 61.8368 54.4792 61.8368C54.7371 61.8368 54.9524 61.8002 55.1252 61.7269C55.301 61.6537 55.4329 61.5511 55.5208 61.4193C55.6086 61.2875 55.6526 61.1351 55.6526 60.9623Z" fill="#9A4D49"/>
</g>
<defs>
<filter id="filter0_d_1088_21827" x="0.959961" y="0" width="82.48" height="82.48" filterUnits="userSpaceOnUse" color-interpolation-filters="sRGB">
<feFlood flood-opacity="0" result="BackgroundImageFix"/>
<feColorMatrix in="SourceAlpha" type="matrix" values="0 0 0 0 0 0 0 0 0 0 0 0 0 0 0 0 0 0 127 0" result="hardAlpha"/>
<feOffset dy="1"/>
<feGaussianBlur stdDeviation="4"/>
<feComposite in2="hardAlpha" operator="out"/>
<feColorMatrix type="matrix" values="0 0 0 0 0 0 0 0 0 0 0 0 0 0 0 0 0 0 0.1 0"/>
<feBlend mode="normal" in2="BackgroundImageFix" result="effect1_dropShadow_1088_21827"/>
<feBlend mode="normal" in="SourceGraphic" in2="effect1_dropShadow_1088_21827" result="shape"/>
</filter>
</defs>
</svg>
