<svg width="68" height="67" viewBox="0 0 68 67" fill="none" xmlns="http://www.w3.org/2000/svg">
<path d="M25.9827 15.9038C26.7774 15.9038 27.4215 15.2596 27.4215 14.465C27.4215 13.6704 26.7774 13.0262 25.9827 13.0262C25.1881 13.0262 24.5439 13.6704 24.5439 14.465C24.5439 15.2596 25.1881 15.9038 25.9827 15.9038Z" fill="#898989"/>
<path d="M29.34 22.1387C29.34 21.2483 28.9863 20.3944 28.3567 19.7648C27.7271 19.1352 26.8731 18.7815 25.9827 18.7815C25.0923 18.7815 24.2384 19.1352 23.6088 19.7648C22.9792 20.3944 22.6255 21.2483 22.6255 22.1387V23.3857C23.4916 23.7239 24.4134 23.8974 25.3432 23.8972H29.34V22.1387Z" fill="#898989"/>
<path d="M25.3432 8.86963C23.6814 8.86929 22.0663 9.42 20.7508 10.4355C19.4353 11.4511 18.4937 12.8742 18.0734 14.482C17.653 16.0898 17.7777 17.7916 18.4278 19.321C19.0779 20.8505 20.2168 22.1211 21.6662 22.9342V22.1387C21.6662 20.9939 22.121 19.896 22.9305 19.0865C23.74 18.277 24.8379 17.8222 25.9827 17.8222C27.1275 17.8222 28.2254 18.277 29.0349 19.0865C29.8444 19.896 30.2992 20.9939 30.2992 22.1387V23.8972H32.3775C32.5047 23.8972 32.6267 23.8467 32.7166 23.7568C32.8066 23.6668 32.8571 23.5448 32.8571 23.4176V16.3834C32.8549 14.3913 32.0626 12.4814 30.6539 11.0728C29.2453 9.66417 27.3354 8.87183 25.3432 8.86963ZM25.9827 16.863C25.5084 16.863 25.0448 16.7224 24.6504 16.4589C24.2561 16.1954 23.9487 15.8209 23.7672 15.3827C23.5857 14.9445 23.5382 14.4624 23.6307 13.9972C23.7233 13.532 23.9517 13.1047 24.287 12.7694C24.6224 12.434 25.0497 12.2056 25.5149 12.1131C25.9801 12.0205 26.4622 12.068 26.9004 12.2495C27.3386 12.431 27.7131 12.7384 27.9766 13.1327C28.2401 13.5271 28.3808 13.9907 28.3808 14.465C28.3801 15.1008 28.1272 15.7104 27.6776 16.1599C27.2281 16.6095 26.6185 16.8624 25.9827 16.863Z" fill="#898989"/>
<path d="M42.4173 15.9038C43.212 15.9038 43.8562 15.2596 43.8562 14.465C43.8562 13.6704 43.212 13.0262 42.4173 13.0262C41.6227 13.0262 40.9785 13.6704 40.9785 14.465C40.9785 15.2596 41.6227 15.9038 42.4173 15.9038Z" fill="#898989"/>
<path d="M45.7746 22.1387C45.7746 21.2483 45.4209 20.3944 44.7913 19.7648C44.1617 19.1352 43.3077 18.7815 42.4173 18.7815C41.5269 18.7815 40.673 19.1352 40.0434 19.7648C39.4138 20.3944 39.0601 21.2483 39.0601 22.1387V23.8972H43.0568C43.9867 23.8974 44.9084 23.7239 45.7746 23.3857V22.1387Z" fill="#898989"/>
<path d="M43.0568 8.86963C41.0647 8.87183 39.1548 9.66417 37.7461 11.0728C36.3375 12.4814 35.5451 14.3913 35.5429 16.3834V23.4176C35.5429 23.5448 35.5935 23.6668 35.6834 23.7568C35.7734 23.8467 35.8953 23.8972 36.0225 23.8972H38.1008V22.1387C38.1008 20.9939 38.5556 19.896 39.3651 19.0865C40.1746 18.277 41.2725 17.8222 42.4173 17.8222C43.5621 17.8222 44.6601 18.277 45.4696 19.0865C46.279 19.896 46.7338 20.9939 46.7338 22.1387V22.9342C48.1832 22.1211 49.3221 20.8505 49.9722 19.321C50.6224 17.7916 50.747 16.0898 50.3267 14.482C49.9063 12.8742 48.9647 11.4511 47.6492 10.4355C46.3338 9.42 44.7187 8.86929 43.0568 8.86963ZM42.4173 16.863C41.943 16.863 41.4794 16.7224 41.0851 16.4589C40.6907 16.1954 40.3833 15.8209 40.2018 15.3827C40.0203 14.9445 39.9728 14.4624 40.0654 13.9972C40.1579 13.532 40.3863 13.1047 40.7217 12.7694C41.057 12.434 41.4843 12.2056 41.9495 12.1131C42.4147 12.0205 42.8968 12.068 43.335 12.2495C43.7732 12.431 44.1477 12.7384 44.4112 13.1327C44.6747 13.5271 44.8154 13.9907 44.8154 14.465C44.8147 15.1008 44.5618 15.7104 44.1123 16.1599C43.6627 16.6095 43.0531 16.8624 42.4173 16.863Z" fill="#898989"/>
<path d="M41.9377 33.6172C42.7324 33.6172 43.3766 32.973 43.3766 32.1784C43.3766 31.3838 42.7324 30.7396 41.9377 30.7396C41.1431 30.7396 40.4989 31.3838 40.4989 32.1784C40.4989 32.973 41.1431 33.6172 41.9377 33.6172Z" fill="#898989"/>
<path d="M45.302 39.8521C45.302 38.9617 44.9483 38.1078 44.3187 37.4782C43.6891 36.8486 42.8352 36.4948 41.9448 36.4948C41.0544 36.4948 40.2004 36.8486 39.5708 37.4782C38.9412 38.1078 38.5875 38.9617 38.5875 39.8521V40.4596C39.5791 41.0828 40.7029 41.4653 41.8689 41.5763C43.0348 41.6874 44.2106 41.5239 45.302 41.099V39.8521Z" fill="#898989"/>
<path d="M42.5772 26.583H35.5429C35.4157 26.583 35.2937 26.6336 35.2038 26.7235C35.1139 26.8134 35.0633 26.9354 35.0633 27.0626V34.0968C35.063 35.1675 35.292 36.2257 35.7349 37.2005C36.1778 38.1752 36.8242 39.0438 37.6308 39.7478C37.6447 38.6031 38.1127 37.5106 38.932 36.7109C39.7512 35.9112 40.8546 35.4697 41.9994 35.4835C43.1442 35.4973 44.2367 35.9654 45.0364 36.7846C45.8361 37.6039 46.2776 38.7073 46.2638 39.8521V40.6431C47.7117 39.8286 48.8487 38.5572 49.4971 37.0277C50.1455 35.4983 50.2686 33.7971 49.8473 32.1902C49.426 30.5833 48.4839 29.1613 47.1685 28.1468C45.853 27.1323 44.2384 26.5823 42.5772 26.583ZM41.9377 34.5764C41.4634 34.5764 40.9998 34.4358 40.6054 34.1723C40.2111 33.9088 39.9037 33.5343 39.7222 33.0961C39.5407 32.6579 39.4932 32.1757 39.5858 31.7106C39.6783 31.2454 39.9067 30.8181 40.242 30.4827C40.5774 30.1474 41.0047 29.919 41.4699 29.8265C41.9351 29.7339 42.4172 29.7814 42.8554 29.9629C43.2936 30.1444 43.6681 30.4518 43.9316 30.8461C44.1951 31.2405 44.3358 31.7041 44.3358 32.1784C44.3351 32.8142 44.0822 33.4237 43.6327 33.8733C43.1831 34.3229 42.5735 34.5758 41.9377 34.5764Z" fill="#898989"/>
<path d="M25.9827 33.6172C26.7774 33.6172 27.4215 32.973 27.4215 32.1784C27.4215 31.3838 26.7774 30.7396 25.9827 30.7396C25.1881 30.7396 24.5439 31.3838 24.5439 32.1784C24.5439 32.973 25.1881 33.6172 25.9827 33.6172Z" fill="#898989"/>
<path d="M29.3329 39.8521C29.3329 38.9617 28.9792 38.1078 28.3496 37.4782C27.72 36.8486 26.8661 36.4948 25.9757 36.4948C25.0853 36.4948 24.2313 36.8486 23.6017 37.4782C22.9721 38.1078 22.6184 38.9617 22.6184 39.8521V41.099C23.7099 41.5239 24.8856 41.6874 26.0516 41.5763C27.2176 41.4653 28.3413 41.0828 29.3329 40.4596V39.8521Z" fill="#898989"/>
<path d="M32.3775 26.583H25.3432C23.6822 26.5829 22.068 27.1332 20.753 28.148C19.438 29.1627 18.4964 30.5847 18.0754 32.1914C17.6544 33.7982 17.7777 35.4991 18.4262 37.0283C19.0746 38.5575 20.2115 39.8287 21.6592 40.6431V39.8521C21.6454 38.7073 22.0869 37.6039 22.8866 36.7846C23.6863 35.9654 24.7788 35.4973 25.9236 35.4835C27.0684 35.4697 28.1718 35.9112 28.991 36.7109C29.8103 37.5106 30.2783 38.6031 30.2922 39.7478C31.0983 39.0436 31.7443 38.1749 32.1867 37.2001C32.6291 36.2254 32.8577 35.1673 32.8571 34.0968V27.0626C32.8571 26.9354 32.8066 26.8134 32.7166 26.7235C32.6267 26.6335 32.5047 26.583 32.3775 26.583ZM25.9827 34.5764C25.5084 34.5764 25.0448 34.4358 24.6504 34.1723C24.2561 33.9088 23.9487 33.5343 23.7672 33.0961C23.5857 32.6579 23.5382 32.1757 23.6307 31.7106C23.7233 31.2454 23.9517 30.8181 24.287 30.4827C24.6224 30.1474 25.0497 29.919 25.5149 29.8265C25.9801 29.7339 26.4622 29.7814 26.9004 29.9629C27.3386 30.1444 27.7131 30.4518 27.9766 30.8461C28.2401 31.2405 28.3808 31.7041 28.3808 32.1784C28.3801 32.8142 28.1272 33.4237 27.6776 33.8733C27.2281 34.3229 26.6185 34.5758 25.9827 34.5764Z" fill="#898989"/>
<path d="M22.5027 49.2117V55.6101H21.4084V49.2117H22.5027ZM24.511 49.2117V50.0906H19.4177V49.2117H24.511ZM29.5427 54.7356V55.6101H26.1458V54.7356H29.5427ZM26.4578 49.2117V55.6101H25.3547V49.2117H26.4578ZM29.0989 51.8835V52.7449H26.1458V51.8835H29.0989ZM29.5208 49.2117V50.0906H26.1458V49.2117H29.5208ZM32.9353 50.0642L31.0237 55.6101H29.8679L32.2761 49.2117H33.0144L32.9353 50.0642ZM34.5349 55.6101L32.6189 50.0642L32.5354 49.2117H33.2781L35.6951 55.6101H34.5349ZM34.4426 53.2371V54.1116H30.9622V53.2371H34.4426ZM36.8596 49.2117H37.844L39.6941 54.1467L41.5398 49.2117H42.5242L40.0808 55.6101H39.2986L36.8596 49.2117ZM36.4114 49.2117H37.3474L37.51 53.4832V55.6101H36.4114V49.2117ZM42.0364 49.2117H42.9768V55.6101H41.8738V53.4832L42.0364 49.2117ZM47.6526 53.9622C47.6526 53.8303 47.6321 53.7131 47.5911 53.6106C47.553 53.5081 47.4841 53.4143 47.3845 53.3293C47.2849 53.2444 47.1443 53.1624 46.9626 53.0833C46.7839 53.0012 46.5554 52.9177 46.2771 52.8328C45.9724 52.739 45.6912 52.635 45.4333 52.5208C45.1785 52.4036 44.9558 52.2688 44.7654 52.1165C44.575 51.9612 44.427 51.7839 44.3215 51.5847C44.2161 51.3826 44.1633 51.1497 44.1633 50.886C44.1633 50.6252 44.2175 50.3879 44.3259 50.1741C44.4373 49.9602 44.594 49.7756 44.7961 49.6204C45.0012 49.4622 45.2429 49.3406 45.5212 49.2556C45.7996 49.1677 46.1072 49.1238 46.4441 49.1238C46.9187 49.1238 47.3274 49.2117 47.6702 49.3875C48.0159 49.5632 48.281 49.7991 48.4656 50.095C48.6531 50.3909 48.7468 50.7175 48.7468 51.075H47.6526C47.6526 50.864 47.6072 50.678 47.5164 50.5168C47.4285 50.3528 47.2937 50.2239 47.1121 50.1301C46.9333 50.0364 46.7063 49.9895 46.4309 49.9895C46.1702 49.9895 45.9534 50.0291 45.7805 50.1082C45.6077 50.1873 45.4788 50.2942 45.3938 50.429C45.3088 50.5637 45.2664 50.7161 45.2664 50.886C45.2664 51.0061 45.2942 51.116 45.3499 51.2156C45.4055 51.3123 45.4905 51.4031 45.6047 51.488C45.719 51.5701 45.8625 51.6477 46.0354 51.7209C46.2083 51.7942 46.4119 51.8645 46.6462 51.9319C47.0007 52.0374 47.3098 52.1545 47.5735 52.2834C47.8372 52.4094 48.0569 52.553 48.2327 52.7141C48.4084 52.8752 48.5403 53.0583 48.6282 53.2634C48.7161 53.4656 48.76 53.6956 48.76 53.9534C48.76 54.2229 48.7058 54.4661 48.5974 54.6829C48.489 54.8967 48.3337 55.0798 48.1316 55.2322C47.9324 55.3816 47.6921 55.4973 47.4109 55.5793C47.1326 55.6584 46.822 55.698 46.4792 55.698C46.1716 55.698 45.8684 55.657 45.5696 55.575C45.2737 55.4929 45.0042 55.3684 44.761 55.2014C44.5178 55.0315 44.3245 54.8206 44.1809 54.5686C44.0374 54.3137 43.9656 54.0164 43.9656 53.6765H45.0686C45.0686 53.8845 45.1038 54.0618 45.1741 54.2083C45.2473 54.3547 45.3484 54.4749 45.4773 54.5686C45.6062 54.6594 45.7556 54.7268 45.9255 54.7708C46.0984 54.8147 46.283 54.8367 46.4792 54.8367C46.7371 54.8367 46.9524 54.8 47.1252 54.7268C47.301 54.6536 47.4329 54.551 47.5208 54.4192C47.6086 54.2874 47.6526 54.135 47.6526 53.9622Z" fill="#898989"/>
</svg>
