<svg width="4" height="17" viewBox="0 0 4 17" fill="none" xmlns="http://www.w3.org/2000/svg">
<path d="M1.87977 2.99C2.36025 2.99 2.74977 2.60049 2.74977 2.12C2.74977 1.63951 2.36025 1.25 1.87977 1.25C1.39928 1.25 1.00977 1.63951 1.00977 2.12C1.00977 2.60049 1.39928 2.99 1.87977 2.99Z" stroke="black" stroke-width="1.5" stroke-linecap="round" stroke-linejoin="round"/>
<path d="M1.87977 9.37C2.36025 9.37 2.74977 8.98049 2.74977 8.5C2.74977 8.01951 2.36025 7.63 1.87977 7.63C1.39928 7.63 1.00977 8.01951 1.00977 8.5C1.00977 8.98049 1.39928 9.37 1.87977 9.37Z" stroke="black" stroke-width="1.5" stroke-linecap="round" stroke-linejoin="round"/>
<path d="M1.87977 15.75C2.36025 15.75 2.74977 15.3605 2.74977 14.88C2.74977 14.3995 2.36025 14.01 1.87977 14.01C1.39928 14.01 1.00977 14.3995 1.00977 14.88C1.00977 15.3605 1.39928 15.75 1.87977 15.75Z" stroke="black" stroke-width="1.5" stroke-linecap="round" stroke-linejoin="round"/>
</svg>
