<svg width="67" height="67" viewBox="0 0 67 67" fill="none" xmlns="http://www.w3.org/2000/svg">
<path d="M52.2571 37.5363C52.2571 37.9832 52.0795 38.4118 51.7635 38.7279C51.4474 39.0439 51.0188 39.2214 50.5719 39.2214H30.3496C29.9026 39.2214 29.474 39.0439 29.158 38.7279C28.8419 38.4118 28.6644 37.9832 28.6644 37.5363C28.6644 34.8547 29.7297 29.2829 31.6259 27.3867C33.5221 25.4905 36.0939 24.4252 38.7755 24.4252H42.1459C44.8276 24.4252 47.3994 25.4905 49.2956 27.3867C51.1918 29.2829 52.2571 34.8547 52.2571 37.5363ZM40.4607 9.25867C39.1275 9.25867 37.8243 9.654 36.7158 10.3947C35.6072 11.1354 34.7433 12.1881 34.2331 13.4198C33.7229 14.6515 33.5894 16.0068 33.8495 17.3144C34.1096 18.622 34.7516 19.823 35.6943 20.7658C36.637 21.7085 37.8381 22.3504 39.1457 22.6105C40.4533 22.8706 41.8086 22.7371 43.0403 22.227C44.272 21.7168 45.3248 20.8528 46.0655 19.7443C46.8062 18.6358 47.2015 17.3325 47.2015 15.9994C47.2015 14.2116 46.4913 12.4971 45.2272 11.233C43.963 9.96884 42.2485 9.25867 40.4607 9.25867ZM25.294 9.25867C23.9608 9.25867 22.6576 9.654 21.549 10.3947C20.4405 11.1354 19.5765 12.1881 19.0664 13.4198C18.5562 14.6515 18.4227 16.0068 18.6828 17.3144C18.9429 18.622 19.5849 19.823 20.5276 20.7658C21.4703 21.7085 22.6714 22.3504 23.9789 22.6105C25.2865 22.8706 26.6419 22.7371 27.8736 22.227C29.1053 21.7168 30.1581 20.8528 30.8987 19.7443C31.6394 18.6358 32.0348 17.3325 32.0348 15.9994C32.0348 14.2116 31.3246 12.4971 30.0604 11.233C28.7963 9.96884 27.0818 9.25867 25.294 9.25867ZM25.294 37.5363C25.2915 35.7662 25.6402 31.0132 26.32 29.3788C26.9998 27.7445 27.9971 26.2612 29.2542 25.015C28.2255 24.6266 27.1351 24.4268 26.0355 24.4252H24.5525C22.0689 24.4297 19.6883 25.4183 17.9321 27.1744C16.1759 28.9306 15.1873 34.3112 15.1829 36.7948V37.5363C15.1829 37.9832 15.3604 38.4118 15.6764 38.7279C15.9925 39.0439 16.4211 39.2214 16.8681 39.2214H25.5973C25.4011 38.6811 25.2986 38.1112 25.294 37.5363Z" fill="#898989"/>
<path d="M26.9129 48.823H28.0115V53.0989C28.0115 53.5852 27.9061 53.9924 27.6951 54.3206C27.4842 54.6487 27.1971 54.8962 26.8338 55.0632C26.4735 55.2273 26.0706 55.3093 25.6253 55.3093C25.1653 55.3093 24.7552 55.2273 24.3948 55.0632C24.0345 54.8962 23.7503 54.6487 23.5423 54.3206C23.3372 53.9924 23.2347 53.5852 23.2347 53.0989V48.823H24.3333V53.0989C24.3333 53.4065 24.3861 53.6599 24.4915 53.8591C24.597 54.0554 24.7464 54.2004 24.9398 54.2942C25.1331 54.3879 25.3616 54.4348 25.6253 54.4348C25.889 54.4348 26.116 54.3879 26.3065 54.2942C26.4998 54.2004 26.6492 54.0554 26.7547 53.8591C26.8602 53.6599 26.9129 53.4065 26.9129 53.0989V48.823ZM32.5775 53.5735C32.5775 53.4417 32.557 53.3245 32.5159 53.2219C32.4778 53.1194 32.409 53.0256 32.3094 52.9407C32.2098 52.8557 32.0692 52.7737 31.8875 52.6946C31.7088 52.6125 31.4803 52.5291 31.202 52.4441C30.8973 52.3503 30.616 52.2463 30.3582 52.1321C30.1033 52.0149 29.8807 51.8801 29.6903 51.7278C29.4998 51.5725 29.3519 51.3953 29.2464 51.196C29.1409 50.9939 29.0882 50.761 29.0882 50.4973C29.0882 50.2366 29.1424 49.9993 29.2508 49.7854C29.3621 49.5715 29.5189 49.387 29.721 49.2317C29.9261 49.0735 30.1678 48.9519 30.4461 48.8669C30.7244 48.7791 31.032 48.7351 31.369 48.7351C31.8436 48.7351 32.2523 48.823 32.595 48.9988C32.9407 49.1746 33.2059 49.4104 33.3904 49.7063C33.5779 50.0022 33.6717 50.3289 33.6717 50.6863H32.5775C32.5775 50.4753 32.532 50.2893 32.4412 50.1282C32.3533 49.9641 32.2186 49.8352 32.0369 49.7415C31.8582 49.6477 31.6312 49.6008 31.3558 49.6008C31.095 49.6008 30.8782 49.6404 30.7054 49.7195C30.5325 49.7986 30.4036 49.9055 30.3187 50.0403C30.2337 50.175 30.1912 50.3274 30.1912 50.4973C30.1912 50.6174 30.2191 50.7273 30.2747 50.8269C30.3304 50.9236 30.4153 51.0144 30.5296 51.0994C30.6439 51.1814 30.7874 51.259 30.9603 51.3323C31.1331 51.4055 31.3367 51.4758 31.5711 51.5432C31.9256 51.6487 32.2347 51.7659 32.4984 51.8948C32.762 52.0208 32.9818 52.1643 33.1575 52.3254C33.3333 52.4866 33.4652 52.6697 33.553 52.8748C33.6409 53.0769 33.6849 53.3069 33.6849 53.5647C33.6849 53.8342 33.6307 54.0774 33.5223 54.2942C33.4139 54.5081 33.2586 54.6912 33.0565 54.8435C32.8572 54.9929 32.617 55.1086 32.3358 55.1907C32.0574 55.2698 31.7469 55.3093 31.4041 55.3093C31.0965 55.3093 30.7933 55.2683 30.4945 55.1863C30.1986 55.1042 29.929 54.9797 29.6859 54.8127C29.4427 54.6428 29.2493 54.4319 29.1058 54.1799C28.9622 53.925 28.8904 53.6277 28.8904 53.2878H29.9935C29.9935 53.4958 30.0286 53.6731 30.0989 53.8196C30.1722 53.9661 30.2733 54.0862 30.4022 54.1799C30.5311 54.2708 30.6805 54.3381 30.8504 54.3821C31.0233 54.426 31.2078 54.448 31.4041 54.448C31.6619 54.448 31.8773 54.4114 32.0501 54.3381C32.2259 54.2649 32.3577 54.1624 32.4456 54.0305C32.5335 53.8987 32.5775 53.7463 32.5775 53.5735ZM38.8485 54.3469V55.2214H35.4515V54.3469H38.8485ZM35.7635 48.823V55.2214H34.6605V48.823H35.7635ZM38.4046 51.4949V52.3562H35.4515V51.4949H38.4046ZM38.8265 48.823V49.7019H35.4515V48.823H38.8265ZM39.7493 48.823H42.0125C42.4988 48.823 42.9134 48.8962 43.2562 49.0427C43.5989 49.1892 43.8612 49.406 44.0428 49.6931C44.2274 49.9773 44.3196 50.3289 44.3196 50.7478C44.3196 51.0671 44.2611 51.3484 44.1439 51.5916C44.0267 51.8347 43.8612 52.0398 43.6473 52.2068C43.4334 52.3708 43.1785 52.4983 42.8826 52.5891L42.5487 52.7517H40.514L40.5052 51.8772H42.0301C42.2938 51.8772 42.5135 51.8303 42.6893 51.7366C42.8651 51.6428 42.9969 51.5154 43.0848 51.3542C43.1756 51.1902 43.221 51.0056 43.221 50.8005C43.221 50.5779 43.1771 50.3845 43.0892 50.2205C43.0042 50.0535 42.8724 49.926 42.6937 49.8381C42.515 49.7473 42.2879 49.7019 42.0125 49.7019H40.8524V55.2214H39.7493V48.823ZM43.4012 55.2214L41.8983 52.3474L43.054 52.343L44.5789 55.1643V55.2214H43.4012Z" fill="#898989"/>
</svg>
