<svg width="83" height="83" viewBox="0 0 83 83" fill="none" xmlns="http://www.w3.org/2000/svg">
<g filter="url(#filter0_d_1088_22392)">
<rect x="8.47998" y="7" width="66.48" height="66.48" rx="7.56" fill="white" shape-rendering="crispEdges"/>
<path d="M60.2571 44.5361C60.2571 44.9831 60.0795 45.4117 59.7635 45.7277C59.4474 46.0438 59.0188 46.2213 58.5719 46.2213H38.3496C37.9026 46.2213 37.474 46.0438 37.158 45.7277C36.8419 45.4117 36.6644 44.9831 36.6644 44.5361C36.6644 41.8545 37.7297 36.2828 39.6259 34.3866C41.5221 32.4904 44.0939 31.4251 46.7755 31.4251H50.1459C52.8276 31.4251 55.3994 32.4904 57.2956 34.3866C59.1918 36.2828 60.2571 41.8545 60.2571 44.5361ZM48.4607 16.2585C47.1275 16.2585 45.8243 16.6539 44.7158 17.3946C43.6072 18.1352 42.7433 19.188 42.2331 20.4197C41.7229 21.6514 41.5894 23.0067 41.8495 24.3143C42.1096 25.6219 42.7516 26.8229 43.6943 27.7656C44.637 28.7083 45.8381 29.3503 47.1457 29.6104C48.4533 29.8705 49.8086 29.737 51.0403 29.2268C52.272 28.7166 53.3248 27.8527 54.0655 26.7442C54.8062 25.6357 55.2015 24.3324 55.2015 22.9992C55.2015 21.2115 54.4913 19.497 53.2272 18.2328C51.963 16.9687 50.2485 16.2585 48.4607 16.2585ZM33.294 16.2585C31.9608 16.2585 30.6576 16.6539 29.549 17.3946C28.4405 18.1352 27.5765 19.188 27.0664 20.4197C26.5562 21.6514 26.4227 23.0067 26.6828 24.3143C26.9429 25.6219 27.5849 26.8229 28.5276 27.7656C29.4703 28.7083 30.6714 29.3503 31.9789 29.6104C33.2865 29.8705 34.6419 29.737 35.8736 29.2268C37.1053 28.7166 38.1581 27.8527 38.8987 26.7442C39.6394 25.6357 40.0348 24.3324 40.0348 22.9992C40.0348 21.2115 39.3246 19.497 38.0604 18.2328C36.7963 16.9687 35.0818 16.2585 33.294 16.2585ZM33.294 44.5361C33.2915 42.7661 33.6402 38.0131 34.32 36.3787C34.9998 34.7443 35.9971 33.2611 37.2542 32.0149C36.2255 31.6265 35.1351 31.4267 34.0355 31.4251H32.5525C30.0689 31.4296 27.6883 32.4181 25.9321 34.1743C24.1759 35.9305 23.1873 41.3111 23.1829 43.7947V44.5361C23.1829 44.9831 23.3604 45.4117 23.6764 45.7277C23.9925 46.0438 24.4211 46.2213 24.8681 46.2213H33.5973C33.4011 45.6809 33.2986 45.111 33.294 44.5361Z" fill="#9A4D49"/>
<path d="M34.9129 55.823H36.0115V60.0989C36.0115 60.5852 35.9061 60.9924 35.6951 61.3206C35.4842 61.6487 35.1971 61.8962 34.8338 62.0632C34.4735 62.2273 34.0706 62.3093 33.6253 62.3093C33.1653 62.3093 32.7552 62.2273 32.3948 62.0632C32.0345 61.8962 31.7503 61.6487 31.5423 61.3206C31.3372 60.9924 31.2347 60.5852 31.2347 60.0989V55.823H32.3333V60.0989C32.3333 60.4065 32.3861 60.6599 32.4915 60.8591C32.597 61.0554 32.7464 61.2004 32.9398 61.2942C33.1331 61.3879 33.3616 61.4348 33.6253 61.4348C33.889 61.4348 34.116 61.3879 34.3065 61.2942C34.4998 61.2004 34.6492 61.0554 34.7547 60.8591C34.8602 60.6599 34.9129 60.4065 34.9129 60.0989V55.823ZM40.5775 60.5735C40.5775 60.4417 40.557 60.3245 40.5159 60.2219C40.4778 60.1194 40.409 60.0256 40.3094 59.9407C40.2098 59.8557 40.0692 59.7737 39.8875 59.6946C39.7088 59.6125 39.4803 59.5291 39.202 59.4441C38.8973 59.3503 38.616 59.2463 38.3582 59.1321C38.1033 59.0149 37.8807 58.8801 37.6903 58.7278C37.4998 58.5725 37.3519 58.3953 37.2464 58.196C37.1409 57.9939 37.0882 57.761 37.0882 57.4973C37.0882 57.2366 37.1424 56.9993 37.2508 56.7854C37.3621 56.5715 37.5189 56.387 37.721 56.2317C37.9261 56.0735 38.1678 55.9519 38.4461 55.8669C38.7244 55.7791 39.032 55.7351 39.369 55.7351C39.8436 55.7351 40.2523 55.823 40.595 55.9988C40.9407 56.1746 41.2059 56.4104 41.3904 56.7063C41.5779 57.0022 41.6717 57.3289 41.6717 57.6863H40.5775C40.5775 57.4753 40.532 57.2893 40.4412 57.1282C40.3533 56.9641 40.2186 56.8352 40.0369 56.7415C39.8582 56.6477 39.6312 56.6008 39.3558 56.6008C39.095 56.6008 38.8782 56.6404 38.7054 56.7195C38.5325 56.7986 38.4036 56.9055 38.3187 57.0403C38.2337 57.175 38.1912 57.3274 38.1912 57.4973C38.1912 57.6174 38.2191 57.7273 38.2747 57.8269C38.3304 57.9236 38.4153 58.0144 38.5296 58.0994C38.6439 58.1814 38.7874 58.259 38.9603 58.3323C39.1331 58.4055 39.3367 58.4758 39.5711 58.5432C39.9256 58.6487 40.2347 58.7659 40.4984 58.8948C40.762 59.0208 40.9818 59.1643 41.1575 59.3254C41.3333 59.4866 41.4652 59.6697 41.553 59.8748C41.6409 60.0769 41.6849 60.3069 41.6849 60.5647C41.6849 60.8342 41.6307 61.0774 41.5223 61.2942C41.4139 61.5081 41.2586 61.6912 41.0565 61.8435C40.8572 61.9929 40.617 62.1086 40.3358 62.1907C40.0574 62.2698 39.7469 62.3093 39.4041 62.3093C39.0965 62.3093 38.7933 62.2683 38.4945 62.1863C38.1986 62.1042 37.929 61.9797 37.6859 61.8127C37.4427 61.6428 37.2493 61.4319 37.1058 61.1799C36.9622 60.925 36.8904 60.6277 36.8904 60.2878H37.9935C37.9935 60.4958 38.0286 60.6731 38.0989 60.8196C38.1722 60.9661 38.2733 61.0862 38.4022 61.1799C38.5311 61.2708 38.6805 61.3381 38.8504 61.3821C39.0233 61.426 39.2078 61.448 39.4041 61.448C39.6619 61.448 39.8773 61.4114 40.0501 61.3381C40.2259 61.2649 40.3577 61.1624 40.4456 61.0305C40.5335 60.8987 40.5775 60.7463 40.5775 60.5735ZM46.8485 61.3469V62.2214H43.4515V61.3469H46.8485ZM43.7635 55.823V62.2214H42.6605V55.823H43.7635ZM46.4046 58.4949V59.3562H43.4515V58.4949H46.4046ZM46.8265 55.823V56.7019H43.4515V55.823H46.8265ZM47.7493 55.823H50.0125C50.4988 55.823 50.9134 55.8962 51.2562 56.0427C51.5989 56.1892 51.8612 56.406 52.0428 56.6931C52.2274 56.9773 52.3196 57.3289 52.3196 57.7478C52.3196 58.0671 52.2611 58.3484 52.1439 58.5916C52.0267 58.8347 51.8612 59.0398 51.6473 59.2068C51.4334 59.3708 51.1785 59.4983 50.8826 59.5891L50.5487 59.7517H48.514L48.5052 58.8772H50.0301C50.2938 58.8772 50.5135 58.8303 50.6893 58.7366C50.8651 58.6428 50.9969 58.5154 51.0848 58.3542C51.1756 58.1902 51.221 58.0056 51.221 57.8005C51.221 57.5779 51.1771 57.3845 51.0892 57.2205C51.0042 57.0535 50.8724 56.926 50.6937 56.8381C50.515 56.7473 50.2879 56.7019 50.0125 56.7019H48.8524V62.2214H47.7493V55.823ZM51.4012 62.2214L49.8983 59.3474L51.054 59.343L52.5789 62.1643V62.2214H51.4012Z" fill="#9A4D49"/>
</g>
<defs>
<filter id="filter0_d_1088_22392" x="0.47998" y="0" width="82.48" height="82.48" filterUnits="userSpaceOnUse" color-interpolation-filters="sRGB">
<feFlood flood-opacity="0" result="BackgroundImageFix"/>
<feColorMatrix in="SourceAlpha" type="matrix" values="0 0 0 0 0 0 0 0 0 0 0 0 0 0 0 0 0 0 127 0" result="hardAlpha"/>
<feOffset dy="1"/>
<feGaussianBlur stdDeviation="4"/>
<feComposite in2="hardAlpha" operator="out"/>
<feColorMatrix type="matrix" values="0 0 0 0 0 0 0 0 0 0 0 0 0 0 0 0 0 0 0.1 0"/>
<feBlend mode="normal" in2="BackgroundImageFix" result="effect1_dropShadow_1088_22392"/>
<feBlend mode="normal" in="SourceGraphic" in2="effect1_dropShadow_1088_22392" result="shape"/>
</filter>
</defs>
</svg>
