<svg width="20" height="20" viewBox="0 0 20 20" fill="none" xmlns="http://www.w3.org/2000/svg">
<path d="M3.33325 5.83341C3.33325 3.53223 5.19873 1.66675 7.49992 1.66675C9.80108 1.66675 11.6666 3.53223 11.6666 5.83341C11.6666 8.1346 9.80108 10.0001 7.49992 10.0001C5.19873 10.0001 3.33325 8.1346 3.33325 5.83341Z" fill="white"/>
<path d="M16.6667 6.66683C16.6667 6.2066 16.2936 5.8335 15.8333 5.8335C15.3731 5.8335 15 6.2066 15 6.66683V8.3335H13.3333C12.8731 8.3335 12.5 8.70658 12.5 9.16683C12.5 9.62708 12.8731 10.0002 13.3333 10.0002H15V11.6668C15 12.1271 15.3731 12.5002 15.8333 12.5002C16.2936 12.5002 16.6667 12.1271 16.6667 11.6668V10.0002H18.3333C18.7936 10.0002 19.1667 9.62708 19.1667 9.16683C19.1667 8.70658 18.7936 8.3335 18.3333 8.3335H16.6667V6.66683Z" fill="white"/>
<path d="M4.99992 11.6667C3.89485 11.6667 2.83504 12.1057 2.05364 12.8872C1.27224 13.6685 0.833252 14.7283 0.833252 15.8334V17.5001C0.833252 17.9603 1.20635 18.3334 1.66659 18.3334H13.3333C13.7935 18.3334 14.1666 17.9603 14.1666 17.5001V15.8334C14.1666 14.7283 13.7276 13.6685 12.9462 12.8872C12.1648 12.1057 11.105 11.6667 9.99992 11.6667H4.99992Z" fill="white"/>
</svg>
