<svg width="15" height="10" viewBox="0 0 15 10" fill="none" xmlns="http://www.w3.org/2000/svg">
<path d="M7.49971 7.1586C8.77509 7.1586 9.80899 6.1247 9.80899 4.84932C9.80899 3.57394 8.77509 2.54004 7.49971 2.54004C6.22433 2.54004 5.19043 3.57394 5.19043 4.84932C5.19043 6.1247 6.22433 7.1586 7.49971 7.1586Z" fill="#898989"/>
<path d="M14.7699 4.20982C12.9949 2.06479 10.3079 0 7.50004 0C4.69166 0 2.00404 2.06623 0.230134 4.20982C-0.0767114 4.58046 -0.0767114 5.11852 0.230134 5.48916C0.676114 6.02809 1.61108 7.06842 2.85983 7.97741C6.00475 10.2668 8.9884 10.2719 12.1402 7.97741C13.389 7.06842 14.324 6.02809 14.7699 5.48916C15.0759 5.11924 15.0775 4.58167 14.7699 4.20982ZM7.50004 1.6165C9.2828 1.6165 10.733 3.06672 10.733 4.84949C10.733 6.63225 9.2828 8.08248 7.50004 8.08248C5.71727 8.08248 4.26704 6.63225 4.26704 4.84949C4.26704 3.06672 5.71727 1.6165 7.50004 1.6165Z" fill="#898989"/>
</svg>
