<svg width="15" height="15" viewBox="0 0 15 15" fill="none" xmlns="http://www.w3.org/2000/svg">
<path d="M8.91658 0.111671C12.6114 0.822218 15.122 4.02284 14.9957 7.82742C14.8796 11.3359 12.0414 14.3945 8.46656 14.8326C7.03089 15.0139 5.57338 14.7782 4.26802 14.1537C4.05928 14.0628 3.82721 14.0402 3.60484 14.0889C2.53428 14.3455 1.47241 14.6368 0.40738 14.9139C0.290535 14.9439 0.170531 14.9645 0 15C0.319746 13.83 0.618176 12.7073 0.937133 11.5894C1.01845 11.3067 0.995555 11.0809 0.865288 10.8038C-0.378169 8.16296 -0.270008 5.57183 1.42425 3.17729C3.12246 0.775638 5.51937 -0.249129 8.46656 0.0508796C8.60551 0.0643011 8.74368 0.0840384 8.91658 0.111671ZM13.5857 8.79929C13.7972 7.934 13.8225 7.05687 13.6157 6.19553C12.9935 3.59967 11.3782 1.91725 8.75236 1.38513C6.17623 0.864061 4.01301 1.73251 2.48691 3.86257C0.958449 5.99579 0.92529 8.28375 2.18691 10.5757C2.34875 10.8701 2.39218 11.1125 2.29349 11.4267C2.11348 12.0015 1.97374 12.5889 1.79768 13.241C2.52797 13.0515 3.16825 12.8699 3.81722 12.7278C4.00117 12.6876 4.24197 12.7089 4.40302 12.7973C8.1105 14.8382 12.5175 12.9552 13.5857 8.79929Z" fill="#9A4D49"/>
<path d="M5.7199 4.46654C5.86122 4.80365 5.95675 5.12971 6.12255 5.4163C6.3594 5.82526 6.28755 6.16869 5.9607 6.45686C5.60938 6.76634 5.66148 7.02924 5.91333 7.38451C6.49361 8.20243 7.22232 8.81587 8.14208 9.21773C8.39472 9.32826 8.58657 9.3472 8.74999 9.09378C8.81789 8.98956 8.91263 8.9043 8.99158 8.8064C9.45186 8.23322 9.30738 8.23796 10.0369 8.55455C10.2666 8.65482 10.4964 8.7614 10.7087 8.89245C10.9219 9.02272 11.2456 9.15693 11.2866 9.34247C11.3798 9.75301 11.2487 10.1699 10.9061 10.4746C10.2745 11.0367 9.54817 11.1299 8.75473 10.9104C7.03836 10.4367 5.71833 9.40721 4.70698 7.98137C4.35013 7.47846 4.03117 6.92029 3.83064 6.3408C3.58747 5.63499 3.75958 4.95444 4.2617 4.35679C4.55776 4.00547 4.91699 3.92652 5.30779 4.02047C5.4649 4.05837 5.57464 4.29206 5.7199 4.46654Z" fill="#9A4D49"/>
</svg>
